<?xml version="1.0" encoding="UTF-8"?>
<svg width="16px" height="16px" viewBox="0 0 16 16" version="1.1" xmlns="http://www.w3.org/2000/svg" xmlns:xlink="http://www.w3.org/1999/xlink">
    <!-- Generator: Sketch 55 (78076) - https://sketchapp.com -->
    <title>Icons/16x16/Flora</title>
    <desc>Created with Sketch.</desc>
    <g id="Icons" stroke="none" stroke-width="1" fill="none" fill-rule="evenodd">
        <g id="Icons-for-Assets" transform="translate(-80.000000, -159.000000)" fill="#00FF72">
            <g id="Icons/16x16/Flora" transform="translate(80.000000, 159.000000)">
                <path d="M16,6 C16,6 13.092,9.646 12.239,13.823 C10.803,9.12 10.414,3.447 13,0 C13,0 10.863,2.588 9.385,7.175 C10.063,9.21 10.13,12.047 9,16 L15,16 C14,14 14,9 16,6 M8.126,10.281 C8.089,10.166 8.055,10.049 8.016,9.937 C7.917,9.648 7.811,9.371 7.701,9.101 C7.658,8.996 7.615,8.893 7.572,8.791 C7.455,8.519 7.334,8.252 7.209,7.997 C7.177,7.932 7.143,7.87 7.11,7.806 C6.506,6.622 5.82,5.634 5.15,4.829 C5.12,4.793 5.09,4.756 5.06,4.721 C4.906,4.54 4.754,4.368 4.604,4.207 C4.571,4.171 4.539,4.137 4.506,4.102 C4.355,3.942 4.205,3.788 4.062,3.647 C4.056,3.642 4.05,3.637 4.044,3.631 C3.584,3.185 3.17,2.839 2.833,2.579 C2.801,2.555 2.766,2.526 2.735,2.504 C2.65,2.44 2.575,2.386 2.504,2.335 C2.464,2.306 2.422,2.276 2.387,2.252 C2.331,2.214 2.278,2.178 2.234,2.148 C2.196,2.123 2.161,2.101 2.133,2.082 C2.107,2.066 2.076,2.046 2.059,2.035 L2,2 C4.417,4.417 5.513,7.495 5.333,11.211 C5.367,11.991 5.374,12.774 5.319,13.553 C5.265,13.411 5.192,13.282 5.132,13.144 C5.087,13.43 5.059,13.707 5,14 C5,13.608 4.947,13.111 4.858,12.55 C3.413,9.703 0.943,7.685 0,7 C1.815,8.487 3.917,13.248 3,16 L9,16 C9,14.211 8.77,12.622 8.401,11.206 C8.318,10.886 8.223,10.583 8.126,10.281" id="Page-1"></path>
            </g>
        </g>
    </g>
</svg>