<?xml version="1.0" encoding="UTF-8"?>
<svg width="16px" height="16px" viewBox="0 0 16 16" version="1.1" xmlns="http://www.w3.org/2000/svg" xmlns:xlink="http://www.w3.org/1999/xlink">
    <!-- Generator: Sketch 55 (78076) - https://sketchapp.com -->
    <title>Icons/16x16/Flora Grosstype</title>
    <desc>Created with Sketch.</desc>
    <g id="Icons" stroke="none" stroke-width="1" fill="none" fill-rule="evenodd">
        <g id="Icons-for-Assets" transform="translate(-272.000000, -159.000000)" fill="#00FF72">
            <g id="Icons/16x16/Flora-Grosstype" transform="translate(272.000000, 159.000000)">
                <path d="M11,8.23053228 C11,9.93425246 9.656,11.3169819 8,11.3169819 C6.3425,11.3169819 5,9.93425246 5,8.23053228 C5,6.52526887 6.3425,5.14408267 8,5.14408267 C9.656,5.14408267 11,6.52526887 11,8.23053228 Z M2.46241166,10.3231604 C2.44456975,10.3485765 2.41849311,10.3683445 2.39927875,10.3951726 C1.28621815,11.9723809 1.62658686,14.179343 3.15961854,15.3258902 C4.69127776,16.4710253 6.83916906,16.1222603 7.9508572,14.545052 C7.97007157,14.5182239 7.9810512,14.4885718 8.00026557,14.4603318 C8.01810747,14.4885718 8.02908711,14.5182239 8.04830147,14.545052 C9.15998962,16.1222603 11.3078809,16.4710253 12.8395401,15.3258902 C14.3725718,14.179343 14.7129405,11.9723809 13.5998799,10.3951726 C13.5806656,10.3683445 13.5545889,10.3485765 13.536747,10.3231604 C13.566941,10.3132764 13.5985075,10.3118644 13.6287015,10.3019803 C15.4307342,9.69905468 16.4161566,7.7081292 15.8314909,5.8541681 C15.2454529,4.000207 13.310292,2.98497621 11.5082593,3.58790187 C11.4780653,3.59778589 11.4519886,3.61614195 11.4217946,3.62602597 C11.4231671,3.59354988 11.4314018,3.5624858 11.4314018,3.53000971 C11.4314018,1.58003235 9.89425278,0 8.00026557,0 C6.1049059,0 4.56912931,1.58003235 4.56912931,3.53000971 C4.56912931,3.5624858 4.57599159,3.59354988 4.57736404,3.62602597 C4.54717004,3.61614195 4.52109341,3.59778589 4.49089941,3.58790187 C2.68886665,2.98497621 0.753705802,4.000207 0.169040185,5.8541681 C-0.416997887,7.7081292 0.569796899,9.69905468 2.3704572,10.3019803 C2.4006512,10.3118644 2.43221766,10.3132764 2.46241166,10.3231604 Z" id="Fill-1-Copy-3"></path>
            </g>
        </g>
    </g>
</svg>