<svg width="16" height="16" viewBox="0 0 16 16" fill="none" xmlns="http://www.w3.org/2000/svg">
<path d="M8 0C9.86456 0 11.4311 1.27573 11.8745 3.00192C11.8985 3.00119 11.9226 3.00067 11.9468 3.00037C11.9645 3.00012 11.9822 3 12 3C14.2092 3 16 4.79086 16 7C15.1807 6.14371 13.7787 6.00003 12.5001 6.00003C12.4137 6.00003 12.3279 6.00247 12.2427 6.00726L12.2524 6.00787C13.8175 6.10535 15.1387 7.10272 15.7047 8.48874L15.71 8.49799L15.7092 8.5C15.8967 8.96323 16 9.46954 16 10C16 12.2091 14.2092 14 12 14H9V16H7V14H4C1.79083 14 0 12.2091 0 10C0 9.46954 0.103271 8.96323 0.290771 8.5C0.289551 8.49695 0.288269 8.4939 0.287048 8.49081L0.289062 8.49222C0.322754 8.40799 0.362366 8.32346 0.407471 8.23907C1.02362 6.98431 2.27789 6.0997 3.74701 6.0079L3.75732 6.00726C3.67212 6.00247 3.5863 6.00003 3.49994 6.00003C2.22125 6.00003 0.819275 6.14371 0 7C0 4.79086 1.79083 3 4 3C4.04199 3 4.08386 3.00064 4.12555 3.00192L4.1261 2.99985L4.20917 2.99979C5.60834 2.99768 6.70325 2.99606 7.68768 3.86935C7.63086 3.80576 7.5719 3.74335 7.5108 3.68225C6.61572 2.78714 5.70325 1.98987 4.53546 1.99945C5.22711 0.804138 6.51965 0 8 0Z" fill="#00FF72"/>
</svg>
