<?xml version="1.0" encoding="UTF-8"?>
<svg width="14px" height="16px" viewBox="0 0 14 16" version="1.1" xmlns="http://www.w3.org/2000/svg" xmlns:xlink="http://www.w3.org/1999/xlink">
    <!-- Generator: Sketch 55 (78076) - https://sketchapp.com -->
    <title>Icons/16x16/Flora Population</title>
    <desc>Created with Sketch.</desc>
    <g id="Icons" stroke="none" stroke-width="1" fill="none" fill-rule="evenodd">
        <g id="Icons-for-Assets" transform="translate(-177.000000, -159.000000)" fill="#00FF72">
            <g id="Icons/16x16/Flora-Population" transform="translate(176.000000, 159.000000)">
                <path d="M8,4 C9.104,4 10,4.895 10,6 C10,7.104 9.104,8 8,8 C6.895,8 6,7.104 6,6 C6,4.895 6.895,4 8,4 M3.898,7.296 C3.92,7.303 3.943,7.304 3.965,7.311 C3.952,7.329 3.933,7.343 3.919,7.362 C3.108,8.479 3.356,10.042 4.473,10.854 C5.589,11.665 7.154,11.418 7.964,10.301 C7.978,10.282 7.986,10.261 8,10.241 C8.013,10.261 8.021,10.282 8.035,10.301 C8.845,11.418 10.41,11.665 11.526,10.854 C12.643,10.042 12.891,8.479 12.08,7.362 C12.066,7.343 12.047,7.329 12.034,7.311 C12.056,7.304 12.079,7.303 12.101,7.296 C13.414,6.869 14.132,5.459 13.706,4.146 C13.279,2.833 11.869,2.114 10.556,2.541 C10.534,2.548 10.515,2.561 10.493,2.568 C10.494,2.545 10.5,2.523 10.5,2.5 C10.5,1.119 9.38,0 8,0 C6.619,0 5.5,1.119 5.5,2.5 C5.5,2.523 5.505,2.545 5.506,2.568 C5.484,2.561 5.465,2.548 5.443,2.541 C4.13,2.114 2.72,2.833 2.294,4.146 C1.867,5.459 2.586,6.869 3.898,7.296" id="Fill-1"></path>
                <path d="M10.523,12.019 C9.231,12.765 8.335,13.816 8,14.816 C7.664,13.816 6.768,12.765 5.476,12.019 C3.819,11.063 2.047,10.91 1,11.513 C1.002,12.722 2.02,14.18 3.676,15.136 C5.258,16.049 7,16 8,16 C9,16 10.741,16.049 12.323,15.136 C13.979,14.18 14.998,12.722 15,11.513 C13.952,10.91 12.18,11.063 10.523,12.019" id="Path"></path>
            </g>
        </g>
    </g>
</svg>