<svg width="16" height="16" viewBox="0 0 16 16" fill="none" xmlns="http://www.w3.org/2000/svg">
<path fill-rule="evenodd" clip-rule="evenodd" d="M16 8C16 12.4183 12.4183 16 8 16C3.58172 16 0 12.4183 0 8C0 3.58172 3.58172 0 8 0C12.4183 0 16 3.58172 16 8ZM9.17157 9.65685L10.5858 11.0711C9.02369 12.6332 6.49103 12.6332 4.92893 11.0711C3.36684 9.50897 3.36684 6.97631 4.92893 5.41421C6.49103 3.85212 9.02369 3.85212 10.5858 5.41421L12 4V8.24264H7.75736L9.17157 6.82843C8.39052 6.04738 7.12419 6.04738 6.34315 6.82843C5.5621 7.60948 5.5621 8.87581 6.34315 9.65685C7.12419 10.4379 8.39052 10.4379 9.17157 9.65685Z" fill="white"/>
</svg>
