<?xml version="1.0" encoding="UTF-8"?>
<svg width="16px" height="16px" viewBox="0 0 16 16" version="1.1" xmlns="http://www.w3.org/2000/svg" xmlns:xlink="http://www.w3.org/1999/xlink">
    <!-- Generator: Sketch 60 (88103) - https://sketch.com -->
    <title>Export</title>
    <desc>Created with Sketch.</desc>
    <g id="Icons-(read-only)" stroke="none" stroke-width="1" fill="none" fill-rule="evenodd">
        <g id="Icons-for-Toolbar" transform="translate(-495.000000, -1167.000000)">
            <g id="Icons/16x16/Export" transform="translate(495.000000, 1167.000000)">
                <path d="M0,7 L0,15 C6.76353751e-17,15.5522847 0.44771525,16 1,16 L9,16 C9.55228475,16 10,15.5522847 10,15 L10,11 L10,11 L6,11 C5.44771525,11 5,10.5522847 5,10 L5,6 L5,6 L1,6 C0.44771525,6 -6.76353751e-17,6.44771525 0,7 Z" id="Path" fill="#8C8C8C"></path>
                <path d="M8,0 L11.293,3.293 L7,7.586 L7,8 C7,8.55228475 7.44771525,9 8,9 L8.414,9 L8.414,9 L12.707,4.707 L16,8 L16,0 L8,0 Z" id="Path" fill="#FFFFFF"></path>
            </g>
        </g>
    </g>
</svg>