<svg width="16" height="16" viewBox="0 0 16 16" fill="none" xmlns="http://www.w3.org/2000/svg">
<path fill-rule="evenodd" clip-rule="evenodd" d="M8.5 7C10.433 7 12 5.433 12 3.5C12 1.567 10.433 0 8.5 0C6.567 0 5 1.567 5 3.5C5 5.433 6.567 7 8.5 7ZM8.5 5C9.32843 5 10 4.32843 10 3.5C10 2.67157 9.32843 2 8.5 2C7.67157 2 7 2.67157 7 3.5C7 4.32843 7.67157 5 8.5 5Z" fill="white"/>
<path fill-rule="evenodd" clip-rule="evenodd" d="M2.5 7H8.5H11C11.5523 7 12 7.44772 12 8V15C12 15.5523 11.5523 16 11 16H1C0.447715 16 0 15.5523 0 15V8C0 7.44772 0.447715 7 1 7H2.5ZM7 9H2V11H7V9Z" fill="white"/>
<path fill-rule="evenodd" clip-rule="evenodd" d="M2.5 7C3.88071 7 5 5.88071 5 4.5C5 3.11929 3.88071 2 2.5 2C1.11929 2 0 3.11929 0 4.5C0 5.88071 1.11929 7 2.5 7ZM2.5 5.5C3.05228 5.5 3.5 5.05228 3.5 4.5C3.5 3.94772 3.05228 3.5 2.5 3.5C1.94772 3.5 1.5 3.94772 1.5 4.5C1.5 5.05228 1.94772 5.5 2.5 5.5Z" fill="white"/>
<path d="M14 9L16 7V16L14 14H13V9H14Z" fill="white"/>
</svg>
