<?xml version="1.0" encoding="UTF-8"?>
<svg width="16px" height="16px" viewBox="0 0 16 16" version="1.1" xmlns="http://www.w3.org/2000/svg" xmlns:xlink="http://www.w3.org/1999/xlink">
    <!-- Generator: Sketch 60 (88103) - https://sketch.com -->
    <title>Render Export</title>
    <desc>Created with Sketch.</desc>
    <g id="Icons-(read-only)" stroke="none" stroke-width="1" fill="none" fill-rule="evenodd">
        <g id="Icons-for-Toolbar" transform="translate(-591.000000, -1167.000000)">
            <g id="Icons/16x16/Export-Render" transform="translate(591.000000, 1167.000000)">
                <path d="M8.0003,0 L11.2933,3.293 L7.0003,7.586 L7.0003,8 C7.0003,8.55228475 7.44801525,9 8.0003,9 L8.4143,9 L8.4143,9 L12.7073,4.707 L16.0003,8 L16.0003,0 L8.0003,0 Z" id="Path-Copy-14" fill="#FFFFFF"></path>
                <path d="M0,6 L0,15 C6.76353751e-17,15.5522847 0.44771525,16 1,16 L10,16 C10.5522847,16 11,15.5522847 11,15 L11,10.5 L11,10.5 L5.5,10.5 L5.5,5 L1,5 C0.44771525,5 -6.76353751e-17,5.44771525 0,6 Z" id="Fill-1" fill="#D4D4D4"></path>
                <path d="M2,15 L2,16 L1,16 L1,15 L2,15 Z M2,13 L2,14 L1,14 L1,13 L2,13 Z M2,11 L2,12 L1,12 L1,11 L2,11 Z M2,9 L2,10 L1,10 L1,9 L2,9 Z M2,7 L2,8 L1,8 L1,7 L2,7 Z M2,5 L2,6 L1,6 L1,5 L2,5 Z" id="Combined-Shape" fill="#333333"></path>
                <path d="M10,15 L10,16 L9,16 L9,15 L10,15 Z M10,13 L10,14 L9,14 L9,13 L10,13 Z M10,11 L10,12 L9,12 L9,11 L10,11 Z" id="Combined-Shape-Copy-25" fill="#333333"></path>
                <rect id="Rectangle" fill="#555555" x="3" y="11" width="5" height="5"></rect>
                <path d="M5.5,5 L5.5,10 L3,10 L3,5 L5.5,5 Z" id="Combined-Shape" fill="#555555"></path>
            </g>
        </g>
    </g>
</svg>