<?xml version="1.0" encoding="UTF-8"?>
<svg width="16px" height="16px" viewBox="0 0 16 16" version="1.1" xmlns="http://www.w3.org/2000/svg" xmlns:xlink="http://www.w3.org/1999/xlink">
    <!-- Generator: Sketch 60 (88103) - https://sketch.com -->
    <title>Render Export Mono</title>
    <desc>Created with Sketch.</desc>
    <g id="Icons-(read-only)" stroke="none" stroke-width="1" fill="none" fill-rule="evenodd">
        <g id="Icons-for-Toolbar" transform="translate(-687.000000, -1167.000000)" fill="#FFFFFF">
            <g id="Icons/16x16/Export-Render-One-Colored" transform="translate(687.000000, 1167.000000)">
                <path d="M8.0003,0 L11.2933,3.293 L7.0003,7.586 L7.0003,8 C7.0003,8.55228475 7.44801525,9 8.0003,9 L8.4143,9 L8.4143,9 L12.7073,4.707 L16.0003,8 L16.0003,0 L8.0003,0 Z" id="Path-Copy-14"></path>
                <path d="M3,5 L3,10 L5.5,10 L5.5,10.5 L11,10.5 L11,15 C11,15.5522847 10.5522847,16 10,16 L10,16 L10,15 L9,15 L9,16 L8,16 L8,11 L3,11 L3,16 L2,16 L2,15 L1,15 L1,16 L0.883378875,15.9932723 C0.38604019,15.9355072 6.28042769e-17,15.5128358 0,15 L0,15 L0,6 C-6.76353751e-17,5.44771525 0.44771525,5 1,5 L1,5 L1,6 L2,6 L2,5 L3,5 Z M2,13 L1,13 L1,14 L2,14 L2,13 Z M10,13 L9,13 L9,14 L10,14 L10,13 Z M2,11 L1,11 L1,12 L2,12 L2,11 Z M10,11 L9,11 L9,12 L10,12 L10,11 Z M2,9 L1,9 L1,10 L2,10 L2,9 Z M2,7 L1,7 L1,8 L2,8 L2,7 Z" id="Combined-Shape"></path>
            </g>
        </g>
    </g>
</svg>