<svg width="16" height="16" viewBox="0 0 16 16" fill="none" xmlns="http://www.w3.org/2000/svg">
<path d="M4 14C4 15.1046 3.10457 16 2 16C0.89543 16 0 15.1046 0 14C0 12.8954 0.89543 12 2 12C3.10457 12 4 12.8954 4 14Z" fill="white"/>
<path d="M10 8C10 9.10457 9.10457 10 8 10C6.89543 10 6 9.10457 6 8C6 6.89543 6.89543 6 8 6C9.10457 6 10 6.89543 10 8Z" fill="white"/>
<path d="M16 2C16 3.10457 15.1046 4 14 4C12.8954 4 12 3.10457 12 2C12 0.89543 12.8954 0 14 0C15.1046 0 16 0.89543 16 2Z" fill="white"/>
<path d="M11.1258 1.13775C10.0473 1.03519 8.77666 0.949014 7.50301 0.941352C5.86426 0.931493 4.17622 1.05079 2.88159 1.45692C1.60913 1.85609 0.5 2.61495 0.5 3.99993C0.5 5.36294 1.64922 6.25478 2.97048 6.89134C3.57949 7.18474 4.27598 7.44833 5.01545 7.69366C5.05013 7.35171 5.14224 7.02674 5.28198 6.72853C4.5935 6.49893 3.95715 6.25668 3.40452 5.99044C2.10078 5.36233 1.5 4.71508 1.5 3.99993C1.5 3.30676 2.01587 2.77655 3.18091 2.41107C4.32378 2.05255 5.88574 1.93164 7.49699 1.94133C8.72277 1.94871 9.95151 2.03121 11.0028 2.13058C11.0009 2.08728 11 2.04375 11 2C11 1.70029 11.044 1.41084 11.1258 1.13775Z" fill="white"/>
<path d="M10.9721 8.41052C10.9257 8.7499 10.8225 9.07119 10.6724 9.36452C11.3803 9.59442 12.0344 9.83548 12.601 10.1C13.2331 10.3952 13.7198 10.7035 14.0431 11.0301C14.3582 11.3484 14.5 11.6635 14.5 12C14.5 12.6447 13.9988 13.16 12.8217 13.5222C11.6762 13.8746 10.1118 14 8.5 14C7.27476 14 6.04668 13.9278 4.99572 13.8384C4.99856 13.8919 5 13.9458 5 14C5 14.2888 4.95919 14.5681 4.88301 14.8324C5.96023 14.9247 7.22867 15 8.5 15C10.1382 15 11.8238 14.8755 13.1158 14.4779C14.3762 14.0901 15.5 13.3554 15.5 12C15.5 11.3366 15.2043 10.7816 14.7538 10.3265C14.3114 9.87976 13.7044 9.51161 13.024 9.19393C12.4135 8.90886 11.7144 8.65157 10.9721 8.41052Z" fill="white"/>
</svg>
