<svg width="16" height="16" viewBox="0 0 16 16" fill="none" xmlns="http://www.w3.org/2000/svg">
<path d="M2 2C2 2.55228 1.55228 3 1 3C0.447715 3 0 2.55228 0 2C0 1.44772 0.447715 1 1 1C1.55228 1 2 1.44772 2 2Z" fill="white"/>
<path d="M3 2C3 1.44772 3.44772 1 4 1H15C15.5523 1 16 1.44772 16 2C16 2.55228 15.5523 3 15 3H4C3.44772 3 3 2.55228 3 2Z" fill="white"/>
<path d="M2 6C2 6.55228 1.55228 7 1 7C0.447715 7 0 6.55228 0 6C0 5.44772 0.447715 5 1 5C1.55228 5 2 5.44772 2 6Z" fill="white"/>
<path d="M3 6C3 5.44772 3.44772 5 4 5H10C10.5523 5 11 5.44772 11 6C11 6.55228 10.5523 7 10 7H4C3.44772 7 3 6.55228 3 6Z" fill="white"/>
<path d="M2 10C2 10.5523 1.55228 11 1 11C0.447715 11 0 10.5523 0 10C0 9.44772 0.447715 9 1 9C1.55228 9 2 9.44772 2 10Z" fill="white"/>
<path d="M3 10C3 9.44772 3.44772 9 4 9H15C15.5523 9 16 9.44772 16 10C16 10.5523 15.5523 11 15 11H4C3.44772 11 3 10.5523 3 10Z" fill="white"/>
<path d="M2 14C2 14.5523 1.55228 15 1 15C0.447715 15 0 14.5523 0 14C0 13.4477 0.447715 13 1 13C1.55228 13 2 13.4477 2 14Z" fill="white"/>
<path d="M3 14C3 13.4477 3.44772 13 4 13H12C12.5523 13 13 13.4477 13 14C13 14.5523 12.5523 15 12 15H4C3.44772 15 3 14.5523 3 14Z" fill="white"/>
</svg>
