<svg width="16" height="16" viewBox="0 0 16 16" fill="none" xmlns="http://www.w3.org/2000/svg">
<path fill-rule="evenodd" clip-rule="evenodd" d="M8.03563 16C12.4539 16 13.0356 11 13.0356 8C13.0356 5 12.4539 0 8.03563 0C3.61736 0 3.0357 4 3.0357 8C3.0357 12 3.61736 16 8.03563 16ZM4.0357 6C4.0357 7.10455 4.93114 8 6.0357 8H10.0357C11.1403 8 12.0357 7.10455 12.0357 6C12.0357 4.89545 11.1403 4 10.0357 4H6.0357C4.93114 4 4.0357 4.89545 4.0357 6Z" fill="white"/>
<path d="M2.0357 9C1.53761 8.95642 0.885674 10.6712 0.778042 11.9014C0.670409 13.1317 1.01465 14.9336 1.51277 14.9772C2.01089 15.0207 2.6628 13.306 2.77043 12.0757C2.87806 10.8455 2.5338 9.04358 2.0357 9Z" fill="white"/>
<path d="M13.301 12.0757C13.1933 10.8455 13.5376 9.04358 14.0357 9C14.5338 8.95642 15.1857 10.6712 15.2934 11.9014C15.401 13.1317 15.0568 14.9336 14.5586 14.9772C14.0605 15.0207 13.4086 13.306 13.301 12.0757Z" fill="white"/>
<path d="M6 7C6.55228 7 7 6.55228 7 6C7 5.44772 6.55228 5 6 5C5.44772 5 5 5.44772 5 6C5 6.55228 5.44772 7 6 7Z" fill="white"/>
<path d="M10 7C10.5523 7 11 6.55228 11 6C11 5.44772 10.5523 5 10 5C9.44772 5 9 5.44772 9 6C9 6.55228 9.44772 7 10 7Z" fill="white"/>
<circle cx="10.0357" cy="11" r="1" fill="#BDBDBD"/>
</svg>
