<svg width="16" height="16" viewBox="0 0 16 16" fill="none" xmlns="http://www.w3.org/2000/svg">
<path d="M11.5673 5.95457L15.7609 1.76094C15.9764 1.30975 15.505 0.838334 15.0538 1.05383L10.8602 5.24745C11.1243 5.45276 11.362 5.69045 11.5673 5.95457Z" fill="#BDBDBD"/>
<path d="M5.95457 11.5673C5.69045 11.362 5.45276 11.1243 5.24745 10.8602L1.05383 15.0538C0.838334 15.505 1.30975 15.9764 1.76094 15.7609L5.95457 11.5673Z" fill="#BDBDBD"/>
<path d="M11.4073 8.40735C11.4073 10.0642 10.0642 11.4073 8.40735 11.4073C6.75049 11.4073 5.40735 10.0642 5.40735 8.40735C5.40735 6.75049 6.75049 5.40735 8.40735 5.40735C10.0642 5.40735 11.4073 6.75049 11.4073 8.40735Z" fill="white"/>
</svg>
