<!DOCTYPE svg PUBLIC "-//W3C//DTD SVG 1.1//EN" "http://www.w3.org/Graphics/SVG/1.1/DTD/svg11.dtd">

<svg height="256px" width="256px" version="1.1" id="Layer_1" xmlns="http://www.w3.org/2000/svg" xmlns:xlink="http://www.w3.org/1999/xlink" viewBox="0 0 496 496" xml:space="preserve" fill="#ffffff">

<g id="bgCarrier" stroke-width="0"/>

<g id="tracerCarrier" stroke-linecap="round" stroke-linejoin="round"/>

<g id="iconCarrier"> <ellipse style="fill:#ebe6e6;" cx="248" cy="150.4" rx="91.2" ry="89.6"/> <path style="fill:#cfd1d3;" d="M248,60.8c50.4,0,91.2,40,91.2,89.6S298.4,240,248,240"/> <ellipse style="fill:#ebe6e6;" cx="248" cy="322.4" rx="137.6" ry="173.6"/> <path style="fill:#cfd1d3;" d="M248,148.8c76,0,137.6,77.6,137.6,173.6S324,496,248,496"/> <path style="fill:#c80909;" d="M245.6,150.4C157.6,136,72,192,50.4,280.8c-21.6,88,29.6,176.8,114.4,204.8L245.6,150.4z"/> <path style="fill:#ed0c0c;" d="M51.2,280.8c-21.6,88,29.6,176.8,114.4,204.8l80.8-334.4"/> <g> <circle style="fill:#ffffff;" cx="120" cy="376" r="25.6"/> <circle style="fill:#ffffff;" cx="88" cy="324" r="10.4"/> <circle style="fill:#ffffff;" cx="95.2" cy="262.4" r="20"/> <circle style="fill:#ffffff;" cx="128.8" cy="295.2" r="2.4"/> <circle style="fill:#ffffff;" cx="164" cy="222.4" r="28"/> <circle style="fill:#ffffff;" cx="168.8" cy="301.6" r="11.2"/> <circle style="fill:#ffffff;" cx="127.2" cy="322.4" r="3.2"/> <circle style="fill:#ffffff;" cx="108.8" cy="216.8" r="6.4"/> <circle style="fill:#ffffff;" cx="209.6" cy="176" r="12"/> <circle style="fill:#ffffff;" cx="160" cy="172" r="4.8"/> <circle style="fill:#ffffff;" cx="210.4" cy="210.4" r="6.4"/> <circle style="fill:#ffffff;" cx="144" cy="428" r="5.6"/> <circle style="fill:#ffffff;" cx="168.8" cy="344.8" r="6.4"/> <circle style="fill:#ffffff;" cx="152" cy="272.8" r="6.4"/> </g> <path style="fill:#c80909;" d="M250.4,150.4C338.4,136,424,192,445.6,280.8c21.6,88-29.6,176.8-114.4,204.8L250.4,150.4z"/> <path style="fill:#ed0c0c;" d="M444.8,280.8c21.6,88-29.6,176.8-114.4,204.8l-80-335.2"/> <g> <circle style="fill:#ffffff;" cx="376" cy="376" r="25.6"/> <circle style="fill:#ffffff;" cx="408" cy="324" r="10.4"/> <circle style="fill:#ffffff;" cx="400.8" cy="262.4" r="20"/> <circle style="fill:#ffffff;" cx="367.2" cy="295.2" r="2.4"/> <circle style="fill:#ffffff;" cx="332" cy="222.4" r="28"/> <circle style="fill:#ffffff;" cx="327.2" cy="301.6" r="11.2"/> <circle style="fill:#ffffff;" cx="368.8" cy="322.4" r="3.2"/> <circle style="fill:#ffffff;" cx="387.2" cy="216.8" r="6.4"/> <circle style="fill:#ffffff;" cx="286.4" cy="176" r="12"/> <circle style="fill:#ffffff;" cx="336" cy="172" r="4.8"/> <circle style="fill:#ffffff;" cx="285.6" cy="210.4" r="6.4"/> <circle style="fill:#ffffff;" cx="352" cy="428" r="5.6"/> <circle style="fill:#ffffff;" cx="327.2" cy="344.8" r="6.4"/> <circle style="fill:#ffffff;" cx="344" cy="272.8" r="6.4"/> </g> <g> <path style="fill:#ebe6e6;" d="M207.2,83.2c2.4,4.8,1.6,10.4-3.2,12.8l0,0c-4.8,2.4-10.4,1.6-12.8-3.2l-29.6-49.6 c-2.4-4.8-1.6-10.4,3.2-12.8l0,0c4.8-2.4,10.4-1.6,12.8,3.2L207.2,83.2z"/> <circle style="fill:#ebe6e6;" cx="160" cy="22.4" r="22.4"/> </g> <g> <path style="fill:#cfd1d3;" d="M288.8,83.2c-2.4,4.8-1.6,10.4,3.2,12.8l0,0c4.8,2.4,10.4,1.6,12.8-3.2l29.6-49.6 c2.4-4.8,1.6-10.4-3.2-12.8l0,0c-4.8-2.4-10.4-1.6-12.8,3.2L288.8,83.2z"/> <circle style="fill:#cfd1d3;" cx="336" cy="22.4" r="22.4"/> </g> </g>

</svg>