<!DOCTYPE svg PUBLIC "-//W3C//DTD SVG 1.1//EN" "http://www.w3.org/Graphics/SVG/1.1/DTD/svg11.dtd">

<svg fill="#ffffff" version="1.1" id="Capa_1" xmlns="http://www.w3.org/2000/svg" xmlns:xlink="http://www.w3.org/1999/xlink" width="256px" height="256px" viewBox="0 0 45.98 45.98" xml:space="preserve">

<g id="bgCarrier" stroke-width="0"/>

<g id="tracerCarrier" stroke-linecap="round" stroke-linejoin="round"/>

<g id="iconCarrier"> <g> <g> <path d="M22.92,35.622c-7.033,4.789-14.354,5.313-17.224,5.313c-0.172,0-0.328-0.002-0.466-0.004l-1.938,2.728 c-0.32,0.452-0.362,1.037-0.107,1.528c0.254,0.492,0.762,0.793,1.316,0.793h37.052c0.554,0,1.062-0.301,1.315-0.793 c0.037-0.071,0.067-0.146,0.092-0.221C39.617,44.773,31.623,43.43,22.92,35.622z"/> <path d="M31.673,22.367l-2.135-3.01h0.125c0.555,0,1.062-0.315,1.316-0.808c0.254-0.492,0.212-1.088-0.108-1.54l-1.001-1.412 c-5.271,7.484-13.19,9.024-17.282,9.293l-3.133,4.416c-0.321,0.453-0.362,1.06-0.108,1.551c0.254,0.494,0.762,0.815,1.316,0.815 h1.14l-5.169,7.28C11.58,38.829,24.378,37.02,31.673,22.367z"/> <path d="M24.57,34.413c7.387,6.493,14.243,8.093,17.641,8.472l-7.962-11.213h1.14c0.554,0,1.062-0.326,1.316-0.818 s0.213-1.088-0.107-1.539l-3.624-5.111C30.57,28.702,27.635,31.999,24.57,34.413z"/> <path d="M28.641,13.86l-1.572-2.217c-0.334,0.168-0.702,0.256-1.083,0.256c-0.39,0-0.778-0.096-1.121-0.275l-1.838-0.962 l-1.836,0.96c-0.345,0.181-0.733,0.276-1.123,0.276c-0.381,0-0.75-0.088-1.084-0.257l-3.802,5.362 c-0.321,0.452-0.362,1.052-0.108,1.544c0.254,0.493,0.762,0.808,1.316,0.808h0.125l-2.432,3.427 C18.134,22.271,24.407,20.372,28.641,13.86z"/> <path d="M20.18,6.349l-0.527,3.06C19.626,9.567,19.69,9.726,19.82,9.82c0.073,0.053,0.16,0.08,0.248,0.08 c0.067,0,0.133-0.016,0.195-0.047l2.765-1.446l2.765,1.446C25.854,9.885,25.921,9.9,25.987,9.9c0.087,0,0.174-0.027,0.248-0.08 c0.129-0.094,0.194-0.254,0.167-0.411l-0.528-3.06l2.231-2.164c0.115-0.112,0.157-0.28,0.107-0.432 c-0.05-0.152-0.182-0.264-0.341-0.287L24.786,3.02l-1.382-2.787C23.333,0.09,23.188,0,23.028,0s-0.306,0.09-0.377,0.233 L21.269,3.02l-3.087,0.446c-0.159,0.023-0.291,0.134-0.34,0.287c-0.049,0.152-0.008,0.32,0.107,0.432L20.18,6.349z"/> </g> </g> </g>

</svg>