<svg width="16" height="16" viewBox="0 0 16 16" fill="none" xmlns="http://www.w3.org/2000/svg">
<path fill-rule="evenodd" clip-rule="evenodd" d="M11.1446 3C11.9731 3 12.6446 2.32843 12.6446 1.5C12.6446 0.671573 11.9731 0 11.1446 0C10.3162 0 9.64462 0.671573 9.64462 1.5C9.64462 2.32843 10.3162 3 11.1446 3ZM14.6446 10C15.1969 10 15.6446 9.55229 15.6446 9C15.6446 8.44771 15.1969 8 14.6446 8C14.0923 8 13.6446 8.44771 13.6446 9C13.6446 9.55229 14.0923 10 14.6446 10ZM6.14462 8.5C6.14462 9.05229 5.69691 9.5 5.14462 9.5C4.59234 9.5 4.14462 9.05229 4.14462 8.5C4.14462 7.94772 4.59234 7.5 5.14462 7.5C5.69691 7.5 6.14462 7.94772 6.14462 8.5ZM9.00612 3H10.7626L12.1446 3.69098V6.73241L13.3107 7.5098C13.0612 7.7333 12.8681 8.01857 12.7555 8.34155L11.1446 7.26759V4.30902L10.889 4.18122L9.22073 7.93483L9.22391 7.93907L8.86728 9.16016L8.86929 9.16281L8.0828 12.3088L5.28922 14.1712L5.79398 15.1012C5.92798 15.3481 5.83077 15.6569 5.57952 15.7826C5.33783 15.9034 5.04388 15.8089 4.91787 15.5699L4 13.8288L7.20642 11.6912L8.17007 7.83661L9.87523 4H9.2831L7.04049 5.34556L6.36705 6.91694C6.10474 6.7141 5.79065 6.575 5.44797 6.52286L6.24872 4.65444L9.00612 3ZM9.47284 9.93764L9.79321 8.69813L12.1446 11.8333V15H13.1446C13.4208 15 13.6446 15.2239 13.6446 15.5C13.6446 15.7761 13.4208 16 13.1446 16H11.1446V12.1667L9.47284 9.93764Z" fill="white"/>
</svg>
