<svg width="16" height="16" viewBox="0 0 16 16" fill="none" xmlns="http://www.w3.org/2000/svg">
<path d="M11 1.6095C11 2.43792 10.3284 3.1095 9.5 3.1095C8.67157 3.1095 8 2.43792 8 1.6095C8 0.78107 8.67157 0.109497 9.5 0.109497C10.3284 0.109497 11 0.78107 11 1.6095Z" fill="white"/>
<path d="M9.22707 2.8595H6.74999L4.3896 4.62979L3.54098 6.60991C4.07977 6.62074 4.56628 6.84464 4.91969 7.20079L5.61037 5.58921L7.24999 4.3595H7.84592L6.28818 7.86441L5.3427 11.6463L2 13.6095L2.83694 15.5392C3.01155 15.9418 3.48834 16.1153 3.88084 15.9191C4.23233 15.7433 4.39347 15.3298 4.2536 14.9626L3.93383 14.1231L6.65727 12.5727L7.34542 9.82008L7.34793 9.82342L7.8665 8.01484L9.32408 4.72695L9.66605 4.95493L9.16605 7.45493L11.0409 8.70486C11.1471 8.18826 11.4524 7.74434 11.8732 7.4569L10.8339 6.76407L11.3339 4.26407L9.22707 2.8595Z" fill="white"/>
<path d="M8.51225 8.87584L7.99368 10.6844L9.24999 12.3595V15.8595H11.75C12.1642 15.8595 12.5 15.5237 12.5 15.1095C12.5 14.6953 12.1642 14.3595 11.75 14.3595H10.75V11.8595L8.51225 8.87584Z" fill="white"/>
<path d="M3.5 9.6095C4.05228 9.6095 4.5 9.16178 4.5 8.6095C4.5 8.05721 4.05228 7.6095 3.5 7.6095C2.94772 7.6095 2.5 8.05721 2.5 8.6095C2.5 9.16178 2.94772 9.6095 3.5 9.6095Z" fill="white"/>
<path d="M13 10.1095C13.5523 10.1095 14 9.66178 14 9.1095C14 8.55721 13.5523 8.1095 13 8.1095C12.4477 8.1095 12 8.55721 12 9.1095C12 9.66178 12.4477 10.1095 13 10.1095Z" fill="white"/>
</svg>
