<svg width="16" height="16" viewBox="0 0 16 16" fill="none" xmlns="http://www.w3.org/2000/svg">
<path d="M16 2C16 3.10458 15.1046 4 14 4C12.8954 4 12 3.10458 12 2C12 0.895416 12.8954 0 14 0C15.1046 0 16 0.895416 16 2Z" fill="#999999"/>
<path d="M4 8C4 9.10458 3.10458 10 2 10C0.895416 10 0 9.10458 0 8C0 6.89542 0.895416 6 2 6C3.10458 6 4 6.89542 4 8Z" fill="#999999"/>
<path d="M14 16C15.1046 16 16 15.1046 16 14C16 12.8954 15.1046 12 14 12C12.8954 12 12 12.8954 12 14C12 15.1046 12.8954 16 14 16Z" fill="#999999"/>
<path d="M13 3C14.1046 3 15 2.10458 15 1C15 0.706543 14.9368 0.427826 14.8232 0.176758C15.5172 0.49057 16 1.1889 16 2C16 3.10458 15.1046 4 14 4C13.1889 4 12.4906 3.51718 12.1768 2.82324C12.4278 2.9368 12.7065 3 13 3Z" fill="#666666"/>
<path d="M1 9C2.10458 9 3 8.10458 3 7C3 6.70654 2.9368 6.42783 2.82324 6.17676C3.51718 6.49057 4 7.1889 4 8C4 9.10458 3.10458 10 2 10C1.1889 10 0.49057 9.51718 0.176758 8.82324C0.427826 8.9368 0.706543 9 1 9Z" fill="#666666"/>
<path d="M15 13C15 14.1046 14.1046 15 13 15C12.7065 15 12.4278 14.9368 12.1768 14.8232C12.4906 15.5172 13.1889 16 14 16C15.1046 16 16 15.1046 16 14C16 13.1889 15.5172 12.4906 14.8232 12.1768C14.9368 12.4278 15 12.7065 15 13Z" fill="#666666"/>
<path fill-rule="evenodd" clip-rule="evenodd" d="M14 1.99995C14.3905 1.60943 14.3905 0.976264 14 0.58574C13.6094 0.195216 12.9763 0.195216 12.5857 0.58574C12.1952 0.976264 12.1952 1.60943 12.5857 1.99995C12.9763 2.39048 13.6094 2.39048 14 1.99995ZM10.017 2.37147L3.99995 6.99995L11.5022 5.1244C10.6772 4.46402 10.1194 3.48368 10.017 2.37147ZM5.98296 8.37147C5.88053 9.48369 5.32276 10.464 4.49776 11.1244L12 12.9999L5.98296 8.37147ZM1.99995 6.58574C2.39048 6.97626 2.39048 7.60943 1.99995 7.99995C1.60943 8.39048 0.976264 8.39048 0.58574 7.99995C0.195216 7.60943 0.195216 6.97626 0.58574 6.58574C0.976264 6.19522 1.60943 6.19522 1.99995 6.58574ZM14 14C14.3905 13.6094 14.3905 12.9763 14 12.5857C13.6094 12.1952 12.9763 12.1952 12.5857 12.5857C12.1952 12.9763 12.1952 13.6094 12.5857 14C12.9763 14.3905 13.6094 14.3905 14 14Z" fill="white"/>
</svg>
