<svg width="16" height="16" viewBox="0 0 16 16" fill="none" xmlns="http://www.w3.org/2000/svg">
<path d="M16 2C16 3.10457 15.1046 4 14 4C12.8954 4 12 3.10457 12 2C12 0.895431 12.8954 0 14 0C15.1046 0 16 0.895431 16 2Z" fill="#BB6BD9"/>
<path d="M4 8C4 9.10457 3.10457 10 2 10C0.895431 10 0 9.10457 0 8C0 6.89543 0.895431 6 2 6C3.10457 6 4 6.89543 4 8Z" fill="#BB6BD9"/>
<path d="M14 16C15.1046 16 16 15.1046 16 14C16 12.8954 15.1046 12 14 12C12.8954 12 12 12.8954 12 14C12 15.1046 12.8954 16 14 16Z" fill="#BB6BD9"/>
<path d="M13 3C14.1046 3 15 2.10458 15 1C15 0.706543 14.9368 0.427826 14.8232 0.176758C15.5172 0.49057 16 1.1889 16 2C16 3.10458 15.1046 4 14 4C13.1889 4 12.4906 3.51718 12.1768 2.82324C12.4278 2.9368 12.7065 3 13 3Z" fill="#7C41B3"/>
<path d="M1 9C2.10455 9 3 8.10458 3 7C3 6.70654 2.93677 6.42783 2.82324 6.17676C3.51715 6.49057 4 7.1889 4 8C4 9.10458 3.10455 10 2 10C1.1889 10 0.490601 9.51718 0.176758 8.82324C0.427795 8.9368 0.706543 9 1 9Z" fill="#7C41B3"/>
<path d="M15 13C15 14.1046 14.1046 15 13 15C12.7065 15 12.4278 14.9368 12.1768 14.8232C12.4906 15.5172 13.1889 16 14 16C15.1046 16 16 15.1046 16 14C16 13.1889 15.5172 12.4906 14.8232 12.1768C14.9368 12.4278 15 12.7065 15 13Z" fill="#7C41B3"/>
<path d="M4 7L10.017 2.37152C10.1195 3.48373 10.6772 4.46407 11.5022 5.12445L4 7Z" fill="#DC7EFF"/>
<path d="M4.4978 11.1245C5.3228 10.4641 5.88057 9.48374 5.98301 8.37152L12 13L4.4978 11.1245Z" fill="#DC7EFF"/>
<path d="M14.0001 0.585747C14.3906 0.97628 14.3906 1.60943 14.0001 1.99996C13.6096 2.3905 12.9764 2.3905 12.5859 1.99996C12.1953 1.60943 12.1953 0.97628 12.5859 0.585747C12.9764 0.195213 13.6096 0.195213 14.0001 0.585747Z" fill="white"/>
<path d="M2.00008 6.58575C2.39058 6.97628 2.39058 7.60943 2.00008 7.99996C1.60957 8.3905 0.976395 8.3905 0.585892 7.99996C0.195328 7.60943 0.195328 6.97628 0.585892 6.58575C0.976395 6.19521 1.60957 6.19521 2.00008 6.58575Z" fill="white"/>
<path d="M14.0001 14C14.3906 13.6094 14.3906 12.9763 14.0001 12.5857C13.6096 12.1952 12.9764 12.1952 12.5859 12.5857C12.1953 12.9763 12.1953 13.6094 12.5859 14C12.9764 14.3905 13.6096 14.3905 14.0001 14Z" fill="white"/>
</svg>
