<svg width="16" height="16" viewBox="0 0 16 16" fill="none" xmlns="http://www.w3.org/2000/svg">
<path d="M16 2C16 3.10457 15.1046 4 14 4C12.8954 4 12 3.10457 12 2C12 0.895431 12.8954 0 14 0C15.1046 0 16 0.895431 16 2Z" fill="white"/>
<path d="M4 8C4 9.10457 3.10457 10 2 10C0.895431 10 0 9.10457 0 8C0 6.89543 0.895431 6 2 6C3.10457 6 4 6.89543 4 8Z" fill="white"/>
<path d="M14 16C15.1046 16 16 15.1046 16 14C16 12.8954 15.1046 12 14 12C12.8954 12 12 12.8954 12 14C12 15.1046 12.8954 16 14 16Z" fill="white"/>
<path d="M10.017 2.37152L4 7L11.5022 5.12445C10.6772 4.46407 10.1195 3.48373 10.017 2.37152Z" fill="white"/>
<path d="M4.4978 11.1245C5.3228 10.4641 5.88057 9.48374 5.98301 8.37152L12 13L4.4978 11.1245Z" fill="white"/>
</svg>
