<svg width="16" height="16" viewBox="0 0 16 16" fill="none" xmlns="http://www.w3.org/2000/svg">
<circle cx="1.5" cy="1.5" r="1.5" fill="white"/>
<path fill-rule="evenodd" clip-rule="evenodd" d="M6.08576 6.79293L2.64642 3.35359L3.35353 2.64648L6.79287 6.08582L6.505 4.07075L7.49495 3.92933L8.08923 8.08929L3.92927 7.49501L4.07069 6.50506L6.08576 6.79293Z" fill="white"/>
<path fill-rule="evenodd" clip-rule="evenodd" d="M11.5 14C12.8807 14 14 12.8807 14 11.5C14 10.1193 12.8807 9 11.5 9C10.1193 9 9 10.1193 9 11.5C9 12.8807 10.1193 14 11.5 14ZM11.5 16C13.9853 16 16 13.9853 16 11.5C16 9.01472 13.9853 7 11.5 7C9.01472 7 7 9.01472 7 11.5C7 13.9853 9.01472 16 11.5 16Z" fill="white"/>
</svg>
