<svg width="16" height="16" viewBox="0 0 16 16" fill="none" xmlns="http://www.w3.org/2000/svg">
<rect width="7" height="7" transform="matrix(-1 0 0 1 10 6)" fill="white"/>
<path d="M13 3V10H11V5H6V3H13Z" fill="#BDBDBD"/>
<path d="M0 0H3V1H1V3H0V0Z" fill="white"/>
<path d="M16 0H13V1H15V3H16V0Z" fill="white"/>
<path d="M0 16V13H1V15H3V16H0Z" fill="white"/>
<path d="M16 16H13V15H15V13H16V16Z" fill="white"/>
<path d="M1 4H0V6H1V4Z" fill="white"/>
<path d="M0 7H1V9H0V7Z" fill="white"/>
<path d="M0 10H1V12H0V10Z" fill="white"/>
<path d="M15 4H16V6H15V4Z" fill="white"/>
<path d="M16 7H15V9H16V7Z" fill="white"/>
<path d="M16 10H15V12H16V10Z" fill="white"/>
<path d="M4 0V1H6V0H4Z" fill="white"/>
<path d="M7 1V0H9V1H7Z" fill="white"/>
<path d="M10 1V0H12V1H10Z" fill="white"/>
<path d="M4 16V15H6V16H4Z" fill="white"/>
<path d="M7 15V16H9V15H7Z" fill="white"/>
<path d="M10 15V16H12V15H10Z" fill="white"/>
</svg>
