<svg width="18" height="16" viewBox="0 0 18 16" fill="none" xmlns="http://www.w3.org/2000/svg">
<path d="M13 6C15.4853 6 17.5 8.01472 17.5 10.5C17.5 12.9853 15.4853 15 13 15L4 15C2.067 15 0.5 13.433 0.5 11.5C0.5 9.567 2.067 8 4 8L4.5 8C3.94772 8 3.5 7.55229 3.5 7C3.5 6.44771 3.94771 6 4.5 6L13 6ZM15.5 10.5C15.5 9.11929 14.3807 8 13 8L12 8C13.3807 8 14.5 9.11927 14.5 10.5C14.5 11.8807 13.3807 13 12 13L13 13C14.3807 13 15.5 11.8807 15.5 10.5ZM4 13L4.49951 13C3.94745 12.9997 3.5 12.5521 3.5 12C3.5 11.4477 3.94772 11 4.5 11L12 11C12.2761 11 12.5 10.7761 12.5 10.5C12.5 10.2239 12.2761 10 12 10L4 10C3.17157 10 2.5 10.6716 2.5 11.5C2.5 12.3284 3.17157 13 4 13Z" fill="#DBD0CE" stroke="#333333"/>
<path d="M16.4275 2.90426C16.7659 2.74398 17 2.39932 17 2C17 1.44772 16.5523 1 16 1C15.8322 1 15.674 1.04135 15.5351 1.11441L12.0169 2.87351C11.9566 2.80427 11.8938 2.73691 11.8284 2.67157C11.0783 1.92143 10.0609 1.5 9 1.5C7.93913 1.5 6.92172 1.92143 6.17157 2.67157C5.42143 3.42172 5 4.43913 5 5.5L13 5.5C13 5.21625 12.9699 4.93561 12.9113 4.66236L16.4275 2.90426Z" fill="#BDB76B"/>
</svg>
