<svg width="16" height="16" viewBox="0 0 16 16" fill="none" xmlns="http://www.w3.org/2000/svg">
<path d="M16 7.89627C15.9297 7.92752 15.8451 7.98413 15.7168 8.07855L15.6743 8.11002C15.564 8.19177 15.42 8.29852 15.2708 8.37991C15.2234 8.40576 15.1753 8.43237 15.1264 8.45944C14.899 8.58527 14.6539 8.72092 14.3764 8.83655C14.022 8.98419 13.6535 9.08691 13.3062 9.17487C13.2025 9.20111 13.1021 9.22577 13.0041 9.24985L12.995 9.25204C12.8179 9.2955 12.6488 9.33698 12.4825 9.38239C12.4255 9.39798 12.3688 9.41403 12.3123 9.43079C12.0355 9.51279 11.6834 9.72043 11.3637 10.0049C11.0418 10.2912 10.8089 10.6054 10.7162 10.8591C10.5262 11.3791 10.448 11.6519 10.5355 12.0894C10.6017 12.4203 10.7506 12.687 10.9178 12.7935C11.6737 13.2744 12.4527 14.0363 12.8819 14.8679C12.9582 15.0156 13.0469 15.1743 13.1401 15.3409C13.257 15.5498 13.381 15.7714 13.4962 16H14C15.1046 16 16 15.1046 16 14V7.89627Z" fill="#626300"/>
<path d="M7.72189 16C7.64546 15.6066 7.52042 15.1991 7.34416 14.8253C7.03639 14.1727 6.60643 13.6903 6.0784 13.4974C5.07266 13.1299 4.1391 13 3.02777 13C2.93117 13 2.84071 12.9989 2.75513 12.9979C2.41127 12.9939 2.14587 12.9908 1.87453 13.0606C1.42847 13.1753 0.946976 13.25 0.46875 13.25C0.309082 13.25 0.151703 13.2435 0 13.2348V14C0 15.1046 0.895432 16 2 16H7.72189Z" fill="#626300"/>
<path d="M0 10.3843V12.2331C0.16037 12.2429 0.314529 12.25 0.46875 12.25C0.846207 12.25 1.24277 12.1906 1.62547 12.0921C2.03851 11.9859 2.46663 11.9924 2.81914 11.9978C2.89221 11.9989 2.96202 12 3.02777 12C4.22908 12 5.28305 12.1421 6.4216 12.5581C7.29292 12.8765 7.88138 13.6201 8.24863 14.3988C8.49077 14.9123 8.6515 15.4705 8.73756 16H12.3616C12.3463 15.9727 12.3309 15.9452 12.3153 15.9174C12.2122 15.7337 12.1036 15.5403 11.9933 15.3265C11.6622 14.6851 11.0224 14.0453 10.381 13.6371C9.87465 13.3149 9.64236 12.7227 9.55495 12.2856C9.41028 11.5623 9.57565 11.067 9.77699 10.5159C9.94717 10.0501 10.3085 9.60516 10.699 9.25778C11.0916 8.90851 11.5698 8.60779 12.0282 8.47198C12.2737 8.39926 12.5335 8.33551 12.7809 8.27481C12.8766 8.25134 12.9704 8.22836 13.0607 8.20547C13.3968 8.12033 13.7074 8.03195 13.9918 7.91345C14.2134 7.82114 14.4013 7.71738 14.6249 7.59393C14.678 7.56458 14.7339 7.53369 14.7919 7.50201C14.8365 7.47772 14.8811 7.44882 14.9309 7.41397C14.9752 7.38297 15.0236 7.34726 15.0796 7.30594L15.124 7.27319C15.2492 7.18103 15.4206 7.05655 15.6122 6.97446C15.6732 6.9483 15.7596 6.88486 15.891 6.76144C15.9189 6.73517 15.9519 6.70309 15.988 6.66803C15.9917 6.66437 15.9962 6.66003 16 6.65631V2C16 0.895416 15.1046 0 14 0H13.0225C13.0071 0.0134583 12.9924 0.0271606 12.9785 0.0410461C12.5024 0.517212 12.2463 1.0723 12.1169 1.78387C12.0611 2.09073 12.035 2.40329 12.009 2.74155L12.0044 2.80121C11.9803 3.11517 11.9545 3.45285 11.8999 3.79141C11.8351 4.19281 11.7757 4.63089 11.7488 5.02051C11.7118 5.55661 11.3608 5.94 11.0376 6.18381C10.7057 6.43411 10.3181 6.60373 10.0298 6.7023C9.34332 6.93689 8.82597 7.0625 8.0625 7.0625C7.7289 7.0625 7.40303 7.02914 7.10522 6.99866L7.09293 6.99741C6.78357 6.96576 6.50293 6.9375 6.22223 6.9375C5.24342 6.9375 4.498 7.02856 3.91605 7.6105C3.70232 7.82425 3.52626 8.07834 3.32001 8.37869L3.31055 8.39246C3.11525 8.67688 2.89067 9.00394 2.60355 9.29105C1.85419 10.0404 0.931839 10.3238 0 10.3843Z" fill="#A7A605"/>
<path d="M0 5.21912C0.02742 5.21237 0.0552521 5.20471 0.0831604 5.19598C0.13916 5.1785 0.224319 5.1665 0.358215 5.15732C0.385391 5.15546 0.416641 5.15366 0.450455 5.1517C0.553528 5.14575 0.680862 5.1384 0.7883 5.12408C0.809143 5.12131 0.830048 5.11862 0.851028 5.11603C0.90535 5.10928 0.960129 5.10309 1.01538 5.0968C1.42188 5.05057 1.85385 5.00143 2.31601 4.72958C2.70461 4.50098 2.93867 4.12531 3.09537 3.87384L3.11971 3.83481C3.12805 3.8215 3.13615 3.80862 3.14406 3.7962C3.25262 3.62561 3.37546 3.47479 3.51682 3.31342C3.55704 3.26749 3.60066 3.21866 3.64648 3.16739C3.75281 3.0484 3.87007 2.91714 3.98073 2.78189C4.02802 2.72409 4.07858 2.67255 4.14571 2.60419L4.14639 2.60345C4.16966 2.57974 4.19478 2.55414 4.22241 2.5256C4.31833 2.42651 4.44012 2.2955 4.53775 2.13571C4.54709 2.12042 4.58542 2.07874 4.72282 1.98773C4.73941 1.97675 4.75896 1.96414 4.78072 1.95016C4.88892 1.88055 5.05153 1.77594 5.1732 1.65878C5.2706 1.565 5.38249 1.483 5.51807 1.39355C5.55736 1.36765 5.60329 1.33823 5.65259 1.30664L5.6582 1.30307C5.75815 1.23914 5.87131 1.16675 5.97076 1.09711C6.22029 0.922424 6.49036 0.750488 6.73061 0.646027C7.24263 0.423401 7.78088 0.26474 8.34389 0.0987549C8.43794 0.0710144 8.53307 0.0429993 8.62851 0.0145264C8.64468 0.00970459 8.66089 0.00485229 8.67711 0H11.7346C11.4256 0.48468 11.2396 1.01886 11.1331 1.60501C11.0669 1.96912 11.0377 2.3298 11.0119 2.66479L11.0082 2.71344C10.9833 3.03723 10.9604 3.33624 10.9126 3.6322C10.8457 4.047 10.7811 4.51874 10.7512 4.95172C10.7434 5.06451 10.6625 5.21414 10.4354 5.38541C10.217 5.55014 9.93591 5.67758 9.70636 5.75604C9.08455 5.96857 8.68082 6.0625 8.0625 6.0625C7.78383 6.0625 7.50432 6.03427 7.19473 6.00259L7.18517 6.00162C6.88634 5.97104 6.55869 5.9375 6.22223 5.9375C5.2271 5.9375 4.1013 6.01105 3.20895 6.90338C2.9249 7.18744 2.70184 7.5123 2.50743 7.79544L2.49567 7.81259C2.28973 8.11246 2.11244 8.36795 1.89645 8.58395C1.38394 9.09647 0.736694 9.32404 0 9.38193V5.21912Z" fill="#444400"/>
<path d="M5.81946 0H2C0.895432 0 0 0.895416 0 2V4.19135C0.105103 4.17377 0.20575 4.16544 0.289963 4.15967C0.341934 4.1561 0.387512 4.15347 0.428726 4.15112L0.433044 4.15085C0.520432 4.14581 0.588211 4.14191 0.656143 4.13287C0.764984 4.11835 0.861664 4.10669 0.948959 4.09619C1.33881 4.04922 1.54185 4.02478 1.80899 3.86765C1.97638 3.76917 2.08136 3.60397 2.2708 3.30591L2.30038 3.25934C2.44911 3.02563 2.61034 2.83063 2.76457 2.65451C2.81831 2.59317 2.86914 2.53635 2.91844 2.48117C2.97624 2.41653 3.03206 2.3541 3.08763 2.28995C3.12711 2.24438 3.16656 2.19781 3.20677 2.14865C3.28592 2.05194 3.37985 1.95642 3.45334 1.88174L3.45512 1.87991C3.47275 1.86203 3.48917 1.84531 3.50391 1.83008C3.5925 1.73856 3.64807 1.67383 3.68446 1.61429C3.82228 1.38876 4.03864 1.24142 4.17061 1.15402C4.21257 1.12622 4.24899 1.10251 4.28113 1.08163C4.37831 1.0184 4.43465 0.98172 4.47957 0.938446C4.64168 0.782349 4.81215 0.661285 4.96732 0.558899C5.00812 0.531952 5.04587 0.507538 5.08162 0.484619C5.10501 0.469604 5.12755 0.455231 5.14954 0.441223C5.23456 0.386993 5.31133 0.338074 5.39729 0.277893C5.52335 0.189636 5.66693 0.0928955 5.81946 0Z" fill="#A8A600"/>
</svg>
