<?xml version="1.0" encoding="UTF-8"?>
<svg width="16px" height="16px" viewBox="0 0 16 16" version="1.1" xmlns="http://www.w3.org/2000/svg" xmlns:xlink="http://www.w3.org/1999/xlink">
    <!-- Generator: Sketch 58 (84663) - https://sketch.com -->
    <title>clan_sticker</title>
    <desc>Created with Sketch.</desc>
    <g id="Icons-(read-only)" stroke="none" stroke-width="1" fill="none" fill-rule="evenodd">
        <g id="Icons-for-Toolbar" transform="translate(-561.000000, -1320.000000)">
            <g id="Icons/16x16/Tank/StickerClan" transform="translate(561.000000, 1320.000000)">
                <g id="icon_sticker_clan">
                    <path d="M15.713,7.50695 C15.929,7.29101 16.0389,6.98801 15.9874,6.68699 C15.7162,5.10172 14.9688,3.58203 13.745,2.35827 C10.6006,-0.78609 5.50263,-0.78609 2.35827,2.35827 C-0.78609,5.50263 -0.78609,10.6006 2.35827,13.745 C3.58203,14.9688 5.10172,15.7162 6.68699,15.9874 C6.98801,16.0389 7.29101,15.929 7.50695,15.713 L15.713,7.50695 Z M5.00645,6.01291 C5.5623,6.01291 6.01291,5.5623 6.01291,5.00645 C6.01291,4.4506 5.5623,4 5.00645,4 C4.4506,4 4,4.4506 4,5.00645 C4,5.5623 4.4506,6.01291 5.00645,6.01291 Z M11.0065,6.01291 C11.5623,6.01291 12.0129,5.5623 12.0129,5.00645 C12.0129,4.4506 11.5623,4 11.0065,4 C10.4506,4 10,4.4506 10,5.00645 C10,5.5623 10.4506,6.01291 11.0065,6.01291 Z M3.98898,9.40209 C4.42085,11.2954 6.12993,12.5657 8,12.5117 L8,13.5122 C5.67329,13.5664 3.55171,11.9816 3.01402,9.62449 C2.95261,9.35527 3.12107,9.08723 3.3903,9.02582 C3.65953,8.9644 3.92756,9.13287 3.98898,9.40209 Z" id="Shape" fill="#FFFFFF"></path>
                    <path d="M15.9998,6.8546 C15.9943,7.09771 15.8888,7.33114 15.713,7.50692 L7.50695,15.713 C7.33117,15.8888 7.09774,15.9943 6.85463,15.9997 C6.6036,13.404 7.24754,10.9907 9.11913,9.1191 C10.9907,7.24751 13.404,6.60357 15.9998,6.8546 Z" id="Path" fill="#525252" fill-rule="nonzero"></path>
                    <path d="M15.88,7.33996 C13.535,7.08176 11.2729,7.67702 9.47499,9.47497 C7.67703,11.2729 7.08178,13.535 7.33998,15.88 L15.88,7.33996 Z" id="Path" fill="#CCCCCC" fill-rule="nonzero"></path>
                </g>
            </g>
        </g>
    </g>
</svg>