<svg width="16" height="16" viewBox="0 0 16 16" fill="none" xmlns="http://www.w3.org/2000/svg">
<path d="M0 0H3V2H7L6 4V6H4V4H1.78076C1.3219 4 0.921936 3.68771 0.810638 3.24252L0 0Z" fill="#CCCCCC"/>
<path d="M7 5V7H3V5H0L0.810638 8.24252C0.921936 8.68771 1.3219 9 1.78076 9H4V11H6V9H8L9 8L8 6L7 5Z" fill="#CCCCCC"/>
<path d="M5 12H3V10H0L0.810638 13.2425C0.921936 13.6877 1.3219 14 1.78076 14H4V16H6V14H7L5 12Z" fill="#CCCCCC"/>
<path d="M9 14L7 12L9 10V12H13V10H16L15.1894 13.2425C15.0781 13.6877 14.6781 14 14.2192 14H12V16H10V14H9Z" fill="#CCCCCC"/>
<path d="M10 9V11H12V9H14.2192C14.6781 9 15.0781 8.68771 15.1894 8.24252L16 5H13V7H10L11 8L10 9Z" fill="#CCCCCC"/>
<path d="M8.5 4H10V6H12V4H14.2192C14.6781 4 15.0781 3.68771 15.1894 3.24252L16 0H13V2H10L8.5 4Z" fill="#CCCCCC"/>
<path d="M9 14L7 12L9 10V12H13V10H16L15.1894 13.2425C15.0781 13.6877 14.6781 14 14.2192 14H12V16H10V14H9Z" fill="white"/>
<path d="M10 9V11H12V9H14.2192C14.6781 9 15.0781 8.68771 15.1894 8.24252L16 5H13V7H10L11 8L10 9Z" fill="white"/>
<path d="M8.5 4H10V6H12V4H14.2192C14.6781 4 15.0781 3.68771 15.1894 3.24252L16 0H13V2H10L8.5 4Z" fill="white"/>
</svg>
