<svg width="16" height="16" viewBox="0 0 16 16" fill="none" xmlns="http://www.w3.org/2000/svg">
<path fill-rule="evenodd" clip-rule="evenodd" d="M6.86723 0.000589326C7.10579 0.00930019 7.33422 0.11424 7.50696 0.286924L15.7131 8.49304C15.929 8.70899 16.039 9.01198 15.9874 9.313C15.7163 10.8983 14.9688 12.418 13.7451 13.6417C12.1597 15.2271 10.0778 16.0131 7.99999 15.9998L8 16H2C0.895431 16 0 15.1046 0 14L0 7.94919C0 7.94862 0 7.94806 0 7.94749L0 2C0 0.895431 0.89543 -4.47183e-08 2 -4.47183e-08H6.86719L6.86723 0.000589326Z" fill="#FFB740"/>
<path d="M6.85453 0.000221866C7.09764 0.00565672 7.33108 0.111234 7.50686 0.286961L15.7129 8.49309C15.8888 8.66886 15.9942 8.9023 15.9997 9.1454C13.4039 9.39642 10.9906 8.7525 9.11905 6.8809C7.24745 5.00935 6.60351 2.59597 6.85453 0.000221866Z" fill="#333333"/>
<path d="M7.34002 0.119974C7.08183 2.46501 7.67708 4.72712 9.47503 6.52502C11.2729 8.32298 13.5351 8.91824 15.8801 8.66004L7.34002 0.119974Z" fill="#D4D4D4"/>
</svg>
