<?xml version="1.0" encoding="UTF-8"?>
<svg width="16px" height="16px" viewBox="0 0 16 16" version="1.1" xmlns="http://www.w3.org/2000/svg" xmlns:xlink="http://www.w3.org/1999/xlink">
    <!-- Generator: Sketch 58 (84663) - https://sketch.com -->
    <title>decal</title>
    <desc>Created with Sketch.</desc>
    <g id="Icons-(read-only)" stroke="none" stroke-width="1" fill="none" fill-rule="evenodd">
        <g id="Icons-for-Toolbar" transform="translate(-753.000000, -1320.000000)">
            <g id="Icons/16x16/Tank/Decal" transform="translate(753.000000, 1320.000000)">
                <g id="icon_decal">
                    <path d="M7.50696,0.286924 C7.29101,0.0710402 6.98802,-0.0389652 6.687,0.0125647 C5.10173,0.283704 3.58203,1.0312 2.35827,2.25495 C-0.786091,5.39931 -0.786091,10.4974 2.35827,13.6417 C5.50263,16.7861 10.6007,16.7861 13.7451,13.6417 C14.9688,12.418 15.7163,10.8983 15.9874,9.313 C16.039,9.01198 15.929,8.70899 15.7131,8.49304 L7.50696,0.286924 Z" id="Path" fill="#FFFFFF" fill-rule="nonzero"></path>
                    <path d="M2,16 C0.895431,16 0,15.1046 0,14 L0,2 C0,0.895431 0.89543,0 2,0 L6.86719,0 L8,16 L2,16 Z" id="Path" fill="#FFFFFF" fill-rule="nonzero"></path>
                    <path d="M6.85459,0.000222206 C7.0977,0.0056572 7.33114,0.111234 7.50692,0.286961 L15.713,8.49309 C15.8888,8.66886 15.9943,8.9023 15.9997,9.1454 C13.404,9.39642 10.9907,8.7525 9.11911,6.8809 C7.24751,5.00935 6.60357,2.59597 6.85459,0.000222206 Z" id="Path" fill="#333333" fill-rule="nonzero"></path>
                    <path d="M7.33996,0.119974 C7.08176,2.46501 7.67702,4.72712 9.47497,6.52502 C11.2729,8.32298 13.535,8.91824 15.88,8.66004 L7.33996,0.119974 Z" id="Path" fill="#D4D4D4" fill-rule="nonzero"></path>
                </g>
            </g>
        </g>
    </g>
</svg>