<?xml version="1.0" encoding="UTF-8"?>
<svg width="16px" height="16px" viewBox="0 0 16 16" version="1.1" xmlns="http://www.w3.org/2000/svg" xmlns:xlink="http://www.w3.org/1999/xlink">
    <!-- Generator: Sketch 58 (84663) - https://sketch.com -->
    <title>fonts</title>
    <desc>Created with Sketch.</desc>
    <g id="Icons-(read-only)" stroke="none" stroke-width="1" fill="none" fill-rule="evenodd">
        <g id="Icons-for-Toolbar" transform="translate(-177.000000, -1320.000000)" fill="#FFFFFF">
            <g id="Icons/16x16/Tank/Fonts" transform="translate(177.000000, 1320.000000)">
                <g id="icon_fonts">
                    <path d="M2,0 C0.895432,0 0,0.895447 0,2 L0,14 C0,15.1046 0.895432,16 2,16 L14,16 C15.1046,16 16,15.1046 16,14 L16,2 C16,0.895447 15.1046,0 14,0 L2,0 Z M6.45312,3.35742 L4.25,3.35742 L2.05859,12 L3.81641,12 L4.21484,10.2305 L6.30664,10.2305 L6.59375,12 L8.36914,12 L6.45312,3.35742 Z M5.32227,4.44727 L6.08984,8.94727 L4.43164,8.94727 L5.32227,4.44727 Z M10.6191,9.73828 C10.6934,9.5625 10.8203,9.41602 11,9.29883 L11.9551,8.68359 L11.9551,10.2539 C11.9551,10.543 11.877,10.7559 11.7207,10.8926 C11.5645,11.0254 11.373,11.0918 11.1465,11.0918 C10.9199,11.0918 10.7559,11.0059 10.6543,10.834 C10.5566,10.6621 10.5078,10.457 10.5078,10.2188 C10.5078,10.0703 10.5449,9.91016 10.6191,9.73828 Z M9.10742,7.24805 L9.10742,7.56445 L10.5078,7.56445 L10.5078,7.42969 C10.5078,7.14453 10.582,6.9375 10.7305,6.80859 C10.8828,6.67578 11.0605,6.60938 11.2637,6.60938 C11.7246,6.60938 11.9551,6.79688 11.9551,7.17188 C11.9551,7.30469 11.918,7.42383 11.8438,7.5293 C11.7695,7.63477 11.6719,7.73242 11.5508,7.82227 C11.4297,7.91211 11.2871,7.99414 11.123,8.06836 C10.959,8.14258 10.791,8.2168 10.6191,8.29102 C10.0605,8.52539 9.64844,8.79883 9.38281,9.11133 C9.11719,9.42383 8.98438,9.85938 8.98438,10.418 C8.98438,11.0195 9.13867,11.4648 9.44727,11.7539 C9.75977,12.043 10.1543,12.1875 10.6309,12.1875 C11.0137,12.1875 11.3066,12.1172 11.5098,11.9766 C11.7129,11.8359 11.8867,11.6406 12.0312,11.3906 C12.0312,11.4766 12.0371,11.582 12.0488,11.707 C12.0645,11.832 12.0957,11.9297 12.1426,12 L13.6602,12 C13.5742,11.8906 13.5195,11.7617 13.4961,11.6133 C13.4766,11.4648 13.4668,11.2812 13.4668,11.0625 L13.4668,7.06641 C13.4668,6.77734 13.4102,6.5293 13.2969,6.32227 C13.1875,6.11523 13.0332,5.94531 12.834,5.8125 C12.6348,5.67969 12.3984,5.58203 12.125,5.51953 C11.8555,5.45703 11.5645,5.42578 11.252,5.42578 C10.9395,5.42578 10.6504,5.47266 10.3848,5.56641 C10.123,5.66016 9.89648,5.78906 9.70508,5.95312 C9.51367,6.11719 9.36523,6.30859 9.25977,6.52734 C9.1582,6.74609 9.10742,6.98633 9.10742,7.24805 Z" id="Shape"></path>
                </g>
            </g>
        </g>
    </g>
</svg>