<?xml version="1.0" encoding="UTF-8"?>
<svg width="16px" height="16px" viewBox="0 0 16 16" version="1.1" xmlns="http://www.w3.org/2000/svg" xmlns:xlink="http://www.w3.org/1999/xlink">
    <!-- Generator: Sketch 58 (84663) - https://sketch.com -->
    <title>gun</title>
    <desc>Created with Sketch.</desc>
    <g id="Icons-(read-only)" stroke="none" stroke-width="1" fill="none" fill-rule="evenodd">
        <g id="Icons-for-Toolbar" transform="translate(-369.000000, -1224.000000)">
            <g id="Icons/16x16/Tank/Gun" transform="translate(369.000000, 1224.000000)">
                <g id="icon_gun">
                    <path d="M4.9662,12.6319 C5.6187,13.5921 6,14.7515 6,16 L0,16 L0,10 C1.24846,10 2.40785,10.3813 3.36809,11.0338 C3.24878,11.0116 3.12574,11 3,11 C1.89543,11 1,11.8954 1,13 C1,14.1046 1.89543,15 3,15 C4.10457,15 5,14.1046 5,13 C5,12.8743 4.9884,12.7512 4.9662,12.6319 Z" id="Path" fill="#FFFFFF"></path>
                    <path d="M2.49999,16 L4.49999,16 C4.49999,15.4851 4.43514,14.9854 4.31316,14.5085 C3.96183,14.8146 3.50256,15 2.99999,15 C2.79132,15 2.59012,14.968 2.401,14.9088 C2.46602,15.2626 2.49999,15.6273 2.49999,16 Z" id="Path" fill="#666666" fill-rule="nonzero"></path>
                    <path d="M9.49999,6.5 C10.281,7.28104 11.5474,7.28105 12.3284,6.5 L15.1568,3.67157 C15.9379,2.89052 15.9379,1.62418 15.1568,0.843146 C14.3758,0.0621086 13.1095,0.0620978 12.3284,0.843146 L9.49999,3.67157 C8.71894,4.45262 8.71896,5.71896 9.49999,6.5 Z M14.4497,2.96447 C14.8403,2.57394 14.8403,1.94079 14.4497,1.55025 C14.0592,1.15971 13.4261,1.15972 13.0355,1.55025 C12.645,1.94078 12.645,2.57393 13.0355,2.96447 C13.4261,3.35501 14.0592,3.355 14.4497,2.96447 Z" id="Shape" fill="#FFFFFF"></path>
                    <path d="M7.99999,6.5 L2.45808,12.0439 C2.06755,12.4344 2.08632,13.0864 2.49999,13.5 C2.91367,13.9137 3.56561,13.9324 3.95613,13.5419 L3.95808,13.5439 L9.49999,8 L7.99999,6.5 Z" id="Path" fill="#FFFFFF" fill-rule="nonzero"></path>
                    <path d="M9.49403,6.50995 C9.76955,6.78546 10.1055,6.96387 10.4592,7.04498 L9.50112,8.0011 C9.14742,7.91998 8.81148,7.74158 8.53595,7.46606 C8.26095,7.1911 8.08279,6.85596 8.00143,6.50299 L8.95909,5.54504 C9.04025,5.89868 9.21856,6.2345 9.49403,6.50995 Z" id="Path" fill="#666666" fill-rule="nonzero"></path>
                </g>
            </g>
        </g>
    </g>
</svg>