<svg width="16" height="16" viewBox="0 0 16 16" fill="none" xmlns="http://www.w3.org/2000/svg">
<path fill-rule="evenodd" clip-rule="evenodd" d="M4.9662 12.6319C5.6187 13.5922 6 14.7515 6 16H0V10C1.24845 10 2.40784 10.3813 3.36808 11.0338C3.24877 11.0116 3.12574 11 3 11C1.89543 11 1 11.8954 1 13C1 14.1046 1.89543 15 3 15C4.10457 15 5 14.1046 5 13C5 12.8743 4.9884 12.7512 4.9662 12.6319Z" fill="#BDB76B"/>
<path d="M2.49999 16H4.49999C4.49999 15.4851 4.43514 14.9854 4.31316 14.5085C3.96183 14.8146 3.50256 15 2.99999 15C2.79132 15 2.59012 14.968 2.401 14.9088C2.46602 15.2626 2.49999 15.6273 2.49999 16Z" fill="#666666"/>
<path fill-rule="evenodd" clip-rule="evenodd" d="M9.49996 6.5C10.281 7.28104 11.5473 7.28105 12.3284 6.5L15.1568 3.67157C15.9379 2.89052 15.9379 1.62418 15.1568 0.843146C14.3758 0.0621086 13.1094 0.0620978 12.3284 0.843146L9.49996 3.67157C8.71891 4.45262 8.71892 5.71896 9.49996 6.5ZM14.4497 2.96447C14.8402 2.57394 14.8402 1.94079 14.4497 1.55025C14.0592 1.15971 13.426 1.15972 13.0355 1.55025C12.645 1.94078 12.645 2.57393 13.0355 2.96447C13.426 3.35501 14.0592 3.355 14.4497 2.96447Z" fill="#BDB76B"/>
<path d="M7.99996 6.5L2.45804 12.0439C2.06752 12.4344 2.08629 13.0864 2.49996 13.5C2.91364 13.9137 3.56558 13.9324 3.9561 13.5419L3.95804 13.5439L9.49996 8L7.99996 6.5Z" fill="#BDB76B"/>
<path d="M9.49406 6.50995C9.76958 6.78546 10.1055 6.96387 10.4592 7.04498L9.50115 8.0011C9.14745 7.91998 8.81151 7.74158 8.53598 7.46606C8.26098 7.1911 8.08282 6.85596 8.00146 6.50299L8.95912 5.54504C9.04028 5.89868 9.21859 6.2345 9.49406 6.50995Z" fill="#666666"/>
</svg>
