<svg width="16" height="16" viewBox="0 0 16 16" fill="none" xmlns="http://www.w3.org/2000/svg">
<path d="M0 8C0 6.89543 0.895431 6 2 6H14C15.1046 6 16 6.89543 16 8V9H0V8Z" fill="white"/>
<rect x="3" y="4" width="7" height="1" fill="white"/>
<path fill-rule="evenodd" clip-rule="evenodd" d="M4 9H1L2 12H14L15 9H12H8H4ZM4 9C4.55228 9 5 9.44772 5 10C5 10.5523 4.55228 11 4 11C3.44772 11 3 10.5523 3 10C3 9.44772 3.44772 9 4 9ZM8 9C8.55228 9 9 9.44772 9 10C9 10.5523 8.55228 11 8 11C7.44772 11 7 10.5523 7 10C7 9.44772 7.44772 9 8 9ZM12 9C12.5523 9 13 9.44772 13 10C13 10.5523 12.5523 11 12 11C11.4477 11 11 10.5523 11 10C11 9.44772 11.4477 9 12 9Z" fill="#D4D4D4"/>
<rect x="3" y="5" width="7" height="1" fill="#D4D4D4"/>
</svg>
