<?xml version="1.0" encoding="UTF-8"?>
<svg width="16px" height="16px" viewBox="0 0 16 16" version="1.1" xmlns="http://www.w3.org/2000/svg" xmlns:xlink="http://www.w3.org/1999/xlink">
    <!-- Generator: Sketch 58 (84663) - https://sketch.com -->
    <title>inscription</title>
    <desc>Created with Sketch.</desc>
    <defs>
        <path d="M2,0 C0.8954,0 0,0.8954 0,2 L0,6 L0.5858,6 C0.851,6 1.1054,5.8946 1.2929,5.7071 L5.7071,1.2929 C5.8946,1.1054 6,0.851 6,0.5858 L6,0 L2,0 Z" id="path-1"></path>
        <path d="M0,2 C0,0.8954 0.8954,0 2,0 L9,0 L9,8 L0,8 L0,2 Z" id="path-3"></path>
    </defs>
    <g id="Icons-(read-only)" stroke="none" stroke-width="1" fill="none" fill-rule="evenodd">
        <g id="Icons-for-Toolbar" transform="translate(-81.000000, -1320.000000)">
            <g id="Icons/16x16/Tank/Inscription" transform="translate(81.000000, 1320.000000)">
                <g id="icon_inscription-2">
                    <path d="M2,0 C0.895431,0 0,0.895431 0,2 L0,14 C0,15.1046 0.895431,16 2,16 L10.5858,16 C10.851,16 11.1054,15.8946 11.2929,15.7071 L15.7071,11.2929 C15.8946,11.1054 16,10.851 16,10.5858 L16,2 C16,0.895431 15.1046,0 14,0 L2,0 Z" id="Path" fill="#FFFFFF" fill-rule="nonzero"></path>
                    <path d="M4.26667,3 L6.54545,3 L8.52727,12.7877 L6.69091,12.7877 L6.39394,10.7837 L4.2303,10.7837 L3.81818,12.7877 L2,12.7877 L4.26667,3 Z M6.1697,9.33046 L5.37576,4.23424 L4.45455,9.33046 L6.1697,9.33046 Z" id="Shape" fill="#333333" fill-rule="nonzero"></path>
                    <path d="M11.2485,9.7286 C11.0626,9.86131 10.9313,10.0272 10.8545,10.2263 C10.7778,10.4209 10.7394,10.6023 10.7394,10.7704 C10.7394,11.0403 10.7899,11.2725 10.8909,11.4672 C10.996,11.6618 11.1657,11.7591 11.4,11.7591 C11.6343,11.7591 11.8323,11.6839 11.9939,11.5335 C12.1556,11.3787 12.2364,11.1376 12.2364,10.8102 L12.2364,9.03185 L11.2485,9.7286 Z M9.29091,7.76443 L9.29091,7.4061 C9.29091,7.10971 9.34343,6.83765 9.44848,6.58991 C9.55758,6.34218 9.71111,6.12541 9.90909,5.93962 C10.1071,5.75382 10.3414,5.60783 10.6121,5.50166 C10.8869,5.39549 11.1859,5.3424 11.5091,5.3424 C11.8323,5.3424 12.1333,5.37779 12.4121,5.44857 C12.6949,5.51935 12.9394,5.62995 13.1455,5.78036 C13.3515,5.93077 13.5111,6.1232 13.6242,6.35766 C13.7414,6.59213 13.8,6.87304 13.8,7.2004 L13.8,11.7259 C13.8,11.9737 13.8101,12.1816 13.8303,12.3497 C13.8545,12.5178 13.9111,12.6638 14,12.7877 L12.4303,12.7877 C12.3818,12.708 12.3495,12.5974 12.3333,12.4559 C12.3212,12.3143 12.3152,12.1949 12.3152,12.0975 C12.1657,12.3807 11.9859,12.6019 11.7758,12.7611 C11.5657,12.9204 11.2626,13 10.8667,13 C10.3737,13 9.96566,12.8363 9.64242,12.509 C9.32323,12.1816 9.16364,11.6773 9.16364,10.996 C9.16364,10.3634 9.30101,9.87016 9.57576,9.51626 C9.8505,9.16235 10.2768,8.85269 10.8545,8.58726 C11.0323,8.50321 11.2061,8.41915 11.3758,8.3351 C11.5455,8.25105 11.6929,8.15815 11.8182,8.0564 C11.9434,7.95466 12.0444,7.84406 12.1212,7.72462 C12.198,7.60518 12.2364,7.47025 12.2364,7.31984 C12.2364,6.89516 11.998,6.68281 11.5212,6.68281 C11.3111,6.68281 11.1273,6.75802 10.9697,6.90843 C10.8162,7.05441 10.7394,7.28887 10.7394,7.61181 L10.7394,7.76443 L9.29091,7.76443 Z" id="Shape" fill="#333333" fill-rule="nonzero"></path>
                    <g id="Clipped" transform="translate(10.000000, 10.000000)">
                        <mask id="mask-2" fill="white">
                            <use xlink:href="#path-1"></use>
                        </mask>
                        <g id="Path"></g>
                        <g id="Group" mask="url(#mask-2)">
                            <path d="M0,2 C0,0.8954 0.8954,0 2,0 L9,0 L9,8 L0,8 L0,2 Z" id="Path" fill="#C4C4C4" fill-rule="nonzero"></path>
                            <g id="Clipped">
                                <mask id="mask-4" fill="white">
                                    <use xlink:href="#path-3"></use>
                                </mask>
                                <g id="Path"></g>
                                <path d="M9,0 L9.5,0 L9.5,-0.5 L9,-0.5 L9,0 Z M9,8 L9,8.5 L9.5,8.5 L9.5,8 L9,8 Z M0,8 L-0.5,8 L-0.5,8.5 L0,8.5 L0,8 Z M2,0.5 L9,0.5 L9,-0.5 L2,-0.5 L2,0.5 Z M8.5,0 L8.5,8 L9.5,8 L9.5,0 L8.5,0 Z M9,7.5 L0,7.5 L0,8.5 L9,8.5 L9,7.5 Z M0.5,8 L0.5,2 L-0.5,2 L-0.5,8 L0.5,8 Z M2,-0.5 C0.6193,-0.5 -0.5,0.6193 -0.5,2 L0.5,2 C0.5,1.1716 1.1716,0.5 2,0.5 L2,-0.5 Z" id="Shape" fill="#000000" fill-rule="nonzero" mask="url(#mask-4)"></path>
                            </g>
                        </g>
                    </g>
                </g>
            </g>
        </g>
    </g>
</svg>