<svg width="16" height="16" viewBox="0 0 16 16" fill="none" xmlns="http://www.w3.org/2000/svg">
<path d="M2 0C0.895431 0 0 0.895431 0 2V14C0 15.1046 0.895431 16 2 16H10.5858C10.851 16 11.1054 15.8946 11.2929 15.7071L15.7071 11.2929C15.8946 11.1054 16 10.851 16 10.5858V2C16 0.895431 15.1046 0 14 0H2Z" fill="#FFE7BF"/>
<path d="M4.26667 3H6.54545L8.52727 12.7877H6.69091L6.39394 10.7837H4.2303L3.81818 12.7877H2L4.26667 3ZM6.1697 9.33046L5.37576 4.23424L4.45455 9.33046H6.1697Z" fill="#333333"/>
<path d="M11.2485 9.7286C11.0626 9.86131 10.9313 10.0272 10.8545 10.2263C10.7778 10.4209 10.7394 10.6023 10.7394 10.7704C10.7394 11.0403 10.7899 11.2725 10.8909 11.4672C10.996 11.6618 11.1657 11.7591 11.4 11.7591C11.6343 11.7591 11.8323 11.6839 11.9939 11.5335C12.1556 11.3787 12.2364 11.1376 12.2364 10.8102V9.03185L11.2485 9.7286ZM9.29091 7.76443V7.4061C9.29091 7.10971 9.34343 6.83765 9.44848 6.58991C9.55758 6.34218 9.71111 6.12541 9.90909 5.93962C10.1071 5.75382 10.3414 5.60783 10.6121 5.50166C10.8869 5.39549 11.1859 5.3424 11.5091 5.3424C11.8323 5.3424 12.1333 5.37779 12.4121 5.44857C12.6949 5.51935 12.9394 5.62995 13.1455 5.78036C13.3515 5.93077 13.5111 6.1232 13.6242 6.35766C13.7414 6.59213 13.8 6.87304 13.8 7.2004V11.7259C13.8 11.9737 13.8101 12.1816 13.8303 12.3497C13.8545 12.5178 13.9111 12.6638 14 12.7877H12.4303C12.3818 12.708 12.3495 12.5974 12.3333 12.4559C12.3212 12.3143 12.3152 12.1949 12.3152 12.0975C12.1657 12.3807 11.9859 12.6019 11.7758 12.7611C11.5657 12.9204 11.2626 13 10.8667 13C10.3737 13 9.96566 12.8363 9.64242 12.509C9.32323 12.1816 9.16364 11.6773 9.16364 10.996C9.16364 10.3634 9.30101 9.87016 9.57576 9.51626C9.8505 9.16235 10.2768 8.85269 10.8545 8.58726C11.0323 8.50321 11.2061 8.41915 11.3758 8.3351C11.5455 8.25105 11.6929 8.15815 11.8182 8.0564C11.9434 7.95466 12.0444 7.84406 12.1212 7.72462C12.198 7.60518 12.2364 7.47025 12.2364 7.31984C12.2364 6.89516 11.998 6.68281 11.5212 6.68281C11.3111 6.68281 11.1273 6.75802 10.9697 6.90843C10.8162 7.05441 10.7394 7.28887 10.7394 7.61181V7.76443H9.29091Z" fill="#333333"/>
<path d="M12 10C10.8954 10 10 10.8954 10 12V16H10.5858C10.851 16 11.1054 15.8946 11.2929 15.7071L15.7071 11.2929C15.8946 11.1054 16 10.851 16 10.5858V10H12Z" fill="#C4C4C4"/>
<path d="M10.5 12C10.5 11.1716 11.1716 10.5 12 10.5H16V10H12C10.8954 10 10 10.8954 10 12V16H10.5V12Z" fill="black"/>
</svg>
