<?xml version="1.0" encoding="UTF-8"?>
<svg width="16px" height="17px" viewBox="0 0 16 17" version="1.1" xmlns="http://www.w3.org/2000/svg" xmlns:xlink="http://www.w3.org/1999/xlink">
    <!-- Generator: Sketch 61.2 (89653) - https://sketch.com -->
    <title>Flora Copy 20</title>
    <desc>Created with Sketch.</desc>
    <g id="Icons-(read-only)" stroke="none" stroke-width="1" fill="none" fill-rule="evenodd">
        <g id="Icons-for-Toolbar-Copy" transform="translate(-176.000000, -1197.000000)">
            <g id="Icons/16x16/Tank/ModelSet_Mono" transform="translate(176.000000, 1197.000000)">
                <path d="M11.6876268,14.5478 L3.36362677,16.0158 C2.82162677,16.1108 2.30462677,15.7488 2.20862677,15.2068 L0.015626765,2.7678 C-0.080373235,2.2258 0.281626765,1.7078 0.824626765,1.6118 L9.14762677,0.1448 C9.68962677,0.0498 10.2076268,0.4108 10.3036268,0.9538 L12.4966268,13.3928 C12.5916268,13.9358 12.2296268,14.4518 11.6876268,14.5478" id="card_bg_blue_01-copy-3" fill="#8C8C8C"></path>
                <path d="M9.32242677,0.1298 C9.26442677,0.1298 9.20642677,0.1348 9.14842677,0.1448 L0.824426765,1.6118 C0.281426765,1.7078 -0.080573235,2.2258 0.015426765,2.7678 L2.20842677,15.2068 C2.29442677,15.6908 2.71442677,16.0308 3.18942677,16.0308 C3.24742677,16.0308 3.30542677,16.0258 3.36442677,16.0158 L11.6874268,14.5478 C12.2304268,14.4518 12.5924268,13.9358 12.4964268,13.3928 L10.3034268,0.9538 C10.2184268,0.4698 9.79742677,0.1298 9.32242677,0.1298 M9.32242677,0.6298 C9.56342677,0.6298 9.76842677,0.8028 9.81042677,1.0408 L12.0044268,13.4798 C12.0514268,13.7498 11.8704268,14.0078 11.6004268,14.0558 L3.27742677,15.5238 C3.24742677,15.5278 3.21842677,15.5308 3.18942677,15.5308 C2.94842677,15.5308 2.74242677,15.3588 2.70042677,15.1198 L0.508426765,2.6818 C0.460426765,2.4108 0.641426765,2.1518 0.911426765,2.1058 L9.23542677,0.6378 C9.26442677,0.6318 9.29342677,0.6298 9.32242677,0.6298" id="blue_bg-copy-3" fill="#595959"></path>
                <path d="M10.7789268,12.0566 L9.74992677,12.2376 L9.38692677,10.1796 L8.35892677,10.3616 L8.72092677,12.4186 L7.69292677,12.6006 L7.87392677,13.6286 L10.9599268,13.0846 L10.7789268,12.0566 Z M3.79092677,3.7416 L4.81992677,3.5606 L4.63792677,2.5316 L1.55092677,3.0756 L1.73292677,4.1046 L2.76192677,3.9226 L3.12492677,5.9806 L4.15392677,5.7986 L3.79092677,3.7416 Z M7.43792677,8.4576 L8.33392677,7.2126 L6.79992677,7.2596 L5.89292677,6.0226 L5.46392677,7.4946 L4.00692677,7.9756 L5.27492677,8.8396 L5.28092677,10.3736 L6.49492677,9.4346 L7.95592677,9.9026 L7.43792677,8.4576 Z" id="cover_bg_blue_01-copy-3" fill="#1A1A1A"></path>
                <path d="M5.6276,0.7652 L3.8916,2.9922 C3.7216,3.2282 3.5946,3.5012 3.5406,3.8082 L1.8696,13.2832 L2.2086,15.2062 C2.3046,15.7482 2.8216,16.1112 3.3636,16.0152 L11.6876,14.5472 C12.2296,14.4522 12.5916,13.9352 12.4966,13.3922 L10.3026,0.9532 C10.2796,0.8222 10.2306,0.7032 10.1626,0.5962 L8.3756,0.2812 L5.6276,0.7652 Z" id="shadow_02-copy" fill="#000000" opacity="0.600000024"></path>
                <path d="M12.6530268,15.8867 L4.32902677,14.4187 C3.78702677,14.3237 3.42502677,13.8057 3.52102677,13.2637 L5.71402677,0.8237 C5.80902677,0.2827 6.32702677,-0.0803 6.86902677,0.0157 L15.1930268,1.4837 C15.7350268,1.5787 16.0970268,2.0957 16.0020268,2.6387 L13.8080268,15.0767 C13.7130268,15.6197 13.1950268,15.9817 12.6530268,15.8867" id="card_bg_red_01-copy-3" fill="#FFF7F0"></path>
                <path d="M6.69452677,0 C6.21952677,0 5.79852677,0.341 5.71352677,0.824 L3.52052677,13.264 C3.42452677,13.806 3.78652677,14.323 4.32952677,14.419 L12.6525268,15.887 C12.7115268,15.896 12.7705268,15.901 12.8275268,15.901 C13.3025268,15.901 13.7225268,15.562 13.8085268,15.077 L16.0015268,2.639 C16.0975268,2.096 15.7355268,1.579 15.1925268,1.483 L6.86852677,0.016 C6.81052677,0.005 6.75252677,0 6.69452677,0 M6.69452677,0.5 L6.69452677,0.5 C6.72352677,0.5 6.75252677,0.503 6.78152677,0.508 L15.1055268,1.976 C15.3755268,2.023 15.5565268,2.281 15.5085268,2.552 L13.3165268,14.99 C13.2745268,15.229 13.0685268,15.401 12.8275268,15.401 C12.7985268,15.401 12.7695268,15.399 12.7395268,15.394 L4.41652677,13.926 C4.14652677,13.879 3.96552677,13.62 4.01252677,13.35 L6.20652677,0.911 C6.24852677,0.673 6.45352677,0.5 6.69452677,0.5" id="red_border-copy-3" fill="#8C8C8C"></path>
                <path d="M11.6227268,13.0527 L11.9857268,10.9947 L10.9567268,10.8137 L10.5937268,12.8707 L9.56472677,12.6897 L9.38372677,13.7187 L12.4697268,14.2627 L12.6517268,13.2347 L11.6227268,13.0527 Z M8.56572677,5.0877 L8.92872677,3.0307 L9.95672677,3.2117 L10.1387268,2.1837 L7.05172677,1.6387 L6.87072677,2.6677 L7.89972677,2.8497 L7.53672677,4.9067 L8.56572677,5.0877 Z M10.7427268,8.7097 L12.0097268,7.8467 L10.5537268,7.3657 L10.1237268,5.8937 L9.21672677,7.1297 L7.68372677,7.0837 L8.57972677,8.3287 L8.06072677,9.7727 L9.52172677,9.3057 L10.7357268,10.2437 L10.7427268,8.7097 Z" id="cover_red_01-copy-3" fill="#454545"></path>
            </g>
        </g>
    </g>
</svg>