<svg width="16" height="16" viewBox="0 0 16 16" fill="none" xmlns="http://www.w3.org/2000/svg">
<rect width="16" height="16" fill="#808080"/>
<path fill-rule="evenodd" clip-rule="evenodd" d="M0 10H4V12H6V10H10V12H12V10H16V11V15H15V11H13V13H9V11H7V13H3V11H1V15H0V11V10Z" fill="white"/>
<path fill-rule="evenodd" clip-rule="evenodd" d="M0 5H4V7H6V5H10V7H12V5H16V6V10H15V6H13V8H9V6H7V8H3V6H1V10H0V6V5Z" fill="white"/>
<path fill-rule="evenodd" clip-rule="evenodd" d="M0 0H4V2H6V0H10V2H12V0H16V1V5H15V1H13V3H9V1H7V3H3V1H1V5H0V1V0Z" fill="white"/>
<rect y="15" width="16" height="1" fill="white"/>
</svg>
