<svg width="16" height="16" viewBox="0 0 16 16" fill="none" xmlns="http://www.w3.org/2000/svg">
<path fill-rule="evenodd" clip-rule="evenodd" d="M0 5H4V7H6V5H10V7H12V5H16V6V10H15V6H13V8H9V6H7V8H3V6H1V10H0V6V5Z" fill="white"/>
<path fill-rule="evenodd" clip-rule="evenodd" d="M0 0H4V2H6V0H10V2H12V0H16V1V5H15V1H13V3H9V1H7V3H3V1H1V5H0V1V0Z" fill="white"/>
<path fill-rule="evenodd" clip-rule="evenodd" d="M4 10H0V11V15V16H16V15V11V10H12V12H10V10H6V12H4V10ZM15 15V11H13V13H9V11H7V13H3V11H1V15H15Z" fill="white"/>
</svg>
