<svg width="16" height="16" viewBox="0 0 16 16" fill="none" xmlns="http://www.w3.org/2000/svg">
<path fill-rule="evenodd" clip-rule="evenodd" d="M0.707107 7.29289C0.316583 7.68342 0.316583 8.31658 0.707107 8.70711L5.29289 13.2929C5.68342 13.6834 6.31658 13.6834 6.70711 13.2929L14 6L8 0L0.707107 7.29289ZM5 5L8 2L11 5H5Z" fill="#DBD0CE"/>
<path d="M14.0287 5.02872L13 4H14.2929C14.7456 4 15.1799 4.17986 15.5 4.5C15.8201 4.82014 16 5.25435 16 5.70711V13.0305C16 14.1182 15.1182 15 14.0305 15C12.6053 15 11.652 13.533 12.2308 12.2307L14.4421 7.25521C14.7782 6.49899 14.6139 5.61388 14.0287 5.02872Z" fill="#BDB76B"/>
<path d="M2 8L5 5H11L12 6L6 12L2 8Z" fill="#BDB76B"/>
</svg>
