<?xml version="1.0" encoding="UTF-8"?>
<svg width="16px" height="16px" viewBox="0 0 16 16" version="1.1" xmlns="http://www.w3.org/2000/svg" xmlns:xlink="http://www.w3.org/1999/xlink">
    <!-- Generator: Sketch 58 (84663) - https://sketch.com -->
    <title>phycical_tracks</title>
    <desc>Created with Sketch.</desc>
    <g id="Icons-(read-only)" stroke="none" stroke-width="1" fill="none" fill-rule="evenodd">
        <g id="Icons-for-Toolbar" transform="translate(-177.000000, -1224.000000)" fill="#FFFFFF">
            <g id="Icons/16x16/Tank/Tracks" transform="translate(177.000000, 1224.000000)">
                <g id="icon_tracks">
                    <path d="M0,0 L3,0 L3,2 L7,2 L7,0 L9,0 L9,2 L13,2 L13,0 L16,0 L15.1894,3.24252 C15.0781,3.68771 14.6781,4 14.2192,4 L12,4 L12,6 L10,6 L10,4 L6,4 L6,6 L4,6 L4,4 L1.78078,4 C1.32191,4 0.921925,3.68771 0.810635,3.24252 L0,0 Z" id="Path" fill-rule="nonzero"></path>
                    <path d="M0,5 L3,5 L3,7 L7,7 L7,5 L9,5 L9,7 L13,7 L13,5 L16,5 L15.1894,8.24252 C15.0781,8.68771 14.6781,9 14.2192,9 L12,9 L12,11 L10,11 L10,9 L6,9 L6,11 L4,11 L4,9 L1.78078,9 C1.32191,9 0.921925,8.68771 0.810635,8.24252 L0,5 Z" id="Path" fill-rule="nonzero"></path>
                    <path d="M3,10 L0,10 L0.810635,13.2425 C0.921925,13.6877 1.32191,14 1.78078,14 L4,14 L4,16 L6,16 L6,14 L10,14 L10,16 L12,16 L12,14 L14.2192,14 C14.6781,14 15.0781,13.6877 15.1894,13.2425 L16,10 L13,10 L13,12 L9,12 L9,10 L7,10 L7,12 L3,12 L3,10 Z" id="Path" fill-rule="nonzero"></path>
                </g>
            </g>
        </g>
    </g>
</svg>