<svg width="16" height="16" viewBox="0 0 16 16" fill="none" xmlns="http://www.w3.org/2000/svg">
<path d="M6 3H10V5H13C14.0086 5 14.3749 4.99914 14.5 6L15 11H12V13H3.99998V11H1L1.5 6C1.62828 5.00224 1.99403 5 3 5H6V3Z" fill="white" fill-opacity="0.25"/>
<path fill-rule="evenodd" clip-rule="evenodd" d="M5 4H2.78789C1.78192 4 0.932503 4.7472 0.80422 5.74496L0 12H3V14H13V12H16L15.219 5.75193C15.0939 4.75107 14.2431 4 13.2344 4H11V2H5V4ZM6 3V5H2.78789C2.28491 5 1.8602 5.3736 1.79606 5.87248L1.1368 11H4V13H12V11H14.8672L14.2267 5.87597C14.1642 5.37554 13.7388 5 13.2344 5H10V3H6Z" fill="white"/>
<path d="M9 8C9 8.55228 8.55228 9 8 9C7.44772 9 7 8.55228 7 8C7 7.44772 7.44772 7 8 7C8.55228 7 9 7.44772 9 8Z" fill="black"/>
<path fill-rule="evenodd" clip-rule="evenodd" d="M8 9C8.55228 9 9 8.55228 9 8C9 7.44772 8.55228 7 8 7C7.44772 7 7 7.44772 7 8C7 8.55228 7.44772 9 8 9ZM8 10C9.10457 10 10 9.10457 10 8C10 6.89543 9.10457 6 8 6C6.89543 6 6 6.89543 6 8C6 9.10457 6.89543 10 8 10Z" fill="white"/>
</svg>
