<svg width="16" height="16" viewBox="0 0 16 16" fill="none" xmlns="http://www.w3.org/2000/svg">
<path d="M0 0H3V2H7V0H9V2H13V0H16L15.1894 3.24252C15.0781 3.68771 14.6781 4 14.2192 4H12V6H10V4H6V6H4V4H1.78078C1.32191 4 0.921925 3.68771 0.810635 3.24252L0 0Z" fill="#DBD0CE"/>
<path d="M0 5H3V7H7V5H9V7H13V5H16L15.1894 8.24252C15.0781 8.68771 14.6781 9 14.2192 9H12V11H10V9H6V11H4V9H1.78078C1.32191 9 0.921925 8.68771 0.810635 8.24252L0 5Z" fill="#DBD0CE"/>
<path d="M3 10H0L0.810635 13.2425C0.921925 13.6877 1.32191 14 1.78078 14H4V16H6V14H10V16H12V14H14.2192C14.6781 14 15.0781 13.6877 15.1894 13.2425L16 10H13V12H9V10H7V12H3V10Z" fill="#DBD0CE"/>
</svg>
