<?xml version="1.0" encoding="UTF-8"?>
<svg width="16px" height="16px" viewBox="0 0 16 16" version="1.1" xmlns="http://www.w3.org/2000/svg" xmlns:xlink="http://www.w3.org/1999/xlink">
    <!-- Generator: Sketch 58 (84663) - https://sketch.com -->
    <title>spline_tracks</title>
    <desc>Created with Sketch.</desc>
    <g id="Icons-(read-only)" stroke="none" stroke-width="1" fill="none" fill-rule="evenodd">
        <g id="Icons-for-Toolbar" transform="translate(-465.000000, -1320.000000)" fill="#FFFFFF">
            <g id="Icons/16x16/Tank/TracksSpline" transform="translate(465.000000, 1320.000000)">
                <g id="icon_spline_tracks">
                    <polygon id="Path" points="0 3 4 3 4 5 6 5 6 3 10 3 10 5 12 5 12 3 16 3 16 4 15 8 14 8 15 4 13 4 13 6 9 6 9 4 7 4 7 6 3 6 3 4 1 4 2 8 1 8 0 4"></polygon>
                    <polygon id="Path" points="0 8 4 8 4 10 6 10 6 8 10 8 10 10 12 10 12 8 16 8 16 9 15 13 14 13 15 9 13 9 13 11 9 11 9 9 7 9 7 11 3 11 3 9 1 9 2 13 1 13 0 9"></polygon>
                    <path d="M2.03078,14 C1.57191,14 1.17193,13.6877 1.06063,13.2425 L1,13 L4,13 L4,15 L6,15 L6,13 L10,13 L10,15 L12,15 L12,13 L15,13 L14.9394,13.2425 C14.8281,13.6877 14.4281,14 13.9692,14 L13,14 L13,16 L9,16 L9,14 L7,14 L7,16 L3,16 L3,14 L2.03078,14 Z" id="Path" fill-rule="nonzero"></path>
                    <polygon id="Path" points="0 0 16 0 16 1 15.5 3 14.5 3 15 1 1 1 1.5 3 0.5 3 0 1"></polygon>
                </g>
            </g>
        </g>
    </g>
</svg>