<svg width="16" height="16" viewBox="0 0 16 16" fill="none" xmlns="http://www.w3.org/2000/svg">
<g clip-path="url(#clip0)">
<path fill-rule="evenodd" clip-rule="evenodd" d="M15.713 7.50695C15.929 7.29101 16.0389 6.98801 15.9874 6.68699C15.7162 5.10172 14.9688 3.58203 13.745 2.35827C10.6006 -0.78609 5.50263 -0.78609 2.35827 2.35827C-0.78609 5.50263 -0.78609 10.6006 2.35827 13.745C3.58203 14.9688 5.10172 15.7162 6.68699 15.9874C6.98801 16.0389 7.29101 15.929 7.50695 15.713L15.713 7.50695ZM5.00645 6.01291C5.5623 6.01291 6.01291 5.5623 6.01291 5.00645C6.01291 4.4506 5.5623 4 5.00645 4C4.4506 4 4 4.4506 4 5.00645C4 5.5623 4.4506 6.01291 5.00645 6.01291ZM11.0065 6.01291C11.5623 6.01291 12.0129 5.5623 12.0129 5.00645C12.0129 4.4506 11.5623 4 11.0065 4C10.4506 4 10 4.4506 10 5.00645C10 5.5623 10.4506 6.01291 11.0065 6.01291ZM3.98898 9.40209C4.42085 11.2954 6.12993 12.5657 8 12.5117V13.5122C5.67329 13.5664 3.55171 11.9816 3.01402 9.62449C2.95261 9.35527 3.12107 9.08723 3.3903 9.02582C3.65953 8.9644 3.92756 9.13287 3.98898 9.40209Z" fill="#FFCF80"/>
<path d="M15.9998 6.8546C15.9943 7.09771 15.8888 7.33114 15.713 7.50692L7.50698 15.713C7.3312 15.8888 7.09777 15.9943 6.85466 15.9997C6.60363 13.404 7.24757 10.9907 9.11916 9.1191C10.9907 7.24751 13.404 6.60357 15.9998 6.8546Z" fill="#525252"/>
<path d="M15.88 7.33996C13.535 7.08176 11.2729 7.67702 9.47503 9.47497C7.67707 11.2729 7.08182 13.535 7.34002 15.88L15.88 7.33996Z" fill="#CCCCCC"/>
</g>
<defs>
<clipPath id="clip0">
<path d="M0 0H16V16H0V0Z" fill="white"/>
</clipPath>
</defs>
</svg>
