<?xml version="1.0" encoding="UTF-8"?>
<svg width="16px" height="16px" viewBox="0 0 16 16" version="1.1" xmlns="http://www.w3.org/2000/svg" xmlns:xlink="http://www.w3.org/1999/xlink">
    <!-- Generator: Sketch 58 (84663) - https://sketch.com -->
    <title>stickers</title>
    <desc>Created with Sketch.</desc>
    <g id="Icons-(read-only)" stroke="none" stroke-width="1" fill="none" fill-rule="evenodd">
        <g id="Icons-for-Toolbar" transform="translate(-561.000000, -1224.000000)">
            <g id="Icons/16x16/Tank/Sticker" transform="translate(561.000000, 1224.000000)">
                <g id="icon_sticker">
                    <path d="M15.9874,6.68699 C16.0389,6.98801 15.929,7.29101 15.713,7.50695 L11.242,11.9779 L10.1796,8.7082 L13.7063,6.1459 L9.34708,6.1459 L8,2 L6.65292,6.1459 L2.29366,6.1459 L5.82037,8.7082 L4.47329,12.8541 L8,10.2918 L10.8544,12.3656 L7.50695,15.713 C7.29101,15.929 6.98801,16.0389 6.68699,15.9874 C5.10172,15.7162 3.58203,14.9688 2.35827,13.745 C-0.78609,10.6006 -0.78609,5.50263 2.35827,2.35827 C5.50263,-0.78609 10.6006,-0.78609 13.745,2.35827 C14.9688,3.58203 15.7162,5.10172 15.9874,6.68699 Z" id="Path" fill="#FFFFFF"></path>
                    <path d="M15.9998,6.85458 C15.9944,7.09769 15.8888,7.33113 15.713,7.5069 L7.50698,15.713 C7.3312,15.8887 7.09777,15.9943 6.85466,15.9997 C6.60363,13.404 7.24757,10.9907 9.11916,9.11909 C10.9908,7.24749 13.4041,6.60356 15.9998,6.85458 Z" id="Path" fill="#525252" fill-rule="nonzero"></path>
                    <path d="M15.88,7.33997 C13.535,7.08177 11.2729,7.67703 9.47498,9.47498 C7.67703,11.2729 7.08177,13.535 7.33997,15.88 L15.88,7.33997 Z" id="Path" fill="#CCCCCC" fill-rule="nonzero"></path>
                </g>
            </g>
        </g>
    </g>
</svg>