<svg width="16" height="16" viewBox="0 0 16 16" fill="none" xmlns="http://www.w3.org/2000/svg">
<path fill-rule="evenodd" clip-rule="evenodd" d="M15.9874 6.68699C16.0389 6.98801 15.929 7.29101 15.713 7.50695L11.242 11.9779L10.1796 8.7082L13.7063 6.1459H9.34708L8 2L6.65292 6.1459H2.29366L5.82037 8.7082L4.47329 12.8541L8 10.2918L10.8544 12.3656L7.50695 15.713C7.29101 15.929 6.98801 16.0389 6.68699 15.9874C5.10172 15.7162 3.58203 14.9688 2.35827 13.745C-0.78609 10.6006 -0.78609 5.50263 2.35827 2.35827C5.50263 -0.78609 10.6006 -0.78609 13.745 2.35827C14.9688 3.58203 15.7162 5.10172 15.9874 6.68699Z" fill="#FF9F00"/>
<path d="M15.9998 6.85457C15.9944 7.09768 15.8888 7.33111 15.713 7.50688L7.50698 15.713C7.3312 15.8887 7.09777 15.9943 6.85466 15.9997C6.60363 13.404 7.24757 10.9907 9.11916 9.11907C10.9908 7.24748 13.4041 6.60354 15.9998 6.85457Z" fill="#525252"/>
<path d="M15.88 7.33996C13.535 7.08176 11.2729 7.67702 9.47498 9.47497C7.67703 11.2729 7.08177 13.535 7.33997 15.88L15.88 7.33996Z" fill="#CCCCCC"/>
</svg>
