<svg width="16" height="16" viewBox="0 0 16 16" fill="none" xmlns="http://www.w3.org/2000/svg">
<path fill-rule="evenodd" clip-rule="evenodd" d="M13 6.5C13 7.15311 12.5826 7.70873 12 7.91465V8H15V13C15 14.1046 14.1046 15 13 15H8V13.95C8.16155 13.9828 8.32877 14 8.5 14C9.88071 14 11 12.8807 11 11.5C11 10.1193 9.88071 9 8.5 9C8.32877 9 8.16155 9.01722 8 9.05001V8H11V7.91465C10.4174 7.70873 10 7.15311 10 6.5C10 5.67157 10.6716 5 11.5 5C12.3284 5 13 5.67157 13 6.5Z" fill="#3B79C3"/>
<path fill-rule="evenodd" clip-rule="evenodd" d="M8.5 13C7.84689 13 7.29127 12.5826 7.08535 12H7V15H2C0.895431 15 0 14.1046 0 13V8H1.05001C1.01721 8.16155 1 8.32877 1 8.5C1 9.88071 2.11929 11 3.5 11C4.88071 11 6 9.88071 6 8.5C6 8.32877 5.98278 8.16155 5.94999 8H7V11H7.08535C7.29127 10.4174 7.84689 10 8.5 10C9.32843 10 10 10.6716 10 11.5C10 12.3284 9.32843 13 8.5 13Z" fill="#59A600"/>
<path fill-rule="evenodd" clip-rule="evenodd" d="M2 8.5C2 7.84689 2.4174 7.29127 3 7.08535V7L0 7L0 2C0 0.895431 0.895431 0 2 0H7V1.05001C6.83845 1.01721 6.67123 1 6.5 1C5.11929 1 4 2.11929 4 3.5C4 4.88071 5.11929 6 6.5 6C6.67123 6 6.83845 5.98278 7 5.94999L7 7H4V7.08535C4.5826 7.29127 5 7.84689 5 8.5C5 9.32843 4.32843 10 3.5 10C2.67157 10 2 9.32843 2 8.5Z" fill="#F5A623"/>
<path fill-rule="evenodd" clip-rule="evenodd" d="M6.5 2C7.15311 2 7.70873 2.4174 7.91465 3H8V0L13 0C14.1046 0 15 0.895431 15 2V7H13.95C13.9828 6.83845 14 6.67123 14 6.5C14 5.11929 12.8807 4 11.5 4C10.1193 4 9 5.11929 9 6.5C9 6.67123 9.01722 6.83845 9.05001 7H8V4H7.91465C7.70873 4.5826 7.15311 5 6.5 5C5.67157 5 5 4.32843 5 3.5C5 2.67157 5.67157 2 6.5 2Z" fill="#F63131"/>
</svg>
