<?xml version="1.0" encoding="UTF-8"?>
<svg width="15px" height="15px" viewBox="0 0 15 15" version="1.1" xmlns="http://www.w3.org/2000/svg" xmlns:xlink="http://www.w3.org/1999/xlink">
    <!-- Generator: Sketch 58 (84663) - https://sketch.com -->
    <title>style</title>
    <desc>Created with Sketch.</desc>
    <g id="Icons-(read-only)" stroke="none" stroke-width="1" fill="none" fill-rule="evenodd">
        <g id="Icons-for-Toolbar" transform="translate(-753.000000, -1224.000000)">
            <g id="Icons/16x16/Tank/Style" transform="translate(753.000000, 1224.000000)">
                <g id="icon_style">
                    <path d="M13,6.5 C13,7.15311 12.5826,7.70873 12,7.91465 L12,8 L15,8 L15,13 C15,14.1046 14.1046,15 13,15 L8,15 L8,13.95 C8.16155,13.9828 8.32877,14 8.5,14 C9.88071,14 11,12.8807 11,11.5 C11,10.1193 9.88071,9 8.5,9 C8.32877,9 8.16155,9.01722 8,9.05001 L8,8 L11,8 L11,7.91465 C10.4174,7.70873 10,7.15311 10,6.5 C10,5.67157 10.6716,5 11.5,5 C12.3284,5 13,5.67157 13,6.5 Z" id="Path" fill="#FFFFFF"></path>
                    <path d="M8.5,13 C7.84689,13 7.29127,12.5826 7.08535,12 L7,12 L7,15 L2,15 C0.895431,15 0,14.1046 0,13 L0,8 L1.05001,8 C1.01721,8.16155 1,8.32877 1,8.5 C1,9.88071 2.11929,11 3.5,11 C4.88071,11 6,9.88071 6,8.5 C6,8.32877 5.98278,8.16155 5.94999,8 L7,8 L7,11 L7.08535,11 C7.29127,10.4174 7.84689,10 8.5,10 C9.32843,10 10,10.6716 10,11.5 C10,12.3284 9.32843,13 8.5,13 Z" id="Path" fill="#D4D4D4"></path>
                    <path d="M2,8.5 C2,7.84689 2.4174,7.29127 3,7.08535 L3,7 L0,7 L0,2 C0,0.895431 0.895431,0 2,0 L7,0 L7,1.05001 C6.83845,1.01721 6.67123,1 6.5,1 C5.11929,1 4,2.11929 4,3.5 C4,4.88071 5.11929,6 6.5,6 C6.67123,6 6.83845,5.98278 7,5.94999 L7,7 L4,7 L4,7.08535 C4.5826,7.29127 5,7.84689 5,8.5 C5,9.32843 4.32843,10 3.5,10 C2.67157,10 2,9.32843 2,8.5 Z" id="Path" fill="#FFFFFF"></path>
                    <path d="M6.5,2 C7.15311,2 7.70873,2.4174 7.91465,3 L8,3 L8,0 L13,0 C14.1046,0 15,0.895431 15,2 L15,7 L13.95,7 C13.9828,6.83845 14,6.67123 14,6.5 C14,5.11929 12.8807,4 11.5,4 C10.1193,4 9,5.11929 9,6.5 C9,6.67123 9.01722,6.83845 9.05001,7 L8,7 L8,4 L7.91465,4 C7.70873,4.5826 7.15311,5 6.5,5 C5.67157,5 5,4.32843 5,3.5 C5,2.67157 5.67157,2 6.5,2 Z" id="Path" fill="#D4D4D4"></path>
                </g>
            </g>
        </g>
    </g>
</svg>