<svg width="16" height="16" viewBox="0 0 16 16" fill="none" xmlns="http://www.w3.org/2000/svg">
<path fill-rule="evenodd" clip-rule="evenodd" d="M8 16C12.4183 16 16 12.4183 16 8C16 3.58173 12.4183 0 8 0C3.58173 0 0 3.58173 0 8C0 12.4183 3.58173 16 8 16ZM8 14C11.3137 14 14 11.3137 14 8C14 4.68629 11.3137 2 8 2C4.68628 2 2 4.68629 2 8C2 11.3137 4.68628 14 8 14Z" fill="#BDB76B"/>
<path fill-rule="evenodd" clip-rule="evenodd" d="M11 13.1961C13.8698 11.5393 14.853 7.86975 13.1962 4.99999C11.5393 2.13024 7.86978 1.14699 5.00003 2.80384C2.13027 4.4607 1.14702 8.13024 2.80387 11C4.46073 13.8697 8.13027 14.853 11 13.1961ZM7.00003 6.26794C7.71746 5.85373 7.96328 4.93634 7.54906 4.21891C7.13485 3.50147 6.21746 3.25565 5.50003 3.66987C4.78259 4.08408 4.53677 5.00147 4.95099 5.71891C5.3652 6.43634 6.28259 6.68216 7.00003 6.26794ZM11.2811 6.68301C11.9986 6.26879 12.2444 5.35141 11.8302 4.63397C11.4159 3.91653 10.4986 3.67072 9.78111 4.08493C9.06367 4.49914 8.81786 5.41653 9.23208 6.13397C9.64629 6.85141 10.5637 7.09722 11.2811 6.68301ZM12.5311 8.84807C12.9453 9.56551 12.6995 10.4829 11.9821 10.8971C11.2646 11.3113 10.3473 11.0655 9.93304 10.3481C9.51882 9.63063 9.76464 8.71325 10.4821 8.29903C11.1995 7.88482 12.1169 8.13063 12.5311 8.84807ZM8.51797 12.8971C9.23541 12.4829 9.48123 11.5655 9.06701 10.8481C8.6528 10.1306 7.73541 9.88482 7.01797 10.299C6.30054 10.7132 6.05472 11.6306 6.46894 12.3481C6.88315 13.0655 7.80054 13.3113 8.51797 12.8971ZM5.76797 8.13397C6.18219 8.85141 5.93638 9.76879 5.21894 10.183C4.5015 10.5972 3.58411 10.3514 3.1699 9.63397C2.75568 8.91653 3.0015 7.99914 3.71894 7.58493C4.43638 7.17072 5.35376 7.41653 5.76797 8.13397Z" fill="#8A854E"/>
</svg>
