<svg width="16" height="16" viewBox="0 0 16 16" fill="none" xmlns="http://www.w3.org/2000/svg">
<path d="M2 2H11V8H2V2Z" fill="#333333"/>
<path d="M15 12L8 16H14C14.5523 16 15 15.5523 15 15V12Z" fill="white"/>
<path d="M2.95229 10.5779L2.39598 9.61431C2.87054 9.66734 3.32979 9.56571 3.77372 9.3094C4.0535 9.14787 4.23578 8.96166 4.32057 8.75075C4.40767 8.53851 4.3885 8.32377 4.26308 8.10654C4.13362 7.88229 3.93671 7.7655 3.67236 7.75617C3.41032 7.74551 3.11051 7.83763 2.77293 8.03253L2.31165 8.29885L1.8221 7.45092L2.2487 7.20463C2.89611 6.83085 3.09439 6.42672 2.84355 5.99225C2.60754 5.58347 2.24098 5.52258 1.74386 5.8096C1.41091 6.00183 1.14991 6.29734 0.96088 6.69612L0.438965 5.79214C0.685608 5.41304 1.0413 5.08933 1.50605 4.821C2.01473 4.52732 2.47687 4.41467 2.89247 4.48306C3.31038 4.55011 3.62587 4.76818 3.83896 5.13724C4.21792 5.79362 4.12579 6.39497 3.56257 6.94127L3.57269 6.95879C3.94976 6.80026 4.30207 6.76971 4.62961 6.86714C4.95581 6.96223 5.20859 7.16511 5.38796 7.47578C5.65903 7.94529 5.70351 8.41481 5.52141 8.88434C5.33931 9.35387 4.94883 9.76152 4.34998 10.1073C3.83668 10.4036 3.37078 10.5605 2.95229 10.5779Z" fill="white"/>
<path d="M7.13395 8.49994L4.13395 3.30378L5.86328 2.30536C7.59715 1.30431 8.95153 1.64807 9.92642 3.33664C10.3936 4.14589 10.5296 4.92901 10.3342 5.686C10.1411 6.44167 9.65078 7.04684 8.86328 7.50151L7.13395 8.49994ZM5.78372 3.62195L7.68539 6.91574L8.23006 6.60128C8.70665 6.32612 8.99211 5.95839 9.08644 5.49809C9.18304 5.03648 9.08002 4.54357 8.77737 4.01937C8.49146 3.52415 8.13188 3.21319 7.69863 3.08647C7.26626 2.95603 6.80724 3.03101 6.32158 3.31141L5.78372 3.62195Z" fill="white"/>
<path d="M9.34809 4.33493L8.59809 3.03589L12.9282 0.535889L13.6782 1.83493L9.34809 4.33493Z" fill="white"/>
<path d="M5.22755 13.0648C5.46658 12.9268 5.77257 13.0088 5.91057 13.2478C6.04857 13.4868 5.96658 13.7928 5.72755 13.9308C5.48853 14.0688 5.18254 13.9868 5.04454 13.7478C4.90654 13.5088 4.98853 13.2028 5.22755 13.0648Z" fill="white"/>
<path d="M7.64262 12.2478C7.78062 12.4868 7.69863 12.7928 7.4596 12.9308C7.22058 13.0688 6.91459 12.9868 6.77659 12.7478C6.63859 12.5088 6.72058 12.2028 6.9596 12.0648C7.19863 11.9268 7.50462 12.0088 7.64262 12.2478Z" fill="white"/>
<path d="M8.69165 11.0648C8.93068 10.9268 9.23667 11.0088 9.37467 11.2478C9.51267 11.4868 9.43068 11.7928 9.19165 11.9308C8.95263 12.0688 8.64664 11.9868 8.50864 11.7478C8.37064 11.5088 8.45263 11.2028 8.69165 11.0648Z" fill="white"/>
<path d="M11.1067 10.2478C10.9687 10.0088 10.6627 9.92677 10.4237 10.0648C10.1847 10.2028 10.1027 10.5088 10.2407 10.7478C10.3787 10.9868 10.6847 11.0688 10.9237 10.9308C11.1627 10.7928 11.2447 10.4868 11.1067 10.2478Z" fill="white"/>
<path d="M12.1558 9.06477C12.3948 8.92677 12.7008 9.00876 12.8388 9.24778C12.9768 9.48681 12.8948 9.7928 12.6558 9.9308C12.4167 10.0688 12.1107 9.98681 11.9727 9.74778C11.8347 9.50876 11.9167 9.20277 12.1558 9.06477Z" fill="white"/>
<path fill-rule="evenodd" clip-rule="evenodd" d="M2.42852 11.2167L2.06966 12.5573C1.84708 13.3888 2.18147 14.2694 2.89982 14.7436L3.88132 15.3915C4.82956 16.0175 6.05006 16.054 7.03404 15.4859L13.3496 11.8396C14.3334 11.2716 14.912 10.1966 14.8443 9.06266L14.7742 7.88852C14.7228 7.02897 14.1271 6.29876 13.2954 6.0759L12.3608 5.82548L12.3563 5.82426L11.9548 5.71669L2.42852 11.2167ZM13.0652 7.04995C13.0027 7.2898 12.8493 7.51084 12.5975 7.65621L3.78701 12.7429C3.53531 12.8882 3.26726 12.9106 3.02834 12.8449C2.93223 13.252 3.09989 13.6775 3.45073 13.9091L4.43223 14.557C5.06439 14.9743 5.87805 14.9986 6.53404 14.6199L12.8496 10.9736C13.5055 10.5949 13.8912 9.87826 13.8461 9.12228L13.776 7.94813C13.7509 7.52829 13.466 7.17016 13.0652 7.04995Z" fill="white"/>
</svg>
