<svg width="16" height="16" viewBox="0 0 16 16" fill="none" xmlns="http://www.w3.org/2000/svg">
<path d="M2 2H11V8H2V2Z" fill="#333333"/>
<path d="M2.33961 7.7087V6.59609C2.72407 6.8793 3.17261 7.0209 3.68522 7.0209C4.00828 7.0209 4.25924 6.95078 4.43813 6.81052C4.61968 6.67026 4.71045 6.47471 4.71045 6.22387C4.71045 5.96494 4.59832 5.76534 4.37405 5.62508C4.15245 5.48483 3.84675 5.4147 3.45695 5.4147H2.92431V4.4356H3.4169C4.16446 4.4356 4.53825 4.18476 4.53825 3.68307C4.53825 3.21106 4.25123 2.97505 3.67721 2.97505C3.29275 2.97505 2.91897 3.10047 2.55587 3.35131V2.30748C2.95902 2.10249 3.42891 2 3.96556 2C4.55293 2 5.00948 2.13351 5.3352 2.40054C5.6636 2.66757 5.82779 3.01416 5.82779 3.44032C5.82779 4.19825 5.44734 4.67296 4.68642 4.86446V4.88469C5.09224 4.93594 5.41263 5.08564 5.64758 5.33378C5.88253 5.57923 6 5.88132 6 6.24005C6 6.7822 5.80376 7.21106 5.41129 7.52664C5.01882 7.84221 4.47684 8 3.78534 8C3.19263 8 2.71072 7.9029 2.33961 7.7087Z" fill="white"/>
<path d="M7 8V2H8.99686C10.999 2 12 2.9749 12 4.92469C12 5.85914 11.7262 6.6053 11.1785 7.16318C10.6334 7.72106 9.90618 8 8.99686 8H7ZM8.26965 3.10042V6.90377H8.89858C9.4489 6.90377 9.87998 6.72803 10.1918 6.37657C10.5063 6.0251 10.6635 5.54672 10.6635 4.94142C10.6635 4.3696 10.5076 3.9205 10.1958 3.59414C9.88653 3.26499 9.45152 3.10042 8.89072 3.10042H8.26965Z" fill="white"/>
<path fill-rule="evenodd" clip-rule="evenodd" d="M11 5.5V4H16V5.5H11ZM11 8H9.56659H4.56659H1.5666L0.585488 8.9816C-0.0230023 9.59039 -0.173726 10.5202 0.21129 11.2901L0.737344 12.3419C1.24557 13.3581 2.28428 14 3.42049 14H10.7131C11.8491 14 12.8877 13.3584 13.396 12.3424L13.9223 11.2905C14.3077 10.5205 14.1568 9.59025 13.548 8.98137L12.8638 8.29722L12.8605 8.29389L12.5666 8H11ZM3.06659 11C3.34259 11 3.56659 11.224 3.56659 11.5C3.56659 11.776 3.34259 12 3.06659 12C2.79059 12 2.56659 11.776 2.56659 11.5C2.56659 11.224 2.79059 11 3.06659 11ZM5.56659 11.5C5.56659 11.776 5.34259 12 5.06659 12C4.79059 12 4.56659 11.776 4.56659 11.5C4.56659 11.224 4.79059 11 5.06659 11C5.34259 11 5.56659 11.224 5.56659 11.5ZM7.06659 11C7.34259 11 7.56659 11.224 7.56659 11.5C7.56659 11.776 7.34259 12 7.06659 12C6.79059 12 6.56659 11.776 6.56659 11.5C6.56659 11.224 6.79059 11 7.06659 11ZM9.56659 11.5C9.56659 11.224 9.34259 11 9.06659 11C8.79059 11 8.56659 11.224 8.56659 11.5C8.56659 11.776 8.79059 12 9.06659 12C9.34259 12 9.56659 11.776 9.56659 11.5ZM11.0666 11C11.3426 11 11.5666 11.224 11.5666 11.5C11.5666 11.776 11.3426 12 11.0666 12C10.7906 12 10.5666 11.776 10.5666 11.5C10.5666 11.224 10.7906 11 11.0666 11ZM12.8616 9.70983C12.6875 9.88628 12.4441 10.001 12.1534 10.001H1.97997C1.68932 10.001 1.44601 9.88635 1.27195 9.70999C0.985171 10.0145 0.917635 10.4668 1.10567 10.8428L1.63173 11.8946C1.97055 12.5721 2.66302 13 3.42049 13H10.7131C11.4704 13 12.1628 12.5722 12.5017 11.895L13.028 10.8431C13.2163 10.4669 13.1486 10.0144 12.8616 9.70983Z" fill="white"/>
</svg>
