<svg width="16" height="16" viewBox="0 0 16 16" fill="none" xmlns="http://www.w3.org/2000/svg">
<circle cx="8" cy="8" r="5" fill="white"/>
<path fill-rule="evenodd" clip-rule="evenodd" d="M8 15C11.866 15 15 11.866 15 8C15 4.13401 11.866 1 8 1C4.13401 1 1 4.13401 1 8C1 11.866 4.13401 15 8 15ZM6.99978 4.99978C6.99978 4.4475 7.4475 3.99978 7.99978 3.99978C8.55207 3.99978 8.99978 4.4475 8.99978 4.99978V6.99978H10.9998C11.5521 6.99978 11.9998 7.4475 11.9998 7.99978C11.9998 8.55207 11.5521 8.99978 10.9998 8.99978H8.99978V10.9998C8.99978 11.5521 8.55207 11.9998 7.99978 11.9998C7.4475 11.9998 6.99978 11.5521 6.99978 10.9998V8.99978H4.99978C4.4475 8.99978 3.99978 8.55207 3.99978 7.99978C3.99978 7.4475 4.4475 6.99978 4.99978 6.99978H6.99978V4.99978Z" fill="#707070"/>
</svg>
