<svg width="16" height="16" viewBox="0 0 16 16" fill="none" xmlns="http://www.w3.org/2000/svg">
<path fill-rule="evenodd" clip-rule="evenodd" d="M8.51878 3.93206C9.37185 3.70357 10 2.92514 10 2C10 0.895431 9.10457 0 8 0C6.89543 0 6 0.895431 6 2C6 2.92514 6.62815 3.70357 7.48122 3.93206L7.43478 5H5.5C5.22386 5 5 5.22386 5 5.5C5 5.77614 5.22386 6 5.5 6H7.3913L7.08507 13.0434C7.06527 13.4988 6.74311 13.8721 6.31739 13.9731C6.20738 13.9358 6.09848 13.8949 5.99088 13.8504C5.35396 13.5865 4.77515 13.1998 4.28766 12.7123C3.80017 12.2248 3.41351 11.646 3.14958 11.0091C3.01451 10.683 2.913 10.3449 2.8461 10H5L1 6V9C1 9.33952 1.02417 9.6734 1.07089 10H1.07179C1.15484 10.5753 1.30941 11.1393 1.53288 11.6788C1.88461 12.5281 2.40019 13.2997 3.05025 13.9497C3.7003 14.5998 4.47191 15.1154 5.32117 15.4672C6.17053 15.8189 7.08078 16 8 16C8.91922 16 9.82947 15.8189 10.6788 15.4672C11.5281 15.1154 12.2997 14.5998 12.9498 13.9497C13.5998 13.2997 14.1154 12.5281 14.4671 11.6788C14.6906 11.1394 14.8452 10.5753 14.9282 10H14.9291C14.9758 9.6734 15 9.33952 15 9V6L11 10H13.1539C13.087 10.3449 12.9855 10.683 12.8504 11.0091C12.5865 11.646 12.1998 12.2248 11.7123 12.7123C11.2249 13.1998 10.646 13.5865 10.0091 13.8504C9.90152 13.8949 9.79262 13.9358 9.6826 13.9731C9.25689 13.8721 8.93473 13.4988 8.91493 13.0434L8.6087 6H10.5C10.7761 6 11 5.77614 11 5.5C11 5.22386 10.7761 5 10.5 5H8.56522L8.51878 3.93206ZM8 3C8.55228 3 9 2.55228 9 2C9 1.44772 8.55228 1 8 1C7.44772 1 7 1.44772 7 2C7 2.55228 7.44772 3 8 3Z" fill="#D4D4D4"/>
</svg>
