<svg width="16" height="16" viewBox="0 0 16 16" fill="none" xmlns="http://www.w3.org/2000/svg">
<path fill-rule="evenodd" clip-rule="evenodd" d="M1 3C1 2.447 1.448 2 2 2H6.5C6.814 2 7.111 2.149 7.299 2.401L8.5 4H14C14.553 4 15 4.447 15 5V7C15 6.447 14.553 6 14 6H2C1.448 6 1 6.447 1 7V6V3Z" fill="url(#paint0_linear)"/>
<path fill-rule="evenodd" clip-rule="evenodd" d="M2 6C1.448 6 1 6.447 1 7V13C1 13.553 1.448 14 2 14H14C14.553 14 15 13.553 15 13V7C15 6.447 14.553 6 14 6H2Z" fill="#D4D4D4"/>
<defs>
<linearGradient id="paint0_linear" x1="4.5" y1="4.5" x2="4.5" y2="7" gradientUnits="userSpaceOnUse">
<stop stop-color="#8C8C8C"/>
<stop offset="1" stop-color="#8C8C8C" stop-opacity="0.01"/>
</linearGradient>
</defs>
</svg>
