<svg width="16" height="16" viewBox="0 0 16 16" fill="none" xmlns="http://www.w3.org/2000/svg">
<path fill-rule="evenodd" clip-rule="evenodd" d="M2 7.99999C2 4.68629 4.68629 2 7.99999 2C9.52187 2 10.9114 2.56661 11.9692 3.50038C12.1744 4.10554 12.6306 4.75884 12.7143 5.42857C13.1428 8.85713 9.59941 11.8571 6.28571 11.8571C4.76383 11.8571 3.3743 10.8619 2.31654 9.92818C2.1113 9.32302 2 8.6745 2 7.99999Z" fill="white"/>
<path fill-rule="evenodd" clip-rule="evenodd" d="M6.28571 11.4284C9.59942 11.4284 12.2857 8.74213 12.2857 5.42843C12.2857 4.75392 12.1744 4.1054 11.9692 3.50024C13.2145 4.59965 13.5714 6.20803 13.5714 7.99985C13.5714 11.3136 11.3137 13.5713 8 13.5713C5.36081 13.5713 3.11961 12.2959 2.31655 9.92804C3.3743 10.8618 4.76384 11.4284 6.28571 11.4284Z" fill="#8C8C8C"/>
<path fill-rule="evenodd" clip-rule="evenodd" d="M7.14293 13.1428C10.4566 13.1428 13.1429 10.4565 13.1429 7.14284C13.1429 5.70428 12.6367 4.38396 11.7926 3.35034C13.1399 4.4506 14.0001 6.12483 14.0001 7.99998C14.0001 11.3137 11.3138 14 8.00008 14C6.12493 14 4.4507 13.1398 3.35044 11.7925C4.38406 12.6366 5.70437 13.1428 7.14293 13.1428Z" fill="#515151"/>
<path d="M7 1.5H6.5V2V14V14.5H7H8H8.5V14V2V1.5H8H7Z" fill="white" stroke="#272727"/>
<path fill-rule="evenodd" clip-rule="evenodd" d="M7 0L0 2V3V13V14L7 16V15L1 13.2857V2.71429L7 1V0ZM16 2L8 0V1L15 2.75V13.25L8 15V16L16 14V13V3V2Z" fill="white"/>
<path fill-rule="evenodd" clip-rule="evenodd" d="M8 0H7V2H8V0ZM8 14H7V16H8V14Z" fill="white"/>
</svg>
