<!DOCTYPE svg PUBLIC "-//W3C//DTD SVG 1.1//EN" "http://www.w3.org/Graphics/SVG/1.1/DTD/svg11.dtd">
<!-- Uploaded to: SVG Repo, www.svgrepo.com, Transformed by: SVG Repo Mixer Tools -->
<svg fill="#ffffff" version="1.1" baseProfile="tiny" id="Layer_1" xmlns:x="&amp;ns_extend;" xmlns:i="&amp;ns_ai;" xmlns:graph="&amp;ns_graphs;" xmlns="http://www.w3.org/2000/svg" xmlns:xlink="http://www.w3.org/1999/xlink" xmlns:a="http://ns.adobe.com/AdobeSVGViewerExtensions/3.0/" width="256px" height="256px" viewBox="-0.5 0.5 42 42" xml:space="preserve">
<g id="SVGRepo_bgCarrier" stroke-width="0"/>
<g id="SVGRepo_tracerCarrier" stroke-linecap="round" stroke-linejoin="round"/>
<g id="SVGRepo_iconCarrier"> <path d="M29.5,30.5h7c2.529,0,3-0.529,3-3v-21c0-2.41-0.59-3-3-3h-32c-2.47,0-3,0.53-3,3v20.971c0,2.469,0.41,3.029,3,3.029h13 c0,0,9.562,8.756,10.75,9.812c0.422,0.375,1.281,0.172,1.25-0.812V30.5z M7.5,21.5h21v3h-21V21.5z M7.5,15.5h13v3h-13V15.5z M7.5,9.5h26v3h-26V9.5z"/> </g>
</svg>