<?xml version="1.0" encoding="UTF-8"?>
<svg width="16px" height="16px" viewBox="0 0 16 16" version="1.1" xmlns="http://www.w3.org/2000/svg" xmlns:xlink="http://www.w3.org/1999/xlink">
    <!-- Generator: Sketch 53.2 (72643) - https://sketchapp.com -->
    <title>Icons/16x16/Asset Browser</title>
    <desc>Created with Sketch.</desc>
    <g id="Icons/16x16/Asset-Browser" stroke="none" stroke-width="1" fill="none" fill-rule="evenodd">
        <g id="Group" transform="translate(1.000000, 2.000000)">
            <path d="M0,1 L0,4 L9,4 L6.3,0.4 C6.11114562,0.148194157 5.8147573,-5.78199786e-17 5.5,0 L1,0 C0.44771525,1.01453063e-16 -6.76353751e-17,0.44771525 0,1 Z" id="Combined-Shape-Copy-4" fill="#8C8C8C"></path>
            <path d="M2,2 L12,2 C13.1045695,2 14,2.8954305 14,4 L14,11 C14,11.5522847 13.5522847,12 13,12 L1,12 C0.44771525,12 6.76353751e-17,11.5522847 0,11 L0,4 C-1.3527075e-16,2.8954305 0.8954305,2 2,2 Z" id="Rectangle-3-Copy-3" fill="#D4D4D4" fill-rule="nonzero"></path>
        </g>
    </g>
</svg>