<?xml version="1.0" encoding="UTF-8"?>
<svg width="12px" height="12px" viewBox="0 0 12 12" version="1.1" xmlns="http://www.w3.org/2000/svg" xmlns:xlink="http://www.w3.org/1999/xlink">
    <!-- Generator: Sketch 53.1 (72631) - https://sketchapp.com -->
    <title>Fill 1</title>
    <desc>Created with Sketch.</desc>
    <g id="Symbols" stroke="none" stroke-width="1" fill="none" fill-rule="evenodd">
        <g id="Icons/16x16/Search" transform="translate(-2.000000, -2.000000)" fill="#D4D4D4">
            <path d="M4.952,9.548 C4.338,8.935 4,8.118 4,7.25 C4,6.382 4.338,5.566 4.952,4.952 C5.565,4.338 6.382,4 7.25,4 C8.118,4 8.934,4.338 9.548,4.952 C10.162,5.566 10.5,6.382 10.5,7.25 C10.5,8.118 10.162,8.935 9.548,9.548 C8.321,10.777 6.179,10.777 4.952,9.548 L4.952,9.548 Z M13.733,12.319 L10.869,9.455 C11.272,8.796 11.5,8.042 11.5,7.25 C11.5,6.114 11.057,5.048 10.255,4.245 C9.452,3.443 8.386,3 7.25,3 C6.114,3 5.048,3.443 4.245,4.245 C3.442,5.048 3,6.114 3,7.25 C3,8.386 3.442,9.452 4.245,10.255 C5.048,11.058 6.114,11.5 7.25,11.5 C8.042,11.5 8.796,11.273 9.455,10.869 L12.319,13.734 L13.733,12.319 Z" id="Fill-1"></path>
        </g>
    </g>
</svg>