<svg width="16" height="16" viewBox="0 0 16 16" fill="none" xmlns="http://www.w3.org/2000/svg">
<path d="M4 3.45707e-05L7 3.00003H4V3.45707e-05Z" fill="white"/>
<path fill-rule="evenodd" clip-rule="evenodd" d="M3 3.00003L3 0H1C0.447715 0 0 0.447715 0 1V9C0 9.55229 0.447715 10 1 10H6C6.55228 10 7 9.55229 7 9V4.00003H4C3.73478 4.00003 3.48044 3.89468 3.29291 3.70714C3.10537 3.51961 3 3.26525 3 3.00003ZM2 3H1V4H2V3ZM6 5H1V6H6V5ZM1 7H6V8H1V7Z" fill="white"/>
<path fill-rule="evenodd" clip-rule="evenodd" d="M12 9.00003V6H10C9.44772 6 9 6.44772 9 7V15C9 15.5523 9.44771 16 10 16H15C15.5523 16 16 15.5523 16 15V10H13C12.7348 10 12.4804 9.89468 12.2929 9.70714C12.1054 9.51961 12 9.26525 12 9.00003ZM10 13H11V11H10V13ZM12 13H13V11H12V13ZM14 13H15V11H14V13Z" fill="white"/>
<path d="M13 6.00003L16 9.00003H13V6.00003Z" fill="white"/>
<path d="M1 11.5C1 11.2239 0.776142 11 0.5 11V11C0.223858 11 0 11.2239 0 11.5V12C0 13.1046 0.89543 14 2 14H5V16L8 13.5L5 11V13H2C1.44772 13 1 12.5523 1 12V11.5Z" fill="white"/>
</svg>
