<svg xmlns="http://www.w3.org/2000/svg" width="24" height="24" viewBox="0 0 24 24">
    <g fill="none" fill-rule="evenodd">
        <path d="M-36-36h96v96h-96z"/>
        <g fill="#000">
            <path d="M7 19V7h1v12H7zm10 0V7h1v12h-1zm-9 1v-1h9v1H8zm2-3V9h1.001v8H10zm2 0V9h1v8h-1zm2 0V9h1v8h-1zM6 7h13V5.999H6z"/>
            <path d="M10 6h1.001V5H10z"/>
            <path d="M10 5h1.001V4H10z" opacity=".5"/>
            <path d="M14 6h1V5h-1z"/>
            <path d="M14 5h1V4h-1z" opacity=".5"/>
            <path d="M17 20h1v-1h-1zM7 20h1v-1H7z" opacity=".3"/>
            <path d="M11 6h3V4h-3z"/>
        </g>
    </g>
</svg>
