<svg width="16" height="16" viewBox="0 0 16 16" fill="none" xmlns="http://www.w3.org/2000/svg">
<path d="M1.4606 11.2465L2 10.7071L2.64645 11.3536L3.64645 12.3536L5.29289 14L4.75349 14.5394L0.637377 15.3626L1.4606 11.2465Z" stroke="#B4B4B4"/>
<path fill-rule="evenodd" clip-rule="evenodd" d="M1.5 10.5L5.5 14.5L13.5 6.49999L9.5 2.5L10 2L14 5.99999L15.2929 4.70708C15.6834 4.31655 15.6834 3.68339 15.2929 3.29286L12.7071 0.707077C12.3166 0.316553 11.6834 0.316554 11.2929 0.707078L1.5 10.5Z" fill="#7E7E7E"/>
<path d="M14 6L10 2L11.2929 0.707107C11.6834 0.316583 12.3166 0.316582 12.7071 0.707106L15.2929 3.29289C15.6834 3.68342 15.6834 4.31658 15.2929 4.70711L14 6Z" fill="#666666"/>
<path d="M14 2L12.7071 0.707107C12.3166 0.316583 11.6834 0.316582 11.2929 0.707106L10 2L12 4L14 2Z" fill="#F2F2F2"/>
<path d="M10.5 3.5L9.5 2.5L1.5 10.5L2.5 11.5L10.5 3.5Z" fill="#F1F1F1"/>
<path d="M13.5 6.5L12.5 5.5L4.5 13.5L5.5 14.5L13.5 6.5Z" fill="#4D4D4D"/>
<path d="M0 16L2.5 15.5L1.5 14.5L0.5 13.5L0 16Z" fill="white"/>
<path d="M4.5 13.5001L2.5 11.5001C2.5 11.5001 3.5 10.5001 4.5 11.5001C5.5 12.5 4.5 13.5001 4.5 13.5001Z" fill="#B4B4B4"/>
<path fill-rule="evenodd" clip-rule="evenodd" d="M6.50003 13.5001L5.50003 14.5001L4.5 13.5001C4.5 13.5001 5.5 12.5001 6.5 13.5001C6.50001 13.5001 6.50002 13.5001 6.50003 13.5001Z" fill="#B4B4B4"/>
<path fill-rule="evenodd" clip-rule="evenodd" d="M1.5 10.5L2.5 11.5C2.5 11.5 3.5 10.5 2.5 9.50001C2.5 9.5 2.5 9.5 2.5 9.5L1.5 10.5Z" fill="#B4B4B4"/>
</svg>
