<svg width="17" height="17" viewBox="0 0 17 17" fill="none" xmlns="http://www.w3.org/2000/svg">
<path d="M5.56659 2H7.56659L8.56659 3H4.56659L5.56659 2Z" fill="white"/>
<path d="M2.56659 3.5V6L4.06709 6.5H10.5666V5.5H16V4H10.5666L9.56659 3.5H2.56659Z" fill="white"/>
<path d="M3.06659 11C3.34259 11 3.56659 11.224 3.56659 11.5C3.56659 11.776 3.34259 12 3.06659 12C2.79059 12 2.56659 11.776 2.56659 11.5C2.56659 11.224 2.79059 11 3.06659 11Z" fill="white"/>
<path d="M5.06659 12C5.34259 12 5.56659 11.776 5.56659 11.5C5.56659 11.224 5.34259 11 5.06659 11C4.79059 11 4.56659 11.224 4.56659 11.5C4.56659 11.776 4.79059 12 5.06659 12Z" fill="white"/>
<path d="M7.06659 11C7.34259 11 7.56659 11.224 7.56659 11.5C7.56659 11.776 7.34259 12 7.06659 12C6.79059 12 6.56659 11.776 6.56659 11.5C6.56659 11.224 6.79059 11 7.06659 11Z" fill="white"/>
<path d="M9.06659 11C9.34259 11 9.56659 11.224 9.56659 11.5C9.56659 11.776 9.34259 12 9.06659 12C8.79059 12 8.56659 11.776 8.56659 11.5C8.56659 11.224 8.79059 11 9.06659 11Z" fill="white"/>
<path d="M11.0666 11C11.3426 11 11.5666 11.224 11.5666 11.5C11.5666 11.776 11.3426 12 11.0666 12C10.7906 12 10.5666 11.776 10.5666 11.5C10.5666 11.224 10.7906 11 11.0666 11Z" fill="white"/>
<path fill-rule="evenodd" clip-rule="evenodd" d="M9.56659 7H4.56659V8H1.5666L0.585488 8.9816C-0.0230023 9.59039 -0.173726 10.5202 0.21129 11.2901L0.737344 12.3419C1.24557 13.3581 2.28428 14 3.42049 14H10.7131C11.8491 14 12.8877 13.3584 13.396 12.3424L13.9223 11.2905C14.3077 10.5205 14.1568 9.59025 13.548 8.98137L12.8638 8.29722L12.8605 8.29389L12.5666 8H9.56659V7ZM12.1534 10.001C12.4441 10.001 12.6875 9.88628 12.8616 9.70983C13.1486 10.0144 13.2163 10.4669 13.028 10.8431L12.5017 11.895C12.1628 12.5722 11.4704 13 10.7131 13H3.42049C2.66302 13 1.97055 12.5721 1.63173 11.8946L1.10567 10.8428C0.917635 10.4668 0.985171 10.0145 1.27195 9.70999C1.44601 9.88635 1.68932 10.001 1.97997 10.001H12.1534Z" fill="white"/>
<circle cx="12.5" cy="12.5" r="4" fill="white" stroke="#333333"/>
<path d="M11 12.5L12.5 14L14 11" stroke="#333333"/>
</svg>
