<svg width="22" height="19" viewBox="0 0 22 19" fill="none" xmlns="http://www.w3.org/2000/svg">
<g filter="url(#filter0_d)">
<path d="M19 12.87C13.67 9.86999 8.33 15.87 3 12.87V2.86999C8.33 5.86999 13.67 -0.130007 19 2.86999V12.87Z" fill="#2D85E9"/>
<path d="M10 7.13998V3.13998C9.33 3.31998 8.67 3.47998 8 3.58998V7.58998C6.30053 7.94563 4.53008 7.69068 3 6.86998L3 8.86998C4.53008 9.69068 6.30053 9.94563 8 9.58998V13.59C8.67 13.48 9.33 13.32 10 13.14V9.13998C13 8.33998 16 7.13998 19 8.86998V6.86998C16 5.17998 13 6.33998 10 7.13998Z" fill="#FFF152"/>
</g>
<defs>
<filter id="filter0_d" x="0" y="-1" width="22" height="22" filterUnits="userSpaceOnUse" color-interpolation-filters="sRGB">
<feFlood flood-opacity="0" result="BackgroundImageFix"/>
<feColorMatrix in="SourceAlpha" type="matrix" values="0 0 0 0 0 0 0 0 0 0 0 0 0 0 0 0 0 0 127 0"/>
<feOffset dy="2"/>
<feGaussianBlur stdDeviation="1.5"/>
<feColorMatrix type="matrix" values="0 0 0 0 0 0 0 0 0 0 0 0 0 0 0 0 0 0 0.5 0"/>
<feBlend mode="normal" in2="BackgroundImageFix" result="effect1_dropShadow"/>
<feBlend mode="normal" in="SourceGraphic" in2="effect1_dropShadow" result="shape"/>
</filter>
</defs>
</svg>
