<svg width="22" height="19" viewBox="0 0 22 19" fill="none" xmlns="http://www.w3.org/2000/svg">
<g filter="url(#filter0_d)">
<path d="M3 2.86999V3.86999C8.33 6.86999 13.67 0.869993 19 3.86999V2.86999C13.67 -0.130007 8.33 5.86999 3 2.86999Z" fill="white"/>
<path d="M3 4.86999V5.86999C8.33 8.86999 13.67 2.86999 19 5.86999V4.86999C13.67 1.86999 8.33 7.86999 3 4.86999Z" fill="white"/>
<path d="M3 6.86999V7.86999C8.33 10.87 13.67 4.86999 19 7.86999V6.86999C13.67 3.86999 8.33 9.86999 3 6.86999Z" fill="white"/>
<path d="M3 8.86999V9.86999C8.33 12.87 13.67 6.86999 19 9.86999V8.86999C13.67 5.86999 8.33 11.87 3 8.86999Z" fill="white"/>
<path d="M3 10.87V11.87C8.33 14.87 13.67 8.86999 19 11.87V10.87C13.67 7.86999 8.33 13.87 3 10.87Z" fill="white"/>
<path d="M3 3.86999V4.86999C8.33 7.86999 13.67 1.86999 19 4.86999V3.86999C13.67 0.869993 8.33 6.86999 3 3.86999ZM3 5.86999V6.86999C8.33 9.86999 13.67 3.86999 19 6.86999V5.86999C13.67 2.86999 8.33 8.86999 3 5.86999ZM3 7.86999V8.86999C8.33 11.87 13.67 5.86999 19 8.86999V7.86999C13.67 4.86999 8.33 10.87 3 7.86999ZM3 9.86999V10.87C8.33 13.87 13.67 7.86999 19 10.87V9.86999C13.67 6.86999 8.33 12.87 3 9.86999ZM3 11.87V12.87C8.33 15.87 13.67 9.86999 19 12.87V11.87C13.67 8.86999 8.33 14.87 3 11.87Z" fill="#E9352D"/>
<path d="M11 8.87C8.33 9.62 5.67 10.37 3 8.87V2.87C5.67 4.37 8.33 3.62 11 2.87V8.87Z" fill="#2D6FE9"/>
</g>
<defs>
<filter id="filter0_d" x="0" y="-1" width="22" height="22" filterUnits="userSpaceOnUse" color-interpolation-filters="sRGB">
<feFlood flood-opacity="0" result="BackgroundImageFix"/>
<feColorMatrix in="SourceAlpha" type="matrix" values="0 0 0 0 0 0 0 0 0 0 0 0 0 0 0 0 0 0 127 0"/>
<feOffset dy="2"/>
<feGaussianBlur stdDeviation="1.5"/>
<feColorMatrix type="matrix" values="0 0 0 0 0 0 0 0 0 0 0 0 0 0 0 0 0 0 0.5 0"/>
<feBlend mode="normal" in2="BackgroundImageFix" result="effect1_dropShadow"/>
<feBlend mode="normal" in="SourceGraphic" in2="effect1_dropShadow" result="shape"/>
</filter>
</defs>
</svg>
