<svg width="22" height="19" viewBox="0 0 22 19" fill="none" xmlns="http://www.w3.org/2000/svg">
<g filter="url(#filter0_d)">
<path d="M19 12.87C13.67 9.86999 8.33 15.87 3 12.87V2.86999C8.33 5.86999 13.67 -0.130007 19 2.86999V12.87Z" fill="#E9352D"/>
<path d="M7.50007 6.65999C7.50538 6.86127 7.47066 7.06159 7.3979 7.24934C7.32515 7.43708 7.21582 7.6085 7.07626 7.75364C6.93671 7.89878 6.76971 8.01474 6.58496 8.0948C6.40021 8.17485 6.2014 8.21741 6.00007 8.21999C5.58217 8.16395 5.19912 7.95722 4.92291 7.63865C4.64669 7.32009 4.49633 6.91161 4.50007 6.48999C4.50215 6.30359 4.54429 6.11981 4.62364 5.95113C4.703 5.78245 4.8177 5.6328 4.95997 5.51235C5.10224 5.39189 5.26875 5.30344 5.44821 5.253C5.62767 5.20256 5.81588 5.1913 6.00007 5.21999C6.19312 5.21601 6.38507 5.2501 6.56494 5.32032C6.74482 5.39054 6.90909 5.49551 7.04839 5.62924C7.18769 5.76296 7.29927 5.92282 7.37677 6.09968C7.45427 6.27654 7.49617 6.46693 7.50007 6.65999Z" fill="#FFF152"/>
</g>
<defs>
<filter id="filter0_d" x="0" y="-1" width="22" height="22" filterUnits="userSpaceOnUse" color-interpolation-filters="sRGB">
<feFlood flood-opacity="0" result="BackgroundImageFix"/>
<feColorMatrix in="SourceAlpha" type="matrix" values="0 0 0 0 0 0 0 0 0 0 0 0 0 0 0 0 0 0 127 0"/>
<feOffset dy="2"/>
<feGaussianBlur stdDeviation="1.5"/>
<feColorMatrix type="matrix" values="0 0 0 0 0 0 0 0 0 0 0 0 0 0 0 0 0 0 0.5 0"/>
<feBlend mode="normal" in2="BackgroundImageFix" result="effect1_dropShadow"/>
<feBlend mode="normal" in="SourceGraphic" in2="effect1_dropShadow" result="shape"/>
</filter>
</defs>
</svg>
