<svg width="22" height="19" viewBox="0 0 22 19" fill="none" xmlns="http://www.w3.org/2000/svg">
<g filter="url(#filter0_d)">
<path d="M19 12.87C13.67 9.86999 8.33 15.87 3 12.87V2.86999C8.33 5.86999 13.67 -0.130007 19 2.86999V12.87Z" fill="#E9352D"/>
<path d="M6.00001 5.21999C5.81582 5.1913 5.62761 5.20256 5.44815 5.253C5.26869 5.30344 5.10218 5.39189 4.95991 5.51235C4.81764 5.6328 4.70294 5.78245 4.62359 5.95113C4.54424 6.11981 4.50209 6.30359 4.50001 6.48999C4.49841 6.91103 4.64953 7.31837 4.92535 7.63649C5.20118 7.9546 5.58299 8.16192 6.00001 8.21999C6.20134 8.21741 6.40016 8.17485 6.5849 8.0948C6.76965 8.01474 6.93665 7.89878 7.07621 7.75364C7.21576 7.6085 7.32509 7.43708 7.39785 7.24934C7.4706 7.06159 7.50533 6.86127 7.50001 6.65999C7.49611 6.46693 7.45422 6.27654 7.37672 6.09968C7.29922 5.92282 7.18763 5.76296 7.04833 5.62924C6.90904 5.49551 6.74476 5.39054 6.56489 5.32032C6.38501 5.2501 6.19307 5.21601 6.00001 5.21999ZM6.00001 9.21999C5.87537 9.20604 5.74918 9.21829 5.62955 9.25596C5.50992 9.29364 5.39949 9.3559 5.30533 9.43876C5.21118 9.52162 5.13538 9.62324 5.0828 9.73711C5.03022 9.85098 5.00202 9.97458 5.00001 10.1C4.99842 10.3774 5.0998 10.6455 5.28454 10.8524C5.46928 11.0593 5.72423 11.1903 6.00001 11.22C6.26523 11.22 6.51958 11.1146 6.70712 10.9271C6.89466 10.7396 7.00001 10.4852 7.00001 10.22C7.00001 9.95477 6.89466 9.70042 6.70712 9.51288C6.51958 9.32534 6.26523 9.21999 6.00001 9.21999ZM7.77001 8.38999C7.67628 8.48295 7.60189 8.59355 7.55112 8.71541C7.50035 8.83727 7.47421 8.96798 7.47421 9.09999C7.47421 9.232 7.50035 9.36271 7.55112 9.48456C7.60189 9.60642 7.67628 9.71702 7.77001 9.80999C7.88025 9.88638 8.00473 9.93982 8.13604 9.96712C8.26736 9.99442 8.40282 9.99502 8.53437 9.9689C8.66592 9.94278 8.79088 9.89046 8.90179 9.81505C9.01271 9.73965 9.10733 9.64271 9.18001 9.52999C9.36626 9.34263 9.47081 9.08917 9.47081 8.82499C9.47081 8.5608 9.36626 8.30735 9.18001 8.11999C8.95273 7.98442 8.68358 7.93703 8.42366 7.9868C8.16374 8.03657 7.93114 8.18005 7.77001 8.38999ZM9.50001 5.26999C9.22492 5.34337 8.98007 5.50184 8.80047 5.72276C8.62086 5.94367 8.5157 6.21571 8.50001 6.49999C8.49432 6.62373 8.51856 6.74702 8.57068 6.8594C8.62281 6.97177 8.70128 7.06991 8.79943 7.14549C8.89758 7.22107 9.01251 7.27184 9.13448 7.29352C9.25644 7.31519 9.38183 7.30712 9.50001 7.26999C9.7783 7.18898 10.0243 7.02301 10.2036 6.79529C10.3829 6.56758 10.4865 6.28951 10.5 5.99999C10.5038 5.87808 10.4777 5.7571 10.4241 5.64753C10.3706 5.53797 10.2911 5.44312 10.1926 5.3712C10.0941 5.29929 9.97951 5.25249 9.85883 5.23485C9.73814 5.21722 9.61498 5.22928 9.50001 5.26999Z" fill="#FFF152"/>
</g>
<defs>
<filter id="filter0_d" x="0" y="-1" width="22" height="22" filterUnits="userSpaceOnUse" color-interpolation-filters="sRGB">
<feFlood flood-opacity="0" result="BackgroundImageFix"/>
<feColorMatrix in="SourceAlpha" type="matrix" values="0 0 0 0 0 0 0 0 0 0 0 0 0 0 0 0 0 0 127 0"/>
<feOffset dy="2"/>
<feGaussianBlur stdDeviation="1.5"/>
<feColorMatrix type="matrix" values="0 0 0 0 0 0 0 0 0 0 0 0 0 0 0 0 0 0 0.5 0"/>
<feBlend mode="normal" in2="BackgroundImageFix" result="effect1_dropShadow"/>
<feBlend mode="normal" in="SourceGraphic" in2="effect1_dropShadow" result="shape"/>
</filter>
</defs>
</svg>
