<svg width="22" height="19" viewBox="0 0 22 19" fill="none" xmlns="http://www.w3.org/2000/svg">
<g filter="url(#filter0_d)">
<path d="M19 12.87C13.67 9.86999 8.33 15.87 3 12.87V2.86999C8.33 5.86999 13.67 -0.130007 19 2.86999V12.87Z" fill="#2D6FE9"/>
<path d="M19 2.86999C18.4123 2.53103 17.7743 2.28798 17.11 2.14999C15.2232 3.08271 13.4981 4.31161 12 5.78999V2.58999L10 3.13999V6.33999C8.13966 5.74622 6.40661 4.81017 4.89 3.57999C4.22745 3.4412 3.59006 3.20176 3 2.86999V4.04999C4.23602 5.55378 5.77205 6.78328 7.51 7.65999C5.96071 7.89889 4.37585 7.62128 3 6.86999L3 8.86999C4.37585 9.62128 5.96071 9.89889 7.51 9.65999C6.22836 10.7487 4.66478 11.4525 3 11.69L3 12.87C3.59006 13.2018 4.22745 13.4412 4.89 13.58C6.77313 12.6664 8.4982 11.4579 10 9.99999V13.19L12 12.64V9.38999C13.8586 9.98783 15.5909 10.9235 17.11 12.15C17.7743 12.288 18.4123 12.531 19 12.87V11.69C17.7665 10.1811 16.23 8.94788 14.49 8.06999C16.0404 7.82957 17.6268 8.11097 19 8.86999V6.86999C17.6268 6.11097 16.0404 5.82957 14.49 6.06999C15.7719 4.98694 17.3367 4.29299 19 4.06999V2.86999Z" fill="white"/>
<path d="M19 2.87L18.53 2.62C16.1 3 13.68 5.15 11.25 7.34V2.8L10.75 2.94V7.49C7.96874 6.72253 5.45093 5.20769 3.47 3.11C3.31 3 3.16 3 3 2.87V3.16C4.86679 5.38921 7.34542 7.02308 10.13 7.86C7.75 8.5 5.38 9 3 7.62V8.12C5.38 9.45 7.75 9 10.13 8.36C7.75 10.49 5.38 12.42 3 12.57V12.87C3.16 12.95 3.31 13.04 3.47 13.11C5.9 12.72 8.32 10.58 10.75 8.39V12.94L11.25 12.8V8.25C14.0324 9.0094 16.5514 10.5215 18.53 12.62L19 12.87V12.57C17.1332 10.3408 14.6546 8.70691 11.87 7.87C14.25 7.23 16.62 6.77999 19 8.12V7.62C16.62 6.27999 14.25 6.73 11.87 7.37C14.25 5.24 16.62 3.31 19 3.16V2.87Z" fill="#E9352D"/>
</g>
<defs>
<filter id="filter0_d" x="0" y="-1" width="22" height="22" filterUnits="userSpaceOnUse" color-interpolation-filters="sRGB">
<feFlood flood-opacity="0" result="BackgroundImageFix"/>
<feColorMatrix in="SourceAlpha" type="matrix" values="0 0 0 0 0 0 0 0 0 0 0 0 0 0 0 0 0 0 127 0"/>
<feOffset dy="2"/>
<feGaussianBlur stdDeviation="1.5"/>
<feColorMatrix type="matrix" values="0 0 0 0 0 0 0 0 0 0 0 0 0 0 0 0 0 0 0.5 0"/>
<feBlend mode="normal" in2="BackgroundImageFix" result="effect1_dropShadow"/>
<feBlend mode="normal" in="SourceGraphic" in2="effect1_dropShadow" result="shape"/>
</filter>
</defs>
</svg>
