<svg width="22" height="19" viewBox="0 0 22 19" fill="none" xmlns="http://www.w3.org/2000/svg">
<g filter="url(#filter0_d)">
<path d="M19 12.87C13.67 9.86999 8.33 15.87 3 12.87V2.86999C8.33 5.86999 13.67 -0.130007 19 2.86999V12.87Z" fill="#E9352D"/>
<path d="M14.34 6.1C14.1991 5.58191 13.8958 5.12266 13.4746 4.78968C13.0535 4.4567 12.5366 4.26754 12 4.25V2.59L10 3.14V4.81C8.89043 5.41641 8.05628 6.42598 7.67 7.63C6.07217 7.90998 4.4266 7.64218 3 6.87L3 8.87C4.42298 9.64218 6.06541 9.91005 7.66 9.63C7.79801 10.1497 8.10052 10.6107 8.52232 10.9442C8.94411 11.2776 9.46251 11.4656 10 11.48V13.14L12 12.59V10.92C13.1123 10.3168 13.9474 9.30604 14.33 8.1C15.9289 7.81824 17.5762 8.08984 19 8.87V6.87C17.5798 6.08981 15.9357 5.81815 14.34 6.1Z" fill="white"/>
</g>
<defs>
<filter id="filter0_d" x="0" y="-1" width="22" height="22" filterUnits="userSpaceOnUse" color-interpolation-filters="sRGB">
<feFlood flood-opacity="0" result="BackgroundImageFix"/>
<feColorMatrix in="SourceAlpha" type="matrix" values="0 0 0 0 0 0 0 0 0 0 0 0 0 0 0 0 0 0 127 0"/>
<feOffset dy="2"/>
<feGaussianBlur stdDeviation="1.5"/>
<feColorMatrix type="matrix" values="0 0 0 0 0 0 0 0 0 0 0 0 0 0 0 0 0 0 0.5 0"/>
<feBlend mode="normal" in2="BackgroundImageFix" result="effect1_dropShadow"/>
<feBlend mode="normal" in="SourceGraphic" in2="effect1_dropShadow" result="shape"/>
</filter>
</defs>
</svg>
