<svg width="22" height="19" viewBox="0 0 22 19" fill="none" xmlns="http://www.w3.org/2000/svg">
<g filter="url(#filter0_d)">
<path d="M19 12.87C13.67 9.86999 8.33 15.87 3 12.87V2.86999C8.33 5.86999 13.67 -0.130007 19 2.86999V12.87Z" fill="white"/>
<path d="M14.4999 7.06999C14.4287 8.05939 14.0545 9.00287 13.4283 9.7722C12.8021 10.5415 11.9543 11.0994 10.9999 11.37C10.5847 11.5147 10.1399 11.5534 9.70585 11.4826C9.27185 11.4118 8.86241 11.2337 8.51471 10.9645C8.16701 10.6953 7.89207 10.3435 7.71485 9.94103C7.53763 9.53858 7.46375 9.09824 7.49991 8.65999C7.57029 7.67146 7.94429 6.72881 8.57078 5.96092C9.19726 5.19303 10.0456 4.63739 10.9999 4.36999C11.4143 4.2257 11.8581 4.18698 12.2912 4.25732C12.7244 4.32766 13.1331 4.50485 13.4805 4.77287C13.828 5.04089 14.1031 5.39128 14.2811 5.79235C14.4591 6.19343 14.5343 6.63254 14.4999 7.06999Z" fill="#E9352D"/>
</g>
<defs>
<filter id="filter0_d" x="0" y="-1" width="22" height="22" filterUnits="userSpaceOnUse" color-interpolation-filters="sRGB">
<feFlood flood-opacity="0" result="BackgroundImageFix"/>
<feColorMatrix in="SourceAlpha" type="matrix" values="0 0 0 0 0 0 0 0 0 0 0 0 0 0 0 0 0 0 127 0"/>
<feOffset dy="2"/>
<feGaussianBlur stdDeviation="1.5"/>
<feColorMatrix type="matrix" values="0 0 0 0 0 0 0 0 0 0 0 0 0 0 0 0 0 0 0.5 0"/>
<feBlend mode="normal" in2="BackgroundImageFix" result="effect1_dropShadow"/>
<feBlend mode="normal" in="SourceGraphic" in2="effect1_dropShadow" result="shape"/>
</filter>
</defs>
</svg>
