<svg width="16" height="16" viewBox="0 0 16 16" fill="none" xmlns="http://www.w3.org/2000/svg">
<path d="M8 1C7.44772 1 7 1.44772 7 2V5.49998L4.20711 2.7071C3.81658 2.31658 3.18342 2.31658 2.7929 2.7071C2.40237 3.09763 2.40237 3.7308 2.7929 4.12132L5.67159 7H2C1.44772 7 1 7.44772 1 8C1 8.55228 1.44772 9 2 9H5.49999L2.7071 11.7929C2.31658 12.1834 2.31658 12.8166 2.70711 13.2071C3.09763 13.5976 3.7308 13.5976 4.12132 13.2071L7 10.3284V14C7 14.5523 7.44772 15 8 15C8.55229 15 9 14.5523 9 14V10.3284L11.8787 13.2071C12.2692 13.5976 12.9024 13.5976 13.2929 13.2071C13.6834 12.8165 13.6834 12.1834 13.2929 11.7928L10.5 9H14C14.5523 9 15 8.55229 15 8C15 7.44772 14.5523 7 14 7H10.3284L13.2071 4.12128C13.5976 3.73075 13.5976 3.09759 13.2071 2.70707C12.8166 2.31654 12.1834 2.31654 11.7929 2.70707L9 5.49997V2C9 1.44772 8.55229 1 8 1Z" fill="white"/>
</svg>
