<?xml version="1.0" encoding="UTF-8"?>
<svg width="16px" height="16px" viewBox="0 0 16 16" version="1.1" xmlns="http://www.w3.org/2000/svg" xmlns:xlink="http://www.w3.org/1999/xlink">
    <!-- Generator: Sketch 55.2 (78181) - https://sketchapp.com -->
    <title>game object 16x16</title>
    <desc>Created with Sketch.</desc>
    <g id="Icons-(read-only)" stroke="none" stroke-width="1" fill="none" fill-rule="evenodd">
        <g id="InGUI-Icons" transform="translate(-452.000000, -2286.000000)">
            <g id="road-points-copy" transform="translate(40.000000, 2212.000000)">
                <rect id="icon-bg-copy-36" x="360" y="22" width="120" height="120"></rect>
                <g id="Icons/16x16/Game-Object" transform="translate(412.000000, 74.000000)">
                    <g id="Group-4">
                        <polygon id="Path" fill="#FF9A66" points="7.493 0 4.503 1.5 7.493 3 10.482 1.5"></polygon>
                        <polygon id="Path" fill="#FFFFFF" points="8.489 3.5 11.479 5 14.468 3.5 11.479 2"></polygon>
                        <polygon id="Path" fill="#79D6FF" points="0.517 3.5 3.506 5 6.496 3.5 3.506 2"></polygon>
                        <polygon id="Path" fill="#54FFAB" points="4.503 5.5 7.493 7 10.482 5.5 7.493 4"></polygon>
                        <polygon id="Path" fill="#1A7648" opacity="0.800000012" points="11.999 5.917 11.999 9.346 15 7.783 15 4.355"></polygon>
                        <polygon id="Path" fill="#097FB3" points="-2.88657986e-15 7.783 2.999 9.346 2.999 5.917 -2.88657986e-15 4.355"></polygon>
                        <polygon id="Path" fill="#717171" points="8 7.992 8 11.421 10.999 9.858 10.999 6.43"></polygon>
                        <polygon id="Path" fill="#D54800" points="3.999 9.858 7 11.421 7 7.992 3.999 6.43"></polygon>
                        <polygon id="Path" fill="#733B1E" points="11.999 10.488 11.999 13.916 15 12.353 15 8.925"></polygon>
                        <polygon id="Path" fill="#B8B8B8" points="-2.88657986e-15 12.353 2.999 13.916 2.999 10.488 -2.88657986e-15 8.925"></polygon>
                        <polygon id="Path" fill="#1E5984" points="8 12.571 8 16 10.999 14.438 10.999 11.01"></polygon>
                        <polygon id="Path" fill="#00C262" points="3.999 14.438 7 16 7 12.571 3.999 11.01"></polygon>
                    </g>
                </g>
            </g>
        </g>
    </g>
</svg>