<svg width="16" height="16" viewBox="0 0 16 16" fill="none" xmlns="http://www.w3.org/2000/svg">
<path fill-rule="evenodd" clip-rule="evenodd" d="M5.5 7.4C5.5 7.48 5.511 7.558 5.519 7.636L8.912 5.09C8.629 4.976 8.325 4.9 8 4.9C6.62 4.9 5.5 6.019 5.5 7.4V7.4ZM3.405 9.22C2.922 8.75 2.517 8.281 2.228 7.9C3.181 6.643 5.267 4.4 8 4.4C8.533 4.4 9.04 4.488 9.52 4.634L10.458 3.931C9.703 3.612 8.886 3.4 8 3.4C4.545 3.4 2 6.4 1 7.9C1.35 8.423 1.896 9.13 2.596 9.829L3.405 9.22ZM8 11.4C6.97 11.4 6.032 11.081 5.212 10.617L6.68 9.515C7.064 9.755 7.514 9.9 8 9.9C9.381 9.9 10.5 8.781 10.5 7.4C10.5 7.166 10.457 6.943 10.396 6.728L11.67 5.773C12.593 6.472 13.315 7.298 13.772 7.9C12.819 9.157 10.733 11.4 8 11.4V11.4ZM12.498 5.152L14.3 3.8L13.7 3L11.645 4.542L10.788 5.183L9.93 5.828L5.943 8.817L1.7 12L2.3 12.8L4.355 11.258C5.401 11.923 6.627 12.4 8 12.4C11.455 12.4 14 9.4 15 7.9C14.512 7.167 13.651 6.076 12.498 5.152V5.152Z" fill="white"/>
</svg>
