<svg width="16" height="16" viewBox="0 0 16 16" fill="none" xmlns="http://www.w3.org/2000/svg">
<path fill-rule="evenodd" clip-rule="evenodd" d="M2.16667 0H10V5H15V15C15 15.5523 14.4777 16 13.8333 16H2.16667C1.52234 16 1 15.5523 1 15V1C1 0.447723 1.52234 0 2.16667 0ZM3 13.5L3.94686 14L5 13.5V11.9784C5 11.4346 5.43452 10.9905 5.97816 10.9786L6.99034 10.9565V10C6.99034 10 5.36473 9.70675 5.5 9C5.63527 8.29325 7.5 8.5 7.5 8.5L8 8V7H4C3.44772 7 3 7.44772 3 8V13.5Z" fill="white"/>
<path d="M11 4V0L15 4H11Z" fill="white"/>
<path d="M3 13.5001V8.00003C3 8.00003 4 7.5 5 7.5C6 7.5 8 7.99996 8 7.99996L7.5 8.49996C7.5 8.49996 4.71963 7.55043 4.5 9C4.16184 11.2319 3 13.5001 3 13.5001Z" fill="#828282"/>
</svg>
