<svg width="16" height="16" viewBox="0 0 16 16" fill="none" xmlns="http://www.w3.org/2000/svg">
<path d="M8 0H7V1H8V0Z" fill="white"/>
<path d="M8 2H7V3H8V2Z" fill="white"/>
<path d="M7 4H8V5H7V4Z" fill="white"/>
<path d="M8 6H7V7H8V6Z" fill="white"/>
<path d="M7 8H8V9H7V8Z" fill="white"/>
<path d="M8 10H7V11H8V10Z" fill="white"/>
<path d="M7 12H8V13H7V12Z" fill="white"/>
<path d="M8 14H7V15H8V14Z" fill="white"/>
<path d="M3.64731 4.22096L5.5 7V6.41421C5.5 6.149 5.60536 5.89464 5.79289 5.70711L6 5.5V12L5.79289 11.7929C5.60536 11.6054 5.5 11.351 5.5 11.0858V10L5.18623 11.2551C5.07678 11.6929 4.68342 12 4.23216 12C4.07948 12 3.92891 11.9645 3.79235 11.8962L3 11.5L2.14515 11.0726C2.04901 11.0245 1.96125 10.9613 1.88525 10.8853L1.79289 10.7929C1.60536 10.6054 1.5 10.351 1.5 10.0858V9.73607C1.5 9.58082 1.53615 9.42771 1.60557 9.28885L1.85093 8.79814C1.94769 8.60461 2.10461 8.44769 2.29814 8.35093L2.93643 8.03178C2.97876 8.01062 3.02253 7.99249 3.06742 7.97753L4.5 7.5H2.22076C1.79033 7.5 1.40819 7.22457 1.27208 6.81623L1.02247 6.06742C1.00751 6.02253 0.989379 5.97876 0.968217 5.93643L0.5 5L0.223607 4.44721C0.082843 4.16569 0.0828431 3.83431 0.223607 3.55279C0.392999 3.214 0.739262 3 1.11803 3H1.26393C1.41918 3 1.57229 3.03615 1.71115 3.10557L3.26247 3.88124C3.41813 3.95906 3.55078 4.07616 3.64731 4.22096Z" fill="url(#paint0_linear)"/>
<path d="M11.3527 4.22096L9.5 7V6.41421C9.5 6.149 9.39464 5.89464 9.20711 5.70711L9 5.5V12L9.20711 11.7929C9.39464 11.6054 9.5 11.351 9.5 11.0858V10L9.81377 11.2551C9.92322 11.6929 10.3166 12 10.7678 12C10.9205 12 11.0711 11.9645 11.2076 11.8962L12 11.5L12.8549 11.0726C12.951 11.0245 13.0387 10.9613 13.1147 10.8853L13.2071 10.7929C13.3946 10.6054 13.5 10.351 13.5 10.0858V9.73607C13.5 9.58082 13.4639 9.42771 13.3944 9.28885L13.1491 8.79814C13.0523 8.60461 12.8954 8.44769 12.7019 8.35093L12.0636 8.03178C12.0212 8.01062 11.9775 7.99249 11.9326 7.97753L10.5 7.5H12.7792C13.2097 7.5 13.5918 7.22457 13.7279 6.81623L13.9775 6.06742C13.9925 6.02253 14.0106 5.97876 14.0318 5.93643L14.5 5L14.7764 4.44721C14.9172 4.16569 14.9172 3.83431 14.7764 3.55279C14.607 3.214 14.2607 3 13.882 3H13.7361C13.5808 3 13.4277 3.03615 13.2889 3.10557L11.7375 3.88124C11.5819 3.95906 11.4492 4.07616 11.3527 4.22096Z" fill="url(#paint1_linear)"/>
<defs>
<linearGradient id="paint0_linear" x1="0" y1="9" x2="6" y2="9" gradientUnits="userSpaceOnUse">
<stop stop-color="white"/>
<stop offset="1" stop-color="#999999"/>
</linearGradient>
<linearGradient id="paint1_linear" x1="15" y1="9" x2="9" y2="9" gradientUnits="userSpaceOnUse">
<stop stop-color="white"/>
<stop offset="1" stop-color="#999999"/>
</linearGradient>
</defs>
</svg>
