<svg width="16" height="16" viewBox="0 0 16 16" fill="none" xmlns="http://www.w3.org/2000/svg">
<path fill-rule="evenodd" clip-rule="evenodd" d="M7 12C7 12 6.494 11.595 7 11H12C13.65 11 14 10.325 14 9.5C14 8.675 12.65 8 11 8H10C11 8 11.625 5.325 10 4C7.889 2.278 7.025 3.05 7 0C7 0 3.7 4.2 4 7H9C9 7 8 8 7 8H5C3.351 8 2 8.675 2 9.5C2 10.1741 2.77056 10.8126 4 11C4.27528 11.042 4.69833 11 5 11C4.539 11.564 4.667 11.82 5 12H4C1.801 12 0 12.9 0 14C0 15.1 0.801 16 3 16H13C15.2 16 16 15.1 16 14C16 12.9 14.2 12 12 12H7Z" fill="white"/>
</svg>
