<svg width="16" height="16" viewBox="0 0 16 16" fill="none" xmlns="http://www.w3.org/2000/svg">
<path fill-rule="evenodd" clip-rule="evenodd" d="M14 5H9V4H15H16V5H15H14ZM14 15H9C8.44769 15 8 14.5523 8 14V11.7324C7.70581 11.9026 7.36426 12 7 12V14C7 15.1046 7.89545 16 9 16H15H16V15H15H14ZM14 9V6L11 9L10 10L11 11L14 14V11H16V9H14Z" fill="#A3A3A3"/>
<path fill-rule="evenodd" clip-rule="evenodd" d="M7 11H2H1H0V12H7C8.10455 12 9 11.1046 9 10V2C9 0.895432 8.10455 0 7 0H0V1H1H2H7C7.55231 1 8 1.44772 8 2V10C8 10.5523 7.55231 11 7 11ZM2 7V10L5 7L6 6L5 5L2 2V5H0V7H2Z" fill="white"/>
</svg>
