<svg width="16" height="16" viewBox="0 0 16 16" fill="none" xmlns="http://www.w3.org/2000/svg">
<path fill-rule="evenodd" clip-rule="evenodd" d="M2 6C1.448 6 1 6.447 1 7V13C1 13.553 1.448 14 2 14H14C14.553 14 15 13.553 15 13V7C15 6.447 14.553 6 14 6H2Z" fill="#92D0FF"/>
<path d="M2 2C1.448 2 1 2.447 1 3V6C1 5.447 1.448 5 2 5H14C14.553 5 15 5.447 15 6V5C15 4.447 14.553 4 14 4H8.5L7.299 2.401C7.111 2.149 6.814 2 6.5 2H2Z" fill="#6996B7"/>
<path d="M2 2C1.448 2 1 2.447 1 3V6C1 5.447 1.448 5 2 5H14C14.553 5 15 5.447 15 6V5C15 4.447 14.553 4 14 4H8.5L7.299 2.401C7.111 2.149 6.814 2 6.5 2H2Z" fill="url(#paint0_linear)"/>
<defs>
<linearGradient id="paint0_linear" x1="4.5" y1="4.5" x2="4.5" y2="7" gradientUnits="userSpaceOnUse">
<stop stop-color="#6996B7"/>
<stop offset="1" stop-color="#6996B7" stop-opacity="0.01"/>
</linearGradient>
</defs>
</svg>
