<svg width="16" height="16" viewBox="0 0 16 16" fill="none" xmlns="http://www.w3.org/2000/svg">
<path d="M0 2C0 0.895431 0.895431 0 2 0H14C15.1046 0 16 0.895431 16 2V14C16 15.1046 15.1046 16 14 16H2C0.895431 16 0 15.1046 0 14V2Z" fill="white"/>
<path d="M7 0H11C11 0 12 5.47619 10 7C9.08817 7.69473 8.17634 7.34027 7.26452 6.98581C6.17634 6.5628 5.08817 6.13978 4 7.5C2 10 0 10.5 0 10.5V5C0 5 2.5 4.5 3.5 3C4.49859 1.50212 7 0 7 0Z" fill="#4F4F4F"/>
<path d="M2 0C0.895431 0 0 0.89543 0 2V5C0 5 2.5 4.5 3.5 3C4.49859 1.50212 7 0 7 0H2Z" fill="#BDBDBD"/>
<path d="M6 12.9421C0.999933 11.4423 0 13.9999 0 13.9999C0 15.1045 0.895431 16 2 16H8C8 16 8 13.542 6 12.9421Z" fill="#BDBDBD"/>
<path d="M14 0H13C13 0 12.8954 1.89543 13.9999 3C15.1045 4.10457 16 3 16 3L16 1.99995C16 0.895403 15.1045 0 14 0Z" fill="#828282"/>
<path d="M12.8333 9.12346C12.3889 8.95062 11.9444 8.77778 11.5 9C10.5 9.5 10 10.8614 10 12C10 12.618 10.382 12.8541 10.9098 13.1803C11.2361 13.3819 11.618 13.618 12 14C12.5 14.5 12 16 12 16H14C15.1046 16 16 15.1046 16 14V8C16 8 15.5 8 14.5 9C13.9444 9.55556 13.3889 9.33951 12.8333 9.12346Z" fill="#828282"/>
</svg>
