<?xml version="1.0" encoding="UTF-8"?>
<svg width="16px" height="16px" viewBox="0 0 16 16" version="1.1" xmlns="http://www.w3.org/2000/svg" xmlns:xlink="http://www.w3.org/1999/xlink">
    <!-- Generator: Sketch 55.1 (78136) - https://sketchapp.com -->
    <title>Icons/16x16/Save</title>
    <desc>Created with Sketch.</desc>
    <g id="Icons" stroke="none" stroke-width="1" fill="none" fill-rule="evenodd">
        <g id="Icons-for-Toolbar" transform="translate(-657.000000, -228.000000)" fill="#FFFFFF">
            <g id="Icons/16x16/Save" transform="translate(657.000000, 228.000000)">
                <polygon id="Rectangle-14-Copy-2" fill-rule="nonzero" opacity="0.200000003" points="2 1 12 1 12 8 14 8 14 15 2 15"></polygon>
                <path d="M0,2 L0,14 C1.3527075e-16,15.1045695 0.8954305,16 2,16 L14,16 C15.1045695,16 16,15.1045695 16,14 L16,4.001 L12,0 L2,0 C0.8954305,2.02906125e-16 -1.3527075e-16,0.8954305 0,2 Z M5,6 L10,6 C10.5522847,6 11,5.55228475 11,5 L11,2 C11,1.44771525 10.5522847,1 10,1 L5,1 C4.44771525,1 4,1.44771525 4,2 L4,5 C4,5.55228475 4.44771525,6 5,6 Z M4,15 L12.001,15 C12.5532847,15 13.001,14.5522847 13.001,14 L13.001,9 C13.001,8.44771525 12.5532847,8 12.001,8 L4,8 C3.44771525,8 3,8.44771525 3,9 L3,14 C3,14.5522847 3.44771525,15 4,15 Z M9.5,5 C9.22385763,5 9,4.77614237 9,4.5 L9,2.499 C9,2.22285763 9.22385763,1.999 9.5,1.999 C9.77614237,1.999 10,2.22285763 10,2.499 L10,4.5 C10,4.77614237 9.77614237,5 9.5,5 Z M14.5,12 C14.2238576,12 14,11.7761424 14,11.5 C14,11.2238576 14.2238576,11 14.5,11 C14.7761424,11 15,11.2238576 15,11.5 C15,11.7761424 14.7761424,12 14.5,12 Z M1.5,12 C1.22385763,12 1,11.7761424 1,11.5 C1,11.2238576 1.22385763,11 1.5,11 C1.77614237,11 2,11.2238576 2,11.5 C2,11.7761424 1.77614237,12 1.5,12 Z" id="Fill-1-Copy-9" fill-rule="evenodd"></path>
            </g>
        </g>
    </g>
</svg>