<svg width="16" height="16" viewBox="0 0 16 16" fill="none" xmlns="http://www.w3.org/2000/svg">
<path fill-rule="evenodd" clip-rule="evenodd" d="M6 0H8L9 1H8.99995L10.9999 2H15.9999V3.5H10.9999V5H4.99995L2.99995 4V1H5L6 0ZM8.99888 8.001C9.91103 6.786 11.3637 6.00002 12.9999 6H12.9999H1.99995H1.99993L1.70601 6.29407L1.70025 6.29984L1.01884 6.9816C0.410347 7.59039 0.259623 8.52023 0.64464 9.29006L1.17069 10.3419C1.67892 11.3581 2.71763 12 3.85384 12H8.10002C8.03443 11.6769 8 11.3425 8 11H3.85384C3.09637 11 2.4039 10.5721 2.06508 9.89461L1.53902 8.84276C1.40455 8.57388 1.40078 8.26597 1.51443 8.001H8.99888ZM4 9.5C4 9.224 3.776 9 3.5 9C3.224 9 3 9.224 3 9.5C3 9.776 3.224 10 3.5 10C3.776 10 4 9.776 4 9.5ZM6 9.5C6 9.776 5.776 10 5.5 10C5.224 10 5 9.776 5 9.5C5 9.224 5.224 9 5.5 9C5.776 9 6 9.224 6 9.5ZM7.5 9C7.776 9 8 9.224 8 9.5C8 9.776 7.776 10 7.5 10C7.224 10 7 9.776 7 9.5C7 9.224 7.224 9 7.5 9Z" fill="white"/>
<path d="M12.7188 8.8125V9.90625L10.5312 8.26562L12.7188 6.625V7.71875C14.5284 7.71875 16 9.19039 16 11C16 11.6595 15.8031 12.2726 15.4668 12.7877L14.5847 12.126C14.7843 11.7957 14.9062 11.4134 14.9062 11C14.9062 9.79359 13.9252 8.8125 12.7188 8.8125Z" fill="white"/>
<path d="M12.7188 13.1875V12.0938L14.9062 13.7344L12.7188 15.375V14.2813C10.9091 14.2813 9.4375 12.8096 9.4375 11C9.4375 10.3405 9.63438 9.72744 9.9707 9.21228L10.8528 9.874C10.6532 10.2043 10.5312 10.5866 10.5312 11C10.5312 12.2064 11.5123 13.1875 12.7188 13.1875Z" fill="white"/>
</svg>
