<svg width="16" height="16" viewBox="0 0 16 16" fill="none" xmlns="http://www.w3.org/2000/svg">
<path d="M14.8146 4.16647C14.8827 3.89885 15.1004 3.6716 15.3765 3.6716C15.6526 3.67158 15.8808 3.89697 15.8352 4.16932C15.7357 4.76385 15.4565 5.33419 14.9978 5.79292C13.8262 6.9645 11.9268 6.9645 10.7552 5.79292L10.7566 5.79152C10.7405 5.77736 10.7248 5.76258 10.7093 5.74717L10.0938 5.13165C10.0784 5.11624 10.0636 5.10046 10.0495 5.08441L10.0481 5.08581C8.87649 3.91423 8.87649 2.01475 10.0481 0.843172C10.5068 0.384441 11.0771 0.105336 11.6717 0.00583454C11.944 -0.0397623 12.1694 0.188351 12.1694 0.4645C12.1694 0.740627 11.9421 0.958297 11.6745 1.02636C11.3377 1.11203 11.0188 1.28667 10.7552 1.55028C10.2067 2.09871 10.0434 2.88638 10.2652 3.57734L10.9354 3.08503C11.4579 2.80362 12.1033 2.89837 12.5229 3.31805C12.9426 3.73772 13.0374 4.38304 12.756 4.90563L12.2636 5.57583C12.9546 5.79758 13.7423 5.63425 14.2907 5.08581C14.5543 4.8222 14.729 4.50333 14.8146 4.16647Z" fill="white"/>
<path d="M7.7287 5.06971C8.10452 4.90865 8.54055 4.99259 8.82971 5.28175L10.5592 7.01128C10.8484 7.30044 10.9323 7.73647 10.7713 8.11229L10.6208 8.46323C10.6224 9.50719 10.1841 10.6067 9.32653 11.4642C7.89436 12.8964 5.7876 13.1592 4.39117 12.1569L8.74687 7.80123C8.94214 7.60596 8.94211 7.28937 8.74687 7.09412C8.55162 6.89887 8.23503 6.89885 8.03976 7.09412L3.68407 11.4498C2.68176 10.0534 2.94461 7.94663 4.37678 6.51446C5.23434 5.65691 6.3338 5.21863 7.37775 5.22014L7.7287 5.06971Z" fill="white"/>
<path d="M7.23975 3.69188L6.866 3.31813V1.57902C6.86602 1.35078 6.71996 1.14813 6.50341 1.07595C6.15998 0.961469 5.80536 1.21707 5.80534 1.57902V3.67168L6.15229 4.01864C6.51111 3.87147 6.87586 3.7623 7.23975 3.69188Z" fill="white"/>
<path d="M3.33047 4.02524L4.40412 5.09889C4.27909 5.20674 4.15676 5.32027 4.03758 5.43945L4.00555 5.47165C3.98747 5.48999 3.96949 5.5084 3.95163 5.52687C3.93764 5.54137 3.92372 5.55589 3.90991 5.57048C3.88218 5.59976 3.8548 5.62922 3.82774 5.65887C3.81384 5.67406 3.80005 5.68932 3.78633 5.7046C3.75612 5.73817 3.72636 5.77199 3.69701 5.806L2.62336 4.73235C2.42811 4.5371 2.42811 4.22049 2.62336 4.02524C2.81863 3.82997 3.13522 3.82999 3.33047 4.02524Z" fill="white"/>
<path d="M2.61676 7.55417L2.26981 7.20722L0.530721 7.2072C0.302478 7.20722 0.099806 7.35327 0.0276236 7.56986C-0.086854 7.91325 0.168773 8.26788 0.530721 8.26786L1.91626 8.26788L2.29001 8.64163C2.36044 8.27772 2.46961 7.91297 2.61676 7.55417Z" fill="white"/>
<path d="M12.5287 9.00949L12.155 8.63574C12.0846 8.99963 11.9754 9.36438 11.8282 9.7232L12.1752 10.0702H14.2679C14.6298 10.0702 14.8854 9.71552 14.771 9.37213C14.6988 9.15558 14.4961 9.00951 14.2679 9.00949H12.5287Z" fill="white"/>
<path d="M10.748 11.4714L11.8216 12.545C12.0169 12.7403 12.0169 13.0569 11.8216 13.2521C11.6264 13.4474 11.3098 13.4474 11.1145 13.2521L10.0409 12.1785C10.0794 12.1453 10.1176 12.1116 10.1556 12.0773L10.1797 12.0555L10.2029 12.0342C10.272 11.9706 10.3402 11.9051 10.4074 11.8379C10.43 11.8153 10.4524 11.7926 10.4745 11.7699C10.4878 11.7562 10.501 11.7425 10.5142 11.7287L10.5488 11.6923C10.6173 11.6197 10.6837 11.5461 10.748 11.4714Z" fill="white"/>
<path d="M8.29271 13.2587L8.63966 13.6057L8.63968 15.3448C8.6397 15.5731 8.49361 15.7757 8.27707 15.8479C7.93363 15.9623 7.57904 15.7068 7.57902 15.3448L7.579 13.9592L7.20525 13.5855C7.56916 13.5151 7.93391 13.4059 8.29271 13.2587Z" fill="white"/>
</svg>
