<svg width="16" height="16" viewBox="0 0 16 16" fill="none" xmlns="http://www.w3.org/2000/svg">
<path fill-rule="evenodd" clip-rule="evenodd" d="M8 13.3334C8.57143 12.4445 10.0257 10.6667 12 10.6667C13.9743 10.6667 15.4286 12.4445 16 13.3334C15.4286 14.2222 13.9743 16 12 16C10.0257 16 8.57143 14.2222 8 13.3334ZM12 14.5186C12.7892 14.5186 13.4286 13.8555 13.4286 13.0371C13.4286 12.2187 12.7892 11.5556 12 11.5556C11.2115 11.5556 10.5715 12.2187 10.5715 13.0371C10.5715 13.8555 11.2115 14.5186 12 14.5186Z" fill="white"/>
<path fill-rule="evenodd" clip-rule="evenodd" d="M7.56659 2H5.56659L4.56659 3H8.56659L7.56659 2ZM2.56659 6V3.5H9.56659L10.5666 4H16V5.5H10.5666V6.5H4.06709L2.56659 6ZM3.06659 11C3.34259 11 3.56659 11.224 3.56659 11.5C3.56659 11.776 3.34259 12 3.06659 12C2.79059 12 2.56659 11.776 2.56659 11.5C2.56659 11.224 2.79059 11 3.06659 11ZM5.56659 11.5C5.56659 11.776 5.34259 12 5.06659 12C4.79059 12 4.56659 11.776 4.56659 11.5C4.56659 11.224 4.79059 11 5.06659 11C5.34259 11 5.56659 11.224 5.56659 11.5ZM7.06659 11C7.34259 11 7.56659 11.224 7.56659 11.5C7.56659 11.776 7.34259 12 7.06659 12C6.79059 12 6.56659 11.776 6.56659 11.5C6.56659 11.224 6.79059 11 7.06659 11ZM10.3204 10.001H1.97997C1.68932 10.001 1.44601 9.88635 1.27195 9.70999C0.985171 10.0145 0.917635 10.4668 1.10567 10.8428L1.63173 11.8946C1.97055 12.5721 2.66302 13 3.42049 13H7.05716C6.95553 13.2874 6.98942 13.6106 7.15882 13.8741C7.18478 13.9145 7.21235 13.9565 7.24153 14H3.42049C2.28428 14 1.24557 13.3581 0.737344 12.3419L0.21129 11.2901C-0.173726 10.5202 -0.0230023 9.59039 0.585488 8.9816L1.5666 8H4.56659V7H9.56659V8H12.5666L12.8605 8.29389L12.8638 8.29722L13.548 8.98137C13.8851 9.31847 14.0818 9.75408 14.1248 10.2065C13.7544 10.014 13.3479 9.8573 12.9085 9.76327C12.8936 9.745 12.8779 9.72717 12.8616 9.70983C12.8494 9.7222 12.8368 9.73428 12.8239 9.74603C12.5606 9.69501 12.2857 9.66669 12 9.66669C11.3883 9.66669 10.8262 9.79653 10.3204 10.001ZM9.55643 11.6007C9.51186 11.8184 9.32567 11.9847 9.09845 11.999C9.24128 11.8623 9.39413 11.7281 9.55643 11.6007ZM13.0342 10.8305C13.1055 10.8532 13.1758 10.8779 13.2452 10.9046C13.4898 10.9988 13.7223 11.1167 13.9417 11.2508C13.9354 11.2641 13.9289 11.2773 13.9223 11.2905L13.396 12.3424C13.3729 12.3885 13.3488 12.4339 13.3236 12.4784C13.215 12.202 13.0283 11.9672 12.7918 11.8037C12.7318 11.7622 12.6685 11.7252 12.6026 11.6934L13.028 10.8431C13.0301 10.8389 13.0322 10.8347 13.0342 10.8305ZM10.5719 13H8.22833C8.14119 13.12 8.0649 13.2324 8 13.3334C8.12228 13.5236 8.285 13.7545 8.48459 14H10.7131C10.7788 14 10.8442 13.9979 10.9092 13.9936C10.6985 13.7355 10.5715 13.4017 10.5715 13.0371C10.5715 13.0247 10.5716 13.0123 10.5719 13ZM11.5493 11.6309C11.4277 11.6728 11.3134 11.7312 11.2088 11.8035C11.1285 11.859 11.0539 11.9227 10.9861 11.9935C10.7483 11.955 10.5666 11.7486 10.5666 11.5C10.5666 11.224 10.7906 11 11.0666 11C11.3426 11 11.5666 11.224 11.5666 11.5C11.5666 11.5453 11.5606 11.5892 11.5493 11.6309Z" fill="white"/>
</svg>
