<?xml version="1.0" encoding="UTF-8"?>
<svg width="13px" height="16px" viewBox="0 0 13 16" version="1.1" xmlns="http://www.w3.org/2000/svg" xmlns:xlink="http://www.w3.org/1999/xlink">
    <!-- Generator: Sketch 55.1 (78136) - https://sketchapp.com -->
    <title>Hide Copy 5</title>
    <desc>Created with Sketch.</desc>
    <g id="Icons" stroke="none" stroke-width="1" fill="none" fill-rule="evenodd">
        <g id="Icons-for-Toolbar" transform="translate(-880.000000, -975.000000)" fill="#FFFFFF">
            <g id="Icons/16x16/Delete" transform="translate(879.000000, 975.000000)">
                <path d="M2,5 L13,5 L13,14 C13,15.1045695 12.1045695,16 11,16 L4,16 C2.8954305,16 2,15.1045695 2,14 L2,5 Z M5,8 L5,13 L6,13 L6,8 L5,8 Z M9,8 L9,13 L10,13 L10,8 L9,8 Z M7,8 L7,13 L8,13 L8,8 L7,8 Z" id="Combined-Shape"></path>
                <path d="M1,4 L14,4 C14,2.8954305 13.1045695,2 12,2 L3,2 C1.8954305,2 1,2.8954305 1,4 L1,4 Z" id="Fill-7"></path>
                <path d="M5,2 L10,2 C10,0.8954305 9.1045695,-2.02906125e-16 8,0 L7,0 C5.8954305,2.02906125e-16 5,0.8954305 5,2 L5,2 Z" id="Fill-14"></path>
            </g>
        </g>
    </g>
</svg>