<svg width="16" height="16" viewBox="0 0 16 16" fill="none" xmlns="http://www.w3.org/2000/svg">
<path d="M7 7.5C7 8.32843 6.32843 9 5.5 9C4.67157 9 4 8.32843 4 7.5C4 6.67157 4.67157 6 5.5 6C6.32843 6 7 6.67157 7 7.5Z" fill="white"/>
<path d="M9 13C10.1046 13 11 12.1046 11 11H5C5 12.1046 5.89542 13 7 13H9Z" fill="white"/>
<path d="M12 7.5C12 8.32843 11.3284 9 10.5 9C9.67157 9 9 8.32843 9 7.5C9 6.67157 9.67157 6 10.5 6C11.3284 6 12 6.67157 12 7.5Z" fill="white"/>
<path fill-rule="evenodd" clip-rule="evenodd" d="M9.84775 1.23462C9.94827 1.47729 10 1.73737 10 2H13C14.1046 2 15 2.89545 15 4V7C15.2652 7 15.5196 7.21072 15.7071 7.58578C15.8947 7.96085 16 8.46957 16 9C16 9.53043 15.8947 10.0392 15.7071 10.4142C15.5196 10.7893 15.2652 11 15 11V14C15 15.1046 14.1046 16 13 16H3C1.89542 16 1 15.1046 1 14V11C0.734772 11 0.480438 10.7893 0.292908 10.4142C0.105347 10.0392 0 9.53043 0 9C0 8.46957 0.105347 7.96085 0.292908 7.58578C0.480438 7.21072 0.734772 7 1 7V4C1 2.89545 1.89542 2 3 2H6C6 1.73737 6.05173 1.47729 6.15225 1.23462C6.25275 0.991974 6.40005 0.771515 6.58578 0.585785C6.77151 0.400055 6.99197 0.252747 7.23462 0.152252C7.47729 0.0517273 7.73737 0 8 0C8.26263 0 8.52271 0.0517273 8.76538 0.152252C9.00803 0.252747 9.22849 0.400055 9.41422 0.585785C9.59995 0.771515 9.74725 0.991974 9.84775 1.23462ZM3 3C2.44772 3 2 3.44769 2 4V14C2 14.5523 2.44772 15 3 15H13C13.5523 15 14 14.5523 14 14V4C14 3.44769 13.5523 3 13 3H3Z" fill="white"/>
</svg>
