<svg width="16" height="16" xmlns="http://www.w3.org/2000/svg" version="1.1">
 <g>
  <title>Layer 1</title>
  <path stroke="null" fill="#ffffff" d="m14.91872,1.08128c0,0 0,5.93033 -0.98839,8.8955c-0.98839,2.96517 -5.93033,5.93033 -5.93033,5.93033c0,0 -4.94194,-2.96517 -5.93033,-5.93033c-0.98839,-2.96517 -0.98839,-8.8955 -0.98839,-8.8955c0,0 4.21682,-0.98839 6.91872,-0.98839c2.70186,0 6.91872,0.98839 6.91872,0.98839zm-6.91872,12.84905c0,0 3.52993,-2.22387 4.23594,-4.44775c0.70601,-2.22387 0.70601,-6.42453 0.70601,-6.42453c0,0 -0.87126,-0.28589 -1.97678,-0.55018l0,0.05598c0,0 0.0848,4.69925 -0.49419,6.91872c-0.57902,2.21943 -2.47097,4.44775 -2.47097,4.44775zm0.55108,-5.29525l-4.93914,0l0,1.3698l4.93914,0l0,-1.3698zm-5.49317,-3.61224l2.24093,0l0,2.20602l1.43915,0l0,-2.20602l2.34922,0l0,-1.47383l-2.31454,0l0,-2.29281l-1.43915,0l0,2.29281l-2.2756,0l0,1.47383z" id="CompoundPath 1"/>
  <path id="svg_1" d="m8.09833,2.40511" opacity="NaN" stroke="null" fill="#ff0000"/>
 </g>

</svg>