<svg width="16" height="16" viewBox="0 0 16 16" fill="none" xmlns="http://www.w3.org/2000/svg">
<g id="Flora">
<path id="Page 1" fill-rule="evenodd" clip-rule="evenodd" d="M16 6C16 6 13.092 9.646 12.239 13.823C10.803 9.12 10.414 3.447 13 0C13 0 10.863 2.588 9.385 7.175C10.063 9.21 10.13 12.047 9 16H15C14 14 14 9 16 6ZM8.126 10.281C8.089 10.166 8.055 10.049 8.016 9.937C7.917 9.648 7.811 9.371 7.701 9.101C7.658 8.996 7.615 8.893 7.572 8.791C7.455 8.519 7.334 8.252 7.209 7.997C7.177 7.932 7.143 7.87 7.11 7.806C6.506 6.622 5.82 5.634 5.15 4.829C5.12 4.793 5.09 4.756 5.06 4.721C4.906 4.54 4.754 4.368 4.604 4.207C4.571 4.171 4.539 4.137 4.506 4.102C4.355 3.942 4.205 3.788 4.062 3.647C4.056 3.642 4.05 3.637 4.044 3.631C3.584 3.185 3.17 2.839 2.833 2.579C2.801 2.555 2.766 2.526 2.735 2.504C2.65 2.44 2.575 2.386 2.504 2.335C2.464 2.306 2.422 2.276 2.387 2.252C2.331 2.214 2.278 2.178 2.234 2.148C2.196 2.123 2.161 2.101 2.133 2.082C2.107 2.066 2.076 2.046 2.059 2.035L2 2C4.417 4.417 5.513 7.495 5.333 11.211C5.367 11.991 5.374 12.774 5.319 13.553C5.265 13.411 5.192 13.282 5.132 13.144C5.087 13.43 5.059 13.707 5 14C5 13.608 4.947 13.111 4.858 12.55C3.413 9.703 0.943 7.685 0 7C1.815 8.487 3.917 13.248 3 16H9C9 14.211 8.77 12.622 8.401 11.206C8.318 10.886 8.223 10.583 8.126 10.281Z" fill="#00FF72"/>
</g>
</svg>
