<svg width="16" height="16" xmlns="http://www.w3.org/2000/svg" fill="none">

 <g>
  <title>Layer 1</title>
  <path id="svg_1" fill="white" d="m2,0c-1.10455,0 -2,0.89542 -2,2l0,12c0,1.1046 0.89545,2 2,2l12,0c1.1046,0 2,-0.8954 2,-2l0,-12c0,-1.10458 -0.8954,-2 -2,-2l-6,0l-3,0l-1.5,0l-1.5,0zm9.23076,4.84615l2,0l0,6l-2,0l0,-6zm-2.87496,5.92308l1.5441,0l-2.4438,-2.6875l2.4438,-3.3125l-2.5735,0l-1.29106,1.75l-1.59131,-1.75l-1.54413,0l2.44379,2.6875l-2.44379,3.3125l2.57355,0l1.29102,-1.75l1.59133,1.75z" clip-rule="evenodd" fill-rule="evenodd"/>
 </g>
</svg>