<svg width="16" height="16" viewBox="0 0 16 16" fill="none" xmlns="http://www.w3.org/2000/svg">
<path fill-rule="evenodd" clip-rule="evenodd" d="M2 0C0.895416 0 0 0.895416 0 2V14C0 15.1046 0.895416 16 2 16H14C15.1046 16 16 15.1046 16 14V2C16 0.895416 15.1046 0 14 0H2ZM4.70001 11.0233L3.19998 11.0233L1 5.02332H2.5L3.94998 8.97778L5.39996 5.02332H7.59995L5.39996 11.0233H4.70001ZM8 5.02332H9.5V11.0233H8V5.02332ZM12 5.02332H10.5V11.0233H12V5.02332ZM13 5.02332H14.5V11.0233H13V5.02332Z" fill="white"/>
</svg>
