<svg width="16" height="16" viewBox="0 0 16 16" fill="none" xmlns="http://www.w3.org/2000/svg">
<path d="M1 1C0.447715 1 0 1.44772 0 2V14C0 14.5523 0.447715 15 1 15H6C6 15.5523 6.89543 16 8 16C9.10457 16 10 15.5523 10 15H15C15.5523 15 16 14.5523 16 14V2C16 1.44772 15.5523 1 15 1H13L8 2L3 1H1Z" fill="#8C8C8C"/>
<path d="M1 2L3 0C3 0 5 0 6 0.5C7 1 8 2 8 2C8 2 9 1 10 0.5C11 0 13 0 13 0L15 2V14H1V2Z" fill="white"/>
<path d="M8 14H15V2L13 0C13 0 11 0 10 0.5C9 1 8 2 8 2V14Z" fill="#E6E6E6"/>
<path d="M1 14L3 12C3 12 5 12 6 12.5C7 13 8 14 8 14H1Z" fill="#737373"/>
<path d="M8 14C8 14 9 13 10 12.5C11 12 13 12 13 12L15 14H8Z" fill="#737373"/>
<path d="M1 14L3 12V0L1 2V14Z" fill="#CCCCCC"/>
<path d="M15 14L13 12V0L15 2V14Z" fill="#CCCCCC"/>
<path d="M6.5 14C6.5 14.5523 7.44772 15 8 15C8.55228 15 9.5 14.5523 9.5 14H6.5Z" fill="#333333"/>
</svg>
