<?xml version="1.0" encoding="UTF-8"?>
<svg width="14px" height="14px" viewBox="0 0 14 14" version="1.1" xmlns="http://www.w3.org/2000/svg" xmlns:xlink="http://www.w3.org/1999/xlink">
    <!-- Generator: Sketch 55.2 (78181) - https://sketchapp.com -->
    <title>Icons/16x16/Link</title>
    <desc>Created with Sketch.</desc>
    <g id="Icons" stroke="none" stroke-width="1" fill="none" fill-rule="evenodd" stroke-linecap="round">
        <g id="Icons-for-Toolbar" transform="translate(-586.000000, -1323.000000)" stroke="#FFFFFF" stroke-width="1.5">
            <g id="Icons/16x16/Link" transform="translate(585.000000, 1322.000000)">
                <path d="M10.3023156,9.72767683 C10.3023156,8.51930183 9.19981558,6.66517683 8.26094058,6.66517683 L4.85719058,6.66517683 C2.81581558,6.66517683 1.94081558,8.51930183 1.94081558,9.72767683 C1.94081558,10.9360518 2.81607808,12.7901768 4.85719058,12.7901768 L6.31581558,12.7901768" id="Stroke-1" transform="translate(6.121566, 9.727677) rotate(-45.000000) translate(-6.121566, -9.727677) "></path>
                <path d="M5.92820839,5.74028401 C5.92820839,6.94865901 7.03070839,8.80278401 7.96958339,8.80278401 L11.3733334,8.80278401 C13.4147084,8.80278401 14.2897084,6.94865901 14.2897084,5.74028401 C14.2897084,4.53190901 13.4147084,2.67778401 11.3733334,2.67778401 L9.91470839,2.67778401" id="Stroke-3" transform="translate(10.108958, 5.740284) rotate(-45.000000) translate(-10.108958, -5.740284) "></path>
            </g>
        </g>
    </g>
</svg>