<svg xmlns="http://www.w3.org/2000/svg" width="120" height="76" viewBox="0 0 120 76">
    <g fill="none" fill-rule="evenodd">
        <path fill="#E4E7E9" d="M.514 71.918c-1.153-2.55-.301-5.475 1.9-6.534 2.201-1.059 4.92.148 6.072 2.698 1.153 2.55.301 5.475-1.9 6.534-2.2 1.06-4.92-.148-6.072-2.698M53 42.842L63.245 38 67 46.158 56.754 51z"/>
        <path fill="#CCC3BA" d="M3 63.683l12.54-5.247 25.223-11.623L53.25 40 59 52.187 45.584 57.02 20.358 68.643 8.341 75z"/>
        <path fill="#E4E7E9" d="M62.77 41.964c-6.883-14.762-.497-32.31 14.266-39.194 14.762-6.883 32.31-.496 39.193 14.265 6.885 14.763.498 32.311-14.265 39.195-14.762 6.883-32.31.497-39.194-14.266"/>
        <path fill="#F1FFFF" d="M68.207 40.43C62.723 28.67 67.81 14.69 79.57 9.206c11.76-5.484 25.738-.396 31.222 11.364 5.484 11.76.396 25.739-11.364 31.222-11.76 5.484-25.738.397-31.222-11.364"/>
        <path fill="#FFF" d="M105.82 30.265c.028-.56-.102-1.3-.697-1.264-.386.024-.695.348-.912.74-.632.35-1.085 1.584-.871 2.411-.113.244-.19.5-.213.72-.02.208-.087.405-.108.613-.077.772.05 1.724.925 1.475 1.111-.316 1.847-1.88 2.01-3.066.076-.555.075-1.128-.134-1.63m-1.305-10.532c-4.573 1.377-8.631 3.514-12.54 6.024 2.152-2.436 5.07-4.45 7.125-6.769.61-.689 1.883-4.385-.164-4.173-5.064.523-8.997 3.182-12.622 6.378.618-1.802 1.601-3.409 3.066-4.995.575-.623 1.862-4.533-.163-4.174-7.582 1.343-15.248 7.679-16.204 15.506-.11.9.468 2.095 1.542 1.59 1.166-.548 1.644-1.984 1.786-3.15.412-3.377 4.353-6.209 8.002-7.774-1.211 2.584-1.884 5.388-2.126 8.4-.092 1.148.862 2.372 1.967 1.315 2.217-2.12 4.437-4.22 6.965-5.765-2.349 2.465-4.307 5.167-5.041 8.977-.255 1.325.31 3.075 1.88 1.95 2.878-2.06 5.766-3.94 8.82-5.524-1.124 2.134-1.79 4.472-1.772 6.86.025 3.43 3.343.562 3.327-1.56-.026-3.604 2.874-6.714 5.908-8.376 1.42-.778 2.933-5.549.244-4.74"/>
        <path fill="#000" d="M50.663 45.043l-7.32 3.889c-.392.207-.516 1.296-.006 1.025 2.44-1.296 4.881-2.592 7.32-3.889.392-.207.516-1.296.006-1.025m61.828-9.376c-2.08 9.586-10.778 16.438-20.479 17.255-9.602.808-18.789-4.705-22.902-13.235-3.058-6.648-2.813-14.242.87-20.598 3.702-6.388 10.66-10.395 17.993-11.012 7.093-.596 14.137 2.298 18.966 7.406 5.069 5.361 7.103 13.042 5.552 20.184M77.527 9.607c-10.458 6.527-14.393 20.412-9.335 31.607 6.136 12.95 22.198 17.75 34.325 10.18 11.792-7.359 14.978-23.64 7.33-35.131-7.066-10.617-21.705-13.281-32.32-6.656m31 42.925c-11.404 9.436-28.419 8.329-38.91-1.895-2.511-2.448-4.5-5.381-5.997-8.552-6.268-13.787-.948-30.277 12.3-37.584 12.826-7.075 29.153-3.057 37.704 8.719 8.891 12.245 6.455 29.754-5.098 39.312M58.225 50L55 42.827A9152.553 9152.553 0 0 1 60.845 40a31.638 31.638 0 0 0 1.433 3.98A30.489 30.489 0 0 0 64 47.207L58.225 50m-13.609 6.376l-19.48 8.94c-4.73 2.17-9.292 4.535-13.897 6.961-1.09.574-2.181 1.15-3.272 1.723a2.974 2.974 0 0 0-.135-.316c-.356-.752-.713-1.503-1.068-2.256L3 63.487c11.231-4.697 22.265-9.709 33.328-14.785 4.798-2.201 9.367-4.755 14.003-7.275.637-.346 2.385-1.067 2.214-1.427l1.635 3.45L58 51.513c-4.451 1.565-9.11 2.902-13.384 4.863M3.211 66L7 73.892C2.35 74.893-1.645 68.678 3.211 66M97.818 1.074c-13.44-3.776-27.894 2.701-34.593 14.783-3.88 6.998-4.743 15.278-2.68 22.898l-6.191 2.885-.943-2.021c-.052-.112-.167-.175-.285-.11C36.798 48.522 19.927 56.25 2.754 63.52c-.112.047-.204.188-.266.349l-.014.036c-.007.019-.015.036-.02.055-.061.16-.087.324-.036.433l.25.533C.54 66.444-.476 69.208.214 71.771c.8 2.973 4.48 4.31 7.19 3.308l.366.786c.054.113.167.173.286.109a498.34 498.34 0 0 1 24.691-12.336l12.643-5.892c4.274-1.991 9.016-3.284 13.45-4.899.276-.1.455-.616.335-.873l-.76-1.63 6.113-2.85c6.828 10.103 19.3 15.369 31.505 12.73 13.475-2.913 23.182-14.97 23.923-28.58.762-13.985-8.75-26.808-22.139-30.57M41.416 50.155c-.115.11-.234.215-.354.32a.29.29 0 0 0-.277.058c-.353.295-.698.442-.779.933-.032.198.062.665.393.499.547-.276.981-.652 1.415-1.065.38-.362.142-1.259-.398-.745m-25.69 11.87c-2.455 1.014-5.387 1.422-7.655 2.767-1.915 1.136-.831 2.673-.053 4.09.233.425.767-.41.605-.705-.401-.73-1.596-1.91-.385-2.628.6-.355 1.319-.565 1.984-.787 1.821-.607 3.67-1.111 5.44-1.843.327-.134.53-1.086.064-.893M98.964 42.4c-.012-.025-.031-.042-.048-.063-.018-.022-.026-.048-.05-.066a.328.328 0 0 0-.207-.066l-.005-.002c-.216-.018-.35-.179-.567-.201-.387-.039-.554.326-.726.545-.15.192-.284.367-.343.596-.064.25.053.494.173.716.073.137.248.157.401.129.672-.124.919-.523 1.227-.968a.67.67 0 0 0 .175-.38c.003-.022.006-.043.006-.066 0-.027-.006-.051-.01-.077a.354.354 0 0 0-.026-.097m-6.188 3.724c-6.288 2.724-13.182.182-16.281-6.02-.185-.368-.6.326-.47.587 3.187 6.377 10.235 8.994 16.714 6.189.265-.114.407-.916.037-.756"/>
    </g>
</svg>
