<svg xmlns="http://www.w3.org/2000/svg" width="183" height="90" viewBox="0 0 183 90">
    <g fill="none" fill-rule="evenodd">
        <path fill="#000" d="M87.699 87.374a1.2 1.2 0 1 0 0 2.4 1.2 1.2 0 0 0 0-2.4m-55.8-32.4a1.2 1.2 0 1 0 0 2.4 1.2 1.2 0 0 0 0-2.4m113.4 1.2a1.2 1.2 0 1 0 0 2.4 1.2 1.2 0 0 0 0-2.4m-96.6 24.6a1.2 1.2 0 1 0 0 2.4 1.2 1.2 0 0 0 0-2.4m21 .6a1.2 1.2 0 1 0 0 2.4 1.2 1.2 0 0 0 0-2.4m80.246-74.958l-38.905-2.72-.852 12.19a5.999 5.999 0 0 0-10.474 3.56 5.999 5.999 0 0 0 9.877 4.981l-.853 12.189 18.865 1.319a5.985 5.985 0 0 0-2.74 4.62 6 6 0 0 0 11.97.837 5.984 5.984 0 0 0-2.07-4.957l18.866 1.32 1.883-26.934c.23-3.292-2.275-6.174-5.567-6.405m-33.588 43.47a6 6 0 1 0-11.737-2.495 5.986 5.986 0 0 0 1.36 5.196l-18.498-3.931 2.54-11.952a5.984 5.984 0 0 0 3.751 2.555 6 6 0 0 0 2.495-11.739 5.978 5.978 0 0 0-4.465.808l2.54-11.951-38.148-8.109c-2.325-.494-4.632.451-5.999 2.223-13.517-1.646-15.794 9.058-17.267 12.684-1.598 3.929.003 4.947-.143 5.528-.145.583 7.569 1.887 7.569 1.887.143-3.055 2.104-6.517 4.215-6.987.585-.13 1.375-.082 2.223.045l-8.94 42.062c-.687 3.227 1.392 6.43 4.62 7.116l38.148 8.109 38.148 8.108c3.228.686 6.43-1.394 7.116-4.621L131.5 58.01l-18.498-3.931a5.984 5.984 0 0 0 3.356-4.194m41.282-36.285l-1.269 16.286s3.939 12.427 8.314 14.877c0 0 9.999-19.901-7.045-31.163" opacity=".3"/>
        <path fill="#E4FFFF" d="M116.316 51.13a5.986 5.986 0 0 0 3.356-4.193 6.001 6.001 0 0 0-11.738-2.495 5.982 5.982 0 0 0 1.36 5.196l-18.497-3.932-2.54 11.951a6 6 0 0 1 9.087 6.309 6 6 0 0 1-10.868 2.067l-2.54 11.952 38.148 8.108c3.228.687 6.43-1.394 7.116-4.621l5.614-26.41-18.498-3.932z"/>
        <path fill="#F79C82" d="M137.136 35.713l12.17.852c-1.584-4.662-3.057-10.367.229-11.673 4.365-1.735 5.131-.282 6.942 5.329l1.163-16.62c-3.677-3.17-6.677-5.89-5.085-8.147.505-.715 1.45-.921 2.686-.745a5.939 5.939 0 0 0-2.924-1.015L113.412.974l-.852 12.189a6 6 0 1 0-.598 8.542l-.852 12.189 18.865 1.318a5.986 5.986 0 0 0-2.74 4.62 6 6 0 1 0 11.97.838 5.984 5.984 0 0 0-2.07-4.957"/>
        <path fill="#E4FFFF" d="M92.722 56.85a5.98 5.98 0 0 0-4.466.808l2.54-11.952-17.82-3.788a6 6 0 1 1-10.93 1.97 5.98 5.98 0 0 1 2.555-3.75L46.78 36.35l-5.614 26.41c-.685 3.227 1.394 6.43 4.622 7.117l38.148 8.108 2.54-11.951a5.999 5.999 0 0 0 10.867-2.068 5.999 5.999 0 0 0-4.621-7.116"/>
        <path fill="#E4FFFF" d="M99.583 24.57a5.98 5.98 0 0 0-4.466.809l2.541-11.952L59.51 5.318c-3.228-.685-6.43 1.394-7.116 4.622L46.78 36.35l17.82 3.788a5.98 5.98 0 0 0-2.554 3.75 6 6 0 1 0 11.738 2.495c.34-1.6.006-3.185-.807-4.465l17.82 3.788 2.54-11.951a5.999 5.999 0 0 0 10.867-2.068 6 6 0 0 0-4.621-7.116"/>
        <path fill="#000" d="M51.663 11.073L48.02 28.445c-.242 1.155.83.719 1.005-.115l3.642-17.372c.242-1.155-.829-.719-1.004.115"/>
        <path fill="#4A4A4A" d="M1.299 40.574s12-22.8 35.766-38.012C40.518.352 65.66 5.982 66.543 8.68c.795 2.43-1.024 5.305-15.62 2.068-11.21-2.487-15.38 4.421-19.166 16.289-1.482 4.647 24.896 2.67 24.14 9.993 0 0 1.605 5.108-18.728 1.144-6.163-1.2-14.27 10.2-14.87 15M156.884 67.035c-.233-1.344-3.87-7.377-3.971-12.14-.103-4.763-.633-9.478-1.973-13.668-1.34-4.19-5.975-14.519-1.405-16.334 4.57-1.818 5.192-.152 7.201 6.132 2.01 6.285 4.207 10.378 8.07 13.85 0 0 4.885-14.44 1.445-21.865-3.44-7.426-16.69-13.313-13.696-17.556 2.995-4.244 21.29 9.098 26.117 17.68-.02-.058 5.226 17.003 2.62 26.815-1.02 3.843-3.157 16.09-6.375 20.38"/>
        <path fill="#000" d="M158.737 26.404c-.385-.257-.798.59-.481.802 3.385 2.265 4.658 6.25 5.306 10.087.094.564.707-.098.643-.476-.664-3.937-1.993-8.087-5.468-10.413m7.157 3.797c-1.317-3.707-2.922-6.686-5.876-9.324-.459-.41-1.042.7-.643 1.056 2.893 2.583 4.45 5.513 5.736 9.134.22.618.953-.388.783-.866m-30.421 23.837a76098.43 76098.43 0 0 0-16.842-3.58c3.408-3.684 2.721-10.06-2.921-11.662-2.542-.722-5.706.687-7.053 2.916-1.284 2.123-1.567 4.344-.843 6.447l-16.358-3.477c-.593-.126-.973.495-1.082.999l-2.54 11.74c-.082.379.125 1.247.704.938 4.018-2.149 9.088.446 8.382 5.371-.734 5.127-7.352 4.178-9.63 1.168-.475-.627-1.164.556-1.236.9l-2.291 10.775-33.198-7.057c-1.369-.29-2.737-.58-4.106-.872-4.723-1.003-4.484-5.297-3.715-8.917l3.584-16.864c.289-1.356-1.187-1.028-1.416.05l-3.75 17.644c-.618 2.908-.845 5.376 1.063 7.944 1.38 1.857 3.791 2.155 5.882 2.6l35.74 7.595c.593.126.975-.495 1.082-.998l2.154-10.135c3.543 3.25 9.612 1.902 11.031-3.098 1.575-5.549-3.272-10.441-8.564-8.483l1.986-9.177 17.67 3.756c.912.193 1.366-1.229.902-1.848-3.382-4.51.904-9.092 5.64-7.747 4.284 1.216 4.662 7.083.857 9.15-.433.236-1.293 1.742-.377 1.937l17.985 3.822-3.483 16.387-1.787 8.403c-.775 3.648-3.82 4.91-7.176 4.198l-34.609-7.357c-.915-.195-1.609 1.763-.747 1.946l35.533 7.554c7.77 1.652 8.628-7.39 9.741-12.63l4.122-19.39c.058-.27.035-.87-.334-.948M49.505 14.696c-2.852-.987-7.052-.572-9.266 1.634-2.322 2.314-4.402 5.96-5.324 9.112-.196.666.487.948.688.264.81-2.765 2.561-5.509 4.303-7.773 2.003-2.602 6.178-3.205 9.187-2.162.477.165.883-.91.412-1.075m132.956 25.045c-.332-5.336-1.46-10.648-2.857-15.799-1.03-3.798-4.336-6.812-7.105-9.442-2.697-2.56-17.717-16.102-20.75-8.54-1.245 3.103 2.66 6.24 5.217 8.274l-.868 12.41c-.29-.63-.619-1.233-1.01-1.79-2.377-3.397-7.558-.64-7.996 2.912-.318 2.585.195 5.166.98 7.726l-10.727-.752c-.667-.047-1.13 1.408-.705 1.835 3.84 3.858.837 9.304-4.28 8.599-4.491-.62-5.894-6.452-2.262-9.142.408-.302.937-1.733.086-1.792l-18.379-1.285.808-11.552c.036-.512-.32-.849-.773-.517-3.403 2.485-7.908.991-9.012-3.084-.736-2.72 1.453-4.923 3.847-5.571 2.023-.548 3.983.43 5.39 1.794.582.566 1.118-.778 1.145-1.164L113.97 2l35.988 2.517c.735.05 1.315-1.883.418-1.946L113.621 0c-.536-.037-.832.89-.859 1.274l-.713 10.198c-4.343-3.02-9.848-.009-10.58 5.303-.792 5.74 5.277 8.687 9.77 6.28l-.78 11.14c-.02.316.09.646.442.67l17.286 1.209c-2.941 4.042-1.527 10.317 4.25 11.114 5.85.806 8.569-5.828 6.538-10.36l9.767.684c.97 2.77 2.092 5.508 2.656 8.194.906 4.318.308 8.91 1.513 13.134.87 3.046 2.668 5.806 3.455 8.841.207.798 1.188-.704 1.035-1.293-.567-2.184-1.846-4.251-2.656-6.358-1.39-3.611-1.242-7.276-1.602-11.06-.57-5.988-3.03-11.186-4.481-16.933-.306-1.213-.504-2.458-.53-3.71-.047-2.334 1.61-2.908 3.521-3.229 2.583-.433 3.384 3.011 4 4.825 2.008 5.92 4.03 11.38 8.714 15.726.56.52 1.355-1.11.878-1.55-2.818-2.616-4.806-5.668-6.34-9.186-.722-1.66-1.186-3.553-1.75-5.39l1.002-14.324.036.031c2.24 1.93 4.436 3.905 6.236 6.26 2.61 3.413 2.727 7.806 2.404 11.913-.22 2.804-.838 5.58-1.573 8.29-.321 1.187.84.741 1.07-.11 1.435-5.293 2.698-11.562 1.207-16.983-1.414-5.143-5.687-8.527-9.57-11.872-1.736-1.496-3.679-3.03-4.87-5.025-1.562-2.619 1.846-2.218 3.226-1.821 4.866 1.4 9.304 4.997 13.097 8.2a55.827 55.827 0 0 1 5.632 5.492c1.07 1.2 2.698 2.844 3.165 4.415 1.236 4.162 2.111 8.445 2.713 12.742.79 5.642.372 10.707-.865 16.212-1.23 5.48-2.09 12.11-5.384 16.8-.402.573-.213 2.145.473 1.17 3.106-4.425 4.2-10.282 5.39-15.454 1.223-5.31 2.26-10.221 1.917-15.72M43.092 23.736c-1.493.802-2.12 2.722-2.518 4.239-.147.56.528.462.65 0 .356-1.36.862-2.673 2.062-3.501 1.306-.903 3.231-.618 4.656-.29.415.095.714-.726.314-.818-1.772-.409-3.515-.516-5.164.37m21.593 17.337c.246-.187.807-1.396.23-1.518l-7.045-1.499c-.66-.14-1.218 1.515-.629 1.64l5.954 1.267c-3.04 3.719-2.05 9.62 3.158 11.1 5.354 1.52 8.72-4.258 7.737-8.807l13.294 2.612c.665.131 1.215-1.525.63-1.64L73.29 41.334c-.58-.115-1.043 1.001-.806 1.444 2.515 4.7-1.737 8.713-6.288 7.42-4.092-1.161-4.848-6.6-1.512-9.126M68.9 8.202l28.11 6.208-2.395 11.262c-.058.272-.023.988.45.735 3.99-2.135 8.759.26 8.722 4.979-.028 3.458-3.717 4.72-6.384 4.338-1.534-.22-2.75-1.297-3.647-2.48-.359-.473-.873.58-.921.804l-1.459 6.862c-.245 1.155.828.717 1.005-.116l1.14-5.367c3.414 3.443 9.543 2.225 10.962-2.776 1.582-5.572-3.322-10.397-8.64-8.146l2.317-10.899c.04-.186.098-.7-.187-.763L69.529 6.56c-.659-.145-1.22 1.51-.63 1.64M55.147 37.583c.001-.005-.004-.003-.005-.007.013-.029.024-.088.005.007m-2.87 2.951c3.422-.464 5.998-3.46 3.426-6.602-2.204-2.694-7.243-3.145-10.39-3.684-3.849-.66-8.055-.825-11.703-2.31-2.24-.912-.105-3.878.525-5.522 1.175-3.065 2.672-6.051 5.02-8.385 5.16-5.128 13.062-1.616 19.19-.951 2.697.292 6.901.661 8.642-1.993 1.068-1.631.401-3.453-1.128-4.374-3.425-2.063-7.922-2.859-11.762-3.732-4.516-1.027-9.223-1.94-13.87-1.96-1.15-.005-2.34.085-3.36.648-3.409 1.883-6.565 4.528-9.57 6.982-5.227 4.264-10 9.077-14.385 14.194C8.384 28.127 4.02 33.888.756 40.06c-.534 1.007.416 2.295 1.086 1.03 3.554-6.716 8.38-12.881 13.378-18.56A109.367 109.367 0 0 1 32.295 6.862c2.022-1.495 4.15-3.56 6.75-3.742 2.129-.147 4.31.151 6.414.43a89.668 89.668 0 0 1 15.36 3.448c.824.263 7.28 2.24 4.307 3.625-1.883.878-4.408.555-6.394.38-3.848-.34-7.558-1.602-11.414-1.791-4.964-.245-8.807 2.532-11.469 6.493-1.28 1.907-2.204 4.074-3.054 6.197-.686 1.716-2.054 4.152-1.844 6.052.24 2.158 3.641 2.605 5.258 2.94 3.823.792 7.72 1.166 11.54 1.973 2.165.457 7.53 1.394 7.375 4.45a2.061 2.061 0 0 0-.003.238c-.128.007-.72.443-1.091.58-4.243 1.547-10.035.169-14.266-.557-2.405-.412-4.157-.752-6.455.236-2.043.877-3.76 2.478-5.29 4.05-2.9 2.977-5.786 7.144-6.468 11.33-.23 1.405 1.309 1.109 1.496-.04.886-5.436 6.215-11.971 11.394-13.78 1.804-.632 3.79.087 5.588.394 1.571.27 3.15.486 4.734.668 2.482.286 5.03.434 7.513.098m-4.103-21.163c-2.364-.555-4.382-.8-6.374.763-1.96 1.54-3.546 4.178-4.226 6.559-.24.837.657 1.207.902.347.545-1.909 1.668-3.65 2.984-5.117 1.779-1.984 3.802-1.773 6.199-1.21.646.152 1.132-1.196.515-1.342"/>
    </g>
</svg>
