<?xml version="1.0" encoding="UTF-8" standalone="no"?>
<svg
   xmlns:dc="http://purl.org/dc/elements/1.1/"
   xmlns:cc="http://creativecommons.org/ns#"
   xmlns:rdf="http://www.w3.org/1999/02/22-rdf-syntax-ns#"
   xmlns:svg="http://www.w3.org/2000/svg"
   xmlns="http://www.w3.org/2000/svg"
   xmlns:sodipodi="http://sodipodi.sourceforge.net/DTD/sodipodi-0.dtd"
   xmlns:inkscape="http://www.inkscape.org/namespaces/inkscape"
   width="26px"
   height="26px"
   viewBox="0 0 26 26"
   version="1.1"
   id="svg4493"
   sodipodi:docname="no-image.svg"
   inkscape:version="0.92.1 r15371">
  <metadata
     id="metadata4499">
    <rdf:RDF>
      <cc:Work
         rdf:about="">
        <dc:format>image/svg+xml</dc:format>
        <dc:type
           rdf:resource="http://purl.org/dc/dcmitype/StillImage" />
        <dc:title>Group 9 Copy</dc:title>
      </cc:Work>
    </rdf:RDF>
  </metadata>
  <defs
     id="defs4497" />
  <sodipodi:namedview
     pagecolor="#ffffff"
     bordercolor="#666666"
     borderopacity="1"
     objecttolerance="10"
     gridtolerance="10"
     guidetolerance="10"
     inkscape:pageopacity="0"
     inkscape:pageshadow="2"
     inkscape:window-width="1920"
     inkscape:window-height="1137"
     id="namedview4495"
     showgrid="false"
     inkscape:zoom="13.163065"
     inkscape:cx="-4.1947994"
     inkscape:cy="14.073388"
     inkscape:window-x="-8"
     inkscape:window-y="-8"
     inkscape:window-maximized="1"
     inkscape:current-layer="svg4493" />
  <!-- Generator: Sketch 59.1 (86144) - https://sketch.com -->
  <title
     id="title4485">Group 9 Copy</title>
  <desc
     id="desc4487">Created with Sketch.</desc>
  <g
     id="Symbols"
     transform="translate(0,0.06896551)"
     style="fill:none;fill-rule:evenodd;stroke:none;stroke-width:1">
    <g
       id="Group-9-Copy"
       transform="translate(0,2)"
       style="fill:#8c8c8c">
      <polygon
         id="Fill-1"
         points="0.8964835,20.931034 17,19.777029 16.961432,19.229944 3.8662252,16.262372 5.7421584,7.9310345 0,8.3422475 " />
      <path
         d="m 12.056055,5.5842943 c 0.05879,0 0.118034,0.00674 0.176367,0.019761 0.206445,0.045809 0.382812,0.1688665 0.495833,0.3449188 0.113021,0.1765014 0.149479,0.385788 0.102995,0.5896853 -0.08112,0.353452 -0.406055,0.6094464 -0.772461,0.6094464 -0.05833,0 -0.117578,-0.00674 -0.175911,-0.019312 C 11.675977,7.0825353 11.500065,6.9599274 11.387044,6.783426 11.274023,6.6069246 11.237109,6.3976379 11.28405,6.1937406 11.364714,5.8407378 11.689648,5.5842943 12.056055,5.5842943 Z m 0.0027,2.4620375 c 0.779297,0 1.482487,-0.5299534 1.661589,-1.3100627 0.207356,-0.9049627 -0.369141,-1.8040869 -1.287435,-2.0084333 -0.126237,-0.028294 -0.252474,-0.041768 -0.376888,-0.041768 -0.779297,0 -1.482487,0.5295042 -1.661133,1.3100626 -0.207357,0.9045136 0.368685,1.8040869 1.286979,2.0084334 0.126237,0.028743 0.252474,0.041768 0.376888,0.041768 z m -4.3722656,4.5477182 0.4675782,0.771127 4.9464844,-2.914294 2.422656,3.27583 0.736914,-0.528606 -1.029948,-1.392699 3.663607,-1.9927148 2.344727,3.6589238 L 22.00918,12.991964 19.20599,8.6171544 14.689258,11.074252 13.347135,9.2589369 Z M 22.092578,17.856756 6.0896484,14.293943 8.9069662,2.0053128 24.909896,5.5681262 Z M 25.110872,4.6919068 9.1079427,1.1290933 8.2188151,0.93103448 8.0178385,1.807254 5.2005208,14.096333 5,14.972103 5.8891276,15.170162 21.892057,18.732976 22.780729,18.931034 22.981706,18.054815 25.799023,5.7661851 26,4.8899656 Z"
         id="Fill-2"
         inkscape:connector-curvature="0" />
    </g>
  </g>
</svg>
