<svg xmlns="http://www.w3.org/2000/svg" xmlns:xlink="http://www.w3.org/1999/xlink" width="139" height="105" viewBox="0 0 139 105">
    <defs>
        <path id="a" d="M.016.415H31.08v58H.016z"/>
    </defs>
    <g fill="none" fill-rule="evenodd">
        <path fill="#000" d="M46.988 58.407c-.238 9.488-.417 18.977-.984 28.452-.092 1.543 1.568.388 1.63-.653.566-9.476.746-18.964.984-28.452.039-1.548-1.604-.399-1.63.653M6.451 87.871h34c.737 0 1.26-1.871.392-1.871h-34c-.737 0-1.259 1.871-.392 1.871M134.451 87.871h3c.737 0 1.26-1.871.392-1.871h-3c-.737 0-1.259 1.871-.392 1.871"/>
        <path fill="#000" d="M125.986 101.505c0 1.384-8.727 2.505-19.493 2.505-10.766 0-19.493-1.121-19.493-2.505S95.727 99 106.493 99c10.766 0 19.493 1.121 19.493 2.505" opacity=".3"/>
        <path fill="#000" d="M58.602 46.007c4.514.103 9.784.178 13.53-2.783 4.559-3.603 4.102-9.786 7.304-14.165 1.52-2.079 2.923-2.506 3.876.511.975 3.087-1.044 8.38-1.961 11.376-1.79 5.846-5.062 9.126-11.307 9.864-3.713.44-7.505.528-11.235.771-.386.026-.582.462-.594.796-.395 11.441-.297 22.976.736 34.385.019.214.113.462.368.462h70c.575 0 .88-1.258.226-1.258H69.56c-2.62 0-6.933.842-9.455 0-.781-.26-.195.771-.303-.874-.207-3.169-.421-6.335-.553-9.509a304.324 304.324 0 0 1-.253-16.014c.01-1.033-.154-2.64.063-3.708.583-2.87.249-2.567 3.094-3.255 2.677-.647 5.692-.228 8.435-.617 8.9-1.26 11.084-8.098 12.953-15.935.555-2.324 2.585-10.617-2.642-10.024-2.958.336-3.89 5.365-4.527 7.428-1.403 4.543-2.927 8.786-7.941 10.443-3.057 1.008-6.428.92-9.602.848-.575-.013-.884 1.243-.227 1.258"/>
        <g transform="translate(35)">
            <mask id="b" fill="#fff">
                <use xlink:href="#a"/>
            </mask>
            <path fill="#000" d="M15.386 56.627c-3.764.158-8.002.375-11.1-2.12-3.485-2.806-3.243-7.471-2.473-11.49.38-1.984 1.187-6.882 3-8.027 2.85-1.8 4.05 1.627 3.82 4.417-.253 3.05-3.065 8.05-1.573 11.136 1.046 2.16 3.745 1.83 5.854 2.027.52.049.805-.73.817-1.111.326-10.477.593-21.147 2.722-31.445.655-3.17 5-21.062 11.358-17.482 5.364 3.019-.03 15.004-1.161 18.886-2.407 8.256-3.14 17.114-3.731 25.66-.081 1.178 1.253.36 1.31-.476.467-6.714 1.17-13.453 2.477-20.061 1.013-5.115 3.242-9.893 4.052-15.042C31.25 8.363 31.856.52 26.885.416c-5.747-.121-9.027 9.902-10.257 13.904-3.693 12.016-3.82 25.16-4.208 37.616l.817-1.112c-2.131-.2-4.561.15-5.018-2.525-.316-1.857.648-4.418 1.064-6.23.49-2.124 1.626-5.034.557-7.176-1.103-2.21-4.062-2.857-5.827-1.153C.576 37.062-.368 45.65.148 50.03c.91 7.74 8.445 8.617 14.915 8.343.78-.032 1.206-1.783.323-1.746" mask="url(#b)"/>
        </g>
        <path stroke="#E4FFFF" d="M98.377 77s-.484.211-1.377.583"/>
        <path stroke="#E4FFFF" stroke-dasharray="2.997,2.997" d="M94.83 77.942C76.811 85.13 6.928 110.329 22.262 61.897c6.801-21.481 41.991-25.96 39.584-.464C60.294 77.866 49.929 92.403 3 95.812"/>
        <path stroke="#E4FFFF" d="M1.497 96c-.495.033-.994.065-1.497.096"/>
        <path fill="#F79C82" d="M117.164 47.248c-10.625-5.77-23.478.198-28.29 10.728-4.46 9.76-.732 22.07 8.76 27.31 4.97 2.745 11.46 2.907 16.362-.064 4.717-2.861 7.533-8.644 6.98-14.134-.61-6.06-6.38-10.265-12.125-11.15-5.193-.797-10.646 4.21-8.26 9.587 1.13 2.545 3.898 3.959 6.564 2.915 2.692-1.053 4.534-3.877 5.144-6.613 1.452-6.52-4.61-12.324-10.927-9.18-1.25.624-2.015 2.192-2.036 3.554-.015.994.58 2.483 1.854 1.848 1.661-.827 3.578-.958 5.216.046 1.185.726 2.897 2.817 2 4.235-1.114 1.759-2.958.365-4.016-.362.1.068-.789-1.2-.496-.24-.057.115-.115.228-.173.34a2.546 2.546 0 0 1 1.24-.472c1.155-.278 2.358-.077 3.485.247 3.507 1.007 7.832 3.393 8.588 7.276.66 3.396-1.476 6.233-4.48 7.567-13.13 5.833-28.03-12.166-18.976-23.647 5.146-6.526 14.253-8.186 21.466-4.27 2.007 1.09 4.285-4.345 2.12-5.521"/>
        <path fill="#F79C82" d="M109.08 50.497c-3.625-1.593-6.94.945-9.466 3.356-3.038 2.903-4.937 6.64-4.569 10.927.595 6.927 4.793 13.119 11.958 14.112 7.52 1.042 14.407-2.869 15.956-10.596 1.402-6.99-3.116-15.714-11.208-13.305-3.032.903-4.719 9.463-.386 8.173 1.872-.558 3.798.547 4.901 2.01.553.733 1.737 2.823 1.202 3.86-.303.589-2.892 1.164-3.774 1.294-1.746.258-3.562.261-5.28-.168-3.692-.92-5.96-3.427-7.11-6.984-.23-.712-.292-1.535-.537-2.229.021-1.072-.146-.861-.505.633a6.581 6.581 0 0 1 1.038-1.059c1.33-1.26 2.666-2.456 4.556-1.626 3.143 1.382 6.48-6.967 3.224-8.398"/>
        <path fill="#F79C82" d="M92.096 54.27c-2.153 7.25-3.773 15.349 1.044 21.924 4.037 5.51 11.547 9.247 18.407 7.982 16.903-3.116 16.134-25.205 10.123-37.127l-4.166 6.228a96.908 96.908 0 0 1 8.151 17.103c.481 1.328.99 2.669 1.344 4.039.14.54.131 1.272.325 1.772l.014.538c.556-.774.607-.99.153-.647-.258-.11-2.813 1.016-3.252 1.14-1.238.354-2.403.73-3.52 1.383l1.332 5.348 8.841-13.326c.793-1.194 1.547-3.947.36-5.13-1.31-1.305-2.834.699-3.47 1.659L118.94 80.48c-.768 1.158-1.567 7.04 1.332 5.348 3.166-1.848 6.841-1.616 9.361-4.643 2.528-3.04 3.087-7.213 2.238-10.976-1.88-8.351-6.14-16.45-10.536-23.721-.848-1.403-2.762.596-3.199 1.25-.83 1.246-1.714 3.497-.968 4.977 2.501 4.959 4.045 10.59 3.521 16.184-.484 5.16-4.68 7.767-9.646 7.898-5.32.14-10.643-2.93-13.83-7.078-3.739-4.867-2.072-10.595-.482-15.948.361-1.215.24-3.58-1.47-3.555-1.782.027-2.778 2.749-3.165 4.053"/>
        <path fill="#F79C82" d="M112.908 40.36c-11.745-1.862-23.798 3.647-30.912 13-3.988 5.244-6.835 11.71-3.58 18.013 3.23 6.252 8.149 11.939 13.233 16.745 2.679 2.533 6.19-3.78 3.789-6.048-4.261-4.028-8.013-8.512-11.105-13.501-1.477-2.384-2.55-4.203-1.311-6.932.91-2.01 2.186-3.876 3.657-5.515 6.258-6.97 15.79-10.191 24.998-8.731 3.189.506 4.96-6.44 1.23-7.03"/>
        <path fill="#F79C82" d="M102.387 45.596c6.848 1.789 12.563 6.544 15.69 12.894 1.602 3.255 2.512 6.889 2.335 10.533-.226 4.655-2.815 7.016-6.594 9.329-1.93 1.182-4.083 2.572-6.388 2.829-2.252.25-4.335-.64-6.25-1.738-3.343-1.917-6.43-4.611-8.659-7.76-4.07-5.754-5.039-15.11 2.171-18.937 1.025-.544 1.705-1.76 1.696-2.922-.006-.802-.535-2.112-1.593-1.55-6.239 3.31-9.324 10.483-8.72 17.37.671 7.706 6.264 13.98 12.598 17.894 3.861 2.386 7.682 3.057 11.86 1.067 3.341-1.592 6.935-3.727 9.4-6.53 5.046-5.738 4.514-14.707 1.78-21.375-3.1-7.554-9.647-13.585-17.578-15.658-2.006-.524-3.659 4.054-1.748 4.554"/>
        <path fill="#000" d="M83.617 59.456c-5.675 9.422-1.55 20.521 6.897 26.699 5.43 3.973 20.095 10.887 21.98-.257.214-1.264-1.131-.966-1.304.052-1.698 10.038-17.93.22-21.462-2.807-6.54-5.605-9.918-14.904-5.176-22.776.528-.877-.27-2.015-.935-.911"/>
        <path fill="#000" d="M96.099 75.139c3.385 5.152 10.577 11.52 17.379 10.265 5.826-1.076 10.756-8.478 13.65-13.052.536-.847-.1-2.015-.816-.884-3.418 5.401-9.126 13.596-16.436 11.685-5.403-1.413-9.792-5.121-12.807-9.711-.415-.631-1.378 1.077-.97 1.697M88.913 67.145C83.36 63 81.66 55.045 86.978 49.813c4.597-4.52 11.191-5.23 17.332-5.37.974-.024 1.64-2.468.508-2.443-8.079.186-17.452 1.927-21.41 9.937-2.978 6.024-1.079 13.386 4.25 17.361.926.693 2.023-1.58 1.255-2.153"/>
        <path fill="#000" d="M91.487 51.98c-.06-2.148 2.731-5.66 4.4-6.95a35.579 35.579 0 0 1 3.196-2.174c3.25-1.987 6.9-3.565 10.742-2.3 4.811 1.586 8.716 6.428 11.422 10.49.493.742 1.621-1.264 1.138-1.99-4.4-6.609-11.158-13.538-19.662-10.182-5.563 2.195-12.906 7.112-12.72 13.807.042 1.535 1.511.263 1.484-.7"/>
        <path fill="#000" d="M103.673 52.524c4.212-3.121 9.515-5.747 14.884-5.878 6.897-.17 9.366 7.845 10.19 13.525.137.938 1.219-.08 1.12-.758-.733-5.056-3.147-13.5-9.225-14.302-5.93-.783-12.732 2.72-17.293 6.099-.557.413-.445 1.883.324 1.314M122.099 69.227c1.958 1.598 3.798 3.308 5.456 5.22 1.044 1.203 1.588 1.957 1.946 3.582.545 2.475-.932 3.66-2.98 4.957-4.735 2.998-10.492 1.645-14.11-2.4-.712-.797-1.866 1.368-1.222 2.087 4.792 5.36 12.854 5.777 17.92.515 1.67-1.732 3.25-4.093 2.555-6.6-1.026-3.703-5.51-7.137-8.343-9.449-.868-.709-1.955 1.49-1.222 2.088"/>
        <path fill="#000" d="M111.53 56c3.366.058 6.783.992 8.936 3.761 2.945 3.79 1.346 9.71-4.035 9.473-.837-.036-1.379 1.956-.392 2 4.7.205 8.044-4.217 7.461-8.72-.745-5.76-6.318-8.422-11.578-8.514-.84-.014-1.375 1.982-.393 2M89.589 55.656c5.845-3.328 13.012-.497 14.565 6.16.312 1.339 1.669-.38 1.475-1.215-1.704-7.3-9.335-10.842-15.94-7.082-.71.406-1.064 2.687-.1 2.137"/>
        <path fill="#000" d="M105.56 52.017c-8.902 2.32-13.57 11.353-10.731 20.03.367 1.122 1.728-.95 1.454-1.79-2.33-7.124 1.607-13.957 8.752-15.819.902-.235 1.46-2.664.525-2.42M101.237 67.68c5.611 6.461 15.078 3.661 17.744-4.008.591-1.699-1.16-2.4-1.759-.676-2.29 6.586-10.266 7.073-14.496 2.202-.879-1.013-2.289 1.561-1.489 2.482"/>
        <path fill="#000" d="M93.462 59.346c-1.457 4.53-4.945 9.644-2.762 14.538 2.357 5.283 11.787 5.077 16.56 5.143.45.006.694-.984.18-.991-4.44-.06-12.846.168-15.649-4.012-2.95-4.401.955-10.151 2.33-14.425.191-.597-.463-.861-.659-.253M99.294 49.962c3.434-.592 7.608-1.226 10.301 1.556 2.453 2.533 2.368 6.535 2.249 9.809l.941-.644-.439-2.128c-.18-.871-1.044.295-.937.814l.439 2.128c.179.867.926-.235.941-.644.122-3.374.193-7.353-2.016-10.148-2.702-3.416-7.341-2.873-11.147-2.217-.541.093-.914 1.575-.332 1.474M114.614 76.649c5.331.21 9.163-5.744 11.302-9.951 2.095-4.12 2.488-8.815-.614-12.502-.667-.792-1.712 1.03-1.1 1.758 3.124 3.714 1.663 8.228-.687 11.873-1.954 3.03-4.493 6.939-8.542 6.78-.947-.038-1.442 1.999-.359 2.042"/>
        <path fill="#000" d="M122.397 57.942c6.628 2.833 9.789 10.193 6.39 16.837-.498.973.472 2.188 1.083.993 3.848-7.519 1.203-16.326-6.746-19.724-.87-.372-1.608 1.517-.727 1.894M90.07 80.202c2.988 6.678 10.568 7.01 16.943 6.788 1.008-.034 1.692-2.566.525-2.525-5.862.203-13.123.13-15.915-6.11-.538-1.201-1.952.955-1.553 1.847"/>
    </g>
</svg>
