<svg xmlns="http://www.w3.org/2000/svg" xmlns:xlink="http://www.w3.org/1999/xlink" width="114" height="89" viewBox="0 0 114 89">
    <defs>
        <path id="a" d="M95.355.361v10.11H.927V.361h94.428z"/>
        <path id="c" d="M0 88.047h113.355V0H0z"/>
    </defs>
    <g fill="none" fill-rule="evenodd">
        <g transform="translate(18 65.047)">
            <mask id="b" fill="#fff">
                <use xlink:href="#a"/>
            </mask>
            <path fill="#000" fill-opacity=".25" d="M48.142 10.471C22.064 10.471.925 8.207.925 5.416S22.066.361 48.142.361c26.075 0 47.215 2.264 47.215 5.055s-21.14 5.055-47.214 5.055z" mask="url(#b)"/>
        </g>
        <path fill="#000" fill-opacity=".25" d="M23.926 85.783c-7.869 0-14.248-1.668-14.248-3.726 0-2.056 6.38-3.724 14.248-3.724 7.87 0 14.25 1.668 14.25 3.724 0 2.058-6.38 3.726-14.25 3.726zM88.406 82.119c-4.493 0-8.136-1.036-8.136-2.311s3.643-2.311 8.136-2.311c4.494 0 8.137 1.036 8.137 2.31 0 1.276-3.643 2.312-8.137 2.312z"/>
        <path fill="#FFF" d="M36.87 56.691c-5.437 3.501-7.716 11.835-5.275 13.777h11.63"/>
        <path fill="#FFF" d="M79.644 45.55C76.904 57.947 64.01 58.777 55.612 59.41 41.989 60.438 37.89 63.5 40.585 70.463c0 0 12.355.015 19.921.006 7.326-.01 15.869 4.733 14.616-.981-3.277-14.942 5.469-17.577 15.233-19.885"/>
        <path fill="#000" d="M31.585 62.735c-.834 1.687-1.468 3.441-1.509 5.34-.015.701.371 3.013 1.408 3.013h5.486c.567 0 .868-1.239.223-1.239h-4.629c-.939 0-1.131-.175-1.437-1.208-.54-1.825.497-3.995 1.284-5.59.355-.716-.482-1.013-.826-.316"/>
        <path fill="#FFF" d="M76.935 30.873c16.199-5.687 32.412 4.5 28.309 23.102-3.82 17.316-21.146 13.512-31.633 14.305"/>
        <path fill="#E0E8E8" d="M65.09 64.858c6.929-1.43 13.79-1.952 16.739-6.326 3.509-5.202 5.44-8.412 8.006-9.326 0 0-2.775 10.433 7.324 12.724 0 0-1.206 2.375-18.307 2.537"/>
        <path fill="#FFF" d="M25.513 42.231c0 14.27 12.183 25.834 27.21 25.834 15.029 0 27.212-11.564 27.212-25.834 0-14.268-12.183-25.833-27.212-25.833-15.027 0-27.21 11.566-27.21 25.833"/>
        <path fill="#FE9D7D" d="M33.413 41.323c-2.898 0-7.118 3.046-7.356 6.074.876 5.285 1.781 5.298 5.424 10.613 6.694 2.27 12.787-2.27 12.787-7.702 0-5.568-6.143-8.985-10.855-8.985"/>
        <path fill="#FFF" d="M54.705 48.987c-1.645 4.024 4.907 5.871 9.642 5.871 4.735 0 7.504-4.457 7.504-8.805 0-4.347-5.625-4.19-10.504-2.87-4.57 1.236-5.464 2.92-6.642 5.804"/>
        <path fill="#E0E8E8" d="M49.592 70.469c-7.566.009-9.007-.006-9.007-.006-2.696-6.962 1.403-8.025 15.027-9.054 2.514-.19 5.431-.576 8.358-1.357 0 0-5.263 3.59-5.705 10.41"/>
        <path fill="#FFF" d="M53.347 33.797s-1.196-6.702 8.833-12.5c6.586 5.59 9.243 9.286 10.814 17.005 0 0-9.846-7.5-19.647-4.505M104.887 48.292c1.206 11.497-6.387 17.773-27.07 16.401-.12-.007-26.97-2.658-27.712 12.364-.678 13.724 26.558 10.901 26.551 5.029-.006-4.255-2.59-2.988-8.075-3.323-3.47-.212-2.943-4.493 4.001-4.922 10.047-.62 36.08 1.322 37.66-22.65 0 0 .546-10.484-6.033-10.484"/>
        <path fill="#E0E8E8" d="M100.253 60.743c.802-.119 4.46-4.483 4.99-6.769 4.299-18.557-12.11-28.789-28.308-23.1 0 0-.696.753 1.353 4.724.7 1.357 1.356.906 1.356.906s14.028-2.32 19.096 3.388c2.646 2.98 7.147 12.66 3.968 18.12"/>
        <path fill="#E0E8E8" d="M78.709 33.89C72.75 20.58 62.18 21.298 62.18 21.298c11.43 9.38 10.815 17.006 10.815 17.005 0 0 8.22-3.766 20.171-1.474 0 0 1.6-3.263-1.076-4.004"/>
        <path fill="#000" d="M61.763 22.148c2.567 2.195 5.077 4.47 7.03 7.248 1.946 2.773 2.937 6.024 3.632 9.303.205.97 1.283-.111 1.138-.794-.684-3.233-1.672-6.309-3.424-9.128-1.939-3.122-4.775-5.623-7.54-7.989-.617-.526-1.37.901-.836 1.36M78.976 45.585c-2.843 11.868-15.314 14.183-25.714 15.049-3.864.322-9.349.297-12.507 2.974-2.307 1.956-1.71 5.077-.784 7.563.065.175.241.268.42.27 3.001.029 6.004.009 9.006.006.817-.001 1.34-1.958.391-1.957-2.689.003-5.377.006-8.065-.001-.303-.001-.605-.002-.907-.005.227.002-.309-2.297-.317-2.758-.039-2.124 2.95-2.755 4.534-3.118 3.386-.774 6.932-.956 10.383-1.22 10.922-.838 22.1-5.199 24.896-16.871.317-1.324-1.09-.954-1.336.068M31.928 49.866c3.224 1.31 6.937 1.52 10.174.142.238-.102.344-.774.019-.635-3.168 1.347-6.792 1.126-9.944-.155-.263-.107-.515.54-.25.648M52.974 50.008c3.461 1.179 8.277 1.263 11.625-.305.317-.15.457-1.067.026-.865-3.223 1.509-7.995 1.416-11.312.287-.37-.127-.703.759-.339.883"/>
        <path fill="#000" d="M53.856 33.603c.008-1.416.546-2.837 1.114-4.107.737-1.65 1.891-3.081 3.131-4.374.808-.842 2.938-3.076 4.164-3.148 6.037-.354 11.325 5.123 14.53 9.53.463.638 1.233-.517.888-.992-3.315-4.558-9.01-10.542-15.357-9.91-1.327.133-3.29 2.16-4.219 3.062-1.496 1.45-2.749 3.042-3.72 4.887-.852 1.619-1.539 3.583-1.55 5.44-.005.947 1.015.272 1.02-.388"/>
        <path fill="#E0E8E8" d="M66.563 19.991a.372.372 0 0 0-.039-.02c-.48-.226-7.596-3.492-15.432-3.372a36.12 36.12 0 0 0-2.961.173c-5.251.848-9.99 3.117-13.757 6.386-.003.12-.024.238-.007.36l8.901 3.856c5.242-9.135 23.129-7.395 23.295-7.383"/>
        <path fill="#C8E1F6" d="M12.41 64.748h14.571l6.431 4.432.001 14.232H18.18l-5.77-3.43z"/>
        <mask id="d" fill="#fff">
            <use xlink:href="#c"/>
        </mask>
        <path fill="#DEEDFA" d="M18.426 83.01h14.711V69.18H18.426z" mask="url(#d)"/>
        <path fill="#F5F8FA" d="M27.121 64.748h-14.71l6.014 4.432h14.712z" mask="url(#d)"/>
        <path fill="#000" d="M12.31 65.311H26.54c.465 0 .083-.115.614.251l2.339 1.612 2.295 1.58c.458.317 1.19 1.123 1.19.597V83.563l.535-.713H19.232c-1.071 0-1.328-.27-2.34-.87l-4.235-2.52c.382.227.186.31.186-.43v-2.481-9.95c0-.766-.866-.263-.866.3v10.374c0 .77-.335 2.39.06 3.105.503.909 2.8 1.717 3.663 2.23.79.469 1.748 1.368 2.705 1.368h14.907c.34 0 .535-.425.535-.712l-.001-10.689v-3.543c0-.849-2.754-2.146-3.347-2.553-.722-.498-2.493-2.293-3.417-2.293H12.51c-.52 0-.792 1.126-.201 1.126" mask="url(#d)"/>
        <path fill="#000" d="M14.67 68.283l2.764 1.777c.723.466.203-.47.203-.024v9.32c0 1.153 1.086.163 1.086-.533v-8.327c0-.485.2-1.522-.282-1.832l-3.14-2.022c-.506-.325-1.213 1.266-.63 1.641M20.45 69.67h8.523c.464 0 .693-.98.17-.98H20.62c-.464 0-.693.98-.17.98" mask="url(#d)"/>
        <path fill="#FE9D7D" d="M72.582 73.84c2.113-.13 4.937-.148 8.086-.317-1.635-2.367-5.168-4.01-9.276-4.01-5.66 0-7.807 3.085-7.807 6.923 0 3.839 1.348 6.574 7.006 6.574 1.907 0 4.486.043 6.015-.572.022-.117.05-.233.05-.352-.007-4.255-2.59-2.988-8.075-3.323-3.47-.212-2.943-4.493 4.001-4.922" mask="url(#d)"/>
        <path fill="#000" d="M106.52 42.262c3.43 1.323 3.223 7.17 2.987 10.23-.378 4.89-2.18 9.588-5.736 13.032-5.569 5.392-13.978 6.615-21.383 7.05-3.925.229-16.753-1.342-16.51 5.005.14 3.652 6.778 1.79 8.969 2.446 1.573.469 1.49 2.508.434 3.38-1.122.924-2.68 1.405-4.056 1.776-5.985 1.614-15.483 1.587-19.412-4.101-2.342-3.39-.836-8.117 1.977-10.671 2.802-2.543 6.785-3.616 10.417-4.262 5.63-1.003 11.175-.528 16.83-.345 8.292.267 19.398-.562 23.703-8.93 3.083-5.99 2.222-14.268-1.248-19.868-3.833-6.184-11.3-8.756-18.272-8.498-1.966.073-3.909.445-5.805.942-1.046.272-1.634.778-2.27-.363-.477-.855-1.031-1.666-1.597-2.464-2.466-3.474-5.903-6.176-9.656-8.134-8.742-4.561-19.61-3.817-27.965 1.193-.578.347-.889 2.272-.1 1.799 13.334-7.995 31.52-3.808 38.847 10.23.12.232.274.28.515.199 10.065-3.403 22.438-.963 26.82 9.702 1.951 4.749 2.05 11.706-1.038 16.005-2.7 3.758-7.662 5.14-11.99 5.82-6.932 1.09-13.868-.14-20.82.214-6.528.33-14.602 1.698-18.62 7.452-3.92 5.612-2.108 12.712 4.16 15.35 5.523 2.328 13.741 2.175 18.976-.895 2.093-1.228 2.917-3.12 2.43-5.493-.846-4.123-7.245-.961-9.63-2.694-1.885-1.37 4.536-2.561 5.171-2.598 1.398-.081 2.8-.095 4.2-.125 3.453-.075 6.901-.216 10.33-.653 8.038-1.025 15.94-4.086 20.328-11.275 2.308-3.783 3.364-8.558 3.356-12.957-.004-3.008-.328-8.08-3.63-9.353-.707-.272-1.42 1.582-.712 1.854" mask="url(#d)"/>
        <path fill="#C8E1F6" d="M94.938 73.275a6.532 6.532 0 1 1-13.064 0 6.532 6.532 0 0 1 13.064 0" mask="url(#d)"/>
        <path fill="#000" d="M88.406 67.494a5.789 5.789 0 0 0-5.782 5.781 5.788 5.788 0 0 0 5.782 5.782 5.788 5.788 0 0 0 5.782-5.782 5.789 5.789 0 0 0-5.782-5.78m0 13.062c-4.015 0-7.282-3.266-7.282-7.282 0-4.014 3.267-7.28 7.282-7.28 4.015 0 7.282 3.266 7.282 7.28 0 4.016-3.267 7.282-7.282 7.282" mask="url(#d)"/>
        <path fill="#FFF" d="M92.025 72.523c0 1.135-.827 2.053-1.847 2.053-1.021 0-1.848-.918-1.848-2.052 0-1.133.827-2.052 1.848-2.052 1.02 0 1.847.919 1.847 2.052" mask="url(#d)"/>
        <path fill="#E0E8E8" d="M40.435 34.54c-3.805-8.727-16-8.5-16-8.5 7.167-5 14.167-2 18.833 1.334 0 0-2.833 3.416-2.833 7.166" mask="url(#d)"/>
        <path fill="#FFF" d="M40.435 34.54c-3.353-6.04-9.012-10.194-16-8.5 0 0-2.61 5.714 1.195 14.44 0 0 4.274-7.307 14.805-5.94" mask="url(#d)"/>
        <path fill="#000" d="M24.421 26.498c7.252-2.105 12.332 2.385 15.716 8.391.256.453.78-.37.594-.698-3.529-6.26-8.78-10.788-16.284-8.609-.36.104-.528 1.062-.026.916" mask="url(#d)"/>
        <path fill="#000" d="M43.797 26.451c-5.127-3.58-10.954-5.36-16.935-2.78-1.655.713-2.84 1.442-3.34 3.137-.545 1.852-.734 3.83-.627 5.753.08 1.444.292 2.842.61 4.252.389 1.71 1.462 3.448 1.337 5.2-.212 3 .434 6.083 1.352 8.92 1.97 6.094 6.479 11.071 11.896 14.332.677.408 1.536-1.58.78-2.035-4.691-2.825-8.364-6.835-10.643-11.825-1.082-2.369-1.66-4.918-1.932-7.497-.133-1.257-.085-2.497.027-3.75.107-1.207-1.143-3.294-1.453-4.473-.58-2.204-.73-4.505-.503-6.767.067-.667.223-1.329.396-1.976.256-.955.206-.31 1.214-.895 5.542-3.21 11.897-1.148 16.763 2.25.793.552 1.69-1.405 1.058-1.846M15.828 24.804c-.984 2.263-2.1 4.412-3.606 6.35-.935-2.861-1.237-5.893-2.084-8.785-.141-.478-.658-.154-.856.053-1.303 1.357-2.481 2.844-3.658 4.309-.508.632-.254 2.3.56 1.287.968-1.204 1.953-2.406 2.99-3.556.77 2.93 1.08 5.963 2.143 8.819.167.448.646.19.856-.053 2.065-2.38 3.47-5.144 4.72-8.016.484-1.111-.588-1.503-1.065-.408M33.656 6.312c-2.655.85-5.25 1.97-8.054 2.07 1.202-1.596 2.55-3.073 3.797-4.635.142-.177.355-.83-.075-.825-2.108.024-4.21.187-6.318.21-.417.006-.67.98-.19.974 1.85-.021 3.695-.138 5.543-.185-1.291 1.556-2.636 3.065-3.796 4.727-.135.193-.201.714.149.723 3.14.09 6-1.185 8.936-2.126.386-.123.526-1.1.008-.933M13.51 9.676c-2.422-.124-4.848-.091-7.266-.253 1.86-2.49 3.66-4.985 4.997-7.833.193-.413.326-1.644-.44-1.588C7.533.246 4.349.964 1.13 1.55.123 1.735-.521 4.369.563 4.17c2.77-.504 5.519-1.088 8.315-1.401-1.423 2.455-3.234 4.665-4.924 6.943-.378.51-.967 2.076.092 2.197 2.957.338 5.93.235 8.9.387.989.05 1.764-2.56.565-2.621" mask="url(#d)"/>
        <path fill="#FE9D7D" d="M104.916 58.985c-1.062 2.506-1.482 5.046-1.342 7.298 3.451-3.12 5.922-7.604 6.562-14.044-2.08 1.463-3.973 3.806-5.22 6.746M86.202 47.374c-2.575 0-6.558 4.797-6.558 7.484 0 1.813.945 2.316 2.353 3.153 2.447-4.383 5.175-7.556 7.247-8.355-.825-1.367-1.38-2.282-3.042-2.282" mask="url(#d)"/>
        <path fill="#000" d="M76.92 62.895c2.443-.906 4.07-2.41 5.518-4.538 2.028-2.977 3.362-6.523 6.91-7.972.622-.255.844-1.904.015-1.564-5.965 2.437-6.362 10.262-12.428 12.51-.633.234-.862 1.877-.016 1.564" mask="url(#d)"/>
    </g>
</svg>
