<svg xmlns="http://www.w3.org/2000/svg" width="24" height="24" viewBox="0 0 24 24">
    <path fill="#D4D4D4" fill-rule="evenodd" d="M16.551 2.134l.068-.117c.668-1.084 1.564-1.301 2.686-.653 1.123.648 1.382 1.533.778 2.653l-.067.117c2.875 2.224 3.557 4.9 1.454 8.543-.69 1.196-1.315 3.256-1.873 6.183l.866.493c.221.955.177 1.7-.133 2.238-.31.536-.931.946-1.864 1.227l-17.32-10c-.231-.934-.187-1.678.132-2.23.319-.553.942-.964 1.87-1.232l.86.498c2.178-1.79 3.669-3.382 4.473-4.774C10.543 1.51 13.19.76 16.55 2.134zm-9.844 15.05l5.195 3c-.886 1.8-2.254 2.167-4.102 1.1-1.848-1.067-2.212-2.434-1.093-4.1zm-.969-6.327l.873.5 4.512-4.33.495-.875.565-.802.746-.744 1.113-.507 1.532-.27-.13-.542-1.173-.112-1.285.318-.976.57-.75.75-.576.806-.483.876-4.463 4.362z"/>
</svg>
