<svg width="16" height="16" viewBox="0 0 16 16" fill="none" xmlns="http://www.w3.org/2000/svg">
<path d="M8 6L0 10L8 15L16 10L8 6Z" fill="#999999"/>
<path d="M8 3L0 7L8 12L16 7L8 3Z" fill="#CBCBCB"/>
<path d="M8 0L0 4L8 9L16 4L8 0Z" fill="white"/>
<path d="M8 9L0 4V5L8 10V9Z" fill="#3F3F3F"/>
<path d="M8 12L0 7V8L8 13V12Z" fill="#3F3F3F"/>
<path d="M8 15L0 10V11L8 16V15Z" fill="#3F3F3F"/>
<path d="M16 4L8 9V10L16 5V4Z" fill="#1A1A1A"/>
<path d="M16 7L8 12V13L16 8V7Z" fill="black"/>
<path d="M16 10L8 15V16L16 11V10Z" fill="black"/>
</svg>
