<?xml version="1.0" encoding="UTF-8"?>
<svg width="16px" height="16px" viewBox="0 0 16 16" version="1.1" xmlns="http://www.w3.org/2000/svg" xmlns:xlink="http://www.w3.org/1999/xlink">
    <!-- Generator: Sketch 55.2 (78181) - https://sketchapp.com -->
    <title>prefab 16x16</title>
    <desc>Created with Sketch.</desc>
    <g id="Icons-(read-only)" stroke="none" stroke-width="1" fill="none" fill-rule="evenodd">
        <g id="InGUI-Icons" transform="translate(-972.000000, -2048.000000)">
            <g id="road-points-copy-2" transform="translate(560.000000, 1974.000000)">
                <rect id="icon-bg-copy-36" x="360" y="22" width="120" height="120"></rect>
                <g id="Group-4" transform="translate(412.000000, 74.000000)">
                    <g id="Icons/16x16/Game-Object">
                        <g id="Group-4">
                            <polygon id="Path" fill="#FF9A66" points="7.493 0 4.503 1.5 7.493 3 10.482 1.5"></polygon>
                            <polygon id="Path" fill="#FFFFFF" points="8.489 3.5 11.479 5 14.468 3.5 11.479 2"></polygon>
                            <polygon id="Path" fill="#79D6FF" points="0.517 3.5 3.506 5 6.496 3.5 3.506 2"></polygon>
                            <polygon id="Path" fill="#54FFAB" points="4.503 5.5 7.493 7 10.482 5.5 7.493 4"></polygon>
                            <polygon id="Path" fill="#1A7648" opacity="0.800000012" points="11.999 5.917 11.999 9.346 15 7.783 15 4.355"></polygon>
                            <polygon id="Path" fill="#097FB3" points="-2.88657986e-15 7.783 2.999 9.346 2.999 5.917 -2.88657986e-15 4.355"></polygon>
                            <polygon id="Path" fill="#717171" points="8 7.992 8 11.421 10.999 9.858 10.999 6.43"></polygon>
                            <polygon id="Path" fill="#D54800" points="3.999 9.858 7 11.421 7 7.992 3.999 6.43"></polygon>
                            <polygon id="Path" fill="#733B1E" points="11.999 10.488 11.999 13.916 15 12.353 15 8.925"></polygon>
                            <polygon id="Path" fill="#B8B8B8" points="-2.88657986e-15 12.353 2.999 13.916 2.999 10.488 -2.88657986e-15 8.925"></polygon>
                            <polygon id="Path" fill="#1E5984" points="8 12.571 8 16 10.999 14.438 10.999 11.01"></polygon>
                            <polygon id="Path" fill="#00C262" points="3.999 14.438 7 16 7 12.571 3.999 11.01"></polygon>
                        </g>
                    </g>
                    <g id="Icons/16x16/Link" transform="translate(6.000000, 6.000000)" fill="#FFFFFF">
                        <g id="Group-5" transform="translate(5.000000, 4.687500) rotate(-45.000000) translate(-5.000000, -4.687500) translate(0.000000, 1.875000)">
                            <path d="M3.172,4.375625 L2.097625,4.37625 C1.852,4.320625 1.250125,3.451875 1.250125,2.8125 C1.250125,2.173125 1.852,1.304375 2.08325,1.25 L4.4995,1.24875 C4.74575,1.304375 5.347,2.173125 5.347,2.8125 L6.597,2.8125 C6.597,1.7275 5.643875,0 4.513875,0 L2.08325,0 C0.95325,0 0.000125,1.7275 0.000125,2.8125 C0.000125,3.8975 0.95325,5.625 2.08325,5.625 L4.065125,5.625 C3.697625,5.28625 3.39325,4.84375 3.172,4.375625" id="Fill-1"></path>
                            <path d="M7.916875,0 L5.935,0 C6.3025,0.33875 6.606875,0.78125 6.828125,1.249375 L7.9025,1.24875 C8.148125,1.304375 8.75,2.173125 8.75,2.8125 C8.75,3.451875 8.148125,4.320625 7.916875,4.375 L5.500625,4.37625 C5.254375,4.320625 4.6525,3.451875 4.6525,2.8125 L3.4025,2.8125 C3.4025,3.8975 4.35625,5.625 5.485625,5.625 L7.916875,5.625 C9.046875,5.625 10,3.8975 10,2.8125 C10,1.7275 9.046875,0 7.916875,0" id="Fill-3"></path>
                        </g>
                    </g>
                </g>
            </g>
        </g>
    </g>
</svg>