<svg width="16" height="16" viewBox="0 0 16 16" fill="none" xmlns="http://www.w3.org/2000/svg">
<path d="M2.5 5.5L2.56659 8L4.06709 8.5H10.5666V7.5H16V6H10.5666L9.5 5.5H2.5Z" fill="white"/>
<path d="M3.06659 13C3.34259 13 3.56659 13.224 3.56659 13.5C3.56659 13.776 3.34259 14 3.06659 14C2.79059 14 2.56659 13.776 2.56659 13.5C2.56659 13.224 2.79059 13 3.06659 13Z" fill="white"/>
<path d="M5.06659 14C5.34259 14 5.56659 13.776 5.56659 13.5C5.56659 13.224 5.34259 13 5.06659 13C4.79059 13 4.56659 13.224 4.56659 13.5C4.56659 13.776 4.79059 14 5.06659 14Z" fill="white"/>
<path d="M7.06659 13C7.34259 13 7.56659 13.224 7.56659 13.5C7.56659 13.776 7.34259 14 7.06659 14C6.79059 14 6.56659 13.776 6.56659 13.5C6.56659 13.224 6.79059 13 7.06659 13Z" fill="white"/>
<path d="M9.06659 13C9.34259 13 9.56659 13.224 9.56659 13.5C9.56659 13.776 9.34259 14 9.06659 14C8.79059 14 8.56659 13.776 8.56659 13.5C8.56659 13.224 8.79059 13 9.06659 13Z" fill="white"/>
<path d="M11.0666 13C11.3426 13 11.5666 13.224 11.5666 13.5C11.5666 13.776 11.3426 14 11.0666 14C10.7906 14 10.5666 13.776 10.5666 13.5C10.5666 13.224 10.7906 13 11.0666 13Z" fill="white"/>
<path fill-rule="evenodd" clip-rule="evenodd" d="M9.56659 9H4.56659V10H1.5666L0.585488 10.9816C-0.0230023 11.5904 -0.173726 12.5202 0.21129 13.2901L0.737344 14.3419C1.24557 15.3581 2.28428 16 3.42049 16H10.7131C11.8491 16 12.8877 15.3584 13.396 14.3424L13.9223 13.2905C14.3077 12.5205 14.1568 11.5902 13.548 10.9814L12.8638 10.2972L12.8605 10.2939L12.5666 10H9.56659V9ZM12.1534 12.001C12.4441 12.001 12.6875 11.8863 12.8616 11.7098C13.1486 12.0144 13.2163 12.4669 13.028 12.8431L12.5017 13.895C12.1628 14.5722 11.4704 15 10.7131 15H3.42049C2.66302 15 1.97055 14.5721 1.63173 13.8946L1.10567 12.8428C0.917635 12.4668 0.985171 12.0145 1.27195 11.71C1.44601 11.8864 1.68932 12.001 1.97997 12.001H12.1534Z" fill="white"/>
<path d="M9.5 5H2.5L1.5 0L4.5 3L6 0L7.5 3L10.5 0L9.5 5Z" fill="white"/>
</svg>
