<svg width="16" height="16" viewBox="0 0 16 16" fill="none" xmlns="http://www.w3.org/2000/svg">
<path d="M0 2C0 0.895431 0.895431 0 2 0H14C15.1046 0 16 0.895431 16 2V4H0V2Z" fill="white"/>
<path d="M0 4H16V14C16 15.1046 15.1046 16 14 16H2C0.895431 16 0 15.1046 0 14V4Z" fill="#8C8C8C"/>
<rect x="1" y="6" width="6" height="2" rx="1" fill="white"/>
<rect x="8" y="6" width="7" height="2" rx="1" fill="white"/>
<rect x="1" y="9" width="4" height="2" rx="1" fill="white"/>
<rect x="8" y="9" width="7" height="2" rx="1" fill="white"/>
<rect x="1" y="12" width="5" height="2" rx="1" fill="white"/>
<rect x="8" y="12" width="7" height="2" rx="1" fill="white"/>
</svg>
