<svg width="16" height="16" viewBox="0 0 16 16" fill="none" xmlns="http://www.w3.org/2000/svg">
<path d="M1 10.5H5C5.27614 10.5 5.5 10.7239 5.5 11V15C5.5 15.2761 5.27614 15.5 5 15.5H1C0.723858 15.5 0.5 15.2761 0.5 15V11C0.5 10.7239 0.723858 10.5 1 10.5Z" fill="#666666" stroke="white"/>
<path d="M7.99999 1C8.19833 1 8.39441 1.00962 8.58781 1.02843C8.82672 1.05166 8.99999 1.25878 8.99999 1.49881V1.49881C8.99999 1.8095 8.71472 2.041 8.40503 2.01617C8.27143 2.00546 8.13634 2 7.99999 2C5.58103 2 3.56328 3.71776 3.10001 6H2.08295C2.55902 3.16229 5.02699 1 7.99999 1Z" fill="white"/>
<path d="M13.917 10H12.9C12.4367 12.2822 10.4189 14 7.99999 14C7.86363 14 7.72855 13.9945 7.59495 13.9838C7.28525 13.959 6.99999 14.1905 6.99999 14.5012V14.5012C6.99999 14.7412 7.17326 14.9483 7.41216 14.9716C7.60556 14.9904 7.80165 15 7.99999 15C10.973 15 13.441 12.8377 13.917 10Z" fill="white"/>
<path d="M11 10L13.5 7L16 10H11Z" fill="white"/>
<path d="M0 6L2.5 9L5 6H0Z" fill="white"/>
<circle cx="13" cy="3" r="2.5" fill="#666666" stroke="white"/>
</svg>
