<svg width="16" height="16" viewBox="0 0 16 16" fill="none" xmlns="http://www.w3.org/2000/svg">
<path fill-rule="evenodd" clip-rule="evenodd" d="M1 10H0V15C0 15.5523 0.447715 16 1 16H6V15H2C1.44772 15 1 14.5523 1 14V10ZM15 14C15 14.5523 14.5523 15 14 15H10V16H15C15.5523 16 16 15.5523 16 15V10H15V14ZM10 0V1H14C14.5523 1 15 1.44772 15 2V6H16V1C16 0.447715 15.5523 0 15 0H10ZM1 2C1 1.44772 1.44772 1 2 1H6V0H1C0.447715 0 0 0.447715 0 1V6H1V2Z" fill="#8C8C8C"/>
<path fill-rule="evenodd" clip-rule="evenodd" d="M11 8C11 6.34325 9.65675 5 8 5C6.34325 5 5 6.34325 5 8C5 9.65675 6.34325 11 8 11C9.65675 11 11 9.65675 11 8V8Z" fill="white"/>
</svg>
