<svg xmlns="http://www.w3.org/2000/svg" xmlns:xlink="http://www.w3.org/1999/xlink" width="16" height="16" viewBox="0 0 16 16">
    <defs>
        <path id="a" d="M1.337 3.905a5.367 5.367 0 0 0-1.229 4.18c.082.62.272 1.199.54 1.728l.437-.736c.242-.455.635-.853.946-1.274l.492-.616c.184-.19.381-.367.569-.547.393-.342.713-.732 1.134-.994l1.15-.792c.38-.222.764-.39 1.1-.562.34-.166.643-.33.942-.412l.747-.252.643-.217-.586.278-.678.325-.827.526c-.32.18-.605.446-.933.704-.336.251-.645.565-.966.89-.339.314-.63.685-.94 1.057-.328.364-.576.783-.87 1.182a19.482 19.482 0 0 0-1.41 2.533c-.4.84-.698 1.656-.942 2.363a21.067 21.067 0 0 0-.503 1.752 9.888 9.888 0 0 0-.117.53L0 15.729 2.964 16l-.001-.157a7.696 7.696 0 0 1 .007-.414c.01-.379.052-.93.13-1.59.063-.455.15-.974.257-1.512.855.362 1.811.518 2.798.388a5.372 5.372 0 0 0 3.965-2.677l.004.002c.017-.03.03-.06.045-.09.062-.113.12-.228.174-.346.84-1.707 1.141-3.236 1.426-4.378a8.343 8.343 0 0 1 1.295-2.793C14.585.284 15.788.19 15.788.19 4.605-1.016 1.337 3.905 1.337 3.905"/>
    </defs>
    <g fill="none" fill-rule="evenodd">
        <use fill="#00FF72" xlink:href="#a"/>
        <use fill="#000" fill-opacity=".2" xlink:href="#a"/>
    </g>
</svg>
