<svg xmlns="http://www.w3.org/2000/svg" width="16" height="16" viewBox="0 0 16 16">
    <g fill="none" fill-rule="evenodd">
        <path fill-rule="nonzero" stroke="#FFF" d="M3 13h9"/>
        <path stroke="#FFF" d="M5 13c6 0 0-10 6-10"/>
        <path fill="#FFF" fill-rule="nonzero" d="M16 5V1a1 1 0 0 0-1-1h-4a1 1 0 0 0-1 1v4a1 1 0 0 0 1 1h4a1 1 0 0 0 1-1zM16 15v-4a1 1 0 0 0-1-1h-4a1 1 0 0 0-1 1v4a1 1 0 0 0 1 1h4a1 1 0 0 0 1-1zM6 15v-4a1 1 0 0 0-1-1H1a1 1 0 0 0-1 1v4a1 1 0 0 0 1 1h4a1 1 0 0 0 1-1z"/>
    </g>
</svg>
