<svg width="16" height="16" viewBox="0 0 16 16" fill="none" xmlns="http://www.w3.org/2000/svg">
<path d="M0 8H16L14 6H2L0 8Z" fill="white"/>
<path d="M11 4L10.5 3L14.5866 2.09186C14.8296 2.03787 15.0781 2.15615 15.1894 2.37873C15.3472 2.69431 15.1664 3.07414 14.8219 3.15068L11 4Z" fill="#E4E4E4"/>
<path d="M5 4C5 2.89543 5.89543 2 7 2H9C10.1046 2 11 2.89543 11 4V5H5V4Z" fill="white"/>
<path fill-rule="evenodd" clip-rule="evenodd" d="M13.5 9C14.8807 9 16 10.1193 16 11.5C16 12.8807 14.8807 14 13.5 14H2.5C1.11929 14 0 12.8807 0 11.5C0 10.1193 1.11929 9 2.5 9H13.5ZM13.5 13C12.6716 13 12 12.3284 12 11.5C12 10.6716 12.6716 10 13.5 10C14.3284 10 15 10.6716 15 11.5C15 12.3284 14.3284 13 13.5 13ZM2.5 13C1.67157 13 1 12.3284 1 11.5C1 10.6716 1.67157 10 2.5 10C3.32843 10 4 10.6716 4 11.5C4 12.3284 3.32843 13 2.5 13ZM6.5 11.5C6.5 12.3284 7.17157 13 8 13C8.82843 13 9.5 12.3284 9.5 11.5C9.5 10.6716 8.82843 10 8 10C7.17157 10 6.5 10.6716 6.5 11.5Z" fill="#B2B2B2"/>
</svg>
