<?xml version="1.0" encoding="UTF-8"?>
<svg width="16px" height="16px" viewBox="0 0 16 16" version="1.1" xmlns="http://www.w3.org/2000/svg" xmlns:xlink="http://www.w3.org/1999/xlink">
    <!-- Generator: Sketch 55.1 (78136) - https://sketchapp.com -->
    <title>Icons/16x16/AppTE Copy</title>
    <desc>Created with Sketch.</desc>
    <g id="Icons" stroke="none" stroke-width="1" fill="none" fill-rule="evenodd" opacity="0.900000036">
        <g id="Icons/16x16/AppTE" fill="#FFFFFF">
            <g id="Group" transform="translate(2.000000, 0.000000)">
                <path d="M3.53067333,0.5 L0.5,3.2238846 L0.5,10.0307885 L6.0023529,15.3093791 L11.5,10.1067724 L11.5,3.2210045 L8.5305599,0.5 L3.53067333,0.5 Z" id="Fill-1-Copy-12" stroke="#D4D4D4" fill-opacity="0.2"></path>
                <path d="M7.986,5 L7.986,8.542 L7.074,9.388 L7.074,9.391 L8.47,10.693 L9.989,9.259 L9.989,5 L7.986,5 Z M2,5 L2,9.259 L3.517,10.693 L4.953,9.391 L4.002,8.542 L4.002,5 L2,5 Z" id="Fill-1-Copy-13"></path>
                <polygon id="Fill-2-Copy-2" points="4.117 2 2 3.997 5 4 5 12 6 13 7.001 12 7.001 4 10 3.997 7.92 2"></polygon>
            </g>
        </g>
    </g>
</svg>