<svg width="16" height="16" viewBox="0 0 16 16" fill="none" xmlns="http://www.w3.org/2000/svg">
<rect x="12" y="16" width="5" height="2" transform="rotate(-90 12 16)" fill="white"/>
<rect x="2" y="16" width="5" height="2" transform="rotate(-90 2 16)" fill="white"/>
<rect x="5" y="15" width="3" height="6" transform="rotate(-90 5 15)" fill="#7E7E7E"/>
<path d="M2 12H4V13H2V12Z" fill="#999999"/>
<path d="M2 14H4V15H2V14Z" fill="#999999"/>
<path d="M12 12H14V13H12V12Z" fill="#999999"/>
<path d="M12 14H14V15H12V14Z" fill="#999999"/>
<path d="M5.5 7V-4.76837e-07H7.9234C8.6662 -4.76837e-07 9.23723 0.143189 9.63649 0.429567C10.0357 0.715946 10.2354 1.11948 10.2354 1.64017C10.2354 2.01767 10.1131 2.34798 9.86862 2.6311C9.62721 2.91423 9.3177 3.11111 8.94011 3.22176V3.24128C9.41365 3.30311 9.79124 3.48698 10.0729 3.79289C10.3576 4.09879 10.5 4.47141 10.5 4.91074C10.5 5.55184 10.2818 6.06113 9.8454 6.43863C9.40901 6.81288 8.81322 7 8.05803 7H5.5ZM6.99954 1.16178V2.82148H7.65877C7.96828 2.82148 8.21124 2.74337 8.38765 2.58717C8.56716 2.42771 8.65692 2.20967 8.65692 1.93305C8.65692 1.41887 8.29171 1.16178 7.56128 1.16178H6.99954ZM6.99954 3.99303V5.83821H7.81198C8.15862 5.83821 8.42943 5.7536 8.62442 5.58438C8.8225 5.41516 8.92154 5.1841 8.92154 4.89121C8.92154 4.61134 8.82405 4.39168 8.62906 4.23222C8.43717 4.07276 8.1679 3.99303 7.82126 3.99303H6.99954Z" fill="white"/>
<path d="M14 10H11V12H5V10H2L4 8H6C5.44772 8 5 8.44771 5 9C5 9.55228 5.44772 10 6 10C6.55228 10 7 9.55228 7 9C7 8.44771 6.55228 8 6 8H10C9.44772 8 9 8.44771 9 9C9 9.55228 9.44772 10 10 10C10.5523 10 11 9.55228 11 9C11 8.44771 10.5523 8 10 8H12L14 10Z" fill="white"/>
</svg>
