<svg width="16" height="16" viewBox="0 0 16 16" fill="none" xmlns="http://www.w3.org/2000/svg">
<rect x="4" width="16" height="2" transform="rotate(90 4 0)" fill="white"/>
<rect x="14" width="16" height="2" transform="rotate(90 14 0)" fill="white"/>
<rect x="11" width="2" height="6" transform="rotate(90 11 0)" fill="white"/>
<rect x="11" y="12" width="4" height="6" transform="rotate(90 11 12)" fill="white"/>
<rect x="11" y="2" width="10" height="6" transform="rotate(90 11 2)" fill="#7E7E7E"/>
<path d="M4 1V2H2V1L4 1Z" fill="#9A9A9A"/>
<path d="M4 3V4H2V3H4Z" fill="#9A9A9A"/>
<path d="M4 6V5H2V6H4Z" fill="#9A9A9A"/>
<path d="M4 7V8H2V7H4Z" fill="#9A9A9A"/>
<path d="M4 10V9H2V10H4Z" fill="#9A9A9A"/>
<path d="M4 11V12H2V11H4Z" fill="#9A9A9A"/>
<path d="M4 14V13H2V14H4Z" fill="#9A9A9A"/>
<path d="M14 1V2H12V1L14 1Z" fill="#9A9A9A"/>
<path d="M14 3V4H12V3H14Z" fill="#9A9A9A"/>
<path d="M14 6V5H12V6H14Z" fill="#9A9A9A"/>
<path d="M14 7V8H12V7H14Z" fill="#9A9A9A"/>
<path d="M14 10V9H12V10H14Z" fill="#9A9A9A"/>
<path d="M14 11V12H12V11H14Z" fill="#9A9A9A"/>
<path d="M14 14V13H12V14H14Z" fill="#9A9A9A"/>
</svg>
