<svg width="16" height="16" viewBox="0 0 16 16" fill="none" xmlns="http://www.w3.org/2000/svg">
<path d="M16 8H0L2 6H14L16 8Z" fill="white"/>
<path d="M5 4L5.5 3L1.41335 2.09186C1.17042 2.03787 0.921926 2.15615 0.810634 2.37873C0.652847 2.69431 0.833638 3.07414 1.17806 3.15068L5 4Z" fill="#E4E4E4"/>
<path d="M11 4C11 2.89543 10.1046 2 9 2H7C5.89543 2 5 2.89543 5 4V5H11V4Z" fill="white"/>
<path fill-rule="evenodd" clip-rule="evenodd" d="M2.5 9C1.11929 9 0 10.1193 0 11.5C0 12.8807 1.11929 14 2.5 14H13.5C14.8807 14 16 12.8807 16 11.5C16 10.1193 14.8807 9 13.5 9H2.5ZM2.5 13C3.32843 13 4 12.3284 4 11.5C4 10.6716 3.32843 10 2.5 10C1.67157 10 1 10.6716 1 11.5C1 12.3284 1.67157 13 2.5 13ZM13.5 13C14.3284 13 15 12.3284 15 11.5C15 10.6716 14.3284 10 13.5 10C12.6716 10 12 10.6716 12 11.5C12 12.3284 12.6716 13 13.5 13ZM9.5 11.5C9.5 12.3284 8.82843 13 8 13C7.17157 13 6.5 12.3284 6.5 11.5C6.5 10.6716 7.17157 10 8 10C8.82843 10 9.5 10.6716 9.5 11.5Z" fill="#B2B2B2"/>
</svg>
