<svg width="16" height="16" viewBox="0 0 16 16" fill="none" xmlns="http://www.w3.org/2000/svg">
<path d="M4 8L4 13H12V8V3H10V4.53516C11.1956 5.22675 12 6.51947 12 8C12 10.2092 10.2092 12 8 12C5.79083 12 4 10.2092 4 8Z" fill="white"/>
<path d="M6 3H4L4 8C4 6.51947 4.80438 5.22675 6 4.53516V3Z" fill="white"/>
<path d="M3 0L4 2H6V0L3 0Z" fill="white"/>
<path d="M10 0V2H12L13 0L10 0Z" fill="white"/>
<path fill-rule="evenodd" clip-rule="evenodd" d="M4 14L3 16H6H10H13L12 14H10H6H4ZM6 14C6.55228 14 7 14.4477 7 15C7 15.5523 6.55228 16 6 16C5.44772 16 5 15.5523 5 15C5 14.4477 5.44772 14 6 14ZM10 14C9.44772 14 9 14.4477 9 15C9 15.5523 9.44772 16 10 16C10.5523 16 11 15.5523 11 15C11 14.4477 10.5523 14 10 14Z" fill="white"/>
<path d="M6.50332 5.39941C6.50112 5.43265 6.5 5.46619 6.5 5.49998C6.5 6.32841 7.17157 6.99998 8 6.99998C8.82843 6.99998 9.5 6.32841 9.5 5.49998C9.5 5.46619 9.49888 5.43265 9.49668 5.39941C10.3952 5.91765 11 6.88819 11 7.99998C11 9.65684 9.65685 11 8 11C6.34315 11 5 9.65684 5 7.99998C5 6.88819 5.60479 5.91765 6.50332 5.39941Z" fill="white"/>
<path d="M8 6C7.44772 6 7 5.55228 7 5V1C7 0.447715 7.44772 0 8 0C8.55228 0 9 0.447715 9 1V5C9 5.55228 8.55228 6 8 6Z" fill="white"/>
<path d="M14 16L13 14V2L14 0V16Z" fill="white"/>
<path d="M2 16L3 14V2L2 0V16Z" fill="white"/>
</svg>
