<svg width="16" height="16" viewBox="0 0 16 16" fill="none" xmlns="http://www.w3.org/2000/svg">
<path d="M11 10H14L12 8H4L2 10H5V12H11V10Z" fill="white"/>
<rect x="5" y="15" width="2" height="6" transform="rotate(-90 5 15)" fill="white"/>
<path d="M2 12V11H4V12H2Z" fill="white"/>
<path d="M2 13V14H4V13H2Z" fill="white"/>
<path d="M4 15H2V16H4V15Z" fill="white"/>
<path d="M12 12V11H14V12H12Z" fill="white"/>
<path d="M12 13V14H14V13H12Z" fill="white"/>
<path d="M14 15H12V16H14V15Z" fill="white"/>
<path d="M10 1.28382H7.5585V3.00209H9.80217V4.28103H7.5585V7H6V0H10V1.28382Z" fill="white"/>
</svg>
