<svg width="16" height="16" viewBox="0 0 16 16" fill="none" xmlns="http://www.w3.org/2000/svg">
<path d="M12 14V2L14 0V16L12 14Z" fill="#7E7E7E"/>
<path d="M2 16L2 0L4 2L4 14L2 16Z" fill="#7E7E7E"/>
<path d="M4 8V14H12V8V2H10V4.53516C11.1956 5.22675 12 6.51947 12 8C12 10.2092 10.2092 12 8 12C5.79083 12 4 10.2092 4 8Z" fill="white"/>
<path d="M6 2H4L4 8C4 6.51947 4.80438 5.22675 6 4.53516L6 2Z" fill="white"/>
<path d="M2 0L4 2L6 2V0L2 0Z" fill="#CCCCCC"/>
<path d="M10 0V2H12L14 0L10 0Z" fill="#CCCCCC"/>
<path d="M8 5C9.65685 5 11 6.34315 11 8C11 9.65685 9.65685 11 8 11C6.34315 11 5 9.65685 5 8C5 6.34315 6.34315 5 8 5Z" fill="white"/>
<path fill-rule="evenodd" clip-rule="evenodd" d="M4 14L2 16H6H10H14L12 14H10H6H4ZM6 14C6.55228 14 7 14.4477 7 15C7 15.5523 6.55228 16 6 16C5.44772 16 5 15.5523 5 15C5 14.4477 5.44772 14 6 14ZM10 14C9.44772 14 9 14.4477 9 15C9 15.5523 9.44772 16 10 16C10.5523 16 11 15.5523 11 15C11 14.4477 10.5523 14 10 14Z" fill="#CCCCCC"/>
<path d="M9.49668 5.39943C9.05617 5.14536 8.54506 5 8 5C7.45494 5 6.94383 5.14536 6.50332 5.39943C6.50112 5.43267 6.5 5.4662 6.5 5.5C6.5 6.32843 7.17157 7 8 7C8.82843 7 9.5 6.32843 9.5 5.5C9.5 5.4662 9.49888 5.43267 9.49668 5.39943Z" fill="#7E7E7E"/>
<path d="M8 6C7.44772 6 7 5.55228 7 5V1C7 0.447715 7.44772 0 8 0C8.55228 0 9 0.447715 9 1V5C9 5.55228 8.55228 6 8 6Z" fill="white"/>
</svg>
