<svg width="16" height="16" viewBox="0 0 16 16" fill="none" xmlns="http://www.w3.org/2000/svg">
<rect x="12" y="16" width="5" height="2" transform="rotate(-90 12 16)" fill="white"/>
<rect x="2" y="16" width="5" height="2" transform="rotate(-90 2 16)" fill="white"/>
<path d="M11 10H14L12 8H4L2 10H5V12H11V10Z" fill="white"/>
<rect x="5" y="15" width="3" height="6" transform="rotate(-90 5 15)" fill="#7E7E7E"/>
<path d="M2 12H4V13H2V12Z" fill="#999999"/>
<path d="M2 14H4V15H2V14Z" fill="#999999"/>
<path d="M12 12H14V13H12V12Z" fill="#999999"/>
<path d="M12 14H14V15H12V14Z" fill="#999999"/>
<path d="M10 1.28382H7.5585V3.00209H9.80217V4.28103H7.5585V7H6V0H10V1.28382Z" fill="white"/>
</svg>
