<svg width="16" height="16" viewBox="0 0 16 16" fill="none" xmlns="http://www.w3.org/2000/svg">
<rect x="11" width="2" height="6" transform="rotate(90 11 0)" fill="white"/>
<rect x="11" y="12" width="4" height="6" transform="rotate(90 11 12)" fill="white"/>
<rect x="11" y="3" width="8" height="6" transform="rotate(90 11 3)" fill="white"/>
<path d="M4 1V0H2V1H4Z" fill="white"/>
<path d="M4 2H2V3H4V2Z" fill="white"/>
<path d="M4 4H2V5H4V4Z" fill="white"/>
<path d="M4 6H2V7H4V6Z" fill="white"/>
<path d="M4 8H2V9H4V8Z" fill="white"/>
<path d="M4 10H2V11H4V10Z" fill="white"/>
<path d="M4 12H2V13H4V12Z" fill="white"/>
<path d="M4 14H2V16H4V14Z" fill="white"/>
<path d="M14 1V0H12V1H14Z" fill="white"/>
<path d="M14 2H12V3H14V2Z" fill="white"/>
<path d="M14 4H12V5H14V4Z" fill="white"/>
<path d="M14 6H12V7H14V6Z" fill="white"/>
<path d="M14 8H12V9H14V8Z" fill="white"/>
<path d="M14 10H12V11H14V10Z" fill="white"/>
<path d="M14 12H12V13H14V12Z" fill="white"/>
<path d="M14 14H12V16H14V14Z" fill="white"/>
</svg>
