<svg width="64" height="64" viewBox="0 0 64 64" fill="none" xmlns="http://www.w3.org/2000/svg">
<g clip-path="url(#clip0)">
<path d="M64.0002 45.9074L56.1973 59.4263L37.4649 26.9802L32.0002 36.446H21.0752L39.8032 4L64.0002 45.9074Z" fill="#F61D54"/>
<path d="M24.197 4H39.8073L21.075 36.446H32L37.4647 45.9074H0L24.197 4Z" fill="#FFBB39"/>
<path d="M7.80298 59.4265L0 45.9077H37.4647L32 36.4462L37.4647 26.9805L56.197 59.4265H7.80298Z" fill="#FF5748"/>
<path d="M8.46131 31.2498L27.5704 39.2736L3.854 52.5845L5.80258 55.9578L32.0001 41.2525L58.1977 55.9578L60.1463 52.5845L36.4299 39.2736L55.539 31.2498L53.5731 27.8506L32.0001 36.905L10.4272 27.8506L8.46131 31.2498Z" fill="white"/>
<path d="M32 55.8929C29.4755 55.8929 27.003 55.4166 24.6603 54.477C21.7894 53.3251 19.4858 51.0215 18.3339 48.1506L15.108 40.1008C13.4408 35.9438 15.1253 31.1417 19.0224 28.9333L28.8346 23.3733C29.7959 22.8277 30.8914 22.5376 32 22.5376C33.1085 22.5376 34.1997 22.8277 35.1653 23.3733L44.9775 28.9333C48.8747 31.1417 50.5591 35.9438 48.892 40.1008L45.666 48.1463C44.5142 51.0172 42.2105 53.3208 39.3396 54.4726C36.997 55.4166 34.5245 55.8929 32 55.8929Z" fill="#F2EFE4"/>
<path d="M32.0001 23.6246C32.9095 23.6246 33.8145 23.8541 34.6286 24.3174L44.4407 29.8773C47.8832 31.8302 49.3555 36.0262 47.8832 39.6982L44.6572 47.748C43.6137 50.3591 41.5438 52.4246 38.9328 53.4725C36.707 54.3645 34.3514 54.8105 31.9958 54.8105C29.6402 54.8105 27.2846 54.3645 25.0589 53.4725C22.4478 52.4289 20.3823 50.3591 19.3344 47.748L16.1084 39.6982C14.6361 36.0219 16.1084 31.8259 19.5509 29.8773L29.3631 24.3174C30.1858 23.8541 31.0951 23.6246 32.0001 23.6246ZM32.0001 21.4595C30.7054 21.4595 29.428 21.7972 28.3022 22.4338L18.49 27.9937C14.1252 30.4662 12.2372 35.8443 14.1035 40.5036L17.3295 48.5534C18.5896 51.6971 21.1141 54.2216 24.2578 55.4817C26.7303 56.4733 29.3371 56.9756 32.0001 56.9756C34.6632 56.9756 37.27 56.4733 39.7425 55.4817C42.8862 54.2216 45.4107 51.6971 46.6708 48.5534L49.8968 40.5036C51.7631 35.8443 49.8794 30.4662 45.5103 27.9937L35.6981 22.4338C34.5723 21.7972 33.2949 21.4595 32.0001 21.4595Z" fill="#521E1B"/>
<path d="M26.4832 42.858C26.4832 43.218 26.4172 43.542 26.2852 43.83C26.1532 44.118 25.9732 44.361 25.7452 44.559C25.5172 44.757 25.2502 44.907 24.9442 45.009C24.6382 45.117 24.3142 45.171 23.9722 45.171C23.6242 45.171 23.2972 45.117 22.9912 45.009C22.6912 44.907 22.4272 44.757 22.1992 44.559C21.9712 44.361 21.7912 44.121 21.6592 43.839C21.5272 43.557 21.4612 43.242 21.4612 42.894C21.4612 42.516 21.5272 42.174 21.6592 41.868C21.7912 41.556 21.9622 41.241 22.1722 40.923L23.7112 38.628H25.5382L23.9722 40.806L23.9452 40.851C24.0052 40.827 24.0772 40.809 24.1612 40.797C24.2452 40.785 24.3232 40.779 24.3952 40.779C24.6712 40.779 24.9352 40.83 25.1872 40.932C25.4452 41.028 25.6672 41.169 25.8532 41.355C26.0452 41.535 26.1982 41.754 26.3122 42.012C26.4262 42.264 26.4832 42.546 26.4832 42.858ZM24.9712 42.894C24.9712 42.606 24.8812 42.369 24.7012 42.183C24.5212 41.991 24.2812 41.895 23.9812 41.895C23.6812 41.895 23.4382 41.988 23.2522 42.174C23.0662 42.36 22.9732 42.603 22.9732 42.903C22.9732 43.179 23.0632 43.416 23.2432 43.614C23.4232 43.812 23.6662 43.911 23.9722 43.911C24.2722 43.911 24.5122 43.818 24.6922 43.632C24.8782 43.446 24.9712 43.2 24.9712 42.894ZM29.1516 44.208C29.1516 44.46 29.0616 44.67 28.8816 44.838C28.7076 45.006 28.4976 45.09 28.2516 45.09C28.1256 45.09 28.0056 45.066 27.8916 45.018C27.7836 44.976 27.6876 44.916 27.6036 44.838C27.5196 44.76 27.4536 44.67 27.4056 44.568C27.3576 44.46 27.3336 44.343 27.3336 44.217C27.3336 44.097 27.3576 43.983 27.4056 43.875C27.4536 43.767 27.5196 43.674 27.6036 43.596C27.6876 43.512 27.7836 43.446 27.8916 43.398C28.0056 43.35 28.1256 43.326 28.2516 43.326C28.4976 43.326 28.7076 43.41 28.8816 43.578C29.0616 43.746 29.1516 43.956 29.1516 44.208ZM34.8288 42.894C34.8288 43.284 34.7598 43.623 34.6218 43.911C34.4838 44.193 34.2978 44.427 34.0638 44.613C33.8358 44.799 33.5748 44.937 33.2808 45.027C32.9868 45.123 32.6838 45.171 32.3718 45.171C32.0838 45.171 31.8078 45.132 31.5438 45.054C31.2858 44.982 31.0488 44.877 30.8328 44.739C30.6228 44.601 30.4398 44.433 30.2838 44.235C30.1338 44.031 30.0228 43.803 29.9508 43.551L31.3278 43.128C31.3938 43.35 31.5168 43.533 31.6968 43.677C31.8828 43.821 32.1018 43.893 32.3538 43.893C32.6118 43.893 32.8338 43.815 33.0198 43.659C33.2118 43.503 33.3078 43.272 33.3078 42.966C33.3078 42.78 33.2688 42.624 33.1908 42.498C33.1128 42.372 33.0108 42.273 32.8848 42.201C32.7648 42.123 32.6268 42.069 32.4708 42.039C32.3148 42.009 32.1588 41.994 32.0028 41.994C31.7748 41.994 31.5138 42.021 31.2198 42.075C30.9318 42.123 30.6738 42.189 30.4458 42.273L30.5988 38.628H34.5048V39.924H31.9398L31.8858 40.932C31.9818 40.908 32.0868 40.893 32.2008 40.887C32.3208 40.875 32.4288 40.869 32.5248 40.869C32.8428 40.869 33.1428 40.911 33.4248 40.995C33.7068 41.079 33.9498 41.208 34.1538 41.382C34.3638 41.55 34.5288 41.76 34.6488 42.012C34.7688 42.264 34.8288 42.558 34.8288 42.894ZM37.6682 44.208C37.6682 44.46 37.5782 44.67 37.3982 44.838C37.2242 45.006 37.0142 45.09 36.7682 45.09C36.6422 45.09 36.5222 45.066 36.4082 45.018C36.3002 44.976 36.2042 44.916 36.1202 44.838C36.0362 44.76 35.9702 44.67 35.9222 44.568C35.8742 44.46 35.8502 44.343 35.8502 44.217C35.8502 44.097 35.8742 43.983 35.9222 43.875C35.9702 43.767 36.0362 43.674 36.1202 43.596C36.2042 43.512 36.3002 43.446 36.4082 43.398C36.5222 43.35 36.6422 43.326 36.7682 43.326C37.0142 43.326 37.2242 43.41 37.3982 43.578C37.5782 43.746 37.6682 43.956 37.6682 44.208ZM38.7194 45V43.74L41.2034 41.49C41.3594 41.34 41.4854 41.187 41.5814 41.031C41.6774 40.875 41.7254 40.701 41.7254 40.509C41.7254 40.281 41.6534 40.098 41.5094 39.96C41.3654 39.816 41.1734 39.744 40.9334 39.744C40.6814 39.744 40.4744 39.834 40.3124 40.014C40.1564 40.188 40.0634 40.419 40.0334 40.707L38.5844 40.509C38.6204 40.185 38.7074 39.897 38.8454 39.645C38.9894 39.393 39.1694 39.18 39.3854 39.006C39.6014 38.826 39.8474 38.691 40.1234 38.601C40.4054 38.505 40.7024 38.457 41.0144 38.457C41.3084 38.457 41.5934 38.496 41.8694 38.574C42.1454 38.652 42.3914 38.772 42.6074 38.934C42.8234 39.096 42.9944 39.3 43.1204 39.546C43.2524 39.792 43.3184 40.08 43.3184 40.41C43.3184 40.638 43.2884 40.845 43.2284 41.031C43.1684 41.211 43.0844 41.379 42.9764 41.535C42.8744 41.691 42.7544 41.838 42.6164 41.976C42.4844 42.108 42.3464 42.24 42.2024 42.372L40.7264 43.686H43.3274V45H38.7194Z" fill="#521E1B"/>
<path d="M40.4439 33.025C40.262 33.025 40.0802 32.9817 39.9113 32.8821L34.1002 29.5912C32.8055 28.8594 31.199 28.8594 29.9086 29.5912L24.0975 32.8821C23.5779 33.1766 22.9153 32.9947 22.6209 32.4751C22.3264 31.9554 22.5083 31.2929 23.0279 30.9985L28.839 27.7075C30.7919 26.6033 33.2168 26.6033 35.1654 27.7075L40.9765 30.9985C41.4961 31.2929 41.678 31.9554 41.3836 32.4751C41.1844 32.8258 40.8206 33.025 40.4439 33.025Z" fill="#521E1B"/>
</g>
<defs>
<clipPath id="clip0">
<rect width="64" height="64" fill="white"/>
</clipPath>
</defs>
</svg>
