<svg width="16" height="16" viewBox="0 0 16 16" fill="none" xmlns="http://www.w3.org/2000/svg">
<path d="M6.04886 1.0625H9.95114L5.26818 9.17346H8L9.36591 11.5392H0L6.04886 1.0625Z" fill="#FFE04E"/>
<path d="M15.9999 11.5392L14.0482 14.9187L9.36579 6.80777L7.99988 9.17346H5.26807L9.95102 1.0625L15.9999 11.5392Z" fill="#FA2C0F"/>
<path d="M1.95114 14.9188L0 11.5393H9.36591L8 9.17356L9.36591 6.80786L14.0483 14.9188H1.95114Z" fill="#FF7000"/>
<path fill-rule="evenodd" clip-rule="evenodd" d="M8 9H3V16H8V14H9V16H14V9H9V11H8V9Z" fill="black"/>
<rect x="8" y="12" width="1" height="1" fill="white"/>
<path fill-rule="evenodd" clip-rule="evenodd" d="M4 10H5H7V11H5V12H7V13V14V15H5H4V10ZM6 14V13H5V14H6Z" fill="white"/>
<path fill-rule="evenodd" clip-rule="evenodd" d="M10 10H11H13V11H11V12H13V13V14V15H11H10V10ZM12 14V13H11V14H12Z" fill="white"/>
</svg>
