<?xml version="1.0" encoding="utf-8"?>
<!-- Generator: Adobe Illustrator 24.2.0, SVG Export Plug-In . SVG Version: 6.00 Build 0)  -->
<svg version="1.1" id="Layer_1" xmlns="http://www.w3.org/2000/svg" xmlns:xlink="http://www.w3.org/1999/xlink" x="0px" y="0px"
	 viewBox="0 0 64 64" style="enable-background:new 0 0 64 64;" xml:space="preserve">
<style type="text/css">
	.st0{fill:#FFE04E;}
	.st1{fill:#FA2C0F;}
	.st2{fill:#FF7000;}
	.st3{opacity:0.55;fill-rule:evenodd;clip-rule:evenodd;fill:#5C2900;enable-background:new    ;}
	.st4{fill:#FFFFFF;}
	.st5{fill-rule:evenodd;clip-rule:evenodd;fill:#ABD6DF;}
	.st6{fill-rule:evenodd;clip-rule:evenodd;fill:url(#SVGID_1_);}
</style>
<path class="st0" d="M24.2,4.2h15.6L21.1,36.7H32l5.5,9.5H0L24.2,4.2z"/>
<path class="st1" d="M64,46.2l-7.8,13.5L37.5,27.2L32,36.7H21.1L39.8,4.2L64,46.2z"/>
<path class="st2" d="M7.8,59.7L0,46.2h37.5L32,36.7l5.5-9.5l18.7,32.4H7.8z"/>
<path class="st3" d="M1.3,44c11.8,6.9,23.6-6.9,35.4,0c-1.5-4.3-3-8.2-4.5-11.9c1.5-3.1,3-5.9,4.5-8.4c-8.2-4.8-16.4,0.4-24.7,1.7
	L1.3,44z"/>
<path class="st4" d="M37.6,38.7c-11.8-6.9-23.6,6.9-35.4,0c0-6.8,0-13.5,0-20.3c11.8,6.9,23.6-6.9,35.4,0c-1.5,2.5-3,5.3-4.5,8.4
	C34.6,30.5,36.1,34.5,37.6,38.7z"/>
<path class="st5" d="M34.6,23.9c-1.8-0.6-3.6-0.7-5.3-0.6v-6.8c2.8-0.1,5.6,0.3,8.3,2c-0.5,0.9-1.1,1.8-1.6,2.8
	C35.6,22.1,35.1,23,34.6,23.9z M20,25.2L20,25.2c-1.4,0.4-2.8,0.8-4.2,1.2v-6.8c1.4-0.3,2.8-0.7,4.2-1.2h0c0.9-0.3,1.7-0.5,2.6-0.7
	v6.8C21.7,24.7,20.8,24.9,20,25.2z M9,27.2c-2.3-0.1-4.5-0.7-6.8-2v-6.8c2.3,1.3,4.5,1.9,6.8,2V27.2z M22.5,31.2
	c2.3-0.6,4.5-1.1,6.8-1.2v-6.8c-2.3,0.1-4.5,0.6-6.8,1.2L22.5,31.2c-0.9,0.2-1.7,0.5-2.6,0.7c-1.4,0.4-2.8,0.8-4.2,1.2v6.8
	c1.4-0.3,2.8-0.7,4.2-1.2l0,0l0,0c0.9-0.3,1.7-0.5,2.6-0.7V31.2z M9,33.9c2.3,0.1,4.5-0.3,6.8-0.8v-6.8c-2.3,0.5-4.5,0.9-6.8,0.8
	V33.9z M2.3,38.7c2.3,1.3,4.5,1.9,6.8,2v-6.8c-2.3-0.1-4.5-0.7-6.8-2V38.7z M37.6,38.7c-0.5-1.5-1.1-3-1.6-4.4
	c-0.5-1.3-0.9-2.5-1.4-3.7c-1.8-0.6-3.6-0.7-5.3-0.6v6.8C32.1,36.6,34.9,37.1,37.6,38.7z"/>
<linearGradient id="SVGID_1_" gradientUnits="userSpaceOnUse" x1="37.2417" y1="47.2986" x2="3.7508" y2="28.1682" gradientTransform="matrix(1 0 0 -1 0 66)">
	<stop  offset="0" style="stop-color:#88B8FF"/>
	<stop  offset="1" style="stop-color:#5DD7A4"/>
</linearGradient>
<path class="st6" d="M34.6,23.9c-1.8-0.6-3.6-0.7-5.3-0.6v-6.8c2.8-0.1,5.6,0.3,8.3,2c-0.5,0.9-1.1,1.8-1.6,2.8
	C35.6,22.1,35.1,23,34.6,23.9z M20,25.2L20,25.2c-1.4,0.4-2.8,0.8-4.2,1.2v-6.8c1.4-0.3,2.8-0.7,4.2-1.2h0c0.9-0.3,1.7-0.5,2.6-0.7
	v6.8C21.7,24.7,20.8,24.9,20,25.2z M9,27.2c-2.3-0.1-4.5-0.7-6.8-2v-6.8c2.3,1.3,4.5,1.9,6.8,2V27.2z M22.5,31.2
	c2.3-0.6,4.5-1.1,6.8-1.2v-6.8c-2.3,0.1-4.5,0.6-6.8,1.2L22.5,31.2c-0.9,0.2-1.7,0.5-2.6,0.7c-1.4,0.4-2.8,0.8-4.2,1.2v6.8
	c1.4-0.3,2.8-0.7,4.2-1.2l0,0l0,0c0.9-0.3,1.7-0.5,2.6-0.7V31.2z M9,33.9c2.3,0.1,4.5-0.3,6.8-0.8v-6.8c-2.3,0.5-4.5,0.9-6.8,0.8
	V33.9z M2.3,38.7c2.3,1.3,4.5,1.9,6.8,2v-6.8c-2.3-0.1-4.5-0.7-6.8-2V38.7z M37.6,38.7c-0.5-1.5-1.1-3-1.6-4.4
	c-0.5-1.3-0.9-2.5-1.4-3.7c-1.8-0.6-3.6-0.7-5.3-0.6v6.8C32.1,36.6,34.9,37.1,37.6,38.7z"/>
<circle class="st4" cx="9.9" cy="31.4" r="2.1"/>
<circle class="st4" cx="26.4" cy="29.1" r="2.1"/>
<path d="M16.1,28.2c0-1.1,0.9-2.2,1.9-2.5c1.1-0.3,1.9,0.3,1.9,1.4c0,1.1-0.9,2.2-1.9,2.5C16.9,29.9,16.1,29.3,16.1,28.2z"/>
<path d="M21.5,29.4c0-0.9,0.4-1.8,0.8-2.6c1.1-2.3,2.3-4.4,3.4-6.4c1,0,2,0.2,3.1,0.5c-0.8,1.2-1.6,2.5-2.4,3.9
	c2.3,0.3,4.2,3.1,4.2,5.5c0,2.4-1.9,3.1-4.5,3C23.5,33.2,21.5,31.9,21.5,29.4z M27.8,29.3c0-0.9-0.6-1.9-1.8-2
	c-1.1-0.1-1.8,0.8-1.8,1.7c0,0.9,0.6,1.7,1.8,1.7C27.1,30.8,27.8,30.2,27.8,29.3z"/>
<path d="M5.5,30.3c0-0.9,0.4-1.5,0.8-2.1c1.1-1.6,2.3-3.4,3.4-5.4c1,0.1,2,0,3.1-0.1c-0.8,1.6-1.6,3.1-2.4,4.5
	c2.3,0.2,4.2,1.4,4.2,3.9c0,2.4-1.9,4.8-4.5,4.7C7.5,35.7,5.5,32.7,5.5,30.3z M11.8,31.5c0-0.9-0.6-1.7-1.8-1.7
	c-1.1-0.1-1.8,0.6-1.8,1.5c0,0.9,0.6,1.9,1.8,2C11.1,33.3,11.8,32.4,11.8,31.5z"/>
</svg>
