<svg width="64" height="64" viewBox="0 0 64 64" fill="none" xmlns="http://www.w3.org/2000/svg">
<path d="M64 32H55.5L59 38L64 32Z" fill="#0F2033"/>
<path fill-rule="evenodd" clip-rule="evenodd" d="M63.8338 45.7987L56.0493 59.2818L37.367 26.9221L31.9169 36.3602H21.0186L39.7014 4L63.8338 45.7987Z" fill="#FA2C0F"/>
<path fill-rule="evenodd" clip-rule="evenodd" d="M24.1325 4H39.7015L21.0186 36.3602H31.917L37.3671 45.7987H0.00012207L24.1325 4Z" fill="#FFE04E"/>
<path fill-rule="evenodd" clip-rule="evenodd" d="M7.78448 59.2819L0 45.7987H37.3672L31.9169 36.3603L37.3672 26.9221L56.0493 59.2819H7.78448Z" fill="#FF7000"/>
<rect x="28" y="11" width="36" height="21" fill="#3975BD"/>
<path d="M28 32H64L62.5455 33.4545H28V32Z" fill="black" fill-opacity="0.5"/>
<path d="M38.456 23.4126C38.456 23.8643 38.3771 24.2861 38.2195 24.6782C38.0618 25.0702 37.8423 25.4111 37.5611 25.7009C37.2798 25.9864 36.9453 26.2123 36.5575 26.3785C36.1697 26.5404 35.7457 26.6214 35.2855 26.6214C34.7699 26.6214 34.3075 26.5255 33.8984 26.3337C33.4936 26.142 33.1506 25.865 32.8693 25.5028C32.5881 25.1363 32.3729 24.6888 32.2237 24.1604C32.0746 23.632 32 23.0333 32 22.3643C32 21.5759 32.0959 20.8621 32.2876 20.2229C32.4837 19.5795 32.7607 19.0297 33.1186 18.5738C33.4808 18.1178 33.9176 17.7662 34.429 17.5191C34.9403 17.2677 35.5156 17.142 36.1548 17.142C36.8622 17.142 37.4119 17.2251 37.804 17.3912V19.0787C37.3395 18.8145 36.8324 18.6824 36.2827 18.6824C35.9418 18.6824 35.6328 18.7485 35.3558 18.8806C35.0788 19.0127 34.8402 19.2002 34.6399 19.4431C34.4439 19.686 34.2884 19.98 34.1733 20.3252C34.0625 20.6661 34.0028 21.0475 33.9943 21.4694H34.0327C34.4673 20.8685 35.1087 20.5681 35.9567 20.5681C36.3359 20.5681 36.679 20.6363 36.9858 20.7726C37.2926 20.909 37.5547 21.1029 37.772 21.3543C37.9893 21.6015 38.1577 21.8998 38.277 22.2492C38.3963 22.5986 38.456 22.9864 38.456 23.4126ZM36.4808 23.5404C36.4808 22.556 36.0781 22.0638 35.2727 22.0638C35.0895 22.0638 34.9233 22.0979 34.7741 22.1661C34.625 22.2343 34.4972 22.3302 34.3906 22.4537C34.2841 22.5773 34.201 22.7243 34.1413 22.8948C34.0859 23.061 34.0582 23.2464 34.0582 23.4509C34.0582 23.6768 34.0881 23.8877 34.1477 24.0837C34.2074 24.2797 34.2905 24.4523 34.397 24.6015C34.5078 24.7464 34.6378 24.8614 34.7869 24.9466C34.9361 25.0319 35.1023 25.0745 35.2855 25.0745C35.4688 25.0745 35.6328 25.0383 35.7777 24.9658C35.9268 24.8891 36.0526 24.7847 36.1548 24.6526C36.2614 24.5162 36.3423 24.3543 36.3977 24.1668C36.4531 23.9751 36.4808 23.7662 36.4808 23.5404Z" fill="white"/>
<path d="M40.642 26.6214C40.3097 26.6214 40.0327 26.5191 39.8111 26.3145C39.5895 26.11 39.4787 25.8586 39.4787 25.5603C39.4787 25.2535 39.5916 25.002 39.8175 24.806C40.0476 24.61 40.3331 24.512 40.674 24.512C41.0192 24.512 41.3004 24.6121 41.5178 24.8124C41.7393 25.0084 41.8501 25.2577 41.8501 25.5603C41.8501 25.8714 41.7372 26.127 41.5114 26.3273C41.2898 26.5233 41 26.6214 40.642 26.6214Z" fill="white"/>
<path d="M43.3523 26.2251V24.4992C43.9787 24.8827 44.6456 25.0745 45.353 25.0745C45.8857 25.0745 46.3011 24.9488 46.5994 24.6974C46.902 24.4417 47.0533 24.0965 47.0533 23.6618C47.0533 22.7542 46.4119 22.3003 45.1293 22.3003C44.6563 22.3003 44.1108 22.3366 43.4929 22.409L43.8381 17.2954H48.6896V18.9445H45.3786L45.2507 20.779C45.5788 20.7535 45.8622 20.7407 46.1009 20.7407C47.0426 20.7407 47.7798 20.9878 48.3125 21.4822C48.8452 21.9765 49.1115 22.6412 49.1115 23.4765C49.1115 24.4012 48.794 25.1576 48.1591 25.7456C47.5241 26.3295 46.6634 26.6214 45.5767 26.6214C44.6946 26.6214 43.9531 26.4893 43.3523 26.2251Z" fill="white"/>
<path d="M51.7259 26.6214C51.3935 26.6214 51.1165 26.5191 50.8949 26.3145C50.6733 26.11 50.5625 25.8586 50.5625 25.5603C50.5625 25.2535 50.6754 25.002 50.9013 24.806C51.1314 24.61 51.4169 24.512 51.7578 24.512C52.103 24.512 52.3842 24.6121 52.6016 24.8124C52.8232 25.0084 52.9339 25.2577 52.9339 25.5603C52.9339 25.8714 52.821 26.127 52.5952 26.3273C52.3736 26.5233 52.0838 26.6214 51.7259 26.6214Z" fill="white"/>
<path d="M58.8466 17.0908V26.4616H56.8331V19.3664C56.7223 19.4644 56.5902 19.5581 56.4368 19.6476C56.2876 19.7329 56.1278 19.8117 55.9574 19.8841C55.7869 19.9523 55.6101 20.012 55.4268 20.0631C55.2436 20.11 55.0625 20.1441 54.8835 20.1654V18.4651C55.4077 18.3117 55.902 18.1157 56.3665 17.877C56.831 17.6384 57.2507 17.3763 57.6257 17.0908H58.8466Z" fill="white"/>
</svg>
