<svg width="16" height="16" viewBox="0 0 16 16" fill="none" xmlns="http://www.w3.org/2000/svg">
<path fill-rule="evenodd" clip-rule="evenodd" d="M14.1555 8.514L12.5705 11.259L8.76452 4.669L7.65652 6.59H5.43652L9.24152 0L14.1555 8.514Z" fill="#FA2C0F"/>
<path fill-rule="evenodd" clip-rule="evenodd" d="M6.06952 0.000305176H9.24152L5.43652 6.59031H7.65652L8.76452 8.51431H1.15552L6.06952 0.000305176Z" fill="#FFE04E"/>
<path fill-rule="evenodd" clip-rule="evenodd" d="M2.7424 11.2591L1.1554 8.5141H8.7644L7.6564 6.5901L8.7644 4.6691L12.5704 11.2591H2.7424Z" fill="#FF7000"/>
<path fill-rule="evenodd" clip-rule="evenodd" d="M4 9H0V16H16V9H11V13H10V9H5V13H4V9Z" fill="black"/>
<rect x="4" y="14" width="1" height="1" fill="white"/>
<rect x="10" y="14" width="1" height="1" fill="white"/>
<path fill-rule="evenodd" clip-rule="evenodd" d="M0 10H1H3V11H1V12H3V13V14V15H1H0V10ZM2 14V13H1V14H2Z" fill="white"/>
<path fill-rule="evenodd" clip-rule="evenodd" d="M7 10H9V11H7V12H8H9V15H8H6V14H8V13H6V12V10H7Z" fill="white"/>
<path fill-rule="evenodd" clip-rule="evenodd" d="M14 10H13V11H12V12H13V15H14V10Z" fill="white"/>
</svg>
