<svg width="16" height="16" viewBox="0 0 16 16" fill="none" xmlns="http://www.w3.org/2000/svg">
<rect x="2" y="2" width="12" height="8" fill="black"/>
<path opacity="0.5" d="M6.30001 10H2V2H10.3L6.30001 10Z" fill="white"/>
<path d="M15 1V11H1V1H15ZM15 0H1C0.4 0 0 0.4 0 1V11C0 11.6 0.4 12 1 12H15C15.6 12 16 11.6 16 11V1C16 0.4 15.6 0 15 0Z" fill="#E1E1E1"/>
<path d="M10 12H6V15H10V12Z" fill="#5F5F5F"/>
<path d="M11 15H5C4.44772 15 4 15.4477 4 16H12C12 15.4477 11.5523 15 11 15Z" fill="#B0B0B0"/>
</svg>
