<?xml version="1.0" encoding="utf-8"?>
<!-- Generator: Adobe Illustrator 24.2.0, SVG Export Plug-In . SVG Version: 6.00 Build 0)  -->
<svg version="1.1" id="Layer_1" xmlns="http://www.w3.org/2000/svg" xmlns:xlink="http://www.w3.org/1999/xlink" x="0px" y="0px"
	 viewBox="0 0 16 16" style="enable-background:new 0 0 16 16;" xml:space="preserve">
<style type="text/css">
	.st0{fill:#CCCCCC;}
	.st1{fill:#FFFFFF;}
</style>
<path class="st0" d="M7.6,12.5C8.5,11.4,8.5,9.6,8.5,8c0-2.8,0.1-4.5,2.5-4.5v-1c-3.5,0-3.5,3-3.5,5.5c0,2.8-0.1,4.5-2.5,4.5H3v1h9
	v-1H7.6z"/>
<path class="st1" d="M16,5V1c0-0.6-0.4-1-1-1h-4c-0.6,0-1,0.4-1,1v4c0,0.6,0.4,1,1,1h4C15.6,6,16,5.6,16,5z M16,15v-4
	c0-0.6-0.4-1-1-1h-4c-0.6,0-1,0.4-1,1v4c0,0.6,0.4,1,1,1h4C15.6,16,16,15.6,16,15z M6,15v-4c0-0.6-0.4-1-1-1H1c-0.6,0-1,0.4-1,1v4
	c0,0.6,0.4,1,1,1h4C5.6,16,6,15.6,6,15z"/>
</svg>
