<svg width="16" height="16" viewBox="0 0 16 16" fill="none" xmlns="http://www.w3.org/2000/svg">
<path d="M10 7.17741C10 8.89701 9.6609 10.4899 9.08387 11.7942C9.60358 12.6579 10.2715 13.1773 11 13.1773C12.6569 13.1773 14 10.491 14 7.17733C14 5.2145 13.5287 3.47182 12.8002 2.37715L14.1773 1C15.2904 2.46728 16 4.68971 16 7.17733C16 11.5956 13.7614 15.1773 11 15.1773C9.87441 15.1773 8.83569 14.5822 8.00003 13.578C7.16437 14.5823 6.12562 15.1774 5 15.1774C2.23858 15.1774 0 11.5957 0 7.17741C0 4.68979 0.709633 2.46736 1.82267 1.00008L3.19982 2.37723C2.47126 3.4719 2 5.21459 2 7.17741C2 10.4911 3.34315 13.1774 5 13.1774C5.72856 13.1774 6.39646 12.658 6.91617 11.7942C6.33911 10.4899 6 8.89697 6 7.17733C6 6.07276 6.89543 5.17733 8 5.17733C9.10457 5.17733 10 6.07284 10 7.17741C10 7.17738 10 7.17744 10 7.17741Z" fill="white"/>
</svg>
