<?xml version="1.0" encoding="UTF-8"?>
<svg width="15px" height="16px" viewBox="0 0 15 16" version="1.1" xmlns="http://www.w3.org/2000/svg" xmlns:xlink="http://www.w3.org/1999/xlink">
    <!-- Generator: Sketch 55.2 (78181) - https://sketchapp.com -->
    <title>Flora Copy 17</title>
    <desc>Created with Sketch.</desc>
    <g id="Icons-(read-only)" stroke="none" stroke-width="1" fill="none" fill-rule="evenodd">
        <g id="Icons-for-Toolbar-Copy" transform="translate(-745.000000, -738.000000)">
            <g id="Icons/16x16/Spaces" transform="translate(745.000000, 738.000000)">
                <g id="Group-33" transform="translate(-0.000000, 0.000000)">
                    <path d="M5.0001,0 L0.485478159,2.70967603 C0.184344269,2.89041659 0.0001,3.21588286 0.0001,3.56709329 L0.0001,14.2341125 C0.0001,14.7863973 0.44781525,15.2341125 1.0001,15.2341125 C1.18129402,15.2341125 1.35908334,15.1848818 1.51446964,15.0916811 L5.0001,13.001 L5.0001,0 Z" id="Fill-1" fill="#176745"></path>
                    <path d="M13.4853782,0.909076029 L10,3.001 L10,16 L14.5143696,13.2922811 C14.8156466,13.1115752 15,12.7860278 15,12.4347125 L15,1.76649329 C15,1.21420854 14.5522847,0.766493291 14,0.766493291 C13.8187061,0.766493291 13.6408227,0.815778245 13.4853782,0.909076029 Z" id="Fill-2" fill="#176745"></path>
                    <polygon id="Fill-3" fill="#5AC999" points="5.0001 0 5.0001 13.001 9.9991 16 9.9991 3.001"></polygon>
                    <path d="M5,1.16629329 L1,3.56709329 L1,14.2341125 L5,11.8349125 L10,14.8339125 L14,12.4347125 L14,1.76649329 L10,4.16729329 L5,1.16629329 Z" id="Path" stroke="#FFFFFF" stroke-width="2" opacity="0.295359"></path>
                </g>
            </g>
        </g>
    </g>
</svg>