<?xml version="1.0" ?><svg height="24px" version="1.1" viewBox="0 0 24 24" width="24px" xmlns="http://www.w3.org/2000/svg" xmlns:sketch="http://www.bohemiancoding.com/sketch/ns" xmlns:xlink="http://www.w3.org/1999/xlink"><title/><desc/><defs/><g fill="none" fill-rule="evenodd" id="miu" stroke="none" stroke-width="1"><g id="Artboard-1" transform="translate(-683.000000, -407.000000)"><g id="slice" transform="translate(215.000000, 119.000000)"/><path d="M699.477276,421.355956 C700.43712,419.979383 701,418.305425 701,416.5 C701,411.805579 697.194421,408 692.5,408 C687.805579,408 684,411.805579 684,416.5 C684,421.194421 687.805579,425 692.5,425 C694.305148,425 695.978868,424.437293 697.355321,423.477719 L697.355892,423.477212 L703.659433,429.780753 C703.776309,429.897629 703.962206,429.901225 704.082211,429.78122 L705.78122,428.082211 C705.897838,427.965593 705.892417,427.771097 705.780753,427.659433 L699.477276,421.355956 L699.477276,421.355956 Z M692.5,423 C696.089851,423 699,420.089851 699,416.5 C699,412.910149 696.089851,410 692.5,410 C688.910149,410 686,412.910149 686,416.5 C686,420.089851 688.910149,423 692.5,423 Z M689,416 L689,417 L696,417 L696,416 L689,416 Z" fill="#000000" id="editor-zoom_out-minus-subtract-magnify-glyph"/></g></g></svg>