<svg xmlns="http://www.w3.org/2000/svg" width="24" height="22" viewBox="0 0 24 22">
    <g fill="#000" fill-rule="evenodd">
        <path d="M4.03 13.955C2.378 15.607 5.302 18.34 0 20.815c5.091 1.98 8.131.353 9.687-1.203 1.555-1.555 1.067-3.599-.496-5.162-1.56-1.562-3.509-2.147-5.16-.495M17.823 8.589l-4.357 5.228a1.405 1.405 0 0 1-1.022.519h-.065c-.373 0-.728-.148-1.004-.425l-1.289-1.29a.5.5 0 0 1 .707-.707l1.29 1.29c.09.09.224.13.314.133a.411.411 0 0 0 .3-.16l4.358-5.23a.504.504 0 0 1 .705-.063c.211.178.24.493.063.705M23.621.808l-.484-.483c-.39-.392-1.063-.434-1.506-.101L8.701 9.959c-.877.662-.96 1.838-.178 2.62l2.842 2.844c.79.789 1.957.703 2.621-.18l9.735-12.927c.331-.44.29-1.12-.1-1.508"/>
    </g>
</svg>
