<svg xmlns="http://www.w3.org/2000/svg" width="16" height="16" viewBox="0 0 16 16">
    <g fill="#FFF" fill-rule="evenodd">
        <path d="M2.687 9.66c-1.102 1.102.848 2.923-2.687 4.573 3.394 1.32 5.42.236 6.458-.801 1.037-1.037.711-2.4-.33-3.441-1.041-1.042-2.34-1.432-3.441-.33M11.558 5.726L8.654 9.211a.936.936 0 0 1-.682.346l-.043.001a.939.939 0 0 1-.67-.284l-.859-.86a.334.334 0 0 1 .471-.471l.86.86c.06.06.15.086.21.088a.274.274 0 0 0 .2-.106l2.905-3.486a.336.336 0 0 1 .47-.043c.14.119.16.329.042.47M15.424.539L15.1.217a.787.787 0 0 0-1.004-.068l-8.62 6.49c-.585.442-.64 1.226-.119 1.748l1.895 1.895c.526.526 1.305.469 1.747-.12l6.49-8.618a.793.793 0 0 0-.066-1.005"/>
        <path d="M10.4 12l-1.6-1.6-.8-.8L9.6 8l.8.8 1.6 1.6 1.6-1.6.8-.8L16 9.6l-.8.8-1.6 1.6 1.6 1.6.8.8-1.6 1.6-.8-.8-1.6-1.6-1.6 1.6-.8.8L8 14.4l.8-.8 1.6-1.6z"/>
    </g>
</svg>
