<svg width="16" height="16" viewBox="0 0 16 16" fill="none" xmlns="http://www.w3.org/2000/svg">
<path fill-rule="evenodd" clip-rule="evenodd" d="M8 0C3.582 0 0 3.582 0 8C0 11.3106 2.01139 14.1518 4.8787 15.3681L10.1195 5.63516C10.4971 4.93396 11.5029 4.93396 11.8805 5.63516L15.1199 11.6513C15.6825 10.5566 16 9.31536 16 8C16 3.582 12.418 0 8 0ZM3.62368 4.57266C2.39977 6.3363 3.11597 8.97202 4.57153 10C3.53198 9.26531 3.98178 7.45295 5.20472 5.68931C6.42767 3.92664 7.96045 2.88015 9 3.61581C7.54444 2.58686 4.84662 2.80902 3.62368 4.57266Z" fill="#D4D4D4"/>
<path d="M10.1056 7.78886L6.72361 14.5528C6.39116 15.2177 6.87465 16 7.61803 16H14.382C15.1253 16 15.6088 15.2177 15.2764 14.5528L11.8944 7.78885C11.5259 7.05181 10.4741 7.05181 10.1056 7.78886Z" fill="#F2C94C"/>
<path d="M10.7251 13.125C10.5384 13.125 10.3777 12.9933 10.3411 12.8102L10.0242 11.2257C9.89739 10.5916 10.3824 10 11.0291 10C11.6757 10 12.1607 10.5916 12.0339 11.2257L11.717 12.8102C11.6804 12.9933 11.5197 13.125 11.3331 13.125H10.7251Z" fill="black"/>
<path d="M11.654 14.375C11.654 14.7202 11.3742 15 11.029 15C10.6838 15 10.404 14.7202 10.404 14.375C10.404 14.0298 10.6838 13.75 11.029 13.75C11.3742 13.75 11.654 14.0298 11.654 14.375Z" fill="black"/>
</svg>
