<svg xmlns="http://www.w3.org/2000/svg" width="16" height="16" viewBox="0 0 16 16">
    <g fill="none" fill-rule="evenodd">
        <path fill="#D4D4D4" d="M6.782 11.874l1.72-1.662L8.499 16H2.52l1.705-1.65c-.338-.312-.699-.682-1.055-1.127a10.368 10.368 0 0 1-1.595-2.82c-.41-1.095-.64-2.34-.557-3.573.077-1.229.474-2.43 1.095-3.361.133-.213.278-.43.46-.651.167-.22.332-.425.514-.598.338-.37.707-.67 1.054-.927a7.53 7.53 0 0 1 .996-.62c.305-.169.594-.268.816-.374l.735-.244-.66.385c-.191.146-.443.295-.691.513a6.81 6.81 0 0 0-.792.762c-.26.299-.53.633-.754 1.017a4.024 4.024 0 0 0-.316.586c-.101.186-.193.411-.278.66-.343.875-.42 1.859-.267 2.792.295 1.89 1.55 3.48 2.618 4.32.476.38.907.626 1.235.784zm7.05-9.096c.605.761 1.187 1.72 1.595 2.82.41 1.096.64 2.34.556 3.574-.076 1.229-.472 2.43-1.096 3.361a5.672 5.672 0 0 1-.46.652c-.165.22-.331.425-.513.598-.337.37-.71.669-1.055.928a7.52 7.52 0 0 1-.996.619c-.303.169-.593.27-.814.374l-.736.245.659-.385c.193-.146.443-.297.692-.514a6.87 6.87 0 0 0 .792-.761c.262-.301.53-.634.753-1.02.128-.185.226-.384.316-.584a4.51 4.51 0 0 0 .28-.66c.343-.876.419-1.86.267-2.793-.297-1.89-1.55-3.482-2.617-4.32a6.507 6.507 0 0 0-1.24-.786L8.498 5.79 8.5 0h5.984l-1.707 1.651c.338.311.7.682 1.056 1.127z"/>
    </g>
</svg>
