<?xml version="1.0" encoding="utf-8"?>
<!-- Generator: Adobe Illustrator 23.1.0, SVG Export Plug-In . SVG Version: 6.00 Build 0)  -->
<svg version="1.1" id="Layer_1" xmlns="http://www.w3.org/2000/svg" xmlns:xlink="http://www.w3.org/1999/xlink" x="0px" y="0px"
	 viewBox="0 0 16 16" style="enable-background:new 0 0 16 16;" xml:space="preserve">
<style type="text/css">
	.st0{fill-rule:evenodd;clip-rule:evenodd;fill:#CB7640;}
</style>
<path class="st0" d="M15,2H8H1C0.4,2,0,2.4,0,3v9c0,0.6,0.4,1,1,1h14c0.6,0,1-0.4,1-1V3C16,2.4,15.6,2,15,2z M10.9,6.6h-2v-1H7.1
	v3.7h1.8v-1h2v1.2c0,0.3-0.3,0.5-0.8,0.5H5.9c-0.5,0-0.8-0.2-0.8-0.5V5.5C5.1,5.2,5.4,5,5.9,5h4.1c0.6,0,0.8,0.2,0.8,0.5V6.6z"/>
</svg>
