<svg width="36" height="16" viewBox="0 0 36 16" fill="none" xmlns="http://www.w3.org/2000/svg">
<path fill-rule="evenodd" clip-rule="evenodd" d="M1 2C0.447723 2 0 2.44771 0 3V12C0 12.5523 0.447723 13 1 13H35C35.5523 13 36 12.5523 36 12V3C36 2.44771 35.5523 2 35 2H18H1ZM3 6V7V8V10H5V8H6V7H5V6H7V5H5H3V6ZM22 5H20V10H22V7H23V8H24V10H26V5H24V7H23V6H22V5ZM29 5H31H33V6H31V10H29V6H27V5H29ZM10 5H8V10H10V8H11V10H13V8H12V7H13V6H12V5H10ZM11 6V7H10V6H11ZM15 6H14V9H15V10H18V9H19V6H18V5H15V6ZM17 9H16V6H17V9Z" fill="#CBCBCB"/>
</svg>
