<?xml version="1.0" encoding="utf-8"?>
<!-- Generator: Adobe Illustrator 23.1.0, SVG Export Plug-In . SVG Version: 6.00 Build 0)  -->
<svg version="1.1" id="Layer_1" xmlns="http://www.w3.org/2000/svg" xmlns:xlink="http://www.w3.org/1999/xlink" x="0px" y="0px"
	 viewBox="0 0 16 16" style="enable-background:new 0 0 16 16;" xml:space="preserve">
<style type="text/css">
	.st0{fill-rule:evenodd;clip-rule:evenodd;fill:#CB7640;}
</style>
<path class="st0" d="M15,2H8H1C0.4,2,0,2.4,0,3v9c0,0.6,0.4,1,1,1h14c0.6,0,1-0.4,1-1V3C16,2.4,15.6,2,15,2z M11.7,10h-2V7.5
	c0-0.1,0-0.3,0.1-0.5L8.4,9.5H7.6L6.2,7c0.1,0.2,0.1,0.4,0.1,0.5V10h-2V5h2l1.7,2.7c0,0,0,0.1,0,0.2c0-0.1,0-0.1,0-0.2L9.7,5h2V10z"
	/>
</svg>
