<?xml version="1.0" encoding="utf-8"?>
<!-- Generator: Adobe Illustrator 23.1.0, SVG Export Plug-In . SVG Version: 6.00 Build 0)  -->
<svg version="1.1" id="Layer_1" xmlns="http://www.w3.org/2000/svg" xmlns:xlink="http://www.w3.org/1999/xlink" x="0px" y="0px"
	 viewBox="0 0 16 16" style="enable-background:new 0 0 16 16;" xml:space="preserve">
<style type="text/css">
	.st0{fill-rule:evenodd;clip-rule:evenodd;fill:#CB7640;}
</style>
<path class="st0" d="M15,2H8H1C0.4,2,0,2.4,0,3v9c0,0.6,0.4,1,1,1h14c0.6,0,1-0.4,1-1V3C16,2.4,15.6,2,15,2z M11,6.6H9.3L9,6.3V5.6
	H7v0.9l3.6,1.4C10.9,8,11,8.2,11,8.3v1.2c0,0.3-0.3,0.5-1,0.5H6c-0.7,0-1-0.2-1-0.5V8.3h1.8L7,8.6v0.7h2v-1L5.4,7
	C5.1,6.9,5,6.7,5,6.6V5.5C5,5.2,5.3,5,6,5h4c0.7,0,1,0.2,1,0.5V6.6z"/>
</svg>
