<svg width="16" height="16" viewBox="0 0 16 16" fill="none" xmlns="http://www.w3.org/2000/svg">
<path d="M14.4316 2.41825L16 2.00001L15.3645 0.729073C15.1523 0.304604 14.671 0.0877466 14.2124 0.210031L12.806 0.585061L14.4316 2.41825Z" fill="white"/>
<path d="M10.8724 1.10072L8.89634 1.62766L10.5219 3.46085L12.498 2.93388L10.8724 1.10072Z" fill="white"/>
<path d="M6.96268 2.14329L8.58826 3.97648L6.52726 4.5261L4.90168 2.69291L6.96268 2.14329Z" fill="white"/>
<path d="M4.59363 5.04173L2.96805 3.20854L1.18543 3.68391C0.573459 3.84708 0.265415 4.53086 0.548679 5.09736L1 6.00001V15C1 15.5523 1.44772 16 2 16H15C15.5523 16 16 15.5523 16 15V6.00001H15L13.5 9.00001H11.5L13 6.00001H11L9.5 9.00001H7.5L9 6.00001H7L5.5 9.00001H3.5L5 6.00001L4.59363 5.04173Z" fill="white"/>
</svg>
