<svg width="16" height="16" viewBox="0 0 16 16" fill="none" xmlns="http://www.w3.org/2000/svg">
<path d="M14.9999 10H12.8899L8.597 14.2929C7.96704 14.9229 8.4132 16 9.30411 16H14.9999C15.5499 16 15.9999 15.55 15.9999 15V11C15.9999 10.45 15.5499 10 14.9999 10Z" fill="#6B6B6B"/>
<path d="M13.61 6.45999L10.78 3.62999C10.39 3.23999 9.76 3.23999 9.37 3.62999L7 5.98999V12.0658C7 12.9567 8.07714 13.4029 8.70711 12.7729L13.61 7.86999C14 7.47999 14 6.84999 13.61 6.45999Z" fill="#6B6B6B"/>
<path d="M0 1C0 0.447715 0.447715 0 1 0H5C5.55228 0 6 0.447715 6 1V3H0V1Z" fill="#BABABA"/>
<path fill-rule="evenodd" clip-rule="evenodd" d="M6 15V12H0V15C0 15.55 0.45 16 1 16H5C5.55 16 6 15.55 6 15ZM3 15C3.55 15 4 14.55 4 14C4 13.45 3.55 13 3 13C2.45 13 2 13.45 2 14C2 14.55 2.45 15 3 15Z" fill="#E0E0E0"/>
<path d="M6 8H0V11H6V8Z" fill="#6B6B6B"/>
<path d="M6 4H0V7H6V4Z" fill="#878787"/>
</svg>
