<svg width="16" height="16" viewBox="0 0 16 16" fill="none" xmlns="http://www.w3.org/2000/svg">
<path fill-rule="evenodd" clip-rule="evenodd" d="M2 12.0062H14V3.99481H2V12.0062ZM16 3.85462V2H14.994C14.994 2.57425 14.546 3.03842 13.994 3.03842C13.441 3.03842 12.994 2.57425 12.994 2H11.994C11.994 2.57425 11.546 3.03842 10.994 3.03842C10.441 3.03842 9.994 2.57425 9.994 2H8.994C8.994 2.57425 8.546 3.03842 7.994 3.03842C7.441 3.03842 6.994 2.57425 6.994 2H6.007C6.007 2.57425 5.559 3.03842 5.007 3.03842C4.454 3.03842 4.007 2.57425 4.007 2H3.007C3.007 2.57425 2.559 3.03842 2.007 3.03842C1.454 3.03842 1.007 2.57425 1.007 2H0V3.84735C0.553 3.84735 0.999 4.31153 0.999 4.88474C0.999 5.45794 0.553 5.9242 0 5.9242V6.96262C0.553 6.96262 0.999 7.42679 0.999 8C0.999 8.57321 0.553 9.03946 0 9.03946V10.0779C0.553 10.0779 0.999 10.5421 0.999 11.1163C0.999 11.6885 0.553 12.1547 0 12.1547V14H1.007C1.007 13.4258 1.454 12.9616 2.007 12.9616C2.559 12.9616 3.007 13.4258 3.007 14H4.007C4.007 13.4258 4.454 12.9616 5.007 12.9616C5.559 12.9616 6.007 13.4258 6.007 14H6.994C6.994 13.4258 7.441 12.9616 7.994 12.9616C8.546 12.9616 8.994 13.4258 8.994 14H9.994C9.994 13.4258 10.441 12.9616 10.994 12.9616C11.546 12.9616 11.994 13.4258 11.994 14H12.994C12.994 13.4258 13.441 12.9616 13.994 12.9616C14.546 12.9616 14.994 13.4258 14.994 14H16V12.1464C15.466 12.1246 15.039 11.675 15.039 11.1163C15.039 10.5566 15.466 10.107 16 10.0852V9.03115C15.466 9.00935 15.039 8.55971 15.039 8C15.039 7.44133 15.466 6.99169 16 6.96989V5.91589C15.466 5.89408 15.039 5.44444 15.039 4.88474C15.039 4.32606 15.466 3.87643 16 3.85462ZM3 11H13V5.03323H3V11Z" fill="#FF61DE"/>
</svg>
