<svg width="16" height="16" viewBox="0 0 16 16" fill="none" xmlns="http://www.w3.org/2000/svg">
<path d="M2.99986 0L1 3.001V5.5H5.00071V3.001L2.99986 0Z" fill="white"/>
<path d="M0 6V8H16V6H0Z" fill="white"/>
<path d="M15 8.5H10.9993V10.5H15V8.5Z" fill="white"/>
<path d="M9.99945 8.5H6.00073V10.5H9.99945V8.5Z" fill="white"/>
<path d="M5.00071 8.5H1V10.5H5.00071V8.5Z" fill="white"/>
<path d="M6.00073 5.5H9.99945V3.001L8.00059 0L6.00073 3.001V5.5Z" fill="white"/>
<path d="M10.9993 5.5H15V3.001L12.9991 0L10.9993 3.001V5.5Z" fill="white"/>
<path d="M0 11H16V13H0V11Z" fill="white"/>
<path d="M1 13.5V16H5.00071V13.5H1Z" fill="white"/>
<path d="M6.00073 13.5V16H9.99945V13.5H6.00073Z" fill="white"/>
<path d="M10.9993 13.5V16H15V13.5H10.9993Z" fill="white"/>
</svg>
