<svg xmlns="http://www.w3.org/2000/svg" width="16" height="16" viewBox="0 0 16 16">
    <path fill="#FFF" fill-rule="evenodd" d="M16 6s-2.908 3.646-3.761 7.823C10.803 9.12 10.414 3.447 13 0c0 0-2.137 2.588-3.615 7.175C10.063 9.21 10.13 12.047 9 16h6c-1-2-1-7 1-10m-7.874 4.281c-.037-.115-.071-.232-.11-.344a15.657 15.657 0 0 0-.444-1.146 17.713 17.713 0 0 0-.363-.794c-.032-.065-.066-.127-.099-.191a16.063 16.063 0 0 0-1.96-2.977l-.09-.108a15.304 15.304 0 0 0-.554-.619 17.85 17.85 0 0 0-.444-.455l-.018-.016c-.46-.446-.874-.792-1.211-1.052-.032-.024-.067-.053-.098-.075a12.24 12.24 0 0 0-.501-.356l-.101-.066a4.204 4.204 0 0 1-.074-.047L2 2c2.417 2.417 3.513 5.495 3.333 9.211.034.78.041 1.563-.014 2.342-.054-.142-.127-.271-.187-.409-.045.286-.073.563-.132.856 0-.392-.053-.889-.142-1.45C3.413 9.703.943 7.685 0 7c1.815 1.487 3.917 6.248 3 9h6c0-1.789-.23-3.378-.599-4.794-.083-.32-.178-.623-.275-.925"/>
</svg>
