<svg width="16" height="16" viewBox="0 0 16 16" fill="none" xmlns="http://www.w3.org/2000/svg">
<g clip-path="url(#clip0)">
<path fill-rule="evenodd" clip-rule="evenodd" d="M6.54942 2.1167C6.24255 2.17614 5.98507 2.25741 5.76595 2.35846C5.23938 2.60131 4.97858 2.93816 4.79414 3.23807C4.74601 3.31633 4.70696 3.38275 4.67323 3.44014C4.57025 3.61531 4.51679 3.70625 4.40565 3.79252C4.2873 3.88438 4.04442 4 3.43004 4H3.42998H2C1.72386 4 1.5 4.22386 1.5 4.5C1.5 4.77614 1.72386 5 2 5H2.76004L1.27258 10H2.30399L3.42857 6L4.54662 10H5.57767L4.08534 4.95437C4.47408 4.89347 4.77603 4.77092 5.01881 4.58248C5.29824 4.36559 5.46918 4.06773 5.58348 3.86857L5.5835 3.86854L5.58352 3.86851L5.58352 3.8685C5.60647 3.82851 5.62714 3.7925 5.64594 3.76193C5.769 3.56184 5.8982 3.39869 6.18475 3.26654C6.30042 3.2132 6.44662 3.16282 6.63397 3.12053C6.87001 3.63931 7.39288 4 8 4C8.60712 4 9.13 3.63931 9.36603 3.12053C9.5534 3.16282 9.69961 3.21319 9.81529 3.26654C10.1018 3.39869 10.231 3.56184 10.3541 3.76193C10.3729 3.79252 10.3936 3.82855 10.4166 3.86857C10.5309 4.06773 10.7018 4.36559 10.9812 4.58248C11.224 4.77092 11.526 4.89347 11.9147 4.95437L10.4224 10H11.4534L12.5715 6L13.696 10H14.7274L13.24 5H14C14.2761 5 14.5 4.77614 14.5 4.5C14.5 4.22386 14.2761 4 14 4H12.57H12.57C11.9556 4 11.7127 3.88438 11.5944 3.79252C11.4833 3.70625 11.4298 3.61531 11.3268 3.44014L11.3268 3.44013L11.3268 3.44009C11.2931 3.38271 11.254 3.31631 11.2059 3.23807C11.0215 2.93816 10.7607 2.60131 10.2341 2.35846C10.015 2.2574 9.75747 2.17613 9.45058 2.11669C9.28119 1.47395 8.69595 1 8 1C7.30405 1 6.7188 1.47396 6.54942 2.1167ZM8 3C8.27614 3 8.5 2.77614 8.5 2.5C8.5 2.22386 8.27614 2 8 2C7.72386 2 7.5 2.22386 7.5 2.5C7.5 2.77614 7.72386 3 8 3ZM6.80002 11.6C6.21002 13.02 4.93002 14 3.43002 14C1.93002 14 0.650016 13.02 0.0800161 11.6C0.0800161 11.6 -0.209984 11 0.480016 11H3.44002H6.40002C7.09002 11 6.80002 11.6 6.80002 11.6ZM15.94 11.6C15.35 13.02 14.07 14 12.57 14C11.07 14 9.80003 13.02 9.22003 11.6C9.22003 11.6 8.93003 11 9.62003 11H12.58H15.54C16.23 11 15.94 11.6 15.94 11.6Z" fill="white"/>
</g>
<defs>
<clipPath id="clip0">
<rect width="16" height="16" fill="white"/>
</clipPath>
</defs>
</svg>
