<svg width="16" height="16" viewBox="0 0 16 16" fill="none" xmlns="http://www.w3.org/2000/svg">
<path d="M4 8C6.20914 8 8 6.20914 8 4C8 1.79086 6.20914 0 4 0C1.79086 0 0 1.79086 0 4C0 6.20914 1.79086 8 4 8Z" fill="white"/>
<path d="M13 7.87398C12.6804 7.95625 12.3453 8 12 8V7H13V7.87398Z" fill="white"/>
<path d="M13 4V5H14V4H13Z" fill="white"/>
<path d="M13 3H14V2H13V3Z" fill="white"/>
<path d="M13 3V4H12V3H13Z" fill="white"/>
<path d="M11 3H12V2H11V3Z" fill="white"/>
<path d="M11 4H12V5H11V4Z" fill="white"/>
<path d="M11 4H10V3H11V4Z" fill="white"/>
<path d="M11 5V6H10V5H11Z" fill="white"/>
<path fill-rule="evenodd" clip-rule="evenodd" d="M14 7.46487C14.2309 7.33133 14.4471 7.17538 14.6458 7H14V6H15V6.64582C15.1754 6.44712 15.3313 6.23085 15.4649 6H15V5H15.874C15.9562 4.68038 16 4.3453 16 4H15V3H15.874C15.7827 2.64523 15.6439 2.30951 15.4649 2H15V1.35418C14.8894 1.22889 14.7711 1.11058 14.6458 1H14V0.535129C13.6905 0.356089 13.3548 0.217329 13 0.126017V1H12V0C11.6547 0 11.3196 0.043753 11 0.126017V1H10V0.535129C9.76915 0.668669 9.55288 0.824617 9.35418 1H10V2H9V1.35418C8.82462 1.55288 8.66867 1.76915 8.53513 2H9V3H8.12602C8.04375 3.31962 8 3.6547 8 4H9V5H8.12602C8.21733 5.35477 8.35609 5.69049 8.53513 6H9V6.64582C9.11058 6.77111 9.22889 6.88942 9.35418 7H10V7.46487C10.3095 7.64391 10.6452 7.78267 11 7.87398V7H12V6H13V7H14V7.46487ZM13 5V6H14V5H15V4H14V3H15V2H14V1H13V2H12V1H11V2H10V3H9V4H10V5H9V6H10V7H11V6H12V5H13Z" fill="white"/>
<path d="M12 16V8C11.6547 8 11.3196 8.04375 11 8.12602V15.874C11.3196 15.9562 11.6547 16 12 16Z" fill="white"/>
<path d="M10 15.4649V8.53513C9.62359 8.75287 9.28596 9.03018 9 9.35418V14.6458C9.28596 14.9698 9.62359 15.2471 10 15.4649Z" fill="white"/>
<path d="M14 15.4649C13.6905 15.6439 13.3548 15.7827 13 15.874V8.12602C13.3548 8.21733 13.6905 8.35609 14 8.53513V15.4649Z" fill="white"/>
<path d="M15 14.6458C15.6224 13.9407 16 13.0144 16 12C16 10.9856 15.6224 10.0593 15 9.35418V14.6458Z" fill="white"/>
<path d="M6.64582 15C5.94069 15.6224 5.01445 16 4 16C2.98555 16 2.05931 15.6224 1.35418 15H6.64582Z" fill="#F0F0F0"/>
<path d="M7.46487 14H0.535129C0.356089 13.6905 0.217329 13.3548 0.126017 13H7.87398C7.78267 13.3548 7.64391 13.6905 7.46487 14Z" fill="#F0F0F0"/>
<path d="M8 12C8 11.6547 7.95625 11.3196 7.87398 11H0.126017C0.043753 11.3196 0 11.6547 0 12H8Z" fill="#F0F0F0"/>
<path d="M0.535129 10H7.46487C7.24713 9.62359 6.96982 9.28596 6.64582 9H1.35418C1.03018 9.28596 0.752867 9.62359 0.535129 10Z" fill="#F0F0F0"/>
</svg>
