<svg xmlns="http://www.w3.org/2000/svg" width="16" height="16" viewBox="0 0 16 16">
    <g fill="none" fill-rule="evenodd">
        <path fill="#C0C0C0" d="M0 7.35l.546.382 5.053-2.565L3.96 4.019 0 7.349zm4.069 4.07l.545.382 3.987-4.533-1.637-1.146-2.895 5.297zm5.214 2.43l.547.383 1.775-4.86-1.638-1.147-.684 5.625z"/>
        <path fill="#FFF" d="M7.105 2.965l1.216 1.22c1.332-1.903 2.9-1.187 2.9-1.187-1.534-1.074-3.378-1.089-4.116-.033M9.25 6.502c-.266-.186-.542-.385-.831-.587-.288-.2-.57-.393-.836-.58-1.406-.984-2.373-1.81-1.486-3.078C7.154.75 9.476.557 11.286 1.823c1.809 1.267 2.42 3.516 1.366 5.023-.887 1.266-1.995.64-3.401-.344m4.454.484c1.003-1.929.254-4.512-1.846-5.982C9.778-.453 7.124-.29 5.646 1.272c-1.552-.43-2.926-.45-3.843.015-.235 1.941 1.677 4.837 4.833 7.047s6.53 3.016 8.274 2.131c.12-.985-.332-2.217-1.205-3.479"/>
    </g>
</svg>
