<svg width="16" height="16" viewBox="0 0 16 16" fill="none" xmlns="http://www.w3.org/2000/svg">
<path d="M0 1C0 0.447715 0.447715 0 1 0H4C4.55228 0 5 0.447715 5 1V4C5 4.55228 4.55228 5 4 5H1C0.447715 5 0 4.55228 0 4V1Z" fill="white"/>
<path d="M0 12C0 11.4477 0.447715 11 1 11H4C4.55228 11 5 11.4477 5 12V15C5 15.5523 4.55228 16 4 16H1C0.447715 16 0 15.5523 0 15V12Z" fill="white"/>
<path d="M11 9C11 8.44772 11.4477 8 12 8H15C15.5523 8 16 8.44772 16 9V12C16 12.5523 15.5523 13 15 13H12C11.4477 13 11 12.5523 11 12V9Z" fill="white"/>
<path d="M6 3H6.5C6.77614 3 7 3.22386 7 3.5V12.5C7 12.7761 6.77614 13 6.5 13H6V14H6.5C7.32843 14 8 13.3284 8 12.5V11H10V10H8V3.5C8 2.67157 7.32843 2 6.5 2H6V3Z" fill="#A3A3A3"/>
</svg>
