<svg width="16" height="16" viewBox="0 0 16 16" fill="none" xmlns="http://www.w3.org/2000/svg">
<path d="M11.8997 2.09287C12.9834 2.09287 14.0262 3.00327 13.9342 4.31131L13.4128 11.9817C13.3412 13.07 12.462 13.9071 11.3988 13.9071H3.81314C2.23876 13.9071 1.44134 11.9503 2.55568 10.8097L10.4787 2.6998C10.8979 2.28123 11.409 2.09287 11.8997 2.09287ZM11.8997 0C10.8263 0 9.8142 0.439503 9.03723 1.22433L1.12442 9.33421C0.0305307 10.4539 -0.296614 12.1282 0.296336 13.5932C0.889285 15.0582 2.26943 16 3.82336 16H11.409C13.5355 16 15.3245 14.2943 15.4677 12.1177L15.9891 4.44735C16.0708 3.27534 15.6926 2.16612 14.9156 1.32897C14.1284 0.491825 13.0345 0 11.8997 0Z" fill="white"/>
<path d="M11.0345 13.5345C11.882 13.5345 12.5691 12.8475 12.5691 12C12.5691 11.1525 11.882 10.4655 11.0345 10.4655C10.187 10.4655 9.5 11.1525 9.5 12C9.5 12.8475 10.187 13.5345 11.0345 13.5345Z" fill="white"/>
<path d="M4.46547 13.5345C5.31297 13.5345 6 12.8475 6 12C6 11.1525 5.31297 10.4655 4.46547 10.4655C3.61798 10.4655 2.93095 11.1525 2.93095 12C2.93095 12.8475 3.61798 13.5345 4.46547 13.5345Z" fill="white"/>
<path d="M11.9386 5.74935C12.7861 5.74935 13.4731 5.06232 13.4731 4.21482C13.4731 3.36733 12.7861 2.6803 11.9386 2.6803C11.0911 2.6803 10.4041 3.36733 10.4041 4.21482C10.4041 5.06232 11.0911 5.74935 11.9386 5.74935Z" fill="white"/>
</svg>
