<svg xmlns="http://www.w3.org/2000/svg" width="16" height="16" viewBox="0 0 16 16">
    <g fill="none" fill-rule="evenodd">
        <path fill="#FFF" d="M5 7V3.767C5 2.241 6.346 1 8 1s3 1.241 3 2.767V7H5zm3.5 7h-1v-1.592A1.495 1.495 0 0 1 8 9.5a1.495 1.495 0 1 1 .5 2.908V14zM12 7V3.767C12 1.689 10.206 0 8 0S4 1.689 4 3.767V7H3a1 1 0 0 0-1 1v7a1 1 0 0 0 1 1h8.778A2.982 2.982 0 0 1 11 14a3 3 0 0 1 3-3V8a1 1 0 0 0-1-1h-1z"/>
        <path fill="#F63131" d="M16 14a2 2 0 1 1-4.001-.001A2 2 0 0 1 16 14"/>
    </g>
</svg>
