<svg xmlns="http://www.w3.org/2000/svg" xmlns:xlink="http://www.w3.org/1999/xlink" width="116" height="92" viewBox="0 0 116 92">
    <defs>
        <path id="a" d="M0 .938h115.416v92.061H0z"/>
    </defs>
    <g fill="none" fill-rule="evenodd">
        <path fill="#FFF" d="M43.908 35.027v-11c0-7.843 6.542-14.157 14.467-13.784 7.423.349 13.133 6.743 13.133 14.174v10.6l9.2.01v-10.45c0-12.47-9.698-23.092-22.161-23.535-13.085-.465-23.84 10.004-23.84 22.985v11"/>
        <path fill="#E4FFFF" d="M94.708 91.027h-74v-49a7 7 0 0 1 7-7h60a7 7 0 0 1 7 7v49z"/>
        <path fill="#C0C0C0" d="M34.708 24.027v11h4.5l.167-10.177C40.541 4.516 58.547 1.042 58.547 1.042 45.462.577 34.708 11.046 34.708 24.027M60.291 7.933c-7.508-1.11-11.617 5.66-11.617 5.66 3.966-4.17 9.701-3.35 9.701-3.35 7.423.349 13.133 6.743 13.133 14.174v10.599l4.45.01c.917-21.593-6.083-25.676-15.667-27.093"/>
        <g transform="translate(0 -.938)">
            <mask id="b" fill="#fff">
                <use xlink:href="#a"/>
            </mask>
            <path fill="#000" d="M86.678 90.93H.928c-.8 0-1.386 2.07-.44 2.07h85.75c.801 0 1.386-2.07.44-2.07m28.25 0H98.436c-.962 0-1.987.084-2.948 0-.098-.01-.16 0-.222.008-.225-1.204.14-3.243.14-4.203V48.528c0-3.066.566-7.09-1.025-9.858-1.576-2.74-4.15-3.642-7.12-3.74-1.053-.036-2.113 0-3.166 0-.71 0-1.445.05-2.154 0-.369-.027-.545.012-.627.07-.812-1.795.103-6.334.092-8.17-.019-3.213-.219-6.3-1.227-9.393-2.702-8.3-9.837-14.802-18.522-16.207-9.16-1.483-18.427 2.774-23.524 10.468-4.22 6.372-4.123 13.27-4.123 20.585 0 1.418 1.396.266 1.396-.637 0-6.57-.286-12.81 3.444-18.63C44.04 4.92 54.3 1.286 63.493 3.831c8.378 2.32 14.65 9.701 16.18 18.165.832 4.607.337 9.624.337 14.287 0 .317.09.716.478.716 5.88 0 13.327-.712 13.522 7.357.125 5.195 0 10.408 0 15.604v32.323c0 .317.09.716.478.716h20c.801 0 1.386-2.07.44-2.07m-93.522-4.46V51.45c0-5.374-1.512-13.828 6.157-14.45 5.302-.43 10.802 0 16.125 0 .556 0 .918-.924.918-1.354 0-3.36-.087-6.734 0-10.093.194-7.547 5.651-13.759 13.55-13.338 7.463.398 12.418 6.76 12.654 13.912.095 2.875.031 5.764.01 8.644H52.54c-.87 0-1.56 2.366-.524 2.366h18.6c.155 0 .3-.092.433-.215a.418.418 0 0 0 .238.068h4.45c.801 0 1.386-2.072.44-2.072-1.157 0-2.784.308-3.886 0-.066-.017-.1-.01-.144-.013-.05-.418.048-.987.058-1.327.082-2.787.104-5.635 0-8.423-.269-7.172-4.76-13.787-12.24-14.875-7.2-1.048-14.056 3.75-16.098 10.62-1.294 4.354-.785 9.418-.68 14.011-5.397-.093-11.485-.907-16.697.18-6.225 1.296-6.48 7.245-6.48 12.317v39.698c0 1.418 1.395.266 1.395-.637m46.42-33.624c-8.085.014-16.319-.442-24.39.041-14.03.841-14.89 21.582-.467 22.553l23.99-.04c7.743-.014 17.077-.237 18.168-10.263.63-5.785-3.243-11.25-9.074-12.165-2.665-.418-5.547-.13-8.227-.126" mask="url(#b)"/>
        </g>
        <path fill="#F79C82" d="M43.192 54.876c-4.604 0-8.35 3.745-8.35 8.35 0 4.603 3.746 8.349 8.35 8.349 4.604 0 8.349-3.746 8.349-8.35 0-4.604-3.745-8.35-8.35-8.35"/>
    </g>
</svg>
