<svg width="16" height="16" viewBox="0 0 16 16" fill="none" xmlns="http://www.w3.org/2000/svg">
<g clip-path="url(#clip0_188_1540)">
<path fill-rule="evenodd" clip-rule="evenodd" d="M9.69961 10.7571L9.137 11.504C8.679 12.111 7.873 12.171 7.329 11.627L5.37 9.668C4.831 9.129 4.889 8.318 5.493 7.862L6.27504 7.27349L9.69961 10.7571ZM10.4134 9.80949L15.847 2.596C15.9575 2.44135 16.011 2.25313 15.9982 2.06347C15.9854 1.8738 15.9073 1.69444 15.777 1.556L15.445 1.225C15.3075 1.09387 15.1284 1.01498 14.9388 1.00202C14.7492 0.989049 14.5611 1.04282 14.407 1.154L7.22077 6.56181L10.4134 9.80949ZM2.29081 12.0833C2.29459 11.5444 2.29802 11.057 2.693 10.662V10.663C3.797 9.558 5.098 9.949 6.142 10.993C7.186 12.037 7.512 13.403 6.473 14.442C5.433 15.482 3.402 16.569 0 15.246C2.27605 14.1838 2.28401 13.0506 2.29081 12.0833Z" fill="white"/>
<line x1="13.6616" y1="14.8113" x2="1.2883" y2="2.22461" stroke="white" stroke-width="1.17333"/>
</g>
<defs>
<clipPath id="clip0_188_1540">
<rect width="16" height="16" fill="white"/>
</clipPath>
</defs>
</svg>
