<svg xmlns="http://www.w3.org/2000/svg" data-name="Layer 1" viewBox="0 0 24 24" x="0px" y="0px"><title>Layers</title><path d="M11.74,14.93h0A.59.59,0,0,0,12,15a.48.48,0,0,0,.26-.07l11.5-7a.51.51,0,0,0,0-.86l-11.5-7a.53.53,0,0,0-.52,0l-11.5,7a.51.51,0,0,0,0,.86Z"/><path d="M21.71,10.35l-8.93,5.43a1.49,1.49,0,0,1-1.56,0L2.29,10.35l-2,1.25a.5.5,0,0,0,0,.85l11.5,7a.52.52,0,0,0,.52,0l11.5-7a.5.5,0,0,0,0-.85Z"/><path d="M21.75,14.85l-9,5.46a1.55,1.55,0,0,1-1.56,0l-9-5.46-2,1.22a.51.51,0,0,0,0,.86l11.5,7a.52.52,0,0,0,.52,0l11.5-7a.51.51,0,0,0,0-.86Z"/></svg>