<svg xmlns="http://www.w3.org/2000/svg" width="17" height="16" viewBox="0 0 17 16">
    <g fill="none" fill-rule="evenodd">
        <path d="M-367-805H633V634H-367z"/>
        <path d="M-39-40h96v96h-96z" opacity=".9"/>
        <path fill="#FFFFFF" d="M15.27 0l-1.73 1.747 1.73 1.747L17 1.747 15.27 0zM8.784 0L7.053 1.747l1.731 1.747 1.729-1.747L8.784 0zM2.729 0L1 1.747l1.729 1.747 1.729-1.747L2.729 0zm-.836 6.866l2.811 2.837 2.81-2.837-2.81-2.84-2.811 2.84zm8.038 0l2.744 2.77 2.744-2.77-2.744-2.772-2.744 2.772zm-4.607 5.64L8.784 16l3.458-3.494L8.784 9.01l-3.46 3.495z"/>
    </g>
</svg>
