<svg xmlns="http://www.w3.org/2000/svg" width="16" height="16" viewBox="0 0 16 16">
    <defs>
        <linearGradient id="a" x1="100%" x2="2.608%" y1="100%" y2="100%">
            <stop offset="0%" stop-color="#FFF" stop-opacity="0"/>
            <stop offset="97.868%" stop-color="#FFF"/>
        </linearGradient>
    </defs>
    <g fill="none" fill-rule="evenodd">
        <path fill="#FFF" d="M13.987 9.748c0 .138-.18.25-.399.25l-.724.002c-.441 0-.8-.224-.8-.5s.359-.5.8-.5h.724c.219 0 .399.113.399.25v.498zm-2 1.852c0 .219-.113.4-.25.4h-.498c-.138 0-.25-.181-.25-.4l-.002-.699v-.076h.01c.024-.405.23-.725.49-.725.259 0 .465.32.49.725h.01v.775zM10.163 10h-.776c-.219 0-.4-.113-.4-.25v-.498c0-.137.181-.25.4-.25l.7-.001.076-.001v.01c.404.024.724.23.724.49 0 .259-.32.465-.724.49V10zm-3.175 0H4.987v2h-.999v-2h-2V9h2V7h.999v2h2.001v1zm3.999-2.601c0-.219.113-.399.25-.399h.498c.138 0 .25.18.25.399l.002.724c0 .441-.224.8-.5.8s-.5-.359-.5-.8v-.724zm.936-1.392L4.09 6C2.632 6.014.651 7.5.144 10.31-.365 13.133.528 16 1.987 16c2.312 0 3.544-1.108 4.287-2.984H9.7C10.442 14.892 11.676 16 13.987 16c1.459 0 2.352-2.867 1.843-5.69-.503-2.788-2.454-4.268-3.907-4.303z"/>
        <path stroke="url(#a)" d="M8 4.5C8 1.267 9.768 1 11.654 1"/>
    </g>
</svg>
