<svg width="16" height="16" viewBox="0 0 16 16" fill="none" xmlns="http://www.w3.org/2000/svg">
<path d="M14 2.5H16V3.5H14V2.5Z" fill="#8C8C8C"/>
<path d="M7 7.5H16V8.5H7V7.5Z" fill="#8C8C8C"/>
<path d="M16 12.5H11V13.5H16V12.5Z" fill="#8C8C8C"/>
<path d="M14.5 3C14.5 4.10457 13.6046 5 12.5 5C11.5681 5 10.785 4.36261 10.563 3.5H0V2.5H10.563C10.785 1.63739 11.5681 1 12.5 1C13.6046 1 14.5 1.89543 14.5 3Z" fill="white"/>
<path d="M7.5 8C7.5 9.10457 6.60457 10 5.5 10C4.56808 10 3.78503 9.36261 3.56301 8.5H0V7.5H3.56301C3.78503 6.63739 4.56808 6 5.5 6C6.60457 6 7.5 6.89543 7.5 8Z" fill="white"/>
<path d="M9.5 15C10.6046 15 11.5 14.1046 11.5 13C11.5 11.8954 10.6046 11 9.5 11C8.56808 11 7.78503 11.6374 7.56301 12.5H0V13.5H7.56301C7.78503 14.3626 8.56808 15 9.5 15Z" fill="white"/>
</svg>
