<svg width="16" height="16" viewBox="0 0 16 16" fill="none" xmlns="http://www.w3.org/2000/svg">
<path d="M13.65 13.9999H16V10.8199C15.45 12.0599 14.68 13.1699 13.65 13.9999Z" fill="#9C9C9C"/>
<path d="M12.3964 5C12.6192 5 12.7307 4.73071 12.5732 4.57322L10 2L7.42678 4.57322C7.26929 4.73071 7.38083 5 7.60355 5H9.5V6C9.5 6.78 9.4 7.61 9.22 8.41C9.16 8.68 9.33 8.95 9.6 9.01C9.64 9.02 9.68 9.02 9.71 9.02C9.94 9.02 10.14 8.86 10.2 8.63C10.4 7.76 10.5 6.85 10.5 6V5H12.3964Z" fill="#9C9C9C"/>
<path d="M11.51 6H14.39H16C16 8.89 14.76 12.72 11.75 14H0C2.67401 12.8629 3.95111 9.71328 4.20291 6.99808C4.25391 6.44816 4.69772 6 5.25 6H8.5C8.5 6.7 8.42 7.46 8.25 8.19C8.16 8.57 8.23 8.98 8.44 9.32C8.66 9.66 8.99 9.89 9.39 9.98C9.49 10.01 9.6 10.02 9.72 10.02C10.42 10.02 11.02 9.54 11.18 8.85C11.4 7.91 11.51 6.92 11.51 6Z" fill="white"/>
</svg>
