<svg width="16" height="16" viewBox="0 0 16 16" fill="none" xmlns="http://www.w3.org/2000/svg">
<g clip-path="url(#clip0)">
<path d="M15 14V10L1 11V14H0V15H16V14H15ZM8.93 7.7C9.25 7.68 9.5 7.4 9.48 7.07C9.45 6.74 9.17 6.5 8.85 6.52C8.53 6.54 8.28 6.83 8.3 7.15C8.32 7.48 8.6 7.72 8.93 7.7ZM11.28 7.53C11.6 7.51 11.85 7.23 11.83 6.9C11.81 6.58 11.53 6.33 11.2 6.35C10.88 6.37 10.63 6.65 10.65 6.98C10.67 7.31 10.95 7.56 11.28 7.53ZM4.23 8.02C4.56 8 4.8 7.72 4.78 7.4C4.76 7.08 4.48 6.83 4.15 6.85C3.82 6.87 3.58 7.15 3.6 7.48C3.62 7.81 3.91 8.05 4.23 8.02ZM10.02 1.09C9.97 0.449996 9.41 -0.0400038 8.76 -3.82215e-06L5.24 0.249996C4.59 0.289996 4.1 0.859996 4.15 1.5L4.31 3.85L1.01 4.08L1.17 6.43L1.9 8.19C2.31 9.19 3.32 9.82 4.41 9.74L11.33 9.26C12.41 9.18 13.33 8.42 13.6 7.37L14.07 5.53H14.09C13.27 4.14 11.8 3.33 10.19 3.44L10.1 2.27L15.97 1.86L15.89 0.689996L10.02 1.09ZM12.83 5.61L12.45 7.07C12.31 7.63 11.82 8.04 11.24 8.08L4.33 8.57C3.75 8.61 3.21 8.28 2.99 7.74L2.41 6.34L12.83 5.61ZM6.58 7.86C6.9 7.84 7.15 7.56 7.13 7.23C7.1 6.91 6.82 6.66 6.5 6.69C6.18 6.72 5.93 6.99 5.95 7.32C5.98 7.64 6.26 7.88 6.58 7.86Z" fill="white"/>
</g>
<defs>
<clipPath id="clip0">
<rect width="16" height="16" fill="white"/>
</clipPath>
</defs>
</svg>
