<svg xmlns="http://www.w3.org/2000/svg" width="15" height="15" viewBox="0 0 15 15">
    <path fill="#FFF" fill-rule="evenodd" d="M11.54 2.459l1.404 1.403-.702.702-1.403-1.404-1.404 1.404 1.404 1.403-.702.703-1.403-1.404L7.329 6.67l1.405 1.402-.702.702L6.628 7.37 5.225 8.774l1.403 1.405-.7.7-1.404-1.403L3.12 10.88l1.404 1.405-.704.701-1.403-1.403-1.71 1.71a1 1 0 0 0 .707 1.707H14a1 1 0 0 0 1-1V1.414a1 1 0 0 0-1.707-.707L11.54 2.459zm.482 6.143v2.42a1 1 0 0 1-1 1h-2.42a1 1 0 0 1-.707-1.707l2.42-2.42a1 1 0 0 1 1.707.707z"/>
</svg>
