<svg width="16" height="16" viewBox="0 0 16 16" fill="none" xmlns="http://www.w3.org/2000/svg">
<path d="M7.11665 4.49314C7.2033 4.17682 7.24957 3.84382 7.24957 3.5C7.24957 3.1523 7.20225 2.81564 7.1137 2.49613H8.88545C8.7969 2.81564 8.74957 3.1523 8.74957 3.5C8.74957 3.84382 8.79584 4.17682 8.88249 4.49314H7.11665Z" fill="white"/>
<path d="M7.11665 4.49314C7.2033 4.17682 7.24957 3.84382 7.24957 3.5C7.24957 3.1523 7.20225 2.81564 7.1137 2.49613H8.88545C8.7969 2.81564 8.74957 3.1523 8.74957 3.5C8.74957 3.84382 8.79584 4.17682 8.88249 4.49314H7.11665Z" fill="white"/>
<path fill-rule="evenodd" clip-rule="evenodd" d="M6.85667 4.49314H6.83145C6.49572 5.61545 5.61544 6.49613 4.49635 6.83463V6.85602C4.18044 6.9497 3.84588 7 3.49957 7C3.1515 7 2.8153 6.94919 2.49797 6.85458V6.82764C1.05614 6.39528 0 5.07626 0 3.49464C0 3.39825 0.00389977 3.30277 0.0115506 3.20836C0.15975 1.41182 1.66479 0 3.49957 0C3.54827 0 3.59674 0.000994583 3.64495 0.00296454C5.16072 0.066411 6.41332 1.10138 6.83145 2.49613H6.85348C6.94852 2.81412 6.99957 3.1511 6.99957 3.5C6.99957 3.84498 6.94966 4.1783 6.85667 4.49314ZM5.02292 1.04431C4.52033 0.685849 3.33029 0.360337 3.05652 0.728785C2.84209 1.01475 3.32134 1.33113 3.78627 1.63804C3.91711 1.72442 4.04683 1.81005 4.15962 1.89404C4.19442 1.91995 4.23142 1.94773 4.27024 1.97687C4.79981 2.37438 5.66818 3.0262 5.92419 2.68385C6.19996 2.3174 5.70037 1.52659 5.02292 1.04431Z" fill="white"/>
<path fill-rule="evenodd" clip-rule="evenodd" d="M6.85667 4.49314H6.83145C6.49572 5.61545 5.61544 6.49613 4.49635 6.83463V6.85602C4.18044 6.9497 3.84588 7 3.49957 7C3.1515 7 2.8153 6.94919 2.49797 6.85458V6.82764C1.05614 6.39528 0 5.07626 0 3.49464C0 3.39825 0.00389977 3.30277 0.0115506 3.20836C0.15975 1.41182 1.66479 0 3.49957 0C3.54827 0 3.59674 0.000994583 3.64495 0.00296454C5.16072 0.066411 6.41332 1.10138 6.83145 2.49613H6.85348C6.94852 2.81412 6.99957 3.1511 6.99957 3.5C6.99957 3.84498 6.94966 4.1783 6.85667 4.49314ZM5.02292 1.04431C4.52033 0.685849 3.33029 0.360337 3.05652 0.728785C2.84209 1.01475 3.32134 1.33113 3.78627 1.63804C3.91711 1.72442 4.04683 1.81005 4.15962 1.89404C4.19442 1.91995 4.23142 1.94773 4.27024 1.97687C4.79981 2.37438 5.66818 3.0262 5.92419 2.68385C6.19996 2.3174 5.70037 1.52659 5.02292 1.04431Z" fill="white"/>
<path d="M2.49797 7.11475C2.81681 7.2029 3.15269 7.25 3.49957 7.25C3.84471 7.25 4.17895 7.20338 4.49635 7.11608V8.88392C4.17895 8.79663 3.84471 8.75 3.49957 8.75C3.15269 8.75 2.81681 8.7971 2.49797 8.88525V7.11475Z" fill="white"/>
<path d="M2.49797 7.11475C2.81681 7.2029 3.15269 7.25 3.49957 7.25C3.84471 7.25 4.17895 7.20338 4.49635 7.11608V8.88392C4.17895 8.79663 3.84471 8.75 3.49957 8.75C3.15269 8.75 2.81681 8.7971 2.49797 8.88525V7.11475Z" fill="white"/>
<path fill-rule="evenodd" clip-rule="evenodd" d="M3.32384 15.9957C1.47113 15.9054 0 14.3762 0 12.5051C0 10.9235 1.05614 9.60347 2.49797 9.17212V9.14542C2.8153 9.05081 3.1515 9 3.49957 9C3.84588 9 4.18044 9.0503 4.49635 9.14398V9.16513C5.61544 9.50262 6.49572 10.3843 6.83145 11.5066H6.8566C6.94964 11.8215 6.99957 12.1549 6.99957 12.5C6.99957 12.8488 6.94855 13.1857 6.85355 13.5036H6.83145C6.3998 14.9425 5.07887 15.9999 3.49716 15.9999C3.43904 15.9999 3.38125 15.9985 3.32384 15.9957ZM4.26443 10.9822C4.79343 11.3799 5.66724 12.037 5.92419 11.6943C6.19996 11.3279 5.70037 10.5371 5.02292 10.0538C4.52033 9.69633 3.33129 9.37082 3.05652 9.73927C2.84252 10.0247 3.31999 10.3397 3.78382 10.6458C3.91558 10.7327 4.04623 10.8189 4.15962 10.9035C4.19268 10.9282 4.22773 10.9546 4.26443 10.9822Z" fill="white"/>
<path fill-rule="evenodd" clip-rule="evenodd" d="M3.32384 15.9957C1.47113 15.9054 0 14.3762 0 12.5051C0 10.9235 1.05614 9.60347 2.49797 9.17212V9.14542C2.8153 9.05081 3.1515 9 3.49957 9C3.84588 9 4.18044 9.0503 4.49635 9.14398V9.16513C5.61544 9.50262 6.49572 10.3843 6.83145 11.5066H6.8566C6.94964 11.8215 6.99957 12.1549 6.99957 12.5C6.99957 12.8488 6.94855 13.1857 6.85355 13.5036H6.83145C6.3998 14.9425 5.07887 15.9999 3.49716 15.9999C3.43904 15.9999 3.38125 15.9985 3.32384 15.9957ZM4.26443 10.9822C4.79343 11.3799 5.66724 12.037 5.92419 11.6943C6.19996 11.3279 5.70037 10.5371 5.02292 10.0538C4.52033 9.69633 3.33129 9.37082 3.05652 9.73927C2.84252 10.0247 3.31999 10.3397 3.78382 10.6458C3.91558 10.7327 4.04623 10.8189 4.15962 10.9035C4.19268 10.9282 4.22773 10.9546 4.26443 10.9822Z" fill="white"/>
<path d="M7.11376 13.5036H8.88538C8.79687 13.1842 8.74957 12.8476 8.74957 12.5C8.74957 12.1561 8.79587 11.823 8.88256 11.5066H7.11658C7.20328 11.823 7.24957 12.1561 7.24957 12.5C7.24957 12.8476 7.20227 13.1842 7.11376 13.5036Z" fill="white"/>
<path d="M7.11376 13.5036H8.88538C8.79687 13.1842 8.74957 12.8476 8.74957 12.5C8.74957 12.1561 8.79587 11.823 8.88256 11.5066H7.11658C7.20328 11.823 7.24957 12.1561 7.24957 12.5C7.24957 12.8476 7.20227 13.1842 7.11376 13.5036Z" fill="white"/>
<path fill-rule="evenodd" clip-rule="evenodd" d="M9.14255 11.5066H9.16755C9.50428 10.3843 10.3806 9.50861 11.5037 9.17212V9.14373C11.8193 9.05021 12.1536 9 12.4996 9C12.848 9 13.1845 9.0509 13.502 9.14567V9.17212C14.8689 9.58104 15.8891 10.7895 15.9915 12.2607C15.9969 12.3398 15.9996 12.4196 15.9996 12.5C15.9996 14.389 14.503 15.9285 12.6309 15.9976C12.5884 15.9991 12.5457 15.9999 12.5028 15.9999C10.9201 15.9999 9.6002 14.9425 9.16855 13.5036H9.14559C9.0506 13.1857 8.99957 12.8488 8.99957 12.5C8.99957 12.1549 9.04951 11.8215 9.14255 11.5066ZM13.2733 10.9844C13.8034 11.3824 14.6744 12.0364 14.9309 11.6943C15.2056 11.3279 14.7061 10.5371 14.0296 10.0538C13.527 9.69633 12.336 9.37082 12.0632 9.73927C11.8487 10.0244 12.3253 10.3391 12.7885 10.6448C12.9206 10.7321 13.0517 10.8186 13.1653 10.9035C13.1993 10.9289 13.2354 10.956 13.2733 10.9844Z" fill="white"/>
<path fill-rule="evenodd" clip-rule="evenodd" d="M9.14255 11.5066H9.16755C9.50428 10.3843 10.3806 9.50861 11.5037 9.17212V9.14373C11.8193 9.05021 12.1536 9 12.4996 9C12.848 9 13.1845 9.0509 13.502 9.14567V9.17212C14.8689 9.58104 15.8891 10.7895 15.9915 12.2607C15.9969 12.3398 15.9996 12.4196 15.9996 12.5C15.9996 14.389 14.503 15.9285 12.6309 15.9976C12.5884 15.9991 12.5457 15.9999 12.5028 15.9999C10.9201 15.9999 9.6002 14.9425 9.16855 13.5036H9.14559C9.0506 13.1857 8.99957 12.8488 8.99957 12.5C8.99957 12.1549 9.04951 11.8215 9.14255 11.5066ZM13.2733 10.9844C13.8034 11.3824 14.6744 12.0364 14.9309 11.6943C15.2056 11.3279 14.7061 10.5371 14.0296 10.0538C13.527 9.69633 12.336 9.37082 12.0632 9.73927C11.8487 10.0244 12.3253 10.3391 12.7885 10.6448C12.9206 10.7321 13.0517 10.8186 13.1653 10.9035C13.1993 10.9289 13.2354 10.956 13.2733 10.9844Z" fill="white"/>
<path d="M13.502 8.88549C13.1829 8.79718 12.8468 8.75 12.4996 8.75C12.1547 8.75 11.8208 8.79654 11.5037 8.88368V7.11632C11.8208 7.20346 12.1547 7.25 12.4996 7.25C12.8468 7.25 13.1829 7.20282 13.502 7.11451V8.88549Z" fill="white"/>
<path d="M13.502 8.88549C13.1829 8.79718 12.8468 8.75 12.4996 8.75C12.1547 8.75 11.8208 8.79654 11.5037 8.88368V7.11632C11.8208 7.20346 12.1547 7.25 12.4996 7.25C12.8468 7.25 13.1829 7.20282 13.502 7.11451V8.88549Z" fill="white"/>
<path fill-rule="evenodd" clip-rule="evenodd" d="M15.9916 3.73738C15.8899 5.21007 14.8694 6.4176 13.502 6.82764V6.85433C13.1845 6.9491 12.848 7 12.4996 7C12.1536 7 11.8193 6.94979 11.5037 6.85627V6.82764C10.3806 6.49214 9.50428 5.61545 9.16855 4.49314H9.14248C9.04948 4.1783 8.99957 3.84498 8.99957 3.5C8.99957 3.1511 9.05062 2.81412 9.14567 2.49613H9.16755C9.58912 1.09317 10.8531 0.0542389 12.3818 0.00194526C12.4209 0.000651817 12.4601 0 12.4996 0C14.4326 0 15.9996 1.567 15.9996 3.5C15.9996 3.57978 15.9969 3.65893 15.9916 3.73738ZM14.0296 1.04431C13.527 0.685849 12.336 0.360337 12.0632 0.728785C11.8486 1.01474 12.3256 1.32971 12.7889 1.6356C12.9209 1.72278 13.0518 1.80922 13.1653 1.89404C13.2011 1.92061 13.2391 1.94913 13.2791 1.97907C13.8097 2.37678 14.6753 3.02557 14.9309 2.68385C15.2056 2.3174 14.7061 1.52659 14.0296 1.04431Z" fill="white"/>
<path fill-rule="evenodd" clip-rule="evenodd" d="M15.9916 3.73738C15.8899 5.21007 14.8694 6.4176 13.502 6.82764V6.85433C13.1845 6.9491 12.848 7 12.4996 7C12.1536 7 11.8193 6.94979 11.5037 6.85627V6.82764C10.3806 6.49214 9.50428 5.61545 9.16855 4.49314H9.14248C9.04948 4.1783 8.99957 3.84498 8.99957 3.5C8.99957 3.1511 9.05062 2.81412 9.14567 2.49613H9.16755C9.58912 1.09317 10.8531 0.0542389 12.3818 0.00194526C12.4209 0.000651817 12.4601 0 12.4996 0C14.4326 0 15.9996 1.567 15.9996 3.5C15.9996 3.57978 15.9969 3.65893 15.9916 3.73738ZM14.0296 1.04431C13.527 0.685849 12.336 0.360337 12.0632 0.728785C11.8486 1.01474 12.3256 1.32971 12.7889 1.6356C12.9209 1.72278 13.0518 1.80922 13.1653 1.89404C13.2011 1.92061 13.2391 1.94913 13.2791 1.97907C13.8097 2.37678 14.6753 3.02557 14.9309 2.68385C15.2056 2.3174 14.7061 1.52659 14.0296 1.04431Z" fill="white"/>
</svg>
