<svg xmlns="http://www.w3.org/2000/svg" width="16" height="16" viewBox="0 0 16 16">
    <g fill="none" fill-rule="evenodd">
        <path fill="#FFF" d="M0 12.922L2.078 15l1.34-.746-2.672-2.672zM9.946 5.054c-1.008-.328-3.584.912-4.603 1.93L1.187 11.14l2.672 2.672 4.157-4.156c1.018-1.02 2.258-3.595 1.93-4.603"/>
        <path fill="#8C8C8C" d="M2.447 11.807l-.44-.442 3.858-3.86c.591-.59 2.594-1.912 3.413-1.716l-.148.609c-.416-.111-2.118.843-2.823 1.549l-3.86 3.86z"/>
        <path fill="#D4D4D4" d="M10 10l3 1-1-3 4 2-2-4h2l-2-2 1-4-4 3-2-3-1 3-3-2v4l1-1h3l1-1 1 2 1-1-.415 1.951L12 7l-1 1z"/>
    </g>
</svg>
