<svg width="16" height="16" viewBox="0 0 16 16" fill="none" xmlns="http://www.w3.org/2000/svg">
<g clip-path="url(#clip0)">
<path fill-rule="evenodd" clip-rule="evenodd" d="M1 0C0.447715 0 0 0.447715 0 1V5C0 5.55228 0.447715 6 1 6H5C5.55228 6 6 5.55228 6 5V1C6 0.447715 5.55228 0 5 0H1ZM13.3505 9.45369L15.825 13.9201C16.342 14.8532 15.6691 16 14.6045 16H10.1504C9.14007 16 8.46425 14.9572 8.87459 14.0314L10.8542 9.56499C11.322 8.5096 12.7911 8.44409 13.3505 9.45369Z" fill="white"/>
<path d="M6.99989 3V2H10.6308C12.6546 2 13.3982 4.66147 11.6674 5.7104L4.35066 10.1448C3.4853 10.6693 3.85708 12 4.86896 12H8.68325L8.23881 13H4.86896C2.84519 13 2.10164 10.3385 3.83236 9.2896L11.1491 4.8552C12.0145 4.33074 11.6427 3 10.6308 3H6.99989Z" fill="#A3A3A3"/>
</g>
<defs>
<clipPath id="clip0">
<rect width="16" height="16" fill="white"/>
</clipPath>
</defs>
</svg>
