<svg xmlns="http://www.w3.org/2000/svg" width="16" height="16" viewBox="0 0 16 16">
    <g fill="none" fill-rule="evenodd">
        <path fill="#666" stroke="#FFF" d="M2.207 8.5l-.834.835a1.5 1.5 0 0 0-.281 1.731l.526 1.052A2.5 2.5 0 0 0 3.854 13.5h7.293a2.5 2.5 0 0 0 2.235-1.381l.527-1.052a1.5 1.5 0 0 0-.281-1.732l-.835-.835H2.207z"/>
        <path fill="#FFF" d="M2 8l-.294.294a1 1 0 0 0 .707 1.707h10.174a1 1 0 0 0 .707-1.707L13 8H2zM3 3v3l3.001 1H11V4L9 3zM11 5.5h5V4h-5z"/>
        <g fill="#FFF">
            <path d="M6 11.5a.5.5 0 1 1-1 0 .5.5 0 0 1 1 0M7.5 11a.5.5 0 1 1 0 1 .5.5 0 0 1 0-1M9.5 11a.5.5 0 1 1 0 1 .5.5 0 0 1 0-1M11.5 11a.5.5 0 1 1 0 1 .5.5 0 0 1 0-1M3.5 11a.5.5 0 1 1 0 1 .5.5 0 0 1 0-1"/>
        </g>
        <path fill="#8C8C8C" fill-rule="nonzero" d="M5 7h5v1H5z"/>
        <path fill="#D4D4D4" fill-rule="nonzero" d="M6 2h2l1 1H5z"/>
    </g>
</svg>
