<svg width="17" height="16" viewBox="0 0 17 16" fill="none" xmlns="http://www.w3.org/2000/svg">
<path d="M6 2H8L9 3H5L6 2Z" fill="white"/>
<path d="M3 3.5V6L4.5005 6.5H11V5.5H16.4334V4H11L10 3.5H3Z" fill="white"/>
<path d="M3.5 11C3.776 11 4 11.224 4 11.5C4 11.776 3.776 12 3.5 12C3.224 12 3 11.776 3 11.5C3 11.224 3.224 11 3.5 11Z" fill="white"/>
<path d="M5.5 12C5.776 12 6 11.776 6 11.5C6 11.224 5.776 11 5.5 11C5.224 11 5 11.224 5 11.5C5 11.776 5.224 12 5.5 12Z" fill="white"/>
<path d="M7.5 11C7.776 11 8 11.224 8 11.5C8 11.776 7.776 12 7.5 12C7.224 12 7 11.776 7 11.5C7 11.224 7.224 11 7.5 11Z" fill="white"/>
<path d="M9.5 11C9.776 11 10 11.224 10 11.5C10 11.776 9.776 12 9.5 12C9.224 12 9 11.776 9 11.5C9 11.224 9.224 11 9.5 11Z" fill="white"/>
<path d="M11.5 11C11.776 11 12 11.224 12 11.5C12 11.776 11.776 12 11.5 12C11.224 12 11 11.776 11 11.5C11 11.224 11.224 11 11.5 11Z" fill="white"/>
<path fill-rule="evenodd" clip-rule="evenodd" d="M10 7H5V8H2.00001L1.0189 8.9816C0.410408 9.59039 0.259684 10.5202 0.644701 11.2901L1.17075 12.3419C1.67898 13.3581 2.71769 14 3.8539 14H11.1465C12.2825 14 13.3211 13.3584 13.8294 12.3424L14.3557 11.2905C14.7411 10.5205 14.5903 9.59025 13.9814 8.98137L13.2972 8.29722L13.2939 8.29389L13 8H10V7ZM12.5868 10.001C12.8776 10.001 13.1209 9.88628 13.295 9.70983C13.582 10.0144 13.6497 10.4669 13.4615 10.8431L12.9351 11.895C12.5962 12.5722 11.9039 13 11.1465 13H3.8539C3.09643 13 2.40396 12.5721 2.06514 11.8946L1.53908 10.8428C1.35105 10.4668 1.41858 10.0145 1.70536 9.70999C1.87942 9.88635 2.12274 10.001 2.41338 10.001H12.5868Z" fill="white"/>
</svg>
