<svg width="16" height="16" viewBox="0 0 16 16" fill="none" xmlns="http://www.w3.org/2000/svg">
<path d="M14.1124 4.63311L11.304 7.44146C10.8969 7.84862 10.2392 7.84862 9.82156 7.44146L8.55833 6.16779C8.15117 5.76063 8.15117 5.10291 8.55833 4.68531L11.3667 1.87696C11.6903 1.55332 11.4502 1 10.9908 1H8.9968C8.58965 1 8.18249 1.16704 7.89017 1.45936L6.05273 3.29679C5.76041 3.58911 5.60381 3.98583 5.60381 4.40343V7.00298L1.96026 10.1454C0.749228 11.1894 0.676148 13.0582 1.8141 14.1857C2.95206 15.3132 4.81038 15.2506 5.85437 14.0395L8.9968 10.396H11.5964C12.014 10.396 12.4107 10.2289 12.703 9.93662L14.5404 8.09918C14.8327 7.80686 14.9998 7.41014 14.9998 6.99254V5.00895C14.9998 4.53915 14.436 4.30947 14.1124 4.63311ZM4.02738 13.4444C3.62022 13.8516 2.9625 13.8516 2.55534 13.4444C2.14818 13.0373 2.14818 12.3796 2.55534 11.9724C2.9625 11.5653 3.62022 11.5653 4.02738 11.9724C4.43454 12.3796 4.43454 13.0373 4.02738 13.4444Z" fill="white"/>
</svg>
