<svg width="16" height="16" viewBox="0 0 16 16" fill="none" xmlns="http://www.w3.org/2000/svg">
<path fill-rule="evenodd" clip-rule="evenodd" d="M4.34245 3.01047H0.653438L0.534793 1.4652C0.512687 1.17728 0.616332 0.893876 0.819023 0.687986L1.49647 0H3.49647L4.17599 0.687681C4.37955 0.893693 4.48369 1.17777 4.46145 1.46642L4.34245 3.01047ZM1.18949 9.992L0.730159 4.00967H4.26545L3.80441 9.992H1.18949ZM8.51675 9.992L9.63173 8.99517L11.0459 7.58212L8.92462 5.46248L7.51041 6.87553L4.71976 9.992H8.51675ZM12.6662 5.42139V5.42138V5.42136C12.6701 4.9009 12.6745 4.29123 13.9548 3.71974C12.0412 3.00791 10.8987 3.59276 10.3137 4.15231C9.72927 4.71131 9.91264 5.44626 10.4999 6.008C11.0872 6.56969 11.819 6.78009 12.44 6.18608C12.6622 5.97355 12.6641 5.71131 12.6662 5.42139Z" fill="white"/>
<path fill-rule="evenodd" clip-rule="evenodd" d="M2 11.004C0.895431 11.004 0 11.8987 0 13.0024V14.0016C0 15.1053 0.895431 16 2 16H14C15.1046 16 16 15.1053 16 14.0016V13.0024C16 11.8987 15.1046 11.004 14 11.004H2ZM2 14.5012C2.55228 14.5012 3 14.0538 3 13.502C3 12.9502 2.55228 12.5028 2 12.5028C1.44772 12.5028 1 12.9502 1 13.502C1 14.0538 1.44772 14.5012 2 14.5012Z" fill="#E0E0E0"/>
</svg>
