<?xml version="1.0" encoding="UTF-8" standalone="no"?>
<svg
   xmlns:dc="http://purl.org/dc/elements/1.1/"
   xmlns:cc="http://creativecommons.org/ns#"
   xmlns:rdf="http://www.w3.org/1999/02/22-rdf-syntax-ns#"
   xmlns:svg="http://www.w3.org/2000/svg"
   xmlns="http://www.w3.org/2000/svg"
   id="svg8"
   version="1.1"
   viewBox="0 0 4.2333332 4.2333334"
   height="16"
   width="16">
  <defs
     id="defs2" />
  <metadata
     id="metadata5">
    <rdf:RDF>
      <cc:Work
         rdf:about="">
        <dc:format>image/svg+xml</dc:format>
        <dc:type
           rdf:resource="http://purl.org/dc/dcmitype/StillImage" />
        <dc:title></dc:title>
      </cc:Work>
    </rdf:RDF>
  </metadata>
  <g
     id="layer1">
    <g
       style="font-style:normal;font-weight:normal;font-size:10.5465px;line-height:1.25;font-family:sans-serif;letter-spacing:0px;word-spacing:0px;fill:#000000;fill-opacity:1;stroke:none;stroke-width:0.263663"
       id="text832"
       transform="scale(0.99652193,1.0034902)"
       aria-label="( )">
      <path
         id="path1970"
         style="font-style:normal;font-variant:normal;font-weight:normal;font-stretch:normal;font-size:4.57016px;font-family:sans-serif;-inkscape-font-specification:'sans-serif, Normal';font-variant-ligatures:normal;font-variant-caps:normal;font-variant-numeric:normal;font-variant-east-asian:normal;fill:#ffcc00;stroke-width:0.263663"
         d="M 1.0294921,0.07415548 Q 0.73046799,0.58740586 0.58541897,1.0894986 0.44036995,1.5915914 0.44036995,2.1070733 q 0,0.5154819 0.14504902,1.0220377 0.14728054,0.5043243 0.44407313,1.0153432 H 0.67244838 Q 0.33771987,3.6200462 0.17035562,3.1134903 0.00522289,2.6069345 0.00522289,2.1070733 q 0,-0.4976297 0.16513273,-1.001954 Q 0.33548835,0.600795 0.67244838,0.07415548 Z" />
      <path
         id="path1972"
         style="font-style:normal;font-variant:normal;font-weight:normal;font-stretch:normal;font-size:4.57016px;font-family:sans-serif;-inkscape-font-specification:'sans-serif, Normal';font-variant-ligatures:normal;font-variant-caps:normal;font-variant-numeric:normal;font-variant-east-asian:normal;fill:#ffcc00;stroke-width:0.263663"
         d="M 3.2186165,0.07415548 H 3.5756603 Q 3.9103888,0.600795 4.0755215,1.1051193 q 0.1673643,0.5043243 0.1673643,1.001954 0,0.4998612 -0.1673643,1.006417 Q 3.9103888,3.6200462 3.5756603,4.1444542 H 3.2186165 Q 3.5154091,3.6334353 3.6604581,3.129111 3.8077387,2.6225552 3.8077387,2.1070733 q 0,-0.5154819 -0.1472806,-1.0175747 Q 3.5154091,0.58740586 3.2186165,0.07415548 Z" />
    </g>
  </g>
</svg>
