<?xml version="1.0" encoding="UTF-8" standalone="no"?>
<svg
   xmlns:dc="http://purl.org/dc/elements/1.1/"
   xmlns:cc="http://creativecommons.org/ns#"
   xmlns:rdf="http://www.w3.org/1999/02/22-rdf-syntax-ns#"
   xmlns:svg="http://www.w3.org/2000/svg"
   xmlns="http://www.w3.org/2000/svg"
   id="svg8"
   version="1.1"
   viewBox="0 0 4.2333332 4.2333334"
   height="16"
   width="16">
  <defs
     id="defs2" />
  <metadata
     id="metadata5">
    <rdf:RDF>
      <cc:Work
         rdf:about="">
        <dc:format>image/svg+xml</dc:format>
        <dc:type
           rdf:resource="http://purl.org/dc/dcmitype/StillImage" />
        <dc:title></dc:title>
      </cc:Work>
    </rdf:RDF>
  </metadata>
  <g
     id="layer1">
    <g
       style="font-style:normal;font-weight:normal;font-size:10.0329px;line-height:1.25;font-family:sans-serif;letter-spacing:0px;word-spacing:0px;fill:#d40000;fill-opacity:1;stroke:none;stroke-width:0.250824"
       id="text832"
       transform="scale(0.94799705,1.0548556)"
       aria-label="{}">
      <path
         id="path1978"
         style="font-style:normal;font-variant:normal;font-weight:normal;font-stretch:normal;font-size:4.34762px;font-family:sans-serif;-inkscape-font-specification:'sans-serif, Normal';font-variant-ligatures:normal;font-variant-caps:normal;font-variant-numeric:normal;font-variant-east-asian:normal;fill:#d40000;stroke-width:0.250824"
         d="m 1.6882638,3.7070057 v 0.305692 H 1.5566464 q -0.5285925,0 -0.7090357,-0.1570917 Q 0.66929034,3.6985143 0.66929034,3.2293619 V 2.7219981 q 0,-0.3205521 -0.11463451,-0.4436781 Q 0.44002132,2.1551941 0.13857501,2.1551941 H 0.00908047 V 1.8516249 h 0.12949454 q 0.30356917,0 0.41608082,-0.1210031 Q 0.66929034,1.6074959 0.66929034,1.2911895 V 0.7817028 q 0,-0.46915236 0.17832036,-0.62412123 Q 1.0280539,4.8982725e-4 1.5566464,4.8982725e-4 H 1.6882638 V 0.304059 H 1.5439092 q -0.2993234,0 -0.3906065,0.0934059 -0.091283,0.0934059 -0.091283,0.39272934 V 1.3166639 q 0,0.3332892 -0.0976516,0.4840123 -0.0955288,0.1507232 -0.32904351,0.2037947 0.23563761,0.057317 0.33116637,0.2080404 0.0955288,0.1507232 0.0955288,0.4818896 v 0.5264696 q 0,0.2993234 0.091283,0.3927293 0.091283,0.093406 0.3906065,0.093406 z" />
      <path
         id="path1980"
         style="font-style:normal;font-variant:normal;font-weight:normal;font-stretch:normal;font-size:4.34762px;font-family:sans-serif;-inkscape-font-specification:'sans-serif, Normal';font-variant-ligatures:normal;font-variant-caps:normal;font-variant-numeric:normal;font-variant-east-asian:normal;fill:#d40000;stroke-width:0.250824"
         d="m 2.7772916,3.7070057 h 0.1486003 q 0.2972006,0 0.3863608,-0.091283 0.091283,-0.091283 0.091283,-0.3948522 V 2.6944009 q 0,-0.3311664 0.095529,-0.4818896 Q 3.5945932,2.0617882 3.8302308,2.0044709 3.5945932,1.9513994 3.4990644,1.8006762 3.4035357,1.6499531 3.4035357,1.3166639 V 0.79019424 q 0,-0.30144631 -0.091283,-0.39272934 Q 3.2230925,0.304059 2.9258919,0.304059 H 2.7772916 V 4.8982725e-4 h 0.1337403 q 0.5285924,0 0.7047899,0.15709174275 0.1783204,0.15496887 0.1783204,0.62412123 v 0.5094867 q 0,0.3163064 0.1146345,0.4394323 0.1146345,0.1210031 0.4160808,0.1210031 H 4.4564749 V 2.1551941 H 4.3248575 q -0.3014463,0 -0.4160808,0.1231259 -0.1146345,0.123126 -0.1146345,0.4436781 v 0.5073638 q 0,0.4691524 -0.1783204,0.6262441 Q 3.4396243,4.0126977 2.9110319,4.0126977 H 2.7772916 Z" />
    </g>
  </g>
</svg>
