<?xml version="1.0" encoding="UTF-8" standalone="no"?>
<svg
   xmlns:dc="http://purl.org/dc/elements/1.1/"
   xmlns:cc="http://creativecommons.org/ns#"
   xmlns:rdf="http://www.w3.org/1999/02/22-rdf-syntax-ns#"
   xmlns:svg="http://www.w3.org/2000/svg"
   xmlns="http://www.w3.org/2000/svg"
   xmlns:sodipodi="http://sodipodi.sourceforge.net/DTD/sodipodi-0.dtd"
   xmlns:inkscape="http://www.inkscape.org/namespaces/inkscape"
   inkscape:export-ydpi="96"
   inkscape:export-xdpi="96"
   inkscape:export-filename="D:\branches\unifiededitor_6.5.2\game\bin\tools\unifiededitor\resources\images\asset_root_viewer\panel.png"
   inkscape:version="1.0 (4035a4fb49, 2020-05-01)"
   id="svg8"
   version="1.1"
   viewBox="0 0 4.2333332 4.2333334"
   height="16"
   width="16"
   sodipodi:docname="panel.svg">
  <defs
     id="defs2" />
  <sodipodi:namedview
     units="px"
     inkscape:pagecheckerboard="true"
     inkscape:showpageshadow="false"
     showborder="true"
     showgrid="false"
     inkscape:document-rotation="0"
     inkscape:current-layer="layer1"
     inkscape:document-units="px"
     inkscape:cy="-48.038927"
     inkscape:cx="-63.49391"
     inkscape:zoom="5.6568543"
     inkscape:pageshadow="2"
     inkscape:pageopacity="0.0"
     borderopacity="1.0"
     bordercolor="#666666"
     pagecolor="#ffffff"
     id="base"
     inkscape:snap-text-baseline="false"
     inkscape:window-width="1920"
     inkscape:window-height="1017"
     inkscape:window-x="-8"
     inkscape:window-y="-8"
     inkscape:window-maximized="1" />
  <metadata
     id="metadata5">
    <rdf:RDF>
      <cc:Work
         rdf:about="">
        <dc:format>image/svg+xml</dc:format>
        <dc:type
           rdf:resource="http://purl.org/dc/dcmitype/StillImage" />
        <dc:title></dc:title>
      </cc:Work>
    </rdf:RDF>
  </metadata>
  <g
     id="layer1"
     inkscape:groupmode="layer"
     inkscape:label="Слой 1">
    <path
       sodipodi:nodetypes="cczsssscczcsccssc"
       transform="scale(0.26458333)"
       d="M 13.149002,0.0105588 C 6.267432,0.01149542 3.3816626,-0.01008289 3.3816626,-0.01008289 3.5057087,2.4346975 3.3340117,7.1416541 3.0731148,8.4512163 2.8122179,9.7607785 1.4401711,10.148181 0.93506762,12.083373 0.37764868,14.219 0.5297849,15.988413 0.60941748,16.008609 0.88372082,16.078178 2.0130405,13.235261 2.4124877,12.406718 3.0255924,11.135001 3.4989337,11.035543 4.3508591,9.837257 5.0132724,8.9055317 4.9468306,6.3827708 6.0994226,6.4008278 c 1.0584737,0.2311743 0.4846046,3.594252 0.1879897,5.0502132 -0.361711,1.904353 3.9426577,4.464914 4.3265287,4.465708 0.383871,7.94e-4 -2.9347322,-2.700765 -2.1480697,-4.302756 0.6885412,-2.5276779 1.2086005,-4.8850601 1.7807977,-4.7794828 0.662616,0.1222607 1.571376,3.5821638 2.275104,5.3724688 0.703071,1.917471 2.839809,3.785001 3.439122,3.796927 -0.673717,-1.626378 -1.524392,-2.47818 -1.976333,-3.821725 -0.529801,-1.575009 -0.616901,-3.6035872 -0.80255,-5.0252143 -0.29354,-2.2478222 -0.06234,-4.4626405 -0.03301,-7.1464079 z"
       style="fill:#000000;stroke:none;stroke-width:1.15661;stroke-linecap:round;stroke-linejoin:round;stroke-dasharray:3.46984, 1.15661;stroke-opacity:0.829545"
       id="rect1983" />
  </g>
</svg>
