<svg width="16" height="16" xmlns="http://www.w3.org/2000/svg">

 <g>
  <title>background</title>
  <rect fill="none" id="canvas_background" height="18" width="18" y="-1" x="-1"/>
 </g>
 <g>
  <title>Layer 1</title>
  <path fill="#aad4ff" id="svg_1" d="m14.436105,1.55761l-12.824811,0c-0.644155,0 -1.165892,0.521737 -1.165892,1.165892l0,10.493028c0,0.644156 0.521737,1.165892 1.165892,1.165892l12.824811,0c0.644156,0 1.165893,-0.521736 1.165893,-1.165892l0,-10.493028c0,-0.644156 -0.521737,-1.165892 -1.165893,-1.165892zm0,2.91473l-1.748837,0l0,-1.748837l1.748837,0l0,1.748837zm0,2.91473l-1.748837,0l0,-1.748838l1.748837,0l0,1.748838zm-2.623257,1.165892l-7.578297,0c-0.160893,0 -0.291473,-0.13058 -0.291473,-0.291471l0,0c0,-0.160893 0.13058,-0.291473 0.291473,-0.291473l7.578297,0c0.160892,0 0.291473,0.13058 0.291473,0.291473l0,0c0,0.160892 -0.130581,0.291471 -0.291473,0.291471zm2.623257,1.748838l-1.748837,0l0,-1.748838l1.748837,0l0,1.748838zm0,2.91473l-1.748837,0l0,-1.748838l1.748837,0l0,1.748838zm-11.075973,-8.74419l-1.748837,0l0,-1.748837l1.748837,0l0,1.748837zm0,2.91473l-1.748837,0l0,-1.748838l1.748837,0l0,1.748838zm0,2.91473l-1.748837,0l0,-1.748838l1.748837,0l0,1.748838zm0,2.91473l-1.748837,0l0,-1.748838l1.748837,0l0,1.748838z"/>
 </g>
</svg>