<?xml version="1.0" encoding="UTF-8"?>
<svg width="16px" height="16px" viewBox="0 0 16 16" version="1.1" xmlns="http://www.w3.org/2000/svg" xmlns:xlink="http://www.w3.org/1999/xlink">
    <!-- Generator: Sketch 55.2 (78181) - https://sketchapp.com -->
    <title>axis 16x16</title>
    <desc>Created with Sketch.</desc>
    <g id="Icons-(read-only)" stroke="none" stroke-width="1" fill="none" fill-rule="evenodd">
        <g id="InGUI-Icons" transform="translate(-972.000000, -2762.000000)">
            <g id="road-points-copy-7" transform="translate(560.000000, 2688.000000)">
                <rect id="icon-bg-copy-36" x="360" y="22" width="120" height="120"></rect>
                <g id="Icons/16x16/Axis" transform="translate(412.000000, 74.000000)">
                    <polygon id="Fill-1" fill="#00C100" points="8.4996 -0.0003 5.4996 3.0007 7.4996 3.0007 7.4996 7.9997 8.4996 8.9997 9.5006 7.9997 9.5006 3.0007 11.5006 3.0007"></polygon>
                    <polygon id="Fill-2" fill="#0098FF" points="7.7922 9.708 11.7202 13.279 10.0002 15 15.0002 15 15.0002 10 13.1362 11.864 9.2082 8.292 7.4992 8"></polygon>
                    <polygon id="Fill-3" fill="#FF041D" points="0 8.9997 3 12.0007 3 9.9997 7.5 9.9997 8.5 8.9997 7.5 7.9997 3 7.9997 3 5.9997"></polygon>
                </g>
            </g>
        </g>
    </g>
</svg>