<?xml version="1.0" encoding="UTF-8"?>
<svg width="16px" height="16px" viewBox="0 0 16 16" version="1.1" xmlns="http://www.w3.org/2000/svg" xmlns:xlink="http://www.w3.org/1999/xlink">
    <!-- Generator: Sketch 55.2 (78181) - https://sketchapp.com -->
    <title>cyllindic trigger area 16x16</title>
    <desc>Created with Sketch.</desc>
    <g id="Icons-(read-only)" stroke="none" stroke-width="1" fill="none" fill-rule="evenodd">
        <g id="InGUI-Icons" transform="translate(-972.000000, -2524.000000)">
            <g id="road-points-copy-5" transform="translate(560.000000, 2450.000000)">
                <rect id="icon-bg-copy-36" x="360" y="22" width="120" height="120"></rect>
                <g id="Icons/16x16/Trigger-Area-Cyllindric" transform="translate(412.000000, 74.000000)" fill="#00C7C9">
                    <path d="M12.975,11.522 C12.975,11.246 12.751,11.022 12.475,11.022 C12.2,11.022 11.975,11.246 11.975,11.522 C11.975,11.798 12.2,12.022 12.475,12.022 C12.751,12.022 12.975,11.798 12.975,11.522 Z M11.258,10.835 C11.258,10.559 11.034,10.335 10.758,10.335 C10.482,10.335 10.258,10.559 10.258,10.835 C10.258,11.112 10.482,11.335 10.758,11.335 C11.034,11.335 11.258,11.112 11.258,10.835 Z M9.435,10.508 C9.435,10.232 9.211,10.008 8.935,10.008 C8.659,10.008 8.435,10.232 8.435,10.508 C8.435,10.785 8.659,11.008 8.935,11.008 C9.211,11.008 9.435,10.785 9.435,10.508 Z M6.55,10.542 C6.55,10.818 6.774,11.042 7.05,11.042 C7.327,11.042 7.55,10.818 7.55,10.542 C7.55,10.265 7.327,10.042 7.05,10.042 C6.774,10.042 6.55,10.265 6.55,10.542 Z M4.727,10.835 C4.727,11.112 4.951,11.335 5.227,11.335 C5.502,11.335 5.727,11.112 5.727,10.835 C5.727,10.559 5.502,10.335 5.227,10.335 C4.951,10.335 4.727,10.559 4.727,10.835 Z M3.013,11.496 C3.013,11.772 3.237,11.996 3.513,11.996 C3.789,11.996 4.013,11.772 4.013,11.496 C4.013,11.22 3.789,10.996 3.513,10.996 C3.237,10.996 3.013,11.22 3.013,11.496 Z M3,3 C3,2.055 5.139,1 8,1 C10.862,1 13,2.055 13,3 C13,3.944 10.862,5 8,5 C5.139,5 3,3.944 3,3 Z M13,13 C13,13.944 10.862,15 8,15 C5.139,15 3,13.944 3,13 L3,4.703 C4.057,5.497 5.865,6 8,6 C10.136,6 11.944,5.497 13,4.703 L13,13 Z M2,3 L2,13.085 L2.008,13.085 C2.094,14.751 4.638,16 8,16 C11.363,16 13.907,14.751 13.993,13.085 L14,13.085 L14,3 C14,1.29 11.421,0 8,0 C4.579,0 2,1.29 2,3 Z" id="Fill-1"></path>
                </g>
            </g>
        </g>
    </g>
</svg>