<?xml version="1.0" encoding="UTF-8"?>
<svg width="13px" height="16px" viewBox="0 0 13 16" version="1.1" xmlns="http://www.w3.org/2000/svg" xmlns:xlink="http://www.w3.org/1999/xlink">
    <!-- Generator: Sketch 57.1 (83088) - https://sketch.com -->
    <title>Icons/16x16/Tank/Function Copy 10</title>
    <desc>Created with Sketch.</desc>
    <g id="Icons-(read-only)" stroke="none" stroke-width="1" fill="none" fill-rule="evenodd">
        <g id="Icons-for-Toolbar" transform="translate(-274.000000, -1722.000000)" fill-rule="nonzero">
            <g id="Icons/16x16/Death" transform="translate(273.000000, 1722.000000)">
                <path d="M7.5,0 C8.42369,0 9.21611,0.0925235 9.89593,0.263953 L11,1 L12,2 L13,4 L13.5,7 L13.5,8 L13,10 L11,11 L9.5,12 L9.5,13.5 L9,13.5 C9,13.2239 8.77615,13 8.5,13 C8.22385,13 8,13.2239 8,13.5 L8,15.5 C8,15.7761 7.77615,16 7.5,16 C7.22385,16 7,15.7761 7,15.5 L7,13.5 C7,13.2239 6.77615,13 6.5,13 C6.22385,13 6,13.2239 6,13.5 L5.5,13.5 L5.5,12 L4,11 L2,10 L1.5,8 L1.5,7 L2,4 L3,2 L4,1 L5.10407,0.263953 C5.78389,0.0925235 6.57631,0 7.5,0 Z M7.5,9 L6,11 L9,11 L7.5,9 Z M4.5,7 C3.67157,7 3,7.67157 3,8.5 C3,9.32843 3.67157,10 4.5,10 C5.32843,10 6,8.82843 6,8 C6,7.17157 5.32843,7 4.5,7 Z M10.5,7 C9.67157,7 9,7.17157 9,8 C9,8.82843 9.67157,10 10.5,10 C11.3284,10 12,9.32843 12,8.5 C12,7.67157 11.3284,7 10.5,7 Z" id="Combined-Shape" fill="#FFFFFF"></path>
                <path d="M9.76713,0.223938 C13.8260772,1.17146952 13.9884351,4.85053865 13.9949294,8.53031218 L13.9952,8.99009 C13.9952,9.25236 13.985,9.5117 13.9649,9.76743 C13.9058,10.5226 13.3278,11.112 12.5954,11.305 L12.5954,11.305 L10.74043,11.7937 C10.30127,11.9095 9.99523,12.3066 9.99523,12.7607 L9.99523,12.7607 L9.99523,14.4901 C9.99523,14.7662 9.77137,14.9901 9.49523,14.9901 C9.48989,14.9901 9.48457,14.9901 9.47926,14.9898 C9.21059,14.9812 8.99552,14.7606 8.99584962,14.4898 L8.99584962,14.4898 L8.99941,11.5794 C8.99985,11.221 9.19207,10.8902 9.50326,10.7124 L9.50326,10.7124 L10.8053342,9.96890013 C11.1208807,9.90364475 11.4001789,9.73926822 11.6092215,9.50977201 C12.1685144,9.18846224 12.5409428,8.61883043 12.5758,7.97533 C12.6221,7.12153 12.6475,5.90338 12.5,4.99999 C12.3703,4.20542 12.2414,3.56836 12,2.99999 C11.4981,1.81797 10.30243,0.689764 9.76713,0.223938 Z" id="Combined-Shape" fill="#BDBDBD"></path>
                <path d="M5.22871,0.233826 C4.69341,0.699652 3.49777,1.82786 2.99584,3.00988 C2.75448,3.57825 2.62556,4.21531 2.49584,5.00988 C2.34835,5.91327 2.37371,7.13141 2.42,7.98522 C2.45492,8.62951 2.82821,9.19975 3.38842,9.51988 L3.41761061,9.53848148 C3.61448133,9.74362321 3.86910595,9.89291402 4.15534637,9.96021581 L5.49258,10.7223 C5.80377,10.9001 5.99599,11.2309 5.99643,11.5893 L5.99999038,14.4997 C6.00032,14.7704 5.78525,14.9911 5.51657,14.9997 C5.51127,15 5.50595,15 5.50061035,15 C5.22446,15 5.00061035,14.7761 5.00061035,14.5 L5.00061035,12.7706 C5.00061035,12.3165 4.69457,11.9193 4.25541,11.8036 L2.40046,11.3149 C1.668022,11.1219 1.090065,10.5324 1.030899,9.77732 C1.0108643,9.52158 1.00061035,9.26225 1.00061035,8.99998 L1.00152362,8.31024185 C1.01583151,4.70831853 1.25429633,1.16160976 5.22871,0.233826 Z" id="Combined-Shape" fill="#E6E6E6"></path>
            </g>
        </g>
    </g>
</svg>