<svg width="16" height="16" xmlns="http://www.w3.org/2000/svg">

 <g>
  <title>background</title>
  <rect fill="none" id="canvas_background" height="18" width="18" y="-1" x="-1"/>
 </g>
 <g>
  <title>Layer 1</title>
  <path fill="#63b763" id="svg_1" d="m5.350988,12.127603q0,-0.480209 -0.350919,-0.831125t-0.831126,-0.35092t-0.831125,0.35092t-0.350918,0.831125t0.350918,0.831123t0.831125,0.350922t0.831126,-0.350922t0.350919,-0.831123zm-3.546134,-4.728182l3.546134,0l0,-2.364086l-1.459086,0q-0.120051,0 -0.203164,0.08311l-1.800771,1.800773q-0.083112,0.083109 -0.083112,0.203161l0,0.277042zm11.820448,4.728182q0,-0.480209 -0.350922,-0.831125t-0.831124,-0.35092t-0.831125,0.35092t-0.350918,0.831125t0.350918,0.831123t0.831125,0.350922t0.831124,-0.350922t0.350922,-0.831123zm2.364088,-10.047383l0,9.456362q0,0.138521 -0.036936,0.244715t-0.12467,0.170847t-0.152374,0.106195t-0.217016,0.05541t-0.207781,0.018469t-0.235483,0t-0.207783,-0.004616q0,0.978878 -0.692605,1.671486t-1.671486,0.692602t-1.671482,-0.692602t-0.692606,-1.671486l-3.546134,0q0,0.978878 -0.692605,1.671486t-1.671486,0.692602t-1.671485,-0.692602t-0.692604,-1.671486l-0.591023,0q-0.027703,0 -0.207781,0.004616t-0.235486,0t-0.207781,-0.018469t-0.217017,-0.05541t-0.152372,-0.106195t-0.124669,-0.170847t-0.036939,-0.244715q0,-0.240105 0.17546,-0.415567t0.415563,-0.175457l0,-2.955112q0,-0.073881 -0.004618,-0.323218t0,-0.350916t0.023087,-0.318602t0.060026,-0.341681t0.129286,-0.281659t0.20778,-0.277042l1.828475,-1.828476q0.175461,-0.175463 0.466354,-0.295509t0.540232,-0.120053l1.477556,0l0,-1.77307q0,-0.240104 0.175459,-0.415562t0.415564,-0.175458l9.456356,0q0.240105,0 0.415566,0.175458t0.175457,0.415562z"/>
 </g>
</svg>