<?xml version="1.0" encoding="UTF-8"?>
<svg width="16px" height="16px" viewBox="0 0 16 16" version="1.1" xmlns="http://www.w3.org/2000/svg" xmlns:xlink="http://www.w3.org/1999/xlink">
    <!-- Generator: Sketch 59.1 (86144) - https://sketch.com -->
    <title>Explosion</title>
    <desc>Created with Sketch.</desc>
    <g id="Icons-(read-only)" stroke="none" stroke-width="1" fill="none" fill-rule="evenodd">
        <g id="Icons-for-Toolbar" transform="translate(-656.000000, -1818.000000)">
            <g id="Icons/16x16/Explosion" transform="translate(656.000000, 1818.000000)">
                <g id="Group-4">
                    <polygon id="Fill-1" fill="#DF341D" points="6.0003 -0.0002 5.0003 6.9998 0.0003 4.0008 2.9993 12.0008 0.0003 13.0008 2.9993 15.9998 10.9993 15.9998 16.0003 13.9998 11.9993 10.9998 15.0003 3.0008 9.0003 6.9998"></polygon>
                    <polygon id="Fill-2" fill="#CA9F69" points="8.3439 10.9375 6.9999 7.9995 5.9999 10.9995 2.9999 7.9995 4.3769 12.6695 1.9999 13.0005 4.9999 15.9995 9.4689 15.9995 11.9999 14.0005 10.0309 13.1875 10.9999 7.9995"></polygon>
                    <polygon id="Fill-3" fill="#F0DC00" points="7.4997 13.0777 4.7417 11.2117 6.2647 14.0007 5.0007 14.0007 6.2987 15.9997 8.5607 15.9537 9.9997 14.0007 8.7957 14.0007 9.3977 10.9997"></polygon>
                </g>
            </g>
        </g>
    </g>
</svg>