<?xml version="1.0" encoding="UTF-8"?>
<svg width="16px" height="15px" viewBox="0 0 16 15" version="1.1" xmlns="http://www.w3.org/2000/svg" xmlns:xlink="http://www.w3.org/1999/xlink">
    <!-- Generator: Sketch 59.1 (86144) - https://sketch.com -->
    <title>ExplosionRecivier</title>
    <desc>Created with Sketch.</desc>
    <g id="Icons-(read-only)" stroke="none" stroke-width="1" fill="none" fill-rule="evenodd">
        <g id="Icons-for-Toolbar" transform="translate(-560.000000, -1818.000000)">
            <g id="Icons/16x16/ExplosionRecivier" transform="translate(560.000000, 1818.000000)">
                <g id="Group-15">
                    <path d="M14.999,5.5 L1.001,5.5 C0.448,5.5 0,5.948 0,6.501 L0,8.499 C0,9.052 0.448,9.5 1.001,9.5 L14.999,9.5 C15.552,9.5 16,9.052 16,8.499 L16,6.501 C16,5.948 15.552,5.5 14.999,5.5 M14.999,10.5 L1.001,10.5 C0.448,10.5 0,10.948 0,11.501 L0,13.499 C0,14.052 0.448,14.5 1.001,14.5 L14.999,14.5 C15.552,14.5 16,14.052 16,13.499 L16,11.501 C16,10.948 15.552,10.5 14.999,10.5 M14.999,0.5 L1.001,0.5 C0.448,0.5 0,0.948 0,1.501 L0,3.499 C0,4.052 0.448,4.5 1.001,4.5 L14.999,4.5 C15.552,4.5 16,4.052 16,3.499 L16,1.501 C16,0.948 15.552,0.5 14.999,0.5" id="Fill-1" fill="#B32E24"></path>
                    <path d="M12.0049,15 L10.9949,15 C10.7219,15 10.4999,14.778 10.4999,14.505 L10.4999,0.495 C10.4999,0.222 10.7219,0 10.9949,0 L12.0049,0 C12.2779,0 12.4999,0.222 12.4999,0.495 L12.4999,14.505 C12.4999,14.778 12.2779,15 12.0049,15" id="Fill-3" fill="#CDC48C"></path>
                    <path d="M4.5049,15 L3.4949,15 C3.2219,15 2.9999,14.778 2.9999,14.505 L2.9999,0.495 C2.9999,0.222 3.2219,0 3.4949,0 L4.5049,0 C4.7779,0 4.9999,0.222 4.9999,0.495 L4.9999,14.505 C4.9999,14.778 4.7779,15 4.5049,15" id="Fill-5" fill="#CDC48C"></path>
                    <path d="M15.5,7.5 C15.5,9.709 13.709,11.5 11.5,11.5 C9.291,11.5 7.5,9.709 7.5,7.5 C7.5,5.291 9.291,3.5 11.5,3.5 C13.709,3.5 15.5,5.291 15.5,7.5" id="Fill-7" fill="#3C89C9"></path>
                    <path d="M14.9912,5.585 C14.3102,4.348 13.0122,3.5 11.5002,3.5 C9.2912,3.5 7.5002,5.291 7.5002,7.5 C7.5002,8.078 7.6282,8.623 7.8482,9.119 C8.5942,9.666 9.5052,10 10.5002,10 C12.9562,10 14.9452,8.03 14.9912,5.585" id="Fill-9" fill="#A1C9EC"></path>
                    <path d="M15.5,7.5 C15.5,9.709 13.709,11.5 11.5,11.5 C9.291,11.5 7.5,9.709 7.5,7.5 C7.5,5.291 9.291,3.5 11.5,3.5 C13.709,3.5 15.5,5.291 15.5,7.5 Z" id="Stroke-11" stroke="#272038"></path>
                    <line x1="12.9141" y1="6.0859" x2="11.5001" y2="7.4999" id="Stroke-13" stroke="#000000" stroke-linecap="round"></line>
                </g>
            </g>
        </g>
    </g>
</svg>