<?xml version="1.0" encoding="UTF-8"?>
<svg width="16px" height="14px" viewBox="0 0 16 14" version="1.1" xmlns="http://www.w3.org/2000/svg" xmlns:xlink="http://www.w3.org/1999/xlink">
    <!-- Generator: Sketch 57.1 (83088) - https://sketch.com -->
    <title>Icons/16x16/Tank/Function Copy 7</title>
    <desc>Created with Sketch.</desc>
    <g id="Icons-(read-only)" stroke="none" stroke-width="1" fill="none" fill-rule="evenodd">
        <g id="Icons-for-Toolbar" transform="translate(-81.000000, -1723.000000)">
            <g id="Icons/16x16/Health" transform="translate(81.000000, 1722.000000)">
                <path d="M14.7450054,2.242 C13.0900054,0.586 10.4060054,0.586 8.75200541,2.242 C8.42800541,2.566 8.18500541,2.937 7.98800541,3.325 C7.79100541,2.937 7.55000541,2.566 7.22400541,2.242 C5.56900541,0.586 2.88500541,0.586 1.22800541,2.242 C0.0580054132,3.412 -0.267994587,5.092 0.216005413,6.562 L0.199005413,6.563 C0.222005413,6.641 0.259005413,6.718 0.285005413,6.796 C0.293005413,6.814 0.299005413,6.835 0.307005413,6.854 C1.70400541,10.864 7.98800541,14.077 7.98800541,14.077 C7.98800541,14.077 14.8860054,10.689 15.7770054,6.563 L15.7570054,6.562 C16.2400054,5.092 15.9140054,3.412 14.7450054,2.242" id="Fill-1" fill="#F27788" fill-rule="evenodd"></path>
                <path d="M11.2244015,1.03231009 C12.4761438,0.877221644 13.7840377,1.28045161 14.7450054,2.242 C15.9140054,3.412 16.2400054,5.092 15.7570054,6.562 L15.7570054,6.562 L15.7770054,6.563 C15.0002362,10.1600256 9.65798898,13.1961519 8.30094941,13.9155231 L7.98820541,14.0769 C14.4992054,9.7189 13.9702054,4.2299 13.9702054,4.2299 C13.8155349,2.53944262 12.7461631,1.25128827 11.2109613,1.03347187 Z" id="Combined-Shape" fill="#B44A59" fill-rule="evenodd"></path>
                <path d="M2.10920541,5.3025 C2.16320541,4.7625 2.39620541,4.2375 2.81020541,3.8235 C3.75920541,2.8735 5.29920541,2.8735 6.24920541,3.8235" id="Stroke-3" stroke="#FFFFFF" stroke-width="1" stroke-linecap="round"></path>
                <path d="M2.81040541,7.2625 C2.72540541,7.1785 2.64940541,7.0895 2.58040541,6.9965" id="Stroke-5" stroke="#FFFFFF" stroke-width="1" stroke-linecap="round"></path>
            </g>
        </g>
    </g>
</svg>