<?xml version="1.0" encoding="UTF-8"?>
<svg width="16px" height="16px" viewBox="0 0 16 16" version="1.1" xmlns="http://www.w3.org/2000/svg" xmlns:xlink="http://www.w3.org/1999/xlink">
    <!-- Generator: Sketch 57.1 (83088) - https://sketch.com -->
    <title>Icons/16x16/Tank/Function Copy 8</title>
    <desc>Created with Sketch.</desc>
    <defs>
        <polygon id="path-1" points="0 0.0001 15.9998 0.0001 15.9998 4 0 4"></polygon>
        <path d="M9,2 L11,2 L11,0 L9,0 L9,2 Z M6,2 L8,2 L8,0 L6,0 L6,2 Z M3,2 L5,2 L5,0 L3,0 L3,2 Z M1,0 C0.448,0 0,0.448 0,1 L0,1 C0,1.552 0.448,2 1,2 L1,2 L2,2 L2,0 L1,0 Z" id="path-3"></path>
        <linearGradient x1="0.000233636364%" y1="50.005155%" x2="100.000234%" y2="50.005155%" id="linearGradient-5">
            <stop stop-color="#FF3823" offset="0%"></stop>
            <stop stop-color="#00A156" offset="100%"></stop>
        </linearGradient>
    </defs>
    <g id="Icons-(read-only)" stroke="none" stroke-width="1" fill="none" fill-rule="evenodd">
        <g id="Icons-for-Toolbar" transform="translate(-177.000000, -1722.000000)">
            <g id="Icons/16x16/Health-Indicator" transform="translate(177.000000, 1722.000000)">
                <g id="Group-3" transform="translate(0.142857, 0.000000)">
                    <path d="M13.7813292,1.04473503 C12.3307004,-0.34824501 9.97814003,-0.34824501 8.52838782,1.04473503 C8.24439767,1.3172746 8.03140505,1.62934924 7.85873203,1.95572379 C7.686059,1.62934924 7.47481941,1.3172746 7.18907623,1.04473503 C5.73844751,-0.34824501 3.38588709,-0.34824501 1.93350535,1.04473503 C0.907985346,2.02890571 0.622242166,3.44207387 1.04647437,4.67859601 L1.03157365,4.67943718 C1.05173345,4.74504856 1.08416442,4.80981877 1.10695376,4.87543014 C1.11396586,4.89057123 1.11922494,4.90823583 1.12623704,4.92421809 C2.35072545,8.2973159 7.85873203,11 7.85873203,11 C7.85873203,11 13.9049175,8.15011088 14.6858904,4.67943718 L14.6683601,4.67859601 C15.0917158,3.44207387 14.8059727,2.02890571 13.7813292,1.04473503" id="Fill-1" fill="#F27788"></path>
                    <path d="M10.7467205,0.0213212861 C11.828196,-0.0923922399 12.9519182,0.248748338 13.7810579,1.04474302 C14.8059598,2.02892123 15.091775,3.44210019 14.6683125,4.67863179 L14.6683125,4.67863179 L14.6858472,4.67947296 C14.0090478,7.68646034 9.37899744,10.2274613 8.15385669,10.8527789 L7.85714286,11 C13.5655567,7.33414647 13.1017646,2.71692068 13.1017646,2.71692068 C12.9662016,1.29538423 12.0291841,0.212047282 10.6838885,0.0283257647 Z" id="Combined-Shape" fill="#B44A59"></path>
                    <path d="M2.85714286,4 C2.90931677,3.50718686 3.13443754,3.02806297 3.53443754,2.65023956 C4.45134576,1.78325348 5.93926846,1.78325348 6.85714286,2.65023956" id="Stroke-3" stroke="#FFFFFF" stroke-linecap="round"></path>
                    <path d="M3.47214286,5.633 C3.38714286,5.549 3.31114286,5.46 3.24214286,5.367" id="Stroke-5" stroke="#FFFFFF" stroke-linecap="round"></path>
                </g>
                <g id="Group-7" transform="translate(0.000000, 12.000000)">
                    <g id="Group-3">
                        <mask id="mask-2" fill="white">
                            <use xlink:href="#path-1"></use>
                        </mask>
                        <g id="Clip-2"></g>
                        <path d="M13.9998,4.0001 L1.9998,4.0001 C0.8958,4.0001 -0.0002,3.1041 -0.0002,2.0001 C-0.0002,0.8961 0.8958,0.0001 1.9998,0.0001 L13.9998,0.0001 C15.1038,0.0001 15.9998,0.8961 15.9998,2.0001 C15.9998,3.1041 15.1038,4.0001 13.9998,4.0001" id="Fill-1" fill="#000000" mask="url(#mask-2)"></path>
                    </g>
                    <g id="Group-6" transform="translate(1.000000, 1.000000)">
                        <mask id="mask-4" fill="white">
                            <use xlink:href="#path-3"></use>
                        </mask>
                        <g id="Clip-5"></g>
                        <path d="M9,2 L11,2 L11,0 L9,0 L9,2 Z M6,2 L8,2 L8,0 L6,0 L6,2 Z M3,2 L5,2 L5,0 L3,0 L3,2 Z M1,0 C0.448,0 0,0.448 0,1 L0,1 C0,1.552 0.448,2 1,2 L1,2 L2,2 L2,0 L1,0 Z" id="Fill-4" fill="url(#linearGradient-5)" mask="url(#mask-4)"></path>
                    </g>
                </g>
            </g>
        </g>
    </g>
</svg>