<?xml version="1.0" encoding="UTF-8"?>
<svg width="16px" height="11px" viewBox="0 0 16 11" version="1.1" xmlns="http://www.w3.org/2000/svg" xmlns:xlink="http://www.w3.org/1999/xlink">
    <!-- Generator: Sketch 60 (88103) - https://sketch.com -->
    <title>NetworkTransform</title>
    <desc>Created with Sketch.</desc>
    <defs>
        <radialGradient cx="50%" cy="0%" fx="50%" fy="0%" r="111.388918%" gradientTransform="translate(0.500000,0.000000),scale(0.484850,1.000000),rotate(90.000000),translate(-0.500000,-0.000000)" id="radialGradient-1">
            <stop stop-color="#FFFFFF" stop-opacity="0" offset="0%"></stop>
            <stop stop-color="#FFFFFF" offset="100%"></stop>
        </radialGradient>
    </defs>
    <g id="Icons-(read-only)" stroke="none" stroke-width="1" fill="none" fill-rule="evenodd">
        <g id="Icons-for-Toolbar" transform="translate(-848.000000, -1820.000000)">
            <g id="Icons/16x16NetworkTransform" transform="translate(848.000000, 1818.000000)">
                <g id="Group-51" transform="translate(0.000000, 2.000000)">
                    <g id="Group-49-Copy">
                        <path d="M3.1983,11.0004 L3.199,10.9997 C1.432,10.9997 -5.11146681e-13,9.5677 -5.11146681e-13,7.8007 C-5.11146681e-13,6.0327 1.432,4.6007 3.199,4.6007 C4.68965984,4.6007 5.94261897,5.61982398 6.2980601,7.00005578 L8.245,7 L8.24764535,6.92232669 C8.35149648,4.87219531 10.0455375,3.243 12.1206,3.243 C14.2636,3.243 15.9996,4.979 15.9996,7.122 C15.9996,9.264 14.2636,11 12.1206,11 L3.1983,11.0004 Z" id="Combined-Shape" fill="url(#radialGradient-1)"></path>
                        <path d="M13.0475,5.5 C13.0475,8.5382 10.5857,11 7.5475,11 C4.5104,11 2.0475,8.5382 2.0475,5.5 C2.0475,2.4629 4.5104,0 7.5475,0 C10.5857,0 13.0475,2.4629 13.0475,5.5" id="Fill-6" fill="#FFFFFF"></path>
                    </g>
                    <polygon id="Fill-1-Copy-34" fill="#00C100" points="9.5479 3.0137 7.9469 1.4137 6.3479 3.0137 7.4139 3.0137 7.4139 5.6807 7.9469 6.2137 8.4809 5.6807 8.4809 3.0137"></polygon>
                    <polygon id="Fill-2-Copy-24" fill="#0098FF" points="10.4209 7.7412 8.3249 5.8362 7.4139 5.6802 7.5689 6.5922 9.6649 8.4962 8.7469 9.4142 11.4139 9.4142 11.4139 6.7472"></polygon>
                    <polygon id="Fill-3-Copy-6" fill="#FF041D" points="7.4141 5.6807 5.0151 5.6807 5.0151 4.6147 3.4141 6.2137 5.0151 7.8147 5.0151 6.7467 7.4141 6.7467 7.9471 6.2137"></polygon>
                    <path d="" id="Path-7-Copy-2" stroke="#979797"></path>
                </g>
            </g>
        </g>
    </g>
</svg>