<?xml version="1.0" encoding="UTF-8"?>
<svg width="16px" height="16px" viewBox="0 0 16 16" version="1.1" xmlns="http://www.w3.org/2000/svg" xmlns:xlink="http://www.w3.org/1999/xlink">
    <!-- Generator: Sketch 60 (88103) - https://sketch.com -->
    <title>NetworkConnection</title>
    <desc>Created with Sketch.</desc>
    <defs>
        <radialGradient cx="49.9994434%" cy="0.0929071152%" fx="49.9994434%" fy="0.0929071152%" r="140.725462%" gradientTransform="translate(0.499994,0.000929),scale(0.400020,1.000000),rotate(90.857997),translate(-0.499994,-0.000929)" id="radialGradient-1">
            <stop stop-color="#FFFFFF" stop-opacity="0" offset="0.0659839527%"></stop>
            <stop stop-color="#FFFFFF" offset="100%"></stop>
        </radialGradient>
        <radialGradient cx="50%" cy="52.6997884%" fx="50%" fy="52.6997884%" r="170.554066%" id="radialGradient-2">
            <stop stop-color="#FFFFFF" offset="0%"></stop>
            <stop stop-color="#FFFFFF" stop-opacity="0.711265297" offset="100%"></stop>
        </radialGradient>
    </defs>
    <g id="Icons-(read-only)" stroke="none" stroke-width="1" fill="none" fill-rule="evenodd">
        <g id="Icons-for-Toolbar" transform="translate(-752.000000, -1818.000000)">
            <g id="Icons/16x16NetworkConnection" transform="translate(752.000000, 1818.000000)">
                <path d="M10,16 L14,16 C14,15.4477153 13.5522847,15 13,15 L11,15 C10.4477153,15 10,15.4477153 10,16 L10,16 L10,16 Z" id="Fill-2" fill="#D4D4D4" fill-rule="evenodd"></path>
                <polygon id="Fill-3" fill="#8C8C8C" fill-rule="evenodd" points="11 15 13 15 13 14 11 14"></polygon>
                <path d="M7,13.0009 C4.238,13.0009 2,10.7629 2,8.0009" id="Stroke-4" stroke="#3DBC53" stroke-width="1.5"></path>
                <path d="M9.501,1.4999 C12.262,1.4999 14.501,3.7379 14.501,6.4999" id="Stroke-6" stroke="#FF5231" stroke-width="1.5"></path>
                <rect id="Rectangle" fill="#FFFFFF" fill-rule="evenodd" x="8" y="8" width="8" height="6" rx="1"></rect>
                <g id="Group-43" stroke-width="1" fill-rule="evenodd" transform="translate(0.000000, 1.000000)">
                    <path d="M2,6 C0.896,6 0,5.104 0,4 C0,2.896 0.896,2 2,2 C3.104,2 4,2.896 4,4 L6,4.0002 L6,4.0002 C6,2.8962 6.896,2.0002 8,2.0002 C9.104,2.0002 10,2.8962 10,4.0002 C10,5.1042 9.104,6.0002 8,6.0002 L2,6 Z" id="Combined-Shape" fill="url(#radialGradient-1)"></path>
                    <path d="M4.7175,6 C3.06076711,6 1.7175,4.65673289 1.7175,3 C1.7175,1.34326711 3.06076711,0 4.7175,0 C6.37423289,0 7.7175,1.34326711 7.7175,3 C7.7175,4.65673289 6.37423289,6 4.7175,6 Z" id="Fill-12" fill="url(#radialGradient-2)"></path>
                </g>
                <rect id="Rectangle-Copy-160" fill="#3C4F80" fill-rule="evenodd" x="9" y="9" width="6" height="4"></rect>
                <polygon id="Rectangle-Copy-161" fill="#FFFFFF" fill-rule="evenodd" opacity="0.119861421" points="9 9 15 9 9 13"></polygon>
            </g>
        </g>
    </g>
</svg>