<svg width="16" height="16" xmlns="http://www.w3.org/2000/svg">

 <g>
  <title>background</title>
  <rect fill="none" id="canvas_background" height="18" width="18" y="-1" x="-1"/>
 </g>
 <g>
  <title>Layer 1</title>
  <path fill="#ffff00" id="svg_1" d="m14.243446,15.085671l0,0.56809q0,0.115396 -0.084326,0.19972t-0.199722,0.084323l-11.929927,0q-0.115391,0 -0.199719,-0.084323t-0.084328,-0.19972l0,-0.56809q0,-0.115392 0.084328,-0.199719t0.199719,-0.084326l11.929927,0q0.115398,0 0.199722,0.084326t0.084326,0.199719zm-2.272367,-9.373517q0,0.69236 -0.21747,1.278206t-0.568095,0.998599t-0.776683,0.781126t-0.852141,0.687924t-0.776689,0.639104t-0.568094,0.723429t-0.21747,0.856576q0,0.85214 0.59472,1.988322l-0.035503,-0.008876l0.008875,0.008876q-0.798882,-0.363934 -1.420228,-0.736743t-1.22939,-0.887645t-1.007472,-1.087362t-0.643544,-1.335904t-0.244102,-1.633265q0,-0.692362 0.217472,-1.278207t0.568093,-0.998598t0.77669,-0.781127t0.852135,-0.687924t0.776689,-0.639102t0.568094,-0.72343t0.217472,-0.856577q0,-0.834384 -0.585846,-1.988321l0.026628,0.008876l-0.008875,-0.008876q0.798882,0.363934 1.420231,0.736744t1.229384,0.887644t1.007481,1.087364t0.643538,1.335902t0.244101,1.633265z"/>
 </g>
</svg>