<svg width="16" height="16" viewBox="0 0 16 16" fill="none" xmlns="http://www.w3.org/2000/svg">
<path d="M10.95 0.4L9.01 0.88L7.79 4.28L9.73 3.8L10.95 0.4ZM2.93 7C2.71 7.86 1.93 8.5 1 8.5V14C1 15.11 1.9 16 3 16H13C14.11 16 15 15.1 15 14V7H2.93ZM14 14C14 14.55 13.55 15 13 15H3C2.45 15 2 14.55 2 14V10L3.33 8H5.33L4 10L3.33 11H5.35L6 10L7.33 8H9.33L8 10L7.33 11H9.35L10 10L11.33 8H13.33L12 10L11.33 11H14V12V14ZM14.22 1.12C14.06 0.47 13.49 0.04 12.86 0L11.68 3.31L14.59 2.58L14.22 1.12ZM7.07 1.37L5.13 1.85L3.91 5.24L5.85 4.76L7.07 1.37ZM1 4.46C1.48 4.46 1.91 4.64 2.26 4.92L3.19 2.33L1.72 2.7C0.92 2.9 0.44 3.7 0.63 4.5C0.75 4.48 0.87 4.46 1 4.46ZM2 6.46C2 5.91 1.55 5.46 1 5.46C0.45 5.46 0 5.91 0 6.46C0 7.01 0.45 7.46 1 7.46C1.55 7.46 2 7.02 2 6.46Z" fill="white"/>
</svg>
