<?xml version="1.0" encoding="UTF-8"?>
<svg width="16px" height="16px" viewBox="0 0 16 16" version="1.1" xmlns="http://www.w3.org/2000/svg" xmlns:xlink="http://www.w3.org/1999/xlink">
    <!-- Generator: Sketch 55.2 (78181) - https://sketchapp.com -->
    <title>server collision 16x16</title>
    <desc>Created with Sketch.</desc>
    <g id="Icons-(read-only)" stroke="none" stroke-width="1" fill="none" fill-rule="evenodd">
        <g id="InGUI-Icons" transform="translate(-452.000000, -3000.000000)">
            <g id="road-points-copy-8" transform="translate(40.000000, 2926.000000)">
                <rect id="icon-bg-copy-36" x="360" y="22" width="120" height="120"></rect>
                <g id="Icons/16x16/Server" transform="translate(412.000000, 74.000000)">
                    <path d="M4.0003,16.0002 C3.44801525,16.0002 3.0003,15.5524847 3.0003,15.0002 L3.0003,2.0022 L13.0003,2.0022 L13.0003,15.0002 C13.0003,15.5524847 12.5525847,16.0002 12.0003,16.0002 L4.0003,16.0002 Z M8.0003,15.0002 C8.5533,15.0002 9.0003,14.5532 9.0003,14.0002 C9.0003,13.4472 8.5533,13.0002 8.0003,13.0002 C7.4473,13.0002 7.0003,13.4472 7.0003,14.0002 C7.0003,14.5532 7.4473,15.0002 8.0003,15.0002 Z M5.0003,8.0002 L5.0003,10.0002 C5.0003,10.5524847 5.44801525,11.0002 6.0003,11.0002 L10.0003,11.0002 C10.5525847,11.0002 11.0003,10.5524847 11.0003,10.0002 L11.0003,8.0002 L5.0003,8.0002 Z M6.0003,4.0002 C5.44801525,4.0002 5.0003,4.44791525 5.0003,5.0002 L5.0003,7.0002 L11.0003,7.0002 L11.0003,5.0002 C11.0003,4.44791525 10.5525847,4.0002 10.0003,4.0002 L6.0003,4.0002 Z" id="Combined-Shape" fill="#00B50C"></path>
                    <polygon id="Fill-2" fill="#04780C" points="6 0 3 2 13 2 10.001 0"></polygon>
                </g>
            </g>
        </g>
    </g>
</svg>