<?xml version="1.0" encoding="UTF-8"?>
<svg width="16px" height="16px" viewBox="0 0 16 16" version="1.1" xmlns="http://www.w3.org/2000/svg" xmlns:xlink="http://www.w3.org/1999/xlink">
    <!-- Generator: Sketch 55.2 (78181) - https://sketchapp.com -->
    <title>square tigger area 16x16</title>
    <desc>Created with Sketch.</desc>
    <g id="Icons-(read-only)" stroke="none" stroke-width="1" fill="none" fill-rule="evenodd">
        <g id="InGUI-Icons" transform="translate(-452.000000, -2524.000000)">
            <g id="road-points-copy-4" transform="translate(40.000000, 2450.000000)">
                <rect id="icon-bg-copy-36" x="360" y="22" width="120" height="120"></rect>
                <g id="Icons/16x16/Trigger-Area-Square" transform="translate(412.000000, 74.000000)" fill="#00C7C9">
                    <path d="M4.2129,10.7559 C4.4519,10.6349 4.5469,10.3359 4.4229,10.0899 C4.2989,9.8439 4.0029,9.7399 3.7639,9.8609 C3.5249,9.9809 3.4299,10.2799 3.5539,10.5269 C3.6779,10.7729 3.9739,10.8749 4.2129,10.7559 L4.2129,10.7559 Z M5.9509,9.8829 C6.1899,9.7619 6.2829,9.4629 6.1599,9.2179 C6.0369,8.9729 5.7399,8.8689 5.5019,8.9899 C5.2629,9.1099 5.1679,9.4079 5.2919,9.6539 C5.4159,9.8999 5.7119,10.0019 5.9509,9.8829 L5.9509,9.8829 Z M2.4759,11.6269 C2.7149,11.5079 2.8089,11.2079 2.6859,10.9619 C2.5629,10.7159 2.2659,10.6129 2.0259,10.7329 C1.7869,10.8539 1.6929,11.1519 1.8169,11.3989 C1.9399,11.6449 2.2359,11.7479 2.4759,11.6269 L2.4759,11.6269 Z M12.5179,11.6289 C12.7579,11.7479 13.0559,11.6459 13.1779,11.3999 C13.2999,11.1529 13.2029,10.8539 12.9629,10.7349 C12.7219,10.6129 12.4239,10.7169 12.3019,10.9629 C12.1799,11.2089 12.2759,11.5079 12.5179,11.6289 L12.5179,11.6289 Z M10.7659,10.7559 C11.0069,10.8749 11.3049,10.7729 11.4269,10.5269 C11.5489,10.2799 11.4519,9.9809 11.2109,9.8609 C10.9709,9.7399 10.6729,9.8439 10.5509,10.0899 C10.4289,10.3359 10.5249,10.6349 10.7659,10.7559 L10.7659,10.7559 Z M9.0159,9.8829 C9.2559,10.0039 9.5539,9.9009 9.6759,9.6539 C9.7979,9.4079 9.7009,9.1099 9.4609,8.9879 C9.2199,8.8689 8.9219,8.9719 8.7999,9.2179 C8.6779,9.4639 8.7749,9.7639 9.0159,9.8829 L9.0159,9.8829 Z M13.9999,11.7529 L7.9999,14.8789 L7.9999,8.0059 L13.9999,4.8829 L13.9999,11.7529 Z M1.5989,4.0669 L7.4779,1.1169 L13.3989,4.0689 L7.4999,7.1399 L1.5989,4.0669 Z M6.9999,8.3399 C6.9599,8.4419 6.9589,8.5649 6.9999,8.6919 L6.9999,14.8789 L0.9999,11.7529 L0.9999,4.8829 L6.9999,8.0059 L6.9999,8.3399 Z M7.4759,-0.0001 L-0.0001,3.7499 L-0.0001,12.3599 L7.4999,16.2669 L14.9999,12.3599 L14.9999,3.7489 L7.4759,-0.0001 Z" id="Fill-1"></path>
                </g>
            </g>
        </g>
    </g>
</svg>