<?xml version="1.0" encoding="UTF-8"?>
<svg width="16px" height="16px" viewBox="0 0 16 16" version="1.1" xmlns="http://www.w3.org/2000/svg" xmlns:xlink="http://www.w3.org/1999/xlink">
    <!-- Generator: Sketch 55.2 (78181) - https://sketchapp.com -->
    <title>timer 16x16</title>
    <desc>Created with Sketch.</desc>
    <g id="Icons-(read-only)" stroke="none" stroke-width="1" fill="none" fill-rule="evenodd">
        <g id="InGUI-Icons" transform="translate(-972.000000, -2286.000000)">
            <g id="road-points-copy-3" transform="translate(560.000000, 2212.000000)">
                <rect id="icon-bg-copy-36" x="360" y="22" width="120" height="120"></rect>
                <g id="Icons/16x16/Timer" transform="translate(412.000000, 74.000000)">
                    <g id="colored" transform="translate(1.000000, 0.000000)">
                        <path d="M6.5,2.5 C10.09,2.5 13,5.41 13,9 C13,12.59 10.09,15.5 6.5,15.5 C2.91,15.5 0,12.59 0,9 C0,5.41 2.91,2.5 6.5,2.5 Z M6.5,3.5 C3.467,3.5 1,5.967 1,9 C1,12.033 3.467,14.5 6.5,14.5 C9.533,14.5 12,12.033 12,9 C12,5.967 9.533,3.5 6.5,3.5 Z M3.5,1 L3.5,0 L9.5,0 L9.5,1 L3.5,1 Z" id="Combined-Shape" fill="#03BEC0"></path>
                        <path d="M2.5,9 C2.5,6.791 4.291,5 6.5,5 C8.709,5 10.5,6.791 10.5,9 C10.5,11.209 8.709,13 6.5,13 C4.291,13 2.5,11.209 2.5,9 Z M7.5,2 L5.5,2 L4.5,1 L8.5,1 L7.5,2 Z" id="Combined-Shape" fill="#285050"></path>
                        <path d="M6.5,10 C5.947,10 5.5,9.553 5.5,9 C5.5,8.447 5.947,8 6.5,8 C7.053,8 7.5,8.447 7.5,9 C7.5,9.553 7.053,10 6.5,10 L6.5,10 Z M5.086,7.586 C4.305,8.367 4.305,9.633 5.086,10.414 C5.867,11.195 7.133,11.195 7.914,10.414 L11.5,4 L5.086,7.586 Z" id="Fill-8" fill="#A6FEFF"></path>
                    </g>
                </g>
            </g>
        </g>
    </g>
</svg>