<svg width="16" height="16" xmlns="http://www.w3.org/2000/svg">
 <g>
  <title>background</title>
  <rect x="-1" y="-1" width="18" height="18" id="canvas_background" fill="none"/>
 </g>

 <g>
  <title>Layer 1</title>
  <path d="m15.600224,7.253946l-1.965326,-1.965325c-0.191666,-0.192164 -0.421567,-0.287997 -0.685231,-0.287997c-0.589896,0 -0.993092,0.504489 -0.993092,0.99309c0,0.256218 0.092358,0.489594 0.287996,0.685233l0.307858,0.307858l-3.575127,0l0,-3.575126l0.307858,0.307858c0.195638,0.195639 0.429014,0.287997 0.685232,0.287997c0.4886,0 0.99309,-0.403692 0.99309,-0.993091c0,-0.263665 -0.095833,-0.493566 -0.287995,-0.685232l-1.972775,-1.973271c-0.182233,-0.182232 -0.35652,-0.320768 -0.718502,-0.320768s-0.563579,0.165846 -0.726446,0.328713l-1.96483,1.965326c-0.192163,0.191667 -0.287996,0.421567 -0.287996,0.685232c0,0.589896 0.50449,0.993091 0.993091,0.993091c0.256217,0 0.489594,-0.092357 0.685232,-0.287997l0.307858,-0.307858l0,3.575126l-3.575126,0l0.307858,-0.307858c0.195639,-0.195639 0.287997,-0.429015 0.287997,-0.685233c0,-0.4886 -0.403692,-0.99309 -0.993091,-0.99309c-0.263666,0 -0.493566,0.095832 -0.685233,0.287997l-1.965326,1.965325c-0.162867,0.162868 -0.328713,0.363967 -0.328713,0.72595s0.138536,0.536269 0.320768,0.718501l1.973271,1.972775c0.191667,0.192163 0.421567,0.287996 0.685233,0.287996c0.589896,0 0.993091,-0.50449 0.993091,-0.993089c0,-0.256219 -0.092358,-0.489595 -0.287997,-0.685234l-0.307858,-0.307858l3.575126,0l0,3.575127l-0.307858,-0.307858c-0.195639,-0.195639 -0.429015,-0.287997 -0.685232,-0.287997c-0.4886,0 -0.993091,0.403692 -0.993091,0.993092c0,0.263666 0.095833,0.493567 0.287996,0.685231l1.96483,1.965326c0.162867,0.162868 0.364464,0.328715 0.726446,0.328715s0.536269,-0.138536 0.718502,-0.32077l1.972775,-1.973271c0.192163,-0.191665 0.287995,-0.421565 0.287995,-0.685231c0,-0.589895 -0.50449,-0.993092 -0.99309,-0.993092c-0.256218,0 -0.489594,0.092359 -0.685232,0.287997l-0.307858,0.307858l0,-3.575127l3.575127,0l-0.307858,0.307858c-0.195639,0.195639 -0.287996,0.429015 -0.287996,0.685234c0,0.488599 0.40369,0.993089 0.993092,0.993089c0.263664,0 0.493566,-0.095834 0.685231,-0.287996l1.973272,-1.972775c0.182232,-0.182232 0.320767,-0.356518 0.320767,-0.718501s-0.165846,-0.563082 -0.328713,-0.72595z" id="svg_1" fill="#007f00"/>
 </g>
</svg>