<?xml version="1.0" encoding="UTF-8"?>
<svg xmlns="http://www.w3.org/2000/svg" xmlns:xlink="http://www.w3.org/1999/xlink" width="16pt" height="16pt" viewBox="0 0 16 16" version="1.1">
<g id="surface1">
<path style=" stroke:none;fill-rule:nonzero;fill:rgb(84.705882%,26.27451%,8.235294%);fill-opacity:1;" d="M 15.734375 8 C 15.734375 10.050781 14.917969 12.019531 13.46875 13.46875 C 12.019531 14.917969 10.050781 15.734375 8 15.734375 C 7.867188 15.734375 7.734375 15.730469 7.601562 15.722656 L 7.597656 15.722656 C 3.488281 15.507812 0.265625 12.113281 0.265625 8 C 0.265625 3.886719 3.488281 0.492188 7.597656 0.277344 L 7.601562 0.277344 C 7.734375 0.269531 7.867188 0.265625 8 0.265625 C 10.050781 0.265625 12.019531 1.082031 13.46875 2.53125 C 14.917969 3.980469 15.734375 5.949219 15.734375 8 Z M 15.734375 8 "/>
<path style=" stroke:none;fill-rule:nonzero;fill:rgb(100%,34.117647%,13.333333%);fill-opacity:1;" d="M 14.933594 8 C 14.933594 12.113281 11.710938 15.507812 7.601562 15.722656 L 7.597656 15.722656 C 3.488281 15.507812 0.265625 12.113281 0.265625 8 C 0.265625 3.886719 3.488281 0.492188 7.597656 0.277344 L 7.601562 0.277344 C 11.710938 0.492188 14.933594 3.886719 14.933594 8 Z M 14.933594 8 "/>
<path style=" stroke:none;fill-rule:nonzero;fill:rgb(100%,92.156863%,22.745098%);fill-opacity:1;" d="M 5.738281 12.148438 L 3.851562 10.261719 C 3.644531 10.054688 3.644531 9.714844 3.851562 9.507812 L 9.507812 3.851562 C 9.71875 3.644531 10.054688 3.644531 10.261719 3.851562 L 12.148438 5.738281 C 12.355469 5.945312 12.355469 6.28125 12.148438 6.492188 L 6.492188 12.148438 C 6.285156 12.355469 5.945312 12.355469 5.738281 12.148438 Z M 5.738281 12.148438 "/>
<path style=" stroke:none;fill-rule:nonzero;fill:rgb(91.372549%,11.764706%,38.823529%);fill-opacity:1;" d="M 8 10.640625 L 5.359375 8 L 8 5.359375 L 10.640625 8 Z M 8 10.640625 "/>
<path style=" stroke:none;fill-rule:nonzero;fill:rgb(0%,0%,0%);fill-opacity:1;" d="M 8 0 C 3.582031 0 0 3.582031 0 8 C 0 12.417969 3.582031 16 8 16 C 12.417969 16 16 12.417969 16 8 C 15.996094 3.582031 12.417969 0.00390625 8 0 Z M 8 15.464844 C 3.875 15.464844 0.535156 12.125 0.535156 8 C 0.535156 3.875 3.875 0.535156 8 0.535156 C 12.125 0.535156 15.464844 3.875 15.464844 8 C 15.460938 12.121094 12.121094 15.460938 8 15.464844 Z M 8 15.464844 "/>
<path style=" stroke:none;fill-rule:nonzero;fill:rgb(0%,0%,0%);fill-opacity:1;" d="M 10.453125 3.664062 C 10.140625 3.351562 9.632812 3.351562 9.320312 3.664062 L 3.664062 9.320312 C 3.351562 9.632812 3.351562 10.140625 3.664062 10.453125 L 5.546875 12.335938 C 5.859375 12.648438 6.367188 12.648438 6.679688 12.335938 L 12.335938 6.679688 C 12.648438 6.367188 12.648438 5.859375 12.335938 5.546875 Z M 6.304688 11.960938 C 6.199219 12.0625 6.03125 12.0625 5.925781 11.960938 L 4.039062 10.074219 C 3.9375 9.96875 3.9375 9.800781 4.039062 9.695312 L 5.359375 8.378906 L 7.621094 10.640625 Z M 8 10.261719 L 5.738281 8 L 8 5.738281 L 10.261719 8 Z M 11.960938 6.304688 L 10.640625 7.621094 L 8.378906 5.359375 L 9.695312 4.039062 C 9.800781 3.9375 9.96875 3.9375 10.074219 4.039062 L 11.960938 5.925781 C 12.0625 6.03125 12.0625 6.199219 11.960938 6.304688 Z M 11.960938 6.304688 "/>
<path style=" stroke:none;fill-rule:nonzero;fill:rgb(0%,0%,0%);fill-opacity:1;" d="M 9.261719 8.101562 C 9.269531 8.117188 9.277344 8.132812 9.289062 8.148438 C 9.296875 8.164062 9.308594 8.175781 9.320312 8.1875 C 9.34375 8.214844 9.375 8.230469 9.40625 8.246094 C 9.4375 8.257812 9.472656 8.265625 9.507812 8.265625 C 9.527344 8.265625 9.542969 8.265625 9.558594 8.261719 C 9.578125 8.257812 9.59375 8.253906 9.609375 8.246094 C 9.628906 8.238281 9.640625 8.230469 9.65625 8.222656 C 9.671875 8.210938 9.683594 8.203125 9.695312 8.1875 C 9.707031 8.175781 9.71875 8.164062 9.730469 8.148438 C 9.738281 8.132812 9.746094 8.117188 9.753906 8.101562 L 9.769531 8.054688 C 9.773438 8.035156 9.777344 8.019531 9.777344 8 C 9.773438 7.929688 9.746094 7.859375 9.695312 7.8125 C 9.683594 7.796875 9.671875 7.789062 9.65625 7.777344 C 9.640625 7.769531 9.628906 7.761719 9.609375 7.753906 C 9.59375 7.746094 9.578125 7.742188 9.558594 7.738281 C 9.507812 7.726562 9.453125 7.734375 9.40625 7.753906 C 9.375 7.765625 9.34375 7.785156 9.320312 7.8125 C 9.296875 7.835938 9.277344 7.867188 9.261719 7.898438 C 9.25 7.929688 9.242188 7.964844 9.242188 8 C 9.242188 8.019531 9.242188 8.035156 9.246094 8.054688 C 9.25 8.070312 9.253906 8.085938 9.261719 8.101562 Z M 9.261719 8.101562 "/>
<path style=" stroke:none;fill-rule:nonzero;fill:rgb(0%,0%,0%);fill-opacity:1;" d="M 8.566406 8.945312 C 8.578125 8.953125 8.59375 8.964844 8.605469 8.976562 C 8.621094 8.984375 8.636719 8.996094 8.652344 9 C 8.667969 9.007812 8.683594 9.011719 8.703125 9.015625 C 8.71875 9.019531 8.738281 9.019531 8.753906 9.019531 C 8.789062 9.019531 8.824219 9.011719 8.855469 9 C 8.921875 8.976562 8.976562 8.921875 9 8.855469 C 9.027344 8.792969 9.027344 8.71875 9 8.652344 C 8.988281 8.621094 8.96875 8.589844 8.945312 8.566406 C 8.917969 8.542969 8.886719 8.523438 8.855469 8.507812 C 8.757812 8.46875 8.640625 8.488281 8.566406 8.566406 C 8.539062 8.589844 8.519531 8.621094 8.507812 8.652344 C 8.480469 8.71875 8.480469 8.789062 8.507812 8.855469 C 8.523438 8.886719 8.542969 8.917969 8.566406 8.945312 Z M 8.566406 8.945312 "/>
<path style=" stroke:none;fill-rule:nonzero;fill:rgb(0%,0%,0%);fill-opacity:1;" d="M 8.1875 9.320312 C 8.082031 9.222656 7.917969 9.222656 7.8125 9.320312 C 7.785156 9.34375 7.765625 9.375 7.753906 9.40625 C 7.742188 9.4375 7.734375 9.472656 7.734375 9.507812 C 7.734375 9.527344 7.734375 9.542969 7.738281 9.558594 C 7.742188 9.578125 7.746094 9.59375 7.753906 9.609375 C 7.761719 9.628906 7.769531 9.640625 7.777344 9.65625 C 7.789062 9.671875 7.796875 9.683594 7.8125 9.695312 C 7.859375 9.746094 7.929688 9.777344 8 9.777344 C 8.070312 9.777344 8.140625 9.746094 8.1875 9.695312 C 8.203125 9.683594 8.210938 9.671875 8.222656 9.65625 C 8.230469 9.640625 8.238281 9.628906 8.246094 9.609375 C 8.253906 9.59375 8.257812 9.578125 8.261719 9.558594 C 8.265625 9.542969 8.265625 9.527344 8.265625 9.507812 C 8.265625 9.472656 8.261719 9.4375 8.246094 9.40625 C 8.230469 9.375 8.214844 9.34375 8.1875 9.320312 Z M 8.1875 9.320312 "/>
<path style=" stroke:none;fill-rule:nonzero;fill:rgb(0%,0%,0%);fill-opacity:1;" d="M 8.1875 8.566406 C 8.164062 8.542969 8.132812 8.523438 8.101562 8.507812 C 8.003906 8.46875 7.886719 8.488281 7.8125 8.566406 C 7.785156 8.589844 7.765625 8.621094 7.753906 8.652344 C 7.726562 8.71875 7.726562 8.792969 7.753906 8.855469 C 7.769531 8.886719 7.789062 8.917969 7.8125 8.945312 C 7.863281 8.992188 7.929688 9.019531 8 9.019531 C 8.035156 9.019531 8.070312 9.011719 8.101562 9 C 8.167969 8.976562 8.222656 8.921875 8.246094 8.855469 C 8.273438 8.792969 8.273438 8.71875 8.246094 8.652344 C 8.234375 8.621094 8.214844 8.589844 8.1875 8.566406 Z M 8.1875 8.566406 "/>
<path style=" stroke:none;fill-rule:nonzero;fill:rgb(0%,0%,0%);fill-opacity:1;" d="M 8.507812 8.101562 C 8.515625 8.117188 8.523438 8.132812 8.535156 8.148438 C 8.542969 8.164062 8.554688 8.175781 8.566406 8.1875 C 8.589844 8.214844 8.621094 8.234375 8.652344 8.246094 C 8.683594 8.257812 8.71875 8.265625 8.753906 8.265625 C 8.773438 8.265625 8.789062 8.265625 8.804688 8.261719 C 8.824219 8.257812 8.839844 8.253906 8.855469 8.246094 C 8.871094 8.238281 8.886719 8.230469 8.902344 8.222656 C 8.917969 8.210938 8.929688 8.203125 8.945312 8.1875 C 8.953125 8.175781 8.964844 8.164062 8.976562 8.148438 C 8.984375 8.132812 8.996094 8.117188 9 8.101562 C 9.007812 8.085938 9.011719 8.070312 9.015625 8.054688 C 9.019531 8.035156 9.019531 8.019531 9.019531 8 C 9.019531 7.964844 9.011719 7.929688 9 7.898438 C 8.988281 7.867188 8.96875 7.835938 8.945312 7.8125 C 8.929688 7.796875 8.917969 7.789062 8.902344 7.777344 C 8.886719 7.769531 8.871094 7.761719 8.855469 7.753906 C 8.839844 7.746094 8.824219 7.742188 8.804688 7.738281 C 8.71875 7.722656 8.628906 7.75 8.566406 7.8125 C 8.542969 7.835938 8.523438 7.867188 8.507812 7.898438 C 8.496094 7.929688 8.488281 7.964844 8.488281 8 C 8.488281 8.019531 8.488281 8.035156 8.492188 8.054688 C 8.496094 8.070312 8.5 8.085938 8.507812 8.101562 Z M 8.507812 8.101562 "/>
<path style=" stroke:none;fill-rule:nonzero;fill:rgb(0%,0%,0%);fill-opacity:1;" d="M 8.652344 7.492188 C 8.683594 7.503906 8.71875 7.511719 8.753906 7.511719 C 8.773438 7.511719 8.789062 7.507812 8.804688 7.507812 C 8.824219 7.503906 8.839844 7.5 8.855469 7.492188 C 8.871094 7.484375 8.886719 7.476562 8.902344 7.464844 C 8.917969 7.457031 8.929688 7.445312 8.945312 7.433594 C 8.953125 7.421875 8.964844 7.40625 8.976562 7.394531 C 8.984375 7.378906 8.996094 7.363281 9 7.347656 C 9.007812 7.332031 9.011719 7.316406 9.015625 7.296875 C 9.019531 7.28125 9.019531 7.261719 9.019531 7.246094 C 9.019531 7.210938 9.015625 7.175781 9 7.144531 C 8.988281 7.113281 8.96875 7.082031 8.945312 7.054688 C 8.867188 6.984375 8.753906 6.960938 8.652344 7 C 8.621094 7.011719 8.589844 7.03125 8.566406 7.054688 C 8.542969 7.082031 8.523438 7.113281 8.507812 7.144531 C 8.496094 7.175781 8.488281 7.210938 8.488281 7.246094 C 8.488281 7.316406 8.515625 7.382812 8.566406 7.433594 C 8.589844 7.460938 8.621094 7.476562 8.652344 7.492188 Z M 8.652344 7.492188 "/>
<path style=" stroke:none;fill-rule:nonzero;fill:rgb(0%,0%,0%);fill-opacity:1;" d="M 8.1875 7.8125 C 8.175781 7.800781 8.164062 7.789062 8.148438 7.777344 C 8.132812 7.769531 8.117188 7.761719 8.101562 7.753906 C 8.085938 7.746094 8.070312 7.742188 8.054688 7.738281 C 8 7.726562 7.945312 7.734375 7.898438 7.753906 C 7.832031 7.777344 7.777344 7.832031 7.753906 7.898438 C 7.742188 7.929688 7.734375 7.964844 7.734375 8 C 7.734375 8.070312 7.761719 8.136719 7.8125 8.1875 C 7.835938 8.210938 7.867188 8.230469 7.898438 8.246094 C 7.929688 8.257812 7.964844 8.265625 8 8.265625 C 8.019531 8.265625 8.035156 8.265625 8.054688 8.261719 C 8.070312 8.257812 8.085938 8.253906 8.101562 8.246094 C 8.117188 8.238281 8.132812 8.230469 8.148438 8.222656 C 8.179688 8.203125 8.203125 8.179688 8.222656 8.148438 C 8.230469 8.132812 8.238281 8.117188 8.246094 8.101562 C 8.253906 8.085938 8.257812 8.070312 8.261719 8.054688 C 8.265625 8.035156 8.265625 8.019531 8.265625 8 C 8.265625 7.964844 8.257812 7.929688 8.246094 7.898438 C 8.230469 7.867188 8.210938 7.835938 8.1875 7.8125 Z M 8.1875 7.8125 "/>
<path style=" stroke:none;fill-rule:nonzero;fill:rgb(0%,0%,0%);fill-opacity:1;" d="M 7.433594 8.566406 C 7.410156 8.539062 7.378906 8.523438 7.347656 8.507812 C 7.28125 8.480469 7.207031 8.480469 7.144531 8.507812 C 7.113281 8.523438 7.082031 8.542969 7.054688 8.566406 C 7.03125 8.589844 7.011719 8.621094 7 8.652344 C 6.972656 8.71875 6.972656 8.792969 7 8.855469 C 7.011719 8.886719 7.03125 8.917969 7.054688 8.945312 C 7.082031 8.96875 7.113281 8.988281 7.144531 9 C 7.207031 9.027344 7.28125 9.027344 7.347656 9 C 7.378906 8.988281 7.410156 8.96875 7.433594 8.945312 C 7.457031 8.917969 7.476562 8.886719 7.492188 8.855469 C 7.519531 8.789062 7.519531 8.71875 7.492188 8.652344 C 7.480469 8.621094 7.460938 8.589844 7.433594 8.566406 Z M 7.433594 8.566406 "/>
<path style=" stroke:none;fill-rule:nonzero;fill:rgb(0%,0%,0%);fill-opacity:1;" d="M 7.433594 7.8125 C 7.371094 7.75 7.28125 7.722656 7.195312 7.738281 C 7.175781 7.742188 7.160156 7.746094 7.144531 7.753906 C 7.128906 7.761719 7.113281 7.769531 7.097656 7.777344 C 7.082031 7.789062 7.070312 7.796875 7.054688 7.8125 C 7.03125 7.835938 7.011719 7.867188 7 7.898438 C 6.984375 7.929688 6.980469 7.964844 6.980469 8 C 6.980469 8.019531 6.980469 8.035156 6.984375 8.054688 C 6.988281 8.070312 6.992188 8.085938 7 8.101562 C 7.003906 8.117188 7.015625 8.132812 7.023438 8.148438 C 7.035156 8.164062 7.046875 8.175781 7.054688 8.1875 C 7.070312 8.203125 7.082031 8.210938 7.097656 8.222656 C 7.113281 8.230469 7.128906 8.238281 7.144531 8.246094 C 7.160156 8.253906 7.175781 8.257812 7.195312 8.261719 C 7.210938 8.265625 7.226562 8.265625 7.246094 8.265625 C 7.28125 8.265625 7.316406 8.257812 7.347656 8.246094 C 7.378906 8.234375 7.410156 8.214844 7.433594 8.1875 C 7.445312 8.175781 7.457031 8.164062 7.464844 8.148438 C 7.476562 8.132812 7.484375 8.117188 7.492188 8.101562 C 7.5 8.085938 7.503906 8.070312 7.507812 8.054688 C 7.511719 8.035156 7.511719 8.019531 7.511719 8 C 7.511719 7.964844 7.507812 7.929688 7.492188 7.898438 C 7.476562 7.867188 7.457031 7.835938 7.433594 7.8125 Z M 7.433594 7.8125 "/>
<path style=" stroke:none;fill-rule:nonzero;fill:rgb(0%,0%,0%);fill-opacity:1;" d="M 8.1875 7.054688 C 8.164062 7.03125 8.132812 7.011719 8.101562 7 C 8 6.960938 7.886719 6.984375 7.8125 7.054688 C 7.789062 7.082031 7.769531 7.113281 7.753906 7.144531 C 7.742188 7.175781 7.734375 7.210938 7.734375 7.246094 C 7.734375 7.261719 7.734375 7.28125 7.738281 7.296875 C 7.742188 7.316406 7.746094 7.332031 7.753906 7.347656 C 7.761719 7.363281 7.769531 7.378906 7.777344 7.394531 C 7.789062 7.40625 7.800781 7.421875 7.8125 7.433594 C 7.824219 7.445312 7.839844 7.457031 7.851562 7.464844 C 7.867188 7.476562 7.882812 7.484375 7.898438 7.492188 C 7.914062 7.5 7.933594 7.503906 7.949219 7.507812 C 7.964844 7.507812 7.984375 7.511719 8 7.511719 C 8.035156 7.511719 8.070312 7.503906 8.101562 7.492188 C 8.132812 7.476562 8.164062 7.457031 8.1875 7.433594 C 8.238281 7.382812 8.265625 7.316406 8.265625 7.246094 C 8.269531 7.210938 8.261719 7.175781 8.246094 7.144531 C 8.230469 7.113281 8.210938 7.082031 8.1875 7.054688 Z M 8.1875 7.054688 "/>
<path style=" stroke:none;fill-rule:nonzero;fill:rgb(0%,0%,0%);fill-opacity:1;" d="M 7.898438 6.246094 C 7.867188 6.257812 7.835938 6.277344 7.8125 6.304688 C 7.761719 6.355469 7.734375 6.421875 7.734375 6.492188 C 7.734375 6.5625 7.761719 6.628906 7.8125 6.679688 C 7.835938 6.703125 7.867188 6.722656 7.898438 6.738281 C 7.964844 6.761719 8.035156 6.761719 8.101562 6.738281 C 8.132812 6.722656 8.164062 6.703125 8.1875 6.679688 C 8.238281 6.628906 8.265625 6.5625 8.265625 6.492188 C 8.269531 6.457031 8.261719 6.421875 8.246094 6.390625 C 8.1875 6.253906 8.035156 6.1875 7.898438 6.246094 Z M 7.898438 6.246094 "/>
<path style=" stroke:none;fill-rule:nonzero;fill:rgb(0%,0%,0%);fill-opacity:1;" d="M 7.433594 7.054688 C 7.410156 7.03125 7.378906 7.011719 7.347656 7 C 7.246094 6.960938 7.132812 6.980469 7.054688 7.054688 C 7.03125 7.082031 7.011719 7.113281 7 7.144531 C 6.984375 7.175781 6.980469 7.210938 6.980469 7.246094 C 6.980469 7.261719 6.980469 7.28125 6.984375 7.296875 C 6.988281 7.316406 6.992188 7.332031 7 7.347656 C 7.003906 7.363281 7.015625 7.378906 7.023438 7.394531 C 7.035156 7.40625 7.046875 7.421875 7.054688 7.433594 C 7.070312 7.445312 7.082031 7.457031 7.097656 7.464844 C 7.113281 7.476562 7.128906 7.484375 7.144531 7.492188 C 7.160156 7.5 7.175781 7.503906 7.195312 7.507812 C 7.210938 7.507812 7.226562 7.511719 7.246094 7.511719 C 7.28125 7.511719 7.316406 7.503906 7.347656 7.492188 C 7.378906 7.476562 7.410156 7.460938 7.433594 7.433594 C 7.445312 7.421875 7.457031 7.410156 7.464844 7.394531 C 7.476562 7.378906 7.484375 7.363281 7.492188 7.347656 C 7.5 7.332031 7.503906 7.316406 7.507812 7.296875 C 7.511719 7.28125 7.511719 7.261719 7.511719 7.246094 C 7.511719 7.210938 7.507812 7.175781 7.492188 7.144531 C 7.476562 7.113281 7.457031 7.082031 7.433594 7.054688 Z M 7.433594 7.054688 "/>
<path style=" stroke:none;fill-rule:nonzero;fill:rgb(0%,0%,0%);fill-opacity:1;" d="M 6.679688 7.8125 C 6.65625 7.785156 6.625 7.765625 6.59375 7.753906 C 6.546875 7.734375 6.492188 7.726562 6.441406 7.738281 C 6.421875 7.742188 6.40625 7.746094 6.390625 7.753906 C 6.371094 7.761719 6.359375 7.769531 6.34375 7.777344 C 6.328125 7.785156 6.316406 7.796875 6.304688 7.8125 C 6.277344 7.835938 6.257812 7.867188 6.246094 7.898438 C 6.230469 7.929688 6.222656 7.964844 6.222656 8 C 6.222656 8.019531 6.226562 8.035156 6.230469 8.054688 L 6.246094 8.101562 C 6.253906 8.117188 6.261719 8.132812 6.269531 8.148438 C 6.28125 8.164062 6.292969 8.175781 6.304688 8.1875 C 6.316406 8.203125 6.328125 8.210938 6.34375 8.222656 C 6.359375 8.230469 6.371094 8.238281 6.390625 8.246094 C 6.40625 8.253906 6.421875 8.257812 6.441406 8.261719 C 6.457031 8.265625 6.472656 8.265625 6.492188 8.265625 C 6.527344 8.265625 6.5625 8.257812 6.59375 8.246094 C 6.625 8.230469 6.65625 8.214844 6.679688 8.1875 C 6.691406 8.175781 6.703125 8.164062 6.710938 8.148438 C 6.722656 8.132812 6.730469 8.117188 6.738281 8.101562 C 6.746094 8.085938 6.75 8.070312 6.753906 8.054688 C 6.757812 8.035156 6.757812 8.019531 6.757812 8 C 6.757812 7.964844 6.75 7.929688 6.738281 7.898438 C 6.722656 7.867188 6.703125 7.835938 6.679688 7.8125 Z M 6.679688 7.8125 "/>
</g>
</svg>
