<svg width="16" height="16" viewBox="0 0 16 16" fill="none" xmlns="http://www.w3.org/2000/svg">
<path fill-rule="evenodd" clip-rule="evenodd" d="M8 16C12.4183 16 16 12.4183 16 8C16 3.58172 12.4183 0 8 0C3.58172 0 0 3.58172 0 8C0 12.4183 3.58172 16 8 16ZM4 5C4 4.44772 4.44769 4 5 4H6C6.55231 4 7 4.44772 7 5V11C7 11.5523 6.55231 12 6 12H5C4.44769 12 4 11.5523 4 11V5ZM9 5C9 4.44772 9.44769 4 10 4H11C11.5523 4 12 4.44772 12 5V11C12 11.5523 11.5523 12 11 12H10C9.44769 12 9 11.5523 9 11V5Z" fill="white"/>
</svg>
