<!DOCTYPE svg PUBLIC "-//W3C//DTD SVG 1.1//EN" "http://www.w3.org/Graphics/SVG/1.1/DTD/svg11.dtd">

<svg height="256px" width="256px" version="1.1" id="Layer_1" xmlns="http://www.w3.org/2000/svg" xmlns:xlink="http://www.w3.org/1999/xlink" viewBox="0 0 511.998 511.998" xml:space="preserve" fill="#000000">

<g id="bgCarrier" stroke-width="0"/>

<g id="tracerCarrier" stroke-linecap="round" stroke-linejoin="round"/>

<g id="iconCarrier"> <path style="fill:#57555C;" d="M211.962,46.776c-30.808,52.351-26.259,120.619,10.167,175.469l47.353-53.591 c0,0,3.208,35.469,22.803,52.782c22.138,19.562,52.861,14.073,52.861,14.073l-47.352,53.59 c58.923,29.398,127.227,25.502,175.395-11.508c40.59,76.725,50.678,154.074,23.693,210.644 c-68.086-40.96-139.547-53.291-189.196-32.507c-4.711-5.459-9.693-10.765-15.252-15.676c-49.684-43.9-118.747-51.334-173.969-24.242 c20.09-58.133,4.213-125.752-45.475-169.656c-5.563-4.915-11.437-9.202-17.439-13.209C70.07,181.12,49.033,111.722,0,49.198 C52.817,15.452,130.819,15.939,211.962,46.776z"/> <path style="fill:#787780;" d="M118.474,415.816c50.147-35.618,126.148-50.049,182.248-14.711 c6.276,3.953,12.046,8.386,17.576,13.019c45.655-28.505,119.85-27.274,193.639,2.202c0.657,20.283-3.976,48.718-15.039,71.909 c-68.086-40.96-139.547-53.291-189.196-32.507c-4.711-5.459-9.693-10.765-15.252-15.676c-49.684-43.9-118.747-51.334-173.969-24.242 L118.474,415.816z"/> <path style="fill:#3B3A3C;" d="M118.474,415.816c29.172-54.152,34.134-131.338-7.842-182.659 c-4.696-5.742-9.806-10.921-15.085-15.839c22.665-48.819,12.237-122.328-26.101-191.926C45.73,28.273,21.662,35.369,0.01,49.204 c49.033,62.525,70.068,131.922,55.556,183.753c5.998,4.002,11.877,8.293,17.434,13.205c49.684,43.9,65.565,111.522,45.48,169.659 L118.474,415.816z"/> </g>

</svg>