<!DOCTYPE svg PUBLIC "-//W3C//DTD SVG 1.1//EN" "http://www.w3.org/Graphics/SVG/1.1/DTD/svg11.dtd">

<svg height="256px" width="256px" version="1.1" id="Layer_1" xmlns="http://www.w3.org/2000/svg" xmlns:xlink="http://www.w3.org/1999/xlink" viewBox="0 0 512.001 512.001" xml:space="preserve" fill="#000000">

<g id="bgCarrier" stroke-width="0"/>

<g id="tracerCarrier" stroke-linecap="round" stroke-linejoin="round"/>

<g id="iconCarrier"> <path style="fill:#F8F8F8;" d="M430.778,420.834c-143.104,0-259.106-116.007-259.106-259.106 c0-61.222,21.353-117.387,56.857-161.728C112.331,25.582,25.326,129.008,25.326,252.895c0,143.098,116.002,259.106,259.106,259.106 c81.875,0,154.762-38.076,202.244-97.378C468.653,418.591,449.99,420.834,430.778,420.834z"/> <g> <circle style="fill:#E0E0E3;" cx="236.446" cy="417.637" r="28.789"/> <circle style="fill:#E0E0E3;" cx="133.282" cy="286.485" r="23.991"/> <circle style="fill:#E0E0E3;" cx="95.695" cy="225.708" r="19.992"/> <path style="fill:#E0E0E3;" d="M171.64,165.877c-0.018,0-0.038-0.006-0.061-0.006c-21.639,0-39.183,17.545-39.183,39.186 s17.544,39.186,39.183,39.186c4.447,0,8.645-0.901,12.628-2.264C176.397,217.955,172.048,192.407,171.64,165.877z"/> <path style="fill:#E0E0E3;" d="M294.354,511.791c1.773-0.067,3.547-0.129,5.311-0.231c0.658-0.038,1.308-0.099,1.964-0.142 c1.861-0.122,3.722-0.244,5.571-0.405c0.514-0.045,1.024-0.109,1.537-0.157c1.982-0.185,3.963-0.375,5.932-0.605 c0.541-0.064,1.075-0.146,1.615-0.212c1.937-0.239,3.873-0.48,5.796-0.762c0.337-0.049,0.668-0.111,1.004-0.162 c2.121-0.318,4.236-0.65,6.338-1.02c0.196-0.034,0.389-0.077,0.585-0.111c2.239-0.398,4.47-0.819,6.69-1.275 c0.044-0.01,0.088-0.021,0.133-0.029c60.111-12.383,112.575-45.641,149.631-91.8c-17.707,3.824-36.039,5.953-54.888,5.953 c-0.102,0-0.203-0.006-0.305-0.007c-0.164,0-0.327,0.007-0.492,0.007c-3.547,0-7.072-0.092-10.583-0.233 c-40.132,41.496-96.272,67.408-158.555,67.408c-121.906,0-220.719-98.82-220.719-220.719c0-98.185,64.14-181.332,152.781-209.991 C202.842,36.651,214.589,17.411,228.529,0C128.673,21.983,50.376,101.457,30.327,201.999c-0.012,0.064-0.023,0.129-0.037,0.192 c-0.35,1.762-0.684,3.53-0.998,5.305c-0.038,0.212-0.069,0.426-0.105,0.638c-0.284,1.63-0.558,3.263-0.812,4.902 c-0.051,0.335-0.094,0.675-0.146,1.011c-0.229,1.521-0.453,3.043-0.655,4.572c-0.058,0.437-0.104,0.878-0.159,1.315 c-0.182,1.432-0.364,2.866-0.522,4.307c-0.062,0.568-0.11,1.141-0.17,1.71c-0.136,1.315-0.274,2.629-0.391,3.949 c-0.065,0.735-0.111,1.473-0.17,2.209c-0.092,1.162-0.191,2.321-0.268,3.487c-0.062,0.94-0.104,1.885-0.155,2.828 c-0.054,0.967-0.116,1.932-0.159,2.903c-0.054,1.234-0.086,2.473-0.122,3.711c-0.021,0.686-0.053,1.368-0.067,2.054 c-0.043,1.928-0.064,3.862-0.064,5.801C25.327,395.992,141.329,512,284.433,512c2.556,0,5.104-0.038,7.644-0.111 C292.837,511.868,293.594,511.819,294.354,511.791z"/> </g> </g>

</svg>