<?xml version="1.0" encoding="UTF-8"?>
<svg width="14px" height="16px" viewBox="0 0 14 16" version="1.1" xmlns="http://www.w3.org/2000/svg" xmlns:xlink="http://www.w3.org/1999/xlink">
    <!-- Generator: Sketch 61.2 (89653) - https://sketch.com -->
    <title>Icon_desert</title>
    <desc>Created with Sketch.</desc>
    <g id="Decals-PG" stroke="none" stroke-width="1" fill="none" fill-rule="evenodd">
        <g id="Decal's-Property-Grid" transform="translate(-65.000000, -1071.000000)">
            <g id="Icons/16x16/Desert" transform="translate(64.000000, 1071.000000)">
                <path d="M5.0879,8.7314 L5.0809,8.7314 C4.5299,8.6224 4.2939,7.8774 4.2929,7.8774 L3.5239,4.4464 C3.4349,3.9014 3.1389,3.5604 2.5939,3.6484 C2.0489,3.7364 1.8709,4.1354 1.9609,4.6804 L2.3469,8.0464 C2.4409,9.2154 2.9859,10.7314 4.8489,10.7314 L5.1129,10.7314 C5.0859,10.0454 5.0749,9.3574 5.0879,8.7314" id="Fill-1" fill="#D1D1D1"></path>
                <path d="M9.7773,2.457 C9.6343,0.596 8.7063,0 7.6013,0 C6.4973,0 5.5233,0.666 5.4493,2.102 C5.4493,2.102 5.3193,4.007 5.1083,8.107 C5.0123,9.966 5.1873,12.73 5.4103,14.102 C7.1313,13.936 8.5913,13.949 9.7963,14.08 C10.0173,12.701 10.1903,9.956 10.0943,8.107 C9.8833,4.007 9.7773,2.457 9.7773,2.457 M12.3093,2.104 C11.8043,2.065 11.6483,2.373 11.6013,2.84 L10.9993,6.682 C10.9763,6.812 10.8703,7.322 10.5543,7.407 L10.5583,7.407 C10.5703,7.633 10.5823,7.844 10.5933,8.082 C10.6093,8.392 10.6173,8.739 10.6193,9.106 L11.1623,9.106 C11.5983,9.106 12.5193,8.731 12.6103,6.649 L12.8533,2.958 C12.9003,2.491 12.7773,2.141 12.3093,2.104" id="Fill-3" fill="#FFFFFF"></path>
                <path d="M1,16 L15,16 C15,16 12.099,12.855 3.162,14.398 C2.098,14.583 1.176,15.137 1,16" id="Fill-5" fill="#9B9B9B"></path>
            </g>
        </g>
    </g>
</svg>