<?xml version="1.0" encoding="UTF-8"?>
<svg width="17px" height="17px" viewBox="0 0 17 17" version="1.1" xmlns="http://www.w3.org/2000/svg" xmlns:xlink="http://www.w3.org/1999/xlink">
    <!-- Generator: Sketch 61.2 (89653) - https://sketch.com -->
    <title>Icon_event</title>
    <desc>Created with Sketch.</desc>
    <g id="Decals-PG" stroke="none" stroke-width="1" fill="none" fill-rule="evenodd">
        <g id="Decal's-Property-Grid" transform="translate(-181.000000, -1071.000000)">
            <g id="Icons/16x16/Event" transform="translate(181.500000, 1071.000000)">
                <path d="M2.94247675,6.8047 C2.54947675,6.5297 2.15347675,6.2287 1.56147675,5.7537 C0.734476754,5.0917 0.347476754,3.7027 0.649476754,3.0677 C1.20547675,1.8987 2.28847675,2.5757 2.28847675,2.5757 C2.76747675,2.9107 3.24347675,3.1147 3.78547675,5.2437 L4.11447675,5.2477 C3.73347675,3.4837 3.23147675,2.4997 2.53547675,2.0267 C2.53547675,2.0267 0.787476754,0.8767 0.0884767538,2.8017 C-0.237523246,3.6957 0.379476754,5.4477 1.24947675,6.1447 C1.85347675,6.6287 2.25647675,6.9337 2.65447675,7.2137 C3.67547675,7.9317 4.09847675,8.2297 4.46247675,9.4517 C4.50747675,9.6367 4.53547675,9.8927 4.52147675,10.1137 C4.42947675,9.9257 4.24047675,9.7927 4.01747675,9.7927 C3.70547675,9.7927 3.45347675,10.0457 3.45347675,10.3577 C3.45347675,10.4377 3.46947675,10.5117 3.49947675,10.5797 C3.50047675,10.5837 3.50347675,10.5857 3.50447675,10.5887 C3.53747675,10.6587 3.58447675,10.7207 3.63947675,10.7717 C3.81647675,10.9507 4.06447675,11.0557 4.22647675,11.0557 C4.41747675,11.0557 4.57847675,11.0007 4.71047675,10.8927 C5.22047675,10.4737 4.97347675,9.4357 4.94347675,9.3197 C4.52847675,7.9197 3.99847675,7.5477 2.94247675,6.8047" id="Path" fill="#FFFFFF"></path>
                <path d="M15.9124768,2.8017 C15.2134768,0.8767 13.4644768,2.0267 13.4644768,2.0267 C12.7684768,2.4997 12.2674768,3.4837 11.8864768,5.2477 L12.2144768,5.2437 C12.7564768,3.1147 13.2324768,2.9107 13.7124768,2.5757 C13.7124768,2.5757 14.7954768,1.8987 15.3504768,3.0677 C15.6524768,3.7027 15.2654768,5.0917 14.4384768,5.7537 C13.8464768,6.2287 13.4504768,6.5297 13.0574768,6.8047 C12.0024768,7.5477 11.4714768,7.9197 11.0564768,9.3197 C11.0264768,9.4357 10.7794768,10.4737 11.2904768,10.8927 C11.4214768,11.0007 11.5834768,11.0557 11.7734768,11.0557 C11.9354768,11.0557 12.1834768,10.9507 12.3604768,10.7717 C12.4164768,10.7207 12.4634768,10.6587 12.4954768,10.5887 C12.4974768,10.5857 12.5004768,10.5837 12.5014768,10.5797 C12.5304768,10.5117 12.5464768,10.4377 12.5464768,10.3577 C12.5464768,10.0457 12.2954768,9.7927 11.9824768,9.7927 C11.7594768,9.7927 11.5704768,9.9257 11.4794768,10.1137 C11.4644768,9.8927 11.4924768,9.6367 11.5384768,9.4517 C11.9014768,8.2297 12.3244768,7.9317 13.3454768,7.2137 C13.7434768,6.9337 14.1464768,6.6287 14.7514768,6.1447 C15.6214768,5.4477 16.2374768,3.6957 15.9124768,2.8017" id="Path" fill="#FFFFFF"></path>
                <path d="M9.49517675,13.0108 L6.50517675,13.0108 C5.95017675,13.0108 5.50017675,13.4608 5.50017675,14.0158 L5.50017675,16.0108 L10.5001768,16.0108 L10.5001768,14.0158 C10.5001768,13.4608 10.0501768,13.0108 9.49517675,13.0108" id="Fill-4" fill="#BEBEBE"></path>
                <path d="M13.0000768,2.5 L11.5360768,7.614 C11.2260768,9.703 9.73707675,12 8.00007675,12 C6.26307675,12 4.77407675,9.703 4.46407675,7.614 L4.46407675,7.614 L3.00007675,2.5 L13.0000768,2.5 Z M8.99957675,3.9998 L8.03057675,3.9998 C8.01957675,4.2898 7.61057675,4.7838 6.99957675,4.7838 L6.99957675,4.7838 L6.99957675,5.5838 C7.52457675,5.5838 7.86557675,5.3888 7.96857675,5.2308 L7.96857675,5.2308 L8.01257675,5.2308 L8.01257675,8.9998 L8.99957675,8.9998 L8.99957675,3.9998 Z" id="Combined-Shape" fill="#FFFFFF"></path>
                <path d="M11.0000768,15 L5.00007675,15 C4.72407675,15 4.50007675,15.224 4.50007675,15.5 C4.50007675,15.776 4.72407675,16 5.00007675,16 L11.0000768,16 C11.2760768,16 11.5000768,15.776 11.5000768,15.5 C11.5000768,15.224 11.2760768,15 11.0000768,15 L11.0000768,15 Z" id="Path" fill="#FFFFFF"></path>
                <path d="M13.2500768,0 L2.75007675,0 C2.33607675,0 2.00007675,0.336 2.00007675,0.75 C2.00007675,1.164 2.33607675,1.5 2.75007675,1.5 L13.2500768,1.5 C13.6640768,1.5 14.0000768,1.164 14.0000768,0.75 C14.0000768,0.336 13.6640768,0 13.2500768,0 L13.2500768,0 Z" id="Path" fill="#FFFFFF"></path>
            </g>
        </g>
    </g>
</svg>