<?xml version="1.0" encoding="UTF-8"?>
<svg width="16px" height="16px" viewBox="0 0 16 16" version="1.1" xmlns="http://www.w3.org/2000/svg" xmlns:xlink="http://www.w3.org/1999/xlink">
    <!-- Generator: Sketch 61.2 (89653) - https://sketch.com -->
    <title>Icon_summer</title>
    <desc>Created with Sketch.</desc>
    <g id="Decals-PG" stroke="none" stroke-width="1" fill="none" fill-rule="evenodd">
        <g id="Decal's-Property-Grid" transform="translate(-64.000000, -1022.000000)" fill="#FFFFFF">
            <g id="Icons/16x16/Enviroment" transform="translate(64.000000, 1022.000000)">
                <path d="M8,5 C6.344,5 5,6.343 5,8 C5,9.657 6.344,11 8,11 C9.656,11 11,9.657 11,8 C11,6.343 9.656,5 8,5 L8,5 Z M8,12 C5.792,12 4,10.209 4,8 C4,5.791 5.792,4 8,4 C10.208,4 12,5.791 12,8 C12,10.209 10.208,12 8,12 L8,12 Z M16,8 L12.375,6.187 L13.657,2.344 L9.812,3.624 L8,0 L6.188,3.624 L2.344,2.343 L3.625,6.187 L0,8 L3.625,9.812 L2.343,13.656 L6.188,12.375 L8,16 L9.812,12.375 L13.656,13.657 L12.375,9.812 L16,8 Z" id="Page-1"></path>
            </g>
        </g>
    </g>
</svg>