<?xml version="1.0" encoding="UTF-8"?>
<svg width="15px" height="16px" viewBox="0 0 15 16" version="1.1" xmlns="http://www.w3.org/2000/svg" xmlns:xlink="http://www.w3.org/1999/xlink">
    <!-- Generator: Sketch 61.2 (89653) - https://sketch.com -->
    <title>Icon_winter</title>
    <desc>Created with Sketch.</desc>
    <g id="Decals-PG" stroke="none" stroke-width="1" fill="none" fill-rule="evenodd">
        <g id="Decal's-Property-Grid" transform="translate(-182.000000, -1022.000000)" fill="#FFFFFF">
            <g id="Icons/16x16/Snowflake" transform="translate(181.500000, 1022.000000)">
                <path d="M7.9962,7.5 C7.7192,7.5 7.4962,7.725 7.4962,8 C7.4962,8.276 7.7192,8.5 7.9962,8.5 C8.2712,8.5 8.4962,8.276 8.4962,8 C8.4962,7.725 8.2712,7.5 7.9962,7.5 L7.9962,7.5 Z M10.0592,8.614 L10.0592,8.614 C9.8202,8.477 9.5142,8.558 9.3762,8.797 C9.2372,9.036 9.3192,9.342 9.5582,9.479 L9.5592,9.48 L9.2042,10.095 L8.4952,10.095 C8.4952,9.818 8.2712,9.595 7.9952,9.595 C7.7192,9.595 7.4952,9.818 7.4952,10.095 L6.7872,10.095 L6.4322,9.479 C6.6712,9.342 6.7532,9.036 6.6142,8.797 C6.4762,8.557 6.1702,8.475 5.9322,8.614 L5.5772,8 L5.9322,7.386 C6.0112,7.432 6.0972,7.453 6.1822,7.453 C6.3532,7.453 6.5222,7.363 6.6142,7.203 C6.7532,6.964 6.6712,6.658 6.4322,6.521 L6.7872,5.906 L7.4952,5.906 C7.4952,6.183 7.7192,6.406 7.9952,6.406 C8.2712,6.406 8.4952,6.183 8.4952,5.906 L9.2042,5.906 L9.5582,6.521 C9.3192,6.658 9.2372,6.964 9.3762,7.203 C9.4682,7.363 9.6372,7.453 9.8082,7.453 C9.8932,7.453 9.9792,7.432 10.0592,7.386 L10.4142,8 L10.0592,8.614 Z M14.7402,11.317 L13.2752,10.472 L14.4672,9.686 C14.6972,9.534 14.7612,9.224 14.6082,8.993 C14.4572,8.762 14.1452,8.696 13.9162,8.852 L12.3082,9.913 L10.9252,9.114 L11.5682,8 L10.9252,6.886 L12.3082,6.088 L13.9162,7.149 C14.0012,7.206 14.0972,7.232 14.1912,7.232 C14.3532,7.232 14.5132,7.153 14.6082,7.008 C14.7612,6.777 14.6972,6.468 14.4672,6.315 L13.2752,5.528 L14.7402,4.683 C14.9792,4.545 15.0612,4.239 14.9232,4 C14.7852,3.76 14.4782,3.678 14.2402,3.817 L12.7762,4.663 L12.6902,3.238 C12.6742,2.964 12.4592,2.752 12.1612,2.77 C11.8862,2.786 11.6762,3.022 11.6922,3.299 L11.8082,5.223 L10.4262,6.02 L9.7822,4.906 L8.4952,4.906 L8.4952,3.309 L10.2192,2.447 C10.4662,2.323 10.5652,2.023 10.4422,1.776 C10.3182,1.529 10.0182,1.429 9.7712,1.553 L8.4952,2.191 L8.4952,0.5 C8.4952,0.224 8.2712,0 7.9952,0 C7.7192,0 7.4952,0.224 7.4952,0.5 L7.4952,2.191 L6.2192,1.553 C5.9722,1.43 5.6722,1.53 5.5482,1.776 C5.4252,2.023 5.5242,2.323 5.7712,2.447 L7.4952,3.309 L7.4952,4.906 L6.2092,4.906 L5.5652,6.021 L4.1832,5.223 L4.2982,3.299 C4.3142,3.022 4.1042,2.786 3.8292,2.77 C3.5182,2.748 3.3152,2.964 3.3002,3.238 L3.2142,4.663 L1.7502,3.817 C1.5122,3.679 1.2052,3.761 1.0672,4 C0.9292,4.239 1.0112,4.545 1.2502,4.683 L2.7152,5.528 L1.5232,6.315 C1.2932,6.468 1.2292,6.777 1.3822,7.008 C1.4772,7.153 1.6372,7.232 1.7992,7.232 C1.8932,7.232 1.9892,7.206 2.0742,7.149 L3.6832,6.088 L5.0662,6.886 L4.4232,8 L5.0662,9.114 L3.6832,9.913 L2.0742,8.852 C1.8432,8.696 1.5332,8.762 1.3822,8.993 C1.2292,9.224 1.2932,9.534 1.5232,9.686 L2.7152,10.472 L1.2502,11.317 C1.0112,11.455 0.9292,11.761 1.0672,12 C1.1592,12.16 1.3282,12.25 1.5002,12.25 C1.5852,12.25 1.6712,12.229 1.7502,12.183 L3.2142,11.337 L3.3002,12.763 C3.3152,13.027 3.5362,13.232 3.7992,13.232 C3.8092,13.232 3.8182,13.232 3.8292,13.231 C4.1042,13.215 4.3142,12.979 4.2982,12.702 L4.1832,10.777 L5.5652,9.979 L6.2092,11.095 L7.4952,11.095 L7.4952,12.691 L5.7712,13.553 C5.5242,13.677 5.4252,13.977 5.5482,14.224 C5.6722,14.471 5.9712,14.572 6.2192,14.447 L7.4952,13.809 L7.4952,15.5 C7.4952,15.776 7.7192,16 7.9952,16 C8.2712,16 8.4952,15.776 8.4952,15.5 L8.4952,13.809 L9.7712,14.447 C9.8442,14.483 9.9202,14.5 9.9952,14.5 C10.1782,14.5 10.3542,14.398 10.4422,14.224 C10.5652,13.977 10.4662,13.677 10.2192,13.553 L8.4952,12.691 L8.4952,11.095 L9.7822,11.095 L10.4262,9.98 L11.8082,10.777 L11.6922,12.702 C11.6762,12.979 11.8862,13.215 12.1612,13.231 C12.1722,13.232 12.1822,13.232 12.1912,13.232 C12.4542,13.232 12.6752,13.027 12.6902,12.763 L12.7762,11.337 L14.2402,12.183 C14.3192,12.229 14.4052,12.25 14.4902,12.25 C14.6622,12.25 14.8312,12.16 14.9232,12 C15.0612,11.761 14.9792,11.455 14.7402,11.317 L14.7402,11.317 Z" id="Fill-1"></path>
            </g>
        </g>
    </g>
</svg>