<svg width="16" height="16" viewBox="0 0 16 16" fill="none" xmlns="http://www.w3.org/2000/svg">
<rect y="1" width="16" height="2" fill="#8C8C8C"/>
<rect y="13" width="16" height="2" fill="#8C8C8C"/>
<path fill-rule="evenodd" clip-rule="evenodd" d="M7 1H9V3H7.00005L7 2.99998V1ZM6 2.79502V1C6 0.447715 6.44772 0 7 0H9C9.55228 0 10 0.447715 10 1V1.01495C10.8873 1.07002 11.6443 1.28037 12.2368 1.69866C12.9746 2.21946 13.3205 2.96373 13.428 3.73743C13.5307 4.4769 13.4226 5.27159 13.2524 6.01896C13.08 6.77555 12.8231 7.56809 12.5737 8.31623L12.472 8.62043L12.472 8.62049C12.2539 9.27231 12.0484 9.88642 11.8907 10.4658C11.7068 11.1412 11.6131 11.6838 11.6246 12.0972C11.6357 12.4961 11.7385 12.654 11.8304 12.7352C11.8674 12.7679 11.9247 12.8077 12.0117 12.8464C12.0856 12.367 12.5 12 13 12H15C15.5523 12 16 12.4477 16 13V15C16 15.5523 15.5523 16 15 16H13C12.4477 16 12 15.5523 12 15V14.9158C11.4219 14.809 10.9132 14.594 10.5056 14.2335C9.85525 13.6585 9.64556 12.8789 9.62539 12.1528C9.60562 11.4412 9.76194 10.6713 9.96089 9.94046C10.1349 9.30123 10.3609 8.62633 10.5774 7.97979L10.5774 7.97973L10.6763 7.68377C10.9269 6.93191 11.1543 6.22445 11.3023 5.57479C11.4524 4.91591 11.5006 4.3981 11.447 4.01257C11.3982 3.66127 11.2754 3.46804 11.0835 3.33259C10.9019 3.20444 10.5748 3.07015 9.9998 3.02023C9.98902 3.56318 9.54552 4 9 4H7.6602C6.32749 7.12827 5.37278 9.52525 4 13.1816V15C4 15.5523 3.55228 16 3 16H1C0.447715 16 0 15.5523 0 15V13C0 12.4477 0.447715 12 1 12H2.30763C3.65446 8.426 4.61969 6.0214 6 2.79502ZM15 15H13V13H15V15ZM3 13H1V15H3V13Z" fill="white"/>
</svg>
