<svg width="16" height="16" viewBox="0 0 16 16" fill="none" xmlns="http://www.w3.org/2000/svg">
<rect width="16" height="2" transform="matrix(1 -8.74228e-08 -8.74228e-08 -1 0 3)" fill="#8C8C8C"/>
<rect width="16" height="2" transform="matrix(-1 0 0 1 16 13)" fill="#8C8C8C"/>
<path fill-rule="evenodd" clip-rule="evenodd" d="M3 1H1V3H3V1ZM1 0C0.447716 0 0 0.447715 0 1V3C0 3.55228 0.447716 4 1 4H2.58586L12 13.4141V15C12 15.5523 12.4477 16 13 16H15C15.5523 16 16 15.5523 16 15V13C16 12.4477 15.5523 12 15 12H13.4143L4 2.58571V1C4 0.447715 3.55228 0 3 0H1ZM13.0001 13H15V15H13V13.0001L13.0001 13Z" fill="white"/>
</svg>
