<svg width="16" height="16" viewBox="0 0 16 16" fill="none" xmlns="http://www.w3.org/2000/svg">
<rect width="16" height="2" transform="matrix(-1 0 0 1 16 1)" fill="#8C8C8C"/>
<rect width="16" height="2" transform="matrix(-1 0 0 1 16 13)" fill="#8C8C8C"/>
<path fill-rule="evenodd" clip-rule="evenodd" d="M7 1H9V3H7V1ZM9 0C9.55228 0 10 0.447715 10 1C10.8711 1.00002 11.642 1.24262 12.2002 1.82149C12.7393 2.38053 12.9396 3.11019 12.9964 3.79196C13.1066 5.1141 12.7093 6.78534 12.345 8.24254C12.3087 8.38769 12.2727 8.53107 12.2371 8.67255C11.889 10.0566 11.5868 11.2583 11.562 12.1528C11.5483 12.6456 11.6298 12.8563 11.675 12.9229C11.6871 12.9407 11.6953 12.948 11.7162 12.9577C11.7453 12.9711 11.8276 13 11.9999 13V15C11.1914 15 10.4722 14.7121 10.0201 14.0459C9.61995 13.4562 9.54521 12.7294 9.56277 12.0972C9.59418 10.9661 9.95627 9.53349 10.2891 8.21662L10.2892 8.21624C10.3283 8.06149 10.367 7.90834 10.4047 7.75746C10.7904 6.21466 11.0807 4.8859 11.0033 3.95804C10.9664 3.51481 10.8543 3.30697 10.7605 3.20976C10.6859 3.1324 10.5038 3.00001 10 3C10 3.55228 9.55228 4 9 4H7.54929C6.83337 5.06414 6.13154 5.67085 5.44438 6.05848C5.06586 6.272 4.71713 6.40405 4.44686 6.50416L4.43105 6.51001C4.14844 6.61467 3.99963 6.66978 3.87107 6.74324C3.73714 6.81978 3.52079 6.95181 3.33127 7.73515C3.14105 8.52139 3.0178 9.81401 3.00172 12C3.55322 12.0009 4 12.4483 4 13V15C4 15.5523 3.55228 16 3 16H1C0.447716 16 0 15.5523 0 15V13C0 12.4477 0.447716 12 1 12H1.00164C1.01732 9.77207 1.14089 8.28356 1.38735 7.26485C1.66658 6.11069 2.13773 5.43023 2.87879 5.00676C3.15779 4.84733 3.45822 4.73684 3.68671 4.65281L3.75223 4.62866C4.00929 4.53345 4.23087 4.44675 4.46173 4.31652C4.86429 4.08944 5.38516 3.67786 6 2.71565V1C6 0.447715 6.44772 0 7 0H9ZM13 13H15V15H13V13ZM15 12C15.5523 12 16 12.4477 16 13V15C16 15.5523 15.5523 16 15 16H13C12.4477 16 12 15.5523 12 15V13C12 12.4477 12.4477 12 13 12H15ZM3 13H1V15H3V13Z" fill="white"/>
</svg>
