<svg width="16" height="16" viewBox="0 0 16 16" fill="none" xmlns="http://www.w3.org/2000/svg">
<rect width="16" height="2" transform="matrix(-1 0 0 1 16 1)" fill="#8C8C8C"/>
<rect width="16" height="2" transform="matrix(-1 0 0 1 16 13)" fill="#8C8C8C"/>
<path fill-rule="evenodd" clip-rule="evenodd" d="M3 1H1V3H3V1ZM4 1C4 0.447715 3.55228 0 3 0H1C0.447716 0 0 0.447715 0 1V3C0 3.55228 0.447716 4 1 4H3C3.55228 4 4 3.55228 4 3H13V12C12.4477 12 12 12.4477 12 13V15C12 15.5523 12.4477 16 13 16H15C15.5523 16 16 15.5523 16 15V13C16 12.4477 15.5523 12 15 12V1H4ZM15 15V13H13V15H15Z" fill="white"/>
</svg>
