<svg width="16" height="16" viewBox="0 0 16 16" fill="none" xmlns="http://www.w3.org/2000/svg">
<rect width="16" height="2" transform="matrix(-1 0 0 1 16 1)" fill="#8C8C8C"/>
<rect width="16" height="2" transform="matrix(-1 0 0 1 16 13)" fill="#8C8C8C"/>
<path fill-rule="evenodd" clip-rule="evenodd" d="M3 1H1V3H3V1ZM3 4C3.53077 4 3.96495 3.58649 3.99798 3.06406C4.50173 3.13469 4.89294 3.25877 5.19944 3.41111C5.6708 3.64539 5.99201 3.97094 6.22997 4.37887C6.74928 5.26912 6.87288 6.51612 7.00345 8.08305L7.01323 8.20071C7.13025 9.61122 7.27086 11.3061 8.04247 12.6289C8.46076 13.3459 9.06142 13.9579 9.91038 14.3799C10.5085 14.6772 11.2023 14.8666 12 14.9502V15C12 15.5523 12.4477 16 13 16H15C15.5523 16 16 15.5523 16 15V13C16 12.4477 15.5523 12 15 12H13C12.4692 12 12.035 12.4135 12.002 12.9359C11.4983 12.8653 11.1071 12.7412 10.8006 12.5889C10.3292 12.3546 10.008 12.0291 9.77003 11.6211C9.25072 10.7309 9.12712 9.48388 8.99655 7.91695L8.98677 7.79929C8.86975 6.38878 8.72914 4.69389 7.95753 3.37113C7.53924 2.65406 6.93858 2.04211 6.08962 1.62014C5.49148 1.32284 4.79773 1.13342 4 1.04976V1C4 0.447715 3.55228 0 3 0H1C0.447715 0 0 0.447715 0 1V3C0 3.55228 0.447715 4 1 4H3ZM13 15H15V13H13V15Z" fill="white"/>
</svg>
