<!DOCTYPE svg PUBLIC "-//W3C//DTD SVG 1.1//EN" "http://www.w3.org/Graphics/SVG/1.1/DTD/svg11.dtd">

<svg fill="#ffffff" version="1.1" id="Capa_1" xmlns="http://www.w3.org/2000/svg" xmlns:xlink="http://www.w3.org/1999/xlink" width="256px" height="256px" viewBox="0 0 45.806 45.807" xml:space="preserve">

<g id="bgCarrier" stroke-width="0"/>

<g id="tracerCarrier" stroke-linecap="round" stroke-linejoin="round"/>

<g id="iconCarrier"> <g> <g> <path d="M27.388,45.807h10.766c1.551,0,2.801-1.276,2.801-2.828V19.859H27.388V45.807z"/> <path d="M4.852,42.979c0,1.552,1.251,2.828,2.802,2.828h10.764V19.86H4.852V42.979z"/> <path d="M41.117,9.851H27.388v8.303h13.729c1.551,0,2.804-1.275,2.804-2.826v-2.636C43.92,11.141,42.667,9.851,41.117,9.851z"/> <path d="M1.886,12.692v2.636c0,1.551,1.255,2.826,2.806,2.826h13.727V9.851H4.692C3.141,9.851,1.886,11.141,1.886,12.692z"/> <path d="M37.229,6.728c0.521-0.637,1.076-1.715,0.755-3.327C37.566,1.303,35.357,0,32.219,0c-1.285,0-2.64,0.216-4.028,0.642 c-0.869,0.267-1.677,0.641-2.414,1.071c-0.496-0.361-1.063-0.63-1.676-0.783c-0.378-0.106-0.775-0.171-1.183-0.188 c-0.42,0.018-0.827,0.086-1.214,0.198c-0.599,0.155-1.153,0.421-1.64,0.776c-0.739-0.431-1.548-0.805-2.419-1.073 c-1.388-0.426-2.743-0.642-4.027-0.642c-3.138,0-5.346,1.303-5.765,3.401c-0.321,1.611,0.233,2.69,0.755,3.326 c1.219,1.485,3.574,2.16,7.413,2.16h6.897h6.897C33.656,8.888,36.01,8.213,37.229,6.728z M18.066,5.478h-2.045 c-3.833,0-4.668-0.752-4.797-0.908c-0.042-0.051-0.128-0.135-0.053-0.513c0.055-0.151,0.775-0.678,2.447-0.678 c0.935,0,1.984,0.173,3.035,0.496c0.544,0.167,1.06,0.37,1.544,0.637C18.122,4.823,18.078,5.146,18.066,5.478z M27.648,4.508 c0.481-0.265,0.995-0.473,1.536-0.64c1.052-0.322,2.101-0.489,3.035-0.489c1.671,0,2.392,0.525,2.446,0.676 c0.076,0.378-0.012,0.464-0.053,0.515c-0.129,0.156-0.965,0.908-4.797,0.908h-2.039C27.767,5.145,27.722,4.821,27.648,4.508z"/> </g> </g> </g>

</svg>