<!DOCTYPE svg PUBLIC "-//W3C//DTD SVG 1.1//EN" "http://www.w3.org/Graphics/SVG/1.1/DTD/svg11.dtd">

<svg fill="#ffffff" version="1.1" id="Capa_1" xmlns="http://www.w3.org/2000/svg" xmlns:xlink="http://www.w3.org/1999/xlink" width="256px" height="256px" viewBox="0 0 44.256 44.257" xml:space="preserve">

<g id="bgCarrier" stroke-width="0"/>

<g id="tracerCarrier" stroke-linecap="round" stroke-linejoin="round"/>

<g id="iconCarrier"> <g> <g> <path d="M41.456,33.5c-0.229-0.256-0.601-0.331-0.91-0.184c-2.241,1.076-4.751,1.681-7.403,1.681 c-10.012,0-16.245-7.538-17.037-15.628L5.018,14.421c-1.303,2.725-2.032,5.771-2.032,8.983c0,11.518,9.335,20.853,20.851,20.853 c7.47,0,14.017-3.93,17.699-9.833C41.716,34.133,41.683,33.756,41.456,33.5z"/> <path d="M23.206,10.561c1.407-2.323,3.423-3.755,5.328-4.635c-0.059-0.317-0.099-0.642-0.099-0.976 c0-1.299,0.474-2.478,1.231-3.417C22.502-1.904,14.229,1.125,8.988,3.921l12.952,5.777C22.417,9.913,22.843,10.209,23.206,10.561z "/> <path d="M3.854,11.672l14.349,6.401c0.309,0.138,0.637,0.209,0.952,0.209c0.162,0,0.32-0.019,0.471-0.057 c0.445-0.109,0.786-0.377,0.948-0.741l1.681-3.767c0.338-0.759-0.175-1.725-1.146-2.157L6.762,5.16 c-0.31-0.139-0.639-0.209-0.955-0.209c-0.16,0-0.318,0.019-0.468,0.056C4.893,5.117,4.553,5.384,4.39,5.748l-1.68,3.768 C2.371,10.272,2.882,11.24,3.854,11.672z"/> <circle cx="33.912" cy="4.951" r="3.438"/> <path d="M34.858,14.464c-0.168-0.372-0.539-0.611-0.947-0.611s-0.778,0.239-0.947,0.611l-1.417,3.13l-3.414,0.381 c-0.406,0.045-0.748,0.324-0.874,0.712c-0.126,0.388-0.014,0.814,0.288,1.089l2.539,2.316l-0.693,3.365 c-0.083,0.399,0.077,0.812,0.408,1.052c0.33,0.24,0.771,0.265,1.126,0.063l2.985-1.698l2.986,1.698 c0.355,0.201,0.795,0.178,1.126-0.063c0.33-0.239,0.489-0.651,0.407-1.052l-0.692-3.365l2.538-2.316 c0.303-0.274,0.415-0.701,0.288-1.089c-0.126-0.388-0.468-0.667-0.874-0.712l-3.415-0.381L34.858,14.464z"/> </g> </g> </g>

</svg>