<svg xmlns="http://www.w3.org/2000/svg" width="24" height="24" viewBox="0 0 24 24">
    <g fill="#D4D4D4" fill-rule="evenodd">
        <path d="M3 24a3 3 0 0 1-3-3V3a3 3 0 0 1 3-3h18a3 3 0 0 1 3 3v18a3 3 0 0 1-3 3H3zm6-7h5.07c1.78 0 2.718-1.2 2.718-2.699 0-1.259-.799-2.293-1.793-2.458.882-.196 1.611-1.035 1.611-2.294 0-1.334-.911-2.549-2.69-2.549H9v10z"/>
        <path d="M14.757 14.001c0 .721-.448 1.155-1.205 1.155h-2.563v-2.325h2.563c.785 0 1.205.541 1.205 1.17zm-.182-4.077c0 .629-.421 1.078-1.092 1.078h-2.494V8.829h2.494c.671 0 1.092.464 1.092 1.095z"/>
    </g>
</svg>
