<svg xmlns="http://www.w3.org/2000/svg" width="24" height="24" viewBox="0 0 24 24">
    <g fill="none" fill-rule="evenodd">
        <path stroke="#D4D4D4" d="M3 23.5h18a2.5 2.5 0 0 0 2.5-2.5V3A2.5 2.5 0 0 0 21 .5H3A2.5 2.5 0 0 0 .5 3v18A2.5 2.5 0 0 0 3 23.5z"/>
        <path fill="#D4D4D4" d="M14.757 14.001c0-.629-.42-1.17-1.205-1.17h-2.563v2.325h2.563c.757 0 1.205-.434 1.205-1.155zm-.182-4.077c0-.631-.421-1.095-1.092-1.095h-2.494v2.173h2.494c.671 0 1.092-.449 1.092-1.078zM9 17V7h4.916c1.779 0 2.69 1.215 2.69 2.549 0 1.259-.729 2.098-1.611 2.294.994.165 1.793 1.199 1.793 2.458C16.788 15.8 15.85 17 14.07 17H9z"/>
    </g>
</svg>
