<svg xmlns="http://www.w3.org/2000/svg" width="24" height="24" viewBox="0 0 24 24">
    <g fill="none" fill-rule="evenodd">
        <path stroke="#D4D4D4" d="M3 23.5h18a2.5 2.5 0 0 0 2.5-2.5V3A2.5 2.5 0 0 0 21 .5H3A2.5 2.5 0 0 0 .5 3v18A2.5 2.5 0 0 0 3 23.5z"/>
        <path fill="#D4D4D4" d="M7 11.833C7 8.877 9.24 7 11.973 7c1.945 0 3.164.98 3.865 2.087l-1.652.896a2.646 2.646 0 0 0-2.213-1.218c-1.696 0-2.928 1.302-2.928 3.068 0 1.765 1.232 3.067 2.928 3.067.826 0 1.609-.364 1.988-.714v-1.121h-2.465v-1.737h4.453v3.586c-.951 1.065-2.283 1.765-3.976 1.765C9.24 16.679 7 14.774 7 11.833"/>
    </g>
</svg>
