<svg xmlns="http://www.w3.org/2000/svg" width="24" height="24" viewBox="0 0 24 24">
    <path fill="#D4D4D4" fill-rule="evenodd" d="M3 24a3 3 0 0 1-3-3V3a3 3 0 0 1 3-3h18a3 3 0 0 1 3 3v18a3 3 0 0 1-3 3H3zm4-12.167c0 2.941 2.24 4.846 4.973 4.846 1.693 0 3.025-.7 3.976-1.765v-3.586h-4.453v1.737h2.465v1.121c-.379.35-1.162.714-1.988.714-1.696 0-2.928-1.302-2.928-3.067 0-1.766 1.232-3.068 2.928-3.068.994 0 1.793.56 2.213 1.218l1.652-.896C15.137 7.98 13.918 7 11.973 7 9.24 7 7 8.877 7 11.833z"/>
</svg>
