<svg xmlns="http://www.w3.org/2000/svg" width="24" height="24" viewBox="0 0 24 24">
    <g fill="none" fill-rule="evenodd">
        <path stroke="#D4D4D4" d="M3 23.5h18a2.5 2.5 0 0 0 2.5-2.5V3A2.5 2.5 0 0 0 21 .5H3A2.5 2.5 0 0 0 .5 3v18A2.5 2.5 0 0 0 3 23.5z"/>
        <path fill="#D4D4D4" d="M13.477 10.012c0-.785-.603-1.261-1.4-1.261H9.989v2.522h2.088c.797 0 1.4-.477 1.4-1.261zm.24 6.988l-2.271-3.976H9.989V17H8V7h4.371c1.947 0 3.137 1.275 3.137 3.012 0 1.652-1.037 2.535-2.045 2.773L16 17h-2.283z"/>
    </g>
</svg>
