<svg xmlns="http://www.w3.org/2000/svg" width="16" height="16" viewBox="0 0 16 16">
    <g fill="none" fill-rule="evenodd">
        <path fill="#FF4600" d="M13.095 4.319a6.997 6.997 0 0 0-2.522-.306L14.586 0C15.366 0 16 .633 16 1.414l-2.905 2.905zM4.32 13.095L1.414 16C.634 16 0 15.367 0 14.586l4.013-4.013a6.997 6.997 0 0 0 .306 2.522zM7.515 0L0 7.515v2.828L10.343 0zM0 2v1.272L3.272 0H2a2 2 0 0 0-2 2z"/>
        <circle cx="11" cy="11" r="5" fill="#F5A623"/>
        <path fill="#000" d="M10.277 11.137a.63.63 0 0 0 .606.488h.234c.28 0 .553-.225.606-.488l.28-1.402C12.139 9.053 11.695 8.5 11 8.5c-.69 0-1.141.544-1.003 1.235l.28 1.402z"/>
        <circle cx="11" cy="12.875" r="1" fill="#000"/>
    </g>
</svg>
