<svg width="16" height="16" viewBox="0 0 16 16" fill="none" xmlns="http://www.w3.org/2000/svg">
<g id="attachment_icon">
<path id="Union" d="M8.24863 3.19958C8.42996 2.88591 8.53373 2.52177 8.53373 2.1334C8.53373 0.955157 7.57859 0 6.40037 0C5.22214 0 4.267 0.955157 4.267 2.1334C4.267 2.52177 4.37077 2.88591 4.5521 3.19958H2.13337C0.955141 3.19958 0 4.15474 0 5.33299V6.82733C0 7.23809 0.465415 7.51164 0.874545 7.47513C0.937809 7.46949 1.00187 7.46661 1.0666 7.46661C2.24483 7.46661 3.19997 8.42176 3.19997 9.60001C3.19997 10.7783 2.24483 11.7334 1.0666 11.7334C1.00187 11.7334 0.93781 11.7305 0.874546 11.7249C0.465416 11.6884 0 11.9619 0 12.3727V13.8666C0 15.0448 0.955142 16 2.13337 16H3.62765C4.03832 16 4.31183 15.5348 4.27541 15.1257C4.26978 15.0626 4.26691 14.9986 4.26691 14.934C4.26691 13.7558 5.22205 12.8006 6.40028 12.8006C7.57851 12.8006 8.53365 13.7558 8.53365 14.934C8.53365 14.9986 8.53078 15.0626 8.52515 15.1257C8.48873 15.5348 8.76224 16 9.17291 16H10.6668C11.8451 16 12.8002 15.0448 12.8002 13.8666V11.4479C13.1139 11.6294 13.4782 11.7332 13.8666 11.7332C15.0449 11.7332 16 10.778 16 9.59979C16 8.42155 15.0449 7.46639 13.8666 7.46639C13.4782 7.46639 13.1139 7.57022 12.8002 7.75165V5.33299C12.8002 4.15474 11.8451 3.19958 10.6668 3.19958H8.24863Z" fill="white"/>
</g>
</svg>
