<svg width="16" height="16" viewBox="0 0 16 16" fill="none" xmlns="http://www.w3.org/2000/svg">
<g clip-path="url(#clip0_210_31)">
<path fill-rule="evenodd" clip-rule="evenodd" d="M6.659 0.678701L6.65105 3.87047L3.86064 3.86352L4.96472 6.02466C4.34801 6.13354 3.73752 6.37482 3.20895 6.90338C2.9249 7.18744 2.70184 7.5123 2.50743 7.79544L2.49567 7.81259C2.28973 8.11246 2.11244 8.36795 1.89645 8.58395C1.38394 9.09647 0.736694 9.32404 0 9.38193V5.21912C0.02742 5.21237 0.0552521 5.20471 0.0831604 5.19598C0.13916 5.1785 0.224319 5.1665 0.358215 5.15732C0.384404 5.15553 0.414376 5.15379 0.44678 5.15191L0.450455 5.1517L0.450474 5.1517C0.553543 5.14575 0.680868 5.1384 0.7883 5.12408C0.809143 5.12131 0.830048 5.11862 0.851028 5.11603C0.90152 5.10976 0.952407 5.10397 1.0037 5.09813L1.00381 5.09812L1.01538 5.0968C1.42188 5.05057 1.85385 5.00143 2.31601 4.72958C2.70456 4.50101 2.93861 4.12541 3.09531 3.87394L3.09537 3.87384L3.11971 3.83481L3.14406 3.7962C3.25262 3.62561 3.37546 3.47479 3.51682 3.31342C3.55704 3.26749 3.60066 3.21866 3.64648 3.16739C3.75281 3.0484 3.87007 2.91714 3.98073 2.78189C4.02802 2.72409 4.07858 2.67255 4.14571 2.60419L4.14639 2.60345C4.16966 2.57974 4.19478 2.55414 4.22241 2.5256C4.31833 2.42651 4.44012 2.2955 4.53775 2.13571C4.54709 2.12042 4.58542 2.07874 4.72282 1.98773C4.73941 1.97675 4.75896 1.96414 4.78072 1.95016L4.78076 1.95014C4.88896 1.88053 5.05154 1.77593 5.1732 1.65878C5.2706 1.565 5.38249 1.483 5.51807 1.39355C5.55683 1.368 5.60204 1.33903 5.65059 1.30792L5.65259 1.30664L5.6582 1.30307C5.75815 1.23914 5.87131 1.16675 5.97076 1.09711C6.19578 0.939582 6.4375 0.784291 6.659 0.678701ZM9.33342 0L9.32377 3.87712L10.8739 3.88098C10.8866 3.79636 10.8995 3.71319 10.9126 3.6322C10.9602 3.33739 10.9831 3.03955 11.0079 2.71721L11.0079 2.71719L11.0079 2.7171L11.0082 2.71344L11.0119 2.66479C11.0377 2.3298 11.0669 1.96912 11.1331 1.60501C11.2396 1.01886 11.4256 0.48468 11.7346 0H9.33342ZM11.7919 4.56174L12.1423 3.88414L11.8852 3.8835C11.8901 3.85261 11.895 3.82191 11.8999 3.79141C11.9543 3.45432 11.9801 3.1181 12.0041 2.8053L12.0041 2.80519V2.80517L12.0044 2.80121L12.009 2.74155C12.035 2.40329 12.0611 2.09073 12.1169 1.78387C12.2463 1.0723 12.5024 0.517212 12.9785 0.0410461C12.9924 0.0271606 13.0071 0.0134583 13.0225 0H14C15.1046 0 16 0.895416 16 2V6.65631L15.988 6.66803L15.9842 6.67173L15.9841 6.67184C15.9495 6.70541 15.9179 6.73612 15.891 6.76144C15.7596 6.88486 15.6732 6.9483 15.6122 6.97446C15.4206 7.05655 15.2492 7.18103 15.124 7.27319L15.0796 7.30594C15.0236 7.34726 14.9752 7.38297 14.9309 7.41397C14.8811 7.44882 14.8365 7.47772 14.7919 7.50201C14.7339 7.53369 14.678 7.56458 14.6249 7.59393L14.6244 7.59419C14.401 7.71752 14.2132 7.8212 13.9918 7.91345C13.7074 8.03195 13.3968 8.12033 13.0607 8.20547C12.9732 8.22766 12.8823 8.24993 12.7897 8.27265L12.7809 8.27481C12.5335 8.33551 12.2737 8.39926 12.0282 8.47198C11.5698 8.60779 11.0916 8.90851 10.699 9.25778C10.3085 9.60516 9.94717 10.0501 9.77699 10.5159C9.57565 11.067 9.41028 11.5623 9.55495 12.2856C9.64236 12.7227 9.87465 13.3149 10.381 13.6371C11.0224 14.0453 11.6622 14.6851 11.9933 15.3265C12.103 15.5391 12.211 15.7315 12.3136 15.9143L12.3153 15.9174L12.3616 16H8.73756C8.6515 15.4705 8.49077 14.9123 8.24863 14.3988C7.88138 13.6201 7.29292 12.8765 6.4216 12.5581C5.28305 12.1421 4.22908 12 3.02777 12C2.96504 12 2.89862 11.999 2.8292 11.998L2.81914 11.9978C2.46663 11.9924 2.03851 11.9859 1.62547 12.0921C1.24277 12.1906 0.846207 12.25 0.46875 12.25C0.314529 12.25 0.16037 12.2429 0 12.2331V10.3843C0.931839 10.3238 1.85419 10.0404 2.60355 9.29105C2.89067 9.00394 3.11525 8.67688 3.31055 8.39246L3.32001 8.37869C3.52626 8.07834 3.70232 7.82425 3.91605 7.6105C4.33356 7.193 4.83521 7.02815 5.44683 6.96833L7.98142 11.9296L10.904 6.27846C10.9493 6.24829 10.9939 6.21675 11.0376 6.18381C11.3608 5.94 11.7118 5.55661 11.7488 5.02051C11.759 4.87299 11.7738 4.71853 11.7919 4.56174ZM15.7168 8.07855C15.8451 7.98413 15.9297 7.92752 16 7.89627V14C16 15.1046 15.1046 16 14 16H13.4962C13.381 15.7714 13.257 15.5498 13.1401 15.3409C13.0469 15.1743 12.9582 15.0156 12.8819 14.8679C12.4527 14.0363 11.6737 13.2744 10.9178 12.7935C10.7506 12.687 10.6017 12.4203 10.5355 12.0894C10.448 11.6519 10.5262 11.3791 10.7162 10.8591C10.8089 10.6054 11.0418 10.2912 11.3637 10.0049C11.6834 9.72043 12.0355 9.51279 12.3123 9.43079C12.3688 9.41403 12.4255 9.39798 12.4825 9.38239C12.6482 9.33714 12.8167 9.29579 12.9931 9.2525L12.995 9.25204L13.0041 9.24985L13.0078 9.24895C13.1046 9.22515 13.2038 9.20078 13.3062 9.17487C13.6535 9.08691 14.022 8.98419 14.3764 8.83655C14.6537 8.721 14.8987 8.58546 15.1259 8.4597L15.1264 8.45944C15.1753 8.43237 15.2234 8.40576 15.2708 8.37991C15.4198 8.29861 15.5637 8.19201 15.6739 8.1103L15.674 8.11027L15.674 8.11026L15.674 8.11024L15.674 8.11021L15.6743 8.11002L15.7168 8.07855ZM7.34416 14.8253C7.52042 15.1991 7.64546 15.6066 7.72189 16H2C0.895432 16 0 15.1046 0 14V13.2348C0.151703 13.2435 0.309082 13.25 0.46875 13.25C0.946976 13.25 1.42847 13.1753 1.87453 13.0606C2.14582 12.9908 2.41117 12.9939 2.75494 12.9979L2.75513 12.9979L2.76405 12.998C2.84699 12.999 2.93452 13 3.02777 13C4.1391 13 5.07266 13.1299 6.0784 13.4974C6.60643 13.6903 7.03639 14.1727 7.34416 14.8253ZM5.81946 0H2C0.895432 0 0 0.895416 0 2V4.19135C0.105103 4.17377 0.20575 4.16544 0.289963 4.15967C0.341934 4.1561 0.387512 4.15347 0.428726 4.15112L0.433044 4.15085L0.433535 4.15082C0.520686 4.14579 0.588338 4.14189 0.656143 4.13287C0.764984 4.11835 0.861664 4.10669 0.948959 4.09619L0.949168 4.09616C1.33888 4.04921 1.5419 4.02475 1.80899 3.86765C1.97635 3.76919 2.08133 3.60402 2.27071 3.30606L2.2708 3.30591L2.30038 3.25934C2.44911 3.02563 2.61034 2.83063 2.76457 2.65451C2.8154 2.59649 2.86363 2.54251 2.91043 2.49014L2.91844 2.48117C2.97624 2.41653 3.03206 2.3541 3.08763 2.28995C3.12711 2.24438 3.16656 2.19781 3.20677 2.14865C3.28592 2.05194 3.37985 1.95642 3.45334 1.88174L3.45512 1.87991C3.47275 1.86203 3.48917 1.84531 3.50391 1.83008C3.5925 1.73856 3.64807 1.67383 3.68446 1.61429C3.82228 1.38876 4.03864 1.24142 4.17061 1.15402C4.21257 1.12622 4.24899 1.10251 4.28113 1.08163C4.37831 1.0184 4.43465 0.98172 4.47957 0.938446C4.64168 0.782349 4.81215 0.661285 4.96732 0.558899C5.00812 0.531952 5.04587 0.507538 5.08162 0.484619L5.14954 0.441223L5.15183 0.439764C5.23594 0.386114 5.3121 0.337534 5.39729 0.277893C5.52335 0.189636 5.66693 0.0928955 5.81946 0Z" fill="white"/>
<rect x="8.44936" y="7.87989" width="0.917657" height="10.4102" transform="rotate(-179.857 8.44936 7.87989)" fill="white"/>
<path d="M8.00352 8.93592L6.21902 5.01685L9.80751 5.02578L8.00352 8.93592Z" fill="white"/>
</g>
<defs>
<clipPath id="clip0_210_31">
<rect width="16" height="16" fill="white"/>
</clipPath>
</defs>
</svg>
