<svg width="16" height="16" viewBox="0 0 16 16" fill="none" xmlns="http://www.w3.org/2000/svg">
<path d="M3 2V7H4V2L3.5 1L3 2Z" fill="white"/>
<path d="M2 10C1.44771 10 1 10.4477 1 11V13C1 14.1046 1.89543 15 3 15H4C5.10457 15 6 14.1046 6 13V11C6 10.4477 5.55229 10 5 10V9H5.5C5.78 9 6 8.78 6 8.5C6 8.22 5.78 8 5.5 8H1.5C1.22 8 1 8.22 1 8.5C1 8.78 1.22 9 1.5 9H2V10Z" fill="white"/>
<path fill-rule="evenodd" clip-rule="evenodd" d="M14.71 3.52999L13.54 1.49999C13.37 1.20999 13.08 1.02999 12.75 1.00999V4.24999C12.75 4.66 12.41 4.99999 12 4.99999H11C10.59 4.99999 10.25 4.66 10.25 4.24999V1.00999C9.92003 1.03999 9.63004 1.21999 9.46002 1.49999L8.29002 3.52999C8.11003 3.84 8.11003 4.21999 8.29002 4.53999L9.46002 6.56999C9.5658 6.75214 9.72336 6.89287 9.90836 6.97796L9.69009 13.97C9.67009 14.53 10.1201 15 10.6801 15H12.3101C12.8701 15 13.3201 14.53 13.3101 13.97L13.0918 6.9779C13.2768 6.89281 13.4343 6.75211 13.54 6.56999L14.71 4.53999C14.89 4.21999 14.89 3.84 14.71 3.52999ZM10.7501 13.25C10.7501 13.66 11.0901 14 11.5001 14C11.9101 14 12.2501 13.66 12.2501 13.25C12.2501 12.84 11.9101 12.5 11.5001 12.5C11.0901 12.5 10.7501 12.84 10.7501 13.25Z" fill="white"/>
</svg>
