<?xml version="1.0" encoding="UTF-8"?>
<svg width="16px" height="16px" viewBox="0 0 16 16" version="1.1" xmlns="http://www.w3.org/2000/svg" xmlns:xlink="http://www.w3.org/1999/xlink">
    <!-- Generator: Sketch 58 (84663) - https://sketch.com -->
    <title>numbers</title>
    <desc>Created with Sketch.</desc>
    <g id="Icons-(read-only)" stroke="none" stroke-width="1" fill="none" fill-rule="evenodd">
        <g id="Icons-for-Toolbar" transform="translate(-273.000000, -1320.000000)" fill="#FFFFFF">
            <g id="Icons/16x16/Tank/Numbers" transform="translate(273.000000, 1320.000000)">
                <g id="icon_numbers">
                    <path d="M2,0 C0.895432,0 0,0.895447 0,2 L0,14 C0,15.1046 0.895432,16 2,16 L14,16 C15.1046,16 16,15.1046 16,14 L16,2 C16,0.895447 15.1046,0 14,0 L2,0 Z M7.17334,4.28467 C6.71631,3.85303 6.09424,3.63721 5.30713,3.63721 C4.9432,3.63721 4.60254,3.69647 4.28516,3.81494 C3.972,3.93341 3.69905,4.09845 3.46631,4.31006 C3.23356,4.52167 3.04948,4.77557 2.91406,5.07178 C2.78288,5.36798 2.71729,5.70233 2.71729,6.07471 L2.71729,10.7339 C2.71729,11.1063 2.78288,11.4427 2.91406,11.7432 C3.04948,12.0436 3.23356,12.3039 3.46631,12.5239 C3.69905,12.744 3.972,12.9153 4.28516,13.0381 C4.60254,13.1608 4.9432,13.2222 5.30713,13.2222 C6.09424,13.2222 6.71631,12.9979 7.17334,12.5493 C7.63037,12.0965 7.85889,11.4914 7.85889,10.7339 L7.85889,6.07471 C7.85889,5.31299 7.63037,4.71631 7.17334,4.28467 Z M4.65332,5.2876 C4.83952,5.13947 5.05745,5.06543 5.30713,5.06543 C5.53988,5.06543 5.74723,5.13739 5.9292,5.28125 C6.11116,5.4209 6.20215,5.63037 6.20215,5.90967 L6.20215,10.8354 C6.20215,11.1147 6.11116,11.3454 5.9292,11.5273 C5.74723,11.7093 5.53988,11.8003 5.30713,11.8003 C5.05745,11.8003 4.83952,11.7178 4.65332,11.5527 C4.46712,11.3877 4.37402,11.1655 4.37402,10.8862 L4.37402,5.92236 C4.37402,5.64307 4.46712,5.43146 4.65332,5.2876 Z M12.6831,13 L12.6831,3.6499 L11.4834,3.6499 C11.3776,4.09424 11.1322,4.47296 10.7471,4.78613 C10.362,5.0993 9.82454,5.25586 9.13477,5.25586 L8.9126,5.25586 L8.9126,6.51904 L11.0264,6.51904 L11.0264,13 L12.6831,13 Z" id="Shape"></path>
                </g>
            </g>
        </g>
    </g>
</svg>