<svg width="16" height="16" viewBox="0 0 16 16" fill="none" xmlns="http://www.w3.org/2000/svg">
<g clip-path="url(#clip0)">
<path fill-rule="evenodd" clip-rule="evenodd" d="M6.13835 0.321801C6.2817 0.112647 6.49858 0 6.75992 0C6.95992 0 7.17992 0.07 7.41992 0.2L10.9899 2.26C13.7599 3.86 16.0099 7.75 15.9999 10.94C15.992 12.723 15.287 13.9085 14.1796 14.3295C12.7796 15.0395 4.88992 15.73 1.46992 16C0.729921 16.05 0.179921 15.33 0.449921 14.64C1.93728 10.7769 5.83607 0.675895 6.13835 0.321801ZM10.4899 3.12L6.99992 1V9.22C6.99992 9.79 7.38992 10.59 7.88992 10.88L11.4499 12.94C12.0799 13.31 12.6899 13.5 13.2099 13.5C14.8199 13.5 14.9999 11.71 14.9999 10.94C15.0099 8.12 12.9399 4.54 10.4899 3.12Z" fill="white"/>
</g>
<defs>
<clipPath id="clip0">
<rect width="16" height="16" fill="white"/>
</clipPath>
</defs>
</svg>
