<svg width="16" height="16" viewBox="0 0 16 16" fill="none" xmlns="http://www.w3.org/2000/svg">
<g id="stat_tracker_icon">
<g id="Subtract">
<path d="M4 7.98804C4 7.69349 4.23878 7.45471 4.53333 7.45471C4.82789 7.45471 5.06667 7.69349 5.06667 7.98804V10.194C5.06667 10.4886 4.82789 10.7273 4.53333 10.7273C4.23878 10.7273 4 10.4886 4 10.194V7.98804Z" fill="white"/>
<path d="M8.5 7.45471C8.22386 7.45471 8 7.67856 8 7.95471V9.95471C8 10.2308 8.22386 10.4547 8.5 10.4547C8.77614 10.4547 9 10.2308 9 9.95471V7.95471C9 7.67856 8.77614 7.45471 8.5 7.45471Z" fill="white"/>
<path d="M12 7.98804C12 7.69349 12.2388 7.45471 12.5333 7.45471C12.8279 7.45471 13.0667 7.69349 13.0667 7.98804V10.194C13.0667 10.4886 12.8279 10.7273 12.5333 10.7273C12.2388 10.7273 12 10.4886 12 10.194V7.98804Z" fill="white"/>
<path fill-rule="evenodd" clip-rule="evenodd" d="M5.13333 2H3V3.04979C1.8839 3.11861 1 4.04559 1 5.17902V11.9124C1 13.0906 1.95513 14.0457 3.13333 14.0457H13.8667C15.0449 14.0457 16 13.0906 16 11.9124V5.17902C16 4.00081 15.0449 3.04569 13.8667 3.04569V2H11.7333V3.04569H5.13333V2ZM14.0437 3.29973H11.5382L13.0296 3.84871L14.0437 3.29973ZM4.06667 6.36389C3.47756 6.36389 3 6.84145 3 7.43055V10.2972C3 10.8863 3.47756 11.3639 4.06667 11.3639H4.93333C5.52244 11.3639 6 10.8863 6 10.2972V7.43055C6 6.84145 5.52244 6.36389 4.93333 6.36389H4.06667ZM7 7.43055C7 6.84145 7.47756 6.36389 8.06667 6.36389H8.93333C9.52244 6.36389 10 6.84145 10 7.43055V10.2972C10 10.8863 9.52244 11.3639 8.93333 11.3639H8.06667C7.47756 11.3639 7 10.8863 7 10.2972V7.43055ZM11 7.43055C11 6.84145 11.4776 6.36389 12.0667 6.36389H12.9333C13.5224 6.36389 14 6.84145 14 7.43055V10.2972C14 10.8863 13.5224 11.3639 12.9333 11.3639H12.0667C11.4776 11.3639 11 10.8863 11 10.2972V7.43055ZM5.50547 3.29973H3L4.01407 3.84871L5.50547 3.29973Z" fill="white"/>
</g>
</g>
</svg>
