<!DOCTYPE svg PUBLIC "-//W3C//DTD SVG 1.1//EN" "http://www.w3.org/Graphics/SVG/1.1/DTD/svg11.dtd">

<svg height="256px" width="256px" version="1.1" id="Layer_1" xmlns="http://www.w3.org/2000/svg" xmlns:xlink="http://www.w3.org/1999/xlink" viewBox="0 0 512 512" xml:space="preserve" fill="#000000">

<g id="bgCarrier" stroke-width="0"/>

<g id="tracerCarrier" stroke-linecap="round" stroke-linejoin="round"/>

<g id="iconCarrier"> <path style="fill:#959595;" d="M307.487,122.411c6.607-0.712,13.32-1.077,20.117-1.077C429.443,121.334,512,203.356,512,304.534 s-82.556,183.201-184.397,183.201c-13.818,0-25.89-0.535-38.84-3.399L307.487,122.411z"/> <path style="fill:#cccccc;" d="M226.257,484.238c-12.262,2.553-28.835,4.701-41.861,4.701C82.556,488.939,0,406.918,0,305.739 s82.556-183.202,184.397-183.202c12.235,0,24.193,1.184,35.762,3.443L226.257,484.238z"/> <path style="fill:#ffffff;" d="M305.612,126.757c79.105,20.625,137.459,92.148,137.459,177.212 c0,101.18-82.556,183.201-184.397,183.201S74.277,405.149,74.277,303.97c0-86.659,60.561-159.265,141.928-178.319L305.612,126.757z"/> <path style="fill:#77DD00;" d="M263.743,81.022c15.815-0.145,32.688-11.474,33.461-27.076c0.804-16.229-11.788-30.036-28.122-30.835 C239.8,21.678,214.535,51.3,212.653,89.272c-0.353,7.11,0.14,14.01,1.366,20.538c0.489,2.61,0.922,5.231,1.245,7.868 c0.497,4.074,2.812,11.54,12.924,13.919c14.155,3.331,39.717,3.607,47.249,3.607c27.101,0,41.349-13.599,41.349-13.599 C291.62,120.371,270.946,103.557,263.743,81.022z"/> <g> <path style="fill:#57555C;" d="M176.987,239.816c-23.427,16.156-30.816,16.395-37.034,23.828c-3.845,4.597-7.636,9.264-6.89,14.929 c1.288,9.768,15.045,14.666,16.65,15.215c19.015,6.507,38.608-7.036,44.21-10.909c20.47-14.149,26.846-34.656,29.283-42.488 c0.778-2.505,4.674-15.531,1.722-30.718c-0.789-4.062-2.179-10.836-6.029-11.77c-1.905-0.462-4.351,0.521-9.474,6.029 C197.492,216.761,193.637,228.333,176.987,239.816z"/> <path style="fill:#57555C;" d="M340.317,239.816c23.427,16.156,30.816,16.395,37.034,23.828c3.845,4.597,7.636,9.264,6.89,14.929 c-1.288,9.768-15.045,14.666-16.65,15.215c-19.015,6.507-38.608-7.036-44.21-10.909c-20.47-14.149-26.846-34.656-29.283-42.488 c-0.778-2.505-4.674-15.531-1.723-30.718c0.789-4.062,2.18-10.836,6.029-11.77c1.905-0.462,4.351,0.521,9.474,6.029 C319.811,216.761,323.667,228.333,340.317,239.816z"/> <path style="fill:#57555C;" d="M229.873,355.927c-0.388-15.824,3.9-22.156,5.358-24.115c9.686-13.013,27.692-11.942,28.708-11.866 c11.629,0.873,23.803,7.839,28.325,18.756c1.433,3.459,2.47,8.213-2.296,28.708c-6.119,26.31-9.133,24.099-11.865,40.191 c-1.783,10.508-3.895,31.462-10.335,39.043c-0.761,0.894-2.875,3.385-6.126,3.827c-3.413,0.466-6.266-1.577-7.273-2.296 c-8.066-5.772-8.256-29.073-13.397-50.526C236.05,377.099,230.311,373.786,229.873,355.927z"/> </g> <g> <path style="fill:#3B3A3C;" d="M235.23,360c9.689-13.014,27.693-11.942,28.707-11.867c10.625,0.797,21.422,6.859,26.702,16.196 c3.914-17.764,2.978-22.36,1.624-25.628c-4.521-10.916-16.698-17.883-28.327-18.757c-1.013-0.075-19.019-1.148-28.707,11.866 c-1.457,1.959-5.747,8.291-5.358,24.116c0.126,5.207,0.742,9.128,1.62,12.651C232.764,363.829,234.412,361.098,235.23,360z"/> <path style="fill:#3B3A3C;" d="M218.899,197.902c-1.905-0.462-4.353,0.521-9.475,6.029c-11.933,12.829-15.788,24.401-32.436,35.885 c-23.431,16.156-30.816,16.396-37.034,23.828c-3.846,4.596-7.639,9.264-6.892,14.929c0.498,3.78,2.873,6.811,5.679,9.164 c0.407-0.499,0.796-1.006,1.212-1.503c6.218-7.432,13.603-7.671,37.034-23.828c16.648-11.484,20.503-23.056,32.436-35.885 c5.122-5.507,7.57-6.491,9.475-6.029c3.851,0.934,5.24,7.708,6.028,11.771c0.022,0.11,0.014,0.205,0.037,0.315 c1.01-5.752,1.742-13.772-0.037-22.903C224.139,205.611,222.75,198.836,218.899,197.902z"/> <path style="fill:#3B3A3C;" d="M298.404,197.965c1.905-0.462,4.353,0.521,9.475,6.029c11.933,12.829,15.788,24.401,32.436,35.885 c23.431,16.156,30.816,16.396,37.034,23.828c3.846,4.596,7.639,9.264,6.892,14.929c-0.498,3.78-2.873,6.811-5.679,9.164 c-0.407-0.499-0.796-1.006-1.212-1.503c-6.218-7.432-13.603-7.671-37.034-23.828c-16.648-11.484-20.503-23.056-32.436-35.885 c-5.122-5.507-7.57-6.491-9.475-6.029c-3.851,0.934-5.24,7.708-6.028,11.771c-0.022,0.11-0.014,0.205-0.037,0.315 c-1.01-5.752-1.742-13.772,0.037-22.903C293.164,205.674,294.554,198.9,298.404,197.965z"/> </g> </g>

</svg>