<!DOCTYPE svg PUBLIC "-//W3C//DTD SVG 1.1//EN" "http://www.w3.org/Graphics/SVG/1.1/DTD/svg11.dtd">

<svg height="256px" width="256px" version="1.1" id="Layer_1" xmlns="http://www.w3.org/2000/svg" xmlns:xlink="http://www.w3.org/1999/xlink" viewBox="0 0 512 512" xml:space="preserve" fill="#000000">

<g id="bgCarrier" stroke-width="0"/>

<g id="tracerCarrier" stroke-linecap="round" stroke-linejoin="round"/>

<g id="iconCarrier"> <g> <path style="fill:#E0E0E3;" d="M141.26,185.496c-4.859,0-8.797-3.939-8.797-8.798v-34.797c0-4.859,3.939-8.798,8.797-8.798 c4.859,0,8.798,3.939,8.798,8.798v34.797C150.057,181.557,146.118,185.496,141.26,185.496z"/> <path style="fill:#E0E0E3;" d="M370.739,308.312c-4.86,0-8.797-3.939-8.797-8.797v-34.797c0-4.859,3.938-8.797,8.797-8.797 s8.797,3.939,8.797,8.797v34.797C379.537,304.373,375.599,308.312,370.739,308.312z"/> </g> <g> <path style="fill:#FFD92D;" d="M194.265,88.896c0,29.273-23.731,53.005-53.005,53.005c-29.273,0-53.005-23.732-53.005-53.005 C88.254,59.621,141.26,0,141.26,0S194.265,59.621,194.265,88.896z"/> <path style="fill:#FFD92D;" d="M423.746,211.712c0,29.273-23.732,53.005-53.005,53.005c-29.276,0-53.005-23.732-53.005-53.005 c0-29.276,53.005-88.896,53.005-88.896S423.746,182.438,423.746,211.712z"/> </g> <g> <path style="fill:#FFA81E;" d="M171.862,111.3c0,16.901-13.701,30.602-30.602,30.602c-16.901,0-30.602-13.702-30.602-30.602 c0-16.902,30.602-51.322,30.602-51.322S171.862,94.398,171.862,111.3z"/> <path style="fill:#FFA81E;" d="M401.342,234.117c0,16.901-13.702,30.602-30.602,30.602c-16.902,0-30.602-13.702-30.602-30.602 c0-16.902,30.602-51.322,30.602-51.322S401.342,217.215,401.342,234.117z"/> </g> <g> <path style="fill:#956EC4;" d="M420.33,512H321.15c-11.812,0-21.385-9.575-21.385-21.384V320.9 c0-11.811,9.573-21.384,21.385-21.384h99.181c11.81,0,21.383,9.573,21.383,21.384v169.717C441.713,502.425,432.14,512,420.33,512z"/> <path style="fill:#956EC4;" d="M190.848,512H91.668c-11.81,0-21.383-9.575-21.383-21.384V198.083 c0-11.81,9.573-21.384,21.383-21.384h99.181c11.811,0,21.384,9.574,21.384,21.384v292.532C212.233,502.425,202.66,512,190.848,512z "/> </g> <path style="fill:#6D2C92;" d="M190.847,176.698h-21.383v335.301h21.383c11.811,0,21.386-9.575,21.386-21.384V198.084 C212.233,186.273,202.658,176.698,190.847,176.698z"/> <path style="fill:#B77FD8;" d="M70.285,198.077V490.62c0.006,11.807,9.576,21.379,21.383,21.379h3.106V176.698h-3.106 C79.861,176.698,70.29,186.273,70.285,198.077z"/> <path style="fill:#6D2C92;" d="M420.332,299.515h-21.388v208.407c0,1.397,0.164,2.737,0.32,4.078h21.068 c11.81,0,21.383-9.575,21.383-21.384V320.9C441.715,309.086,432.142,299.515,420.332,299.515z"/> <path style="fill:#B77FD8;" d="M299.767,320.889v169.738C299.774,502.431,309.342,512,321.15,512h3.104V299.515h-3.104 C309.341,299.515,299.774,309.083,299.767,320.889z"/> <g> <polygon style="fill:#FFD92D;" points="212.233,250.168 70.285,290.867 70.285,253.954 212.233,213.254 "/> <polygon style="fill:#FFD92D;" points="212.233,357.12 70.285,397.819 70.285,360.905 212.233,320.205 "/> <path style="fill:#FFD92D;" d="M212.233,464.07L81.077,501.678c-5.406,1.55-10.792-2.507-10.792-8.131v-25.69l141.948-40.7V464.07z "/> <polygon style="fill:#FFD92D;" points="441.713,357.12 299.765,397.819 299.765,360.905 441.713,320.205 "/> <path style="fill:#FFD92D;" d="M441.713,464.07L312.16,501.218c-6.209,1.781-12.395-2.88-12.395-9.339v-24.022l141.948-40.7 L441.713,464.07L441.713,464.07z"/> </g> </g>

</svg>