<!DOCTYPE svg PUBLIC "-//W3C//DTD SVG 1.1//EN" "http://www.w3.org/Graphics/SVG/1.1/DTD/svg11.dtd">

<svg height="256px" width="256px" version="1.1" id="Layer_1" xmlns="http://www.w3.org/2000/svg" xmlns:xlink="http://www.w3.org/1999/xlink" viewBox="0 0 512.001 512.001" xml:space="preserve" fill="#000000">

<g id="bgCarrier" stroke-width="0"/>

<g id="tracerCarrier" stroke-linecap="round" stroke-linejoin="round"/>

<g id="iconCarrier"> <path style="fill:#E0E0E3;" d="M403.702,124.355c-20.767,0.001-37.599,16.948-37.6,37.855l-219.069,1.147 c0.002-21.541-17.342-39.001-38.736-39.001c-21.393-0.001-38.737,17.461-38.736,38.999c-0.001,10.745,4.318,20.47,11.3,27.523 c0,0-10.258,7.927-10.162,23.622c0.126,20.907,16.833,37.855,37.598,37.858c20.767-0.001,37.6-16.948,37.6-37.855l219.069-1.147 c-0.001,21.542,17.342,39.001,38.737,39.002s38.737-17.461,38.736-38.999c0.002-10.71-4.297-20.398-11.235-27.446 c0,0,10.568-9.623,10.097-23.698C440.598,141.317,424.466,124.357,403.702,124.355z"/> <g> <path style="fill:#C7C5CC;" d="M403.702,124.355c-20.767,0.001-37.599,16.948-37.6,37.856l-219.069,1.147 c0.002-21.541-17.344-39.001-38.736-39.001c-21.393,0-38.737,17.461-38.736,38.999c0,3.847,0.561,7.558,1.592,11.067 c4.739-16.146,19.571-27.93,37.144-27.93c12.967,0,24.447,6.415,31.477,16.265c10.073,14.11,26.205,22.637,43.542,22.546 l147.046-0.769c17.142-0.09,32.904-8.686,42.994-22.544c6.842-9.396,17.886-15.498,30.345-15.499 c16.946,0.001,30.803,11.3,35.708,26.813c1.214-3.23,2.027-6.967,1.888-11.092C440.598,141.318,424.466,124.357,403.702,124.355z"/> <polygon style="fill:#C7C5CC;" points="299.482,213.691 299.09,162.54 279.302,162.668 280.232,213.834 "/> </g> <path style="fill:#E0E0E3;" d="M320.001,473.264c-0.001-20.767-16.948-37.599-37.855-37.6l-1.147-358.193 C302.54,77.474,320,60.129,320,38.736C320,17.342,302.539-0.001,281,0c-10.745-0.001-20.47,4.318-27.523,11.3 c0,0-8.453-10.162-23.622-10.162c-20.907,0-37.855,16.833-37.858,37.598c0.001,20.767,16.948,37.6,37.855,37.6l1.147,358.193 c-21.542-0.001-39.001,17.342-39.002,38.737c-0.001,21.395,17.461,38.737,38.999,38.736c10.71,0.002,20.398-4.297,27.446-11.235 c0,0,8.62,10.097,23.698,10.097C303.051,510.862,320,494.029,320.001,473.264z"/> <g> <path style="fill:#C7C5CC;" d="M231.001,462.006l-0.144-27.477c-21.474,0.076-38.857,17.387-38.858,38.733 c0,4.84,0.901,9.469,2.533,13.74C200.115,472.394,214.332,462.006,231.001,462.006z"/> <path style="fill:#C7C5CC;" d="M282.145,463.144c16.023,0,29.71,9.892,35.235,23.859c1.685-4.257,2.62-8.888,2.62-13.739 c-0.001-20.767-16.948-37.599-37.855-37.6L282.145,463.144L282.145,463.144z"/> <path style="fill:#C7C5CC;" d="M281,0c-10.745-0.001-20.47,4.318-27.523,11.3c0,0-8.453-10.162-23.622-10.162 c-20.907,0-37.855,16.833-37.858,37.598c0,4.852,0.935,9.483,2.62,13.74c5.526-13.966,19.214-23.859,35.236-23.859 c15.169,0,23.622,10.162,23.622,10.162c7.052-6.982,16.777-11.302,27.523-11.3c16.666-0.001,30.883,10.387,36.467,24.996 c1.632-4.271,2.533-8.9,2.533-13.74C320,17.342,302.539-0.001,281,0z"/> </g> </g>

</svg>