<!DOCTYPE svg PUBLIC "-//W3C//DTD SVG 1.1//EN" "http://www.w3.org/Graphics/SVG/1.1/DTD/svg11.dtd">

<svg height="256px" width="256px" version="1.1" id="Layer_1" xmlns="http://www.w3.org/2000/svg" xmlns:xlink="http://www.w3.org/1999/xlink" viewBox="0 0 512 512" xml:space="preserve" fill="#000000">

<g id="bgCarrier" stroke-width="0"/>

<g id="tracerCarrier" stroke-linecap="round" stroke-linejoin="round"/>

<g id="iconCarrier"> <path style="fill:#F8F8F8;" d="M256.001,0h-0.005C143.988,0,53.186,90.802,53.186,202.812v23.891 c0,51.829,25.421,97.616,64.366,125.928v20.918c0,76.464,61.987,138.451,138.451,138.451l0,0 c76.464,0,138.451-61.987,138.451-138.451V352.63c38.944-28.31,64.361-74.098,64.361-125.927v-23.891 C458.813,90.802,368.011,0,256.001,0z"/> <path style="fill:#E1E1E4;" d="M394.452,373.211v-20.971c38.944-28.38,64.361-74.279,64.361-126.235v-23.949 c0-78.24-44.096-146.145-108.725-180.137C322.347,7.903,291.006,0,257.82,0C157.859,0,74.603,71.62,56.288,166.461 c-2.037,11.558-3.103,23.451-3.103,35.595v23.949c0,51.956,25.421,97.855,64.366,126.236v20.969 c0,76.652,61.987,138.789,138.451,138.789l0,0C332.467,512,394.452,449.862,394.452,373.211z M239.763,392.542 c-96.587,0-174.883-78.488-174.883-175.31c0-96.821,78.295-175.309,174.883-175.309c96.586,0,174.883,78.488,174.883,175.309 C414.645,314.054,336.349,392.542,239.763,392.542z"/> <g> <path style="fill:#57555C;" d="M170.688,195.561c-25.112,17.319-33.031,17.573-39.696,25.541c-4.12,4.928-8.186,9.931-7.385,16.002 c1.38,10.47,16.126,15.72,17.848,16.31c20.382,6.974,41.383-7.542,47.389-11.694c21.942-15.167,28.777-37.147,31.388-45.543 c0.834-2.684,5.01-16.648,1.847-32.926c-0.847-4.355-2.337-11.615-6.462-12.617c-2.04-0.496-4.664,0.559-10.155,6.462 C192.668,170.849,188.537,183.252,170.688,195.561z"/> <path style="fill:#57555C;" d="M345.764,195.561c25.112,17.319,33.031,17.573,39.696,25.541c4.12,4.928,8.186,9.931,7.385,16.002 c-1.38,10.47-16.126,15.72-17.848,16.31c-20.382,6.974-41.383-7.542-47.389-11.694c-21.942-15.167-28.777-37.147-31.388-45.543 c-0.834-2.684-5.01-16.648-1.847-32.926c0.847-4.355,2.337-11.615,6.462-12.617c2.04-0.496,4.664,0.559,10.155,6.462 C323.783,170.849,327.916,183.252,345.764,195.561z"/> <path style="fill:#57555C;" d="M227.378,320.435c-0.416-16.962,4.181-23.749,5.744-25.849 c10.384-13.949,29.683-12.802,30.772-12.719c12.465,0.935,25.515,8.404,30.361,20.104c1.536,3.708,2.646,8.803-2.461,30.772 c-6.559,28.201-9.789,25.833-12.718,43.082c-1.911,11.263-4.176,33.725-11.078,41.85c-0.815,0.958-3.082,3.627-6.565,4.102 c-3.659,0.499-6.717-1.691-7.797-2.461c-8.645-6.186-8.85-31.163-14.359-54.158C233.999,343.13,227.847,339.578,227.378,320.435z"/> </g> <g> <path style="fill:#3B3A3C;" d="M233.12,324.388c10.385-13.95,29.684-12.802,30.772-12.721c11.389,0.855,22.962,7.352,28.622,17.36 c4.196-19.041,3.191-23.967,1.741-27.47c-4.845-11.702-17.898-19.169-30.364-20.106c-1.086-0.081-20.387-1.229-30.772,12.719 c-1.561,2.1-6.161,8.887-5.742,25.849c0.136,5.581,0.796,9.784,1.736,13.561C230.476,328.491,232.242,325.564,233.12,324.388z"/> <path style="fill:#3B3A3C;" d="M215.615,150.634c-2.042-0.496-4.666,0.559-10.157,6.462c-12.79,13.752-16.923,26.156-34.768,38.465 c-25.115,17.319-33.031,17.575-39.696,25.541c-4.123,4.926-8.187,9.93-7.387,16.002c0.534,4.052,3.08,7.301,6.087,9.822 c0.436-0.535,0.854-1.079,1.3-1.611c6.665-7.967,14.58-8.223,39.696-25.541c17.845-12.309,21.977-24.712,34.768-38.465 c5.49-5.903,8.115-6.958,10.157-6.462c4.128,1.001,5.617,8.263,6.461,12.617c0.024,0.118,0.014,0.219,0.039,0.337 c1.081-6.164,1.867-14.762-0.039-24.55C221.232,158.897,219.743,151.635,215.615,150.634z"/> <path style="fill:#3B3A3C;" d="M300.803,150.78c2.042-0.496,4.666,0.559,10.157,6.462c12.79,13.752,16.923,26.156,34.768,38.465 c25.115,17.319,33.031,17.575,39.696,25.541c4.123,4.926,8.187,9.93,7.388,16.002c-0.534,4.052-3.08,7.301-6.087,9.822 c-0.436-0.535-0.854-1.079-1.3-1.611c-6.665-7.967-14.581-8.223-39.696-25.541c-17.845-12.309-21.977-24.712-34.768-38.465 c-5.49-5.903-8.115-6.958-10.157-6.462c-4.128,1.001-5.617,8.263-6.461,12.617c-0.024,0.118-0.014,0.219-0.039,0.337 c-1.081-6.164-1.867-14.762,0.039-24.55C295.186,159.042,296.675,151.781,300.803,150.78z"/> </g> </g>

</svg>