<svg width="21" height="18" viewBox="0 0 21 18" fill="none" xmlns="http://www.w3.org/2000/svg">
<path fill-rule="evenodd" clip-rule="evenodd" d="M16 2C16 1.44772 16.4477 1 17 1V1C17.5523 1 18 1.44772 18 2V16C18 16.5523 17.5523 17 17 17V17C16.4477 17 16 16.5523 16 16V2ZM4 3C4 2.44772 4.44772 2 5 2V2C5.55228 2 6 2.44772 6 3V15C6 15.5523 5.55228 16 5 16V16C4.44772 16 4 15.5523 4 15V3ZM1 5C1 4.44772 1.44772 4 2 4V4C2.55228 4 3 4.44772 3 5V13C3 13.5523 2.55228 14 2 14V14C1.44772 14 1 13.5523 1 13V5ZM9 6C9 5.44772 8.55228 5 8 5V5C7.44772 5 7 5.44772 7 6V12C7 12.5523 7.44772 13 8 13V13C8.55228 13 9 12.5523 9 12V6ZM10 4C10 3.44772 10.4477 3 11 3V3C11.5523 3 12 3.44772 12 4V14C12 14.5523 11.5523 15 11 15V15C10.4477 15 10 14.5523 10 14V4ZM15 8C15 7.44772 14.5523 7 14 7V7C13.4477 7 13 7.44772 13 8V10C13 10.5523 13.4477 11 14 11V11C14.5523 11 15 10.5523 15 10V8ZM21 6C21 5.44772 20.5523 5 20 5V5C19.4477 5 19 5.44772 19 6V12C19 12.5523 19.4477 13 20 13V13C20.5523 13 21 12.5523 21 12V6Z" fill="black"/>
</svg>
