<svg width="16" height="16" viewBox="0 0 16 16" fill="none" xmlns="http://www.w3.org/2000/svg">
<path opacity="0.5" fill-rule="evenodd" clip-rule="evenodd" d="M15 3H1V13H15V3ZM1 2C0.447715 2 0 2.44772 0 3V13C0 13.5523 0.447715 14 1 14H15C15.5523 14 16 13.5523 16 13V3C16 2.44772 15.5523 2 15 2H1Z" fill="white"/>
<path fill-rule="evenodd" clip-rule="evenodd" d="M14 5.5C14 6.32843 13.3284 7 12.5 7C11.8477 7 11.2927 6.58366 11.0861 6.00222C10.065 6.00724 9.17006 6.0236 8.3855 6.07697C7.25394 6.15395 6.40089 6.3057 5.76186 6.58354C5.14353 6.85238 4.72282 7.23996 4.44334 7.82493C4.27879 8.16933 4.15808 8.59303 4.08453 9.11816C4.62255 9.34603 5 9.87893 5 10.5C5 11.3284 4.32843 12 3.5 12C2.67157 12 2 11.3284 2 10.5C2 9.8161 2.45769 9.23909 3.08348 9.05858C3.16651 8.42037 3.31453 7.86792 3.54104 7.39382C3.93343 6.57254 4.54397 6.02262 5.36314 5.66647C6.16161 5.3193 7.15231 5.15855 8.31763 5.07928C9.13102 5.02395 10.0533 5.00723 11.0846 5.00218C11.2899 4.41845 11.8461 4 12.5 4C13.3284 4 14 4.67157 14 5.5Z" fill="white"/>
</svg>
