<svg xmlns="http://www.w3.org/2000/svg" xmlns:xlink="http://www.w3.org/1999/xlink" width="16" height="16" viewBox="0 0 16 16">
    <defs>
        <path id="a" d="M0 0h16v16H0z"/>
    </defs>
    <g fill="none" fill-rule="evenodd">
        <mask id="b" fill="#fff">
            <use xlink:href="#a"/>
        </mask>
        <path fill="#D8D8D8" d="M8.66 8.806c0 .227.113.467.254.595l-1.545.454a1.808 1.808 0 0 1-.468-1.247c0-1.687 2.07-1.886 2.07-2.864 0-.44-.326-.807-1.105-.807-.71 0-1.305.354-1.744.878l-1.148-1.29c.75-.878 1.884-1.374 3.104-1.374 1.828 0 2.947.922 2.947 2.239 0 2.069-2.366 2.226-2.366 3.416m-.658 4.448a1.366 1.366 0 0 1-1.35-1.35c0-.734.616-1.35 1.35-1.35.731 0 1.348.616 1.348 1.35 0 .734-.617 1.35-1.348 1.35M8.001 0a8 8 0 1 0 0 16A8 8 0 0 0 8 0" mask="url(#b)"/>
    </g>
</svg>
