<svg width="17" height="17" viewBox="0 0 17 17" fill="none" xmlns="http://www.w3.org/2000/svg">
<path opacity="0.5" fill-rule="evenodd" clip-rule="evenodd" d="M2 1.5C1.72386 1.5 1.5 1.72386 1.5 2V5C1.5 5.27614 1.27614 5.5 1 5.5C0.723858 5.5 0.5 5.27614 0.5 5V2C0.5 1.17157 1.17157 0.5 2 0.5H5C5.27614 0.5 5.5 0.723858 5.5 1C5.5 1.27614 5.27614 1.5 5 1.5H2ZM11.5 1C11.5 0.723858 11.7239 0.5 12 0.5H15C15.8284 0.5 16.5 1.17157 16.5 2V5C16.5 5.27614 16.2761 5.5 16 5.5C15.7239 5.5 15.5 5.27614 15.5 5V2C15.5 1.72386 15.2761 1.5 15 1.5H12C11.7239 1.5 11.5 1.27614 11.5 1ZM1 11.5C1.27614 11.5 1.5 11.7239 1.5 12V15C1.5 15.2761 1.72386 15.5 2 15.5H5C5.27614 15.5 5.5 15.7239 5.5 16C5.5 16.2761 5.27614 16.5 5 16.5H2C1.17157 16.5 0.5 15.8284 0.5 15V12C0.5 11.7239 0.723858 11.5 1 11.5ZM16 11.5C16.2761 11.5 16.5 11.7239 16.5 12V15C16.5 15.8284 15.8284 16.5 15 16.5H12C11.7239 16.5 11.5 16.2761 11.5 16C11.5 15.7239 11.7239 15.5 12 15.5H15C15.2761 15.5 15.5 15.2761 15.5 15V12C15.5 11.7239 15.7239 11.5 16 11.5Z" fill="white"/>
<path fill-rule="evenodd" clip-rule="evenodd" d="M3.5 4.5C2.94772 4.5 2.5 4.94772 2.5 5.5V6.5C2.5 7.05228 2.94772 7.5 3.5 7.5H10.5C11.0523 7.5 11.5 7.05228 11.5 6.5V5.5C11.5 4.94772 11.0523 4.5 10.5 4.5H3.5ZM6.5 9.5C5.94772 9.5 5.5 9.94771 5.5 10.5V11.5C5.5 12.0523 5.94772 12.5 6.5 12.5H13.5C14.0523 12.5 14.5 12.0523 14.5 11.5V10.5C14.5 9.94772 14.0523 9.5 13.5 9.5H6.5Z" fill="white"/>
</svg>
