<svg width="16" height="16" viewBox="0 0 16 16" fill="none" xmlns="http://www.w3.org/2000/svg">
<path d="M14.4317 2.41825L16.0001 2.00001L15.3646 0.729073C15.1523 0.304604 14.671 0.0877466 14.2125 0.210031L12.8061 0.585061L14.4317 2.41825Z" fill="#D9D9D9"/>
<path d="M10.8725 1.10072L8.8964 1.62766L10.5219 3.46085L12.4981 2.93388L10.8725 1.10072Z" fill="#D9D9D9"/>
<path d="M6.96274 2.14329L8.58832 3.97648L6.52732 4.5261L4.90174 2.69291L6.96274 2.14329Z" fill="#D9D9D9"/>
<path d="M4.59369 5.04173L2.96811 3.20854L1.18549 3.68391C0.57352 3.84708 0.265476 4.53086 0.54874 5.09736L1.00006 6.00001V15C1.00006 15.5523 1.44778 16 2.00006 16H15.0001C15.5523 16 16.0001 15.5523 16.0001 15V6.00001H15.0001L13.5001 9.00001H11.5001L13.0001 6.00001H11.0001L9.50006 9.00001H7.50006L9.00006 6.00001H7.00006L5.50006 9.00001H3.50006L5.00006 6.00001L4.59369 5.04173Z" fill="#D9D9D9"/>
</svg>
