<svg width="16" height="16" viewBox="0 0 16 16" fill="none" xmlns="http://www.w3.org/2000/svg">
<path opacity="0.2" d="M2 1H12V8H14V15H2V1Z" fill="white"/>
<path fill-rule="evenodd" clip-rule="evenodd" d="M2 0C0.895431 0 0 0.895431 0 2V14C0 15.1046 0.895431 16 2 16H14C15.1046 16 16 15.1046 16 14V4.001L12 0H2ZM4 5C4 5.55228 4.44772 6 5 6H10C10.5523 6 11 5.55228 11 5V2C11 1.44772 10.5523 1 10 1H5C4.44772 1 4 1.44772 4 2V5ZM3 14C3 14.5523 3.44772 15 4 15H12.001C12.5533 15 13.001 14.5523 13.001 14V9C13.001 8.44771 12.5533 8 12.001 8H4C3.44771 8 3 8.44772 3 9V14ZM9 4.5C9 4.77614 9.22386 5 9.5 5C9.77614 5 10 4.77614 10 4.5V2.499C10 2.22286 9.77614 1.999 9.5 1.999C9.22386 1.999 9 2.22286 9 2.499V4.5Z" fill="#D9D9D9"/>
</svg>
