<svg width="16" height="16" viewBox="0 0 16 16" fill="none" xmlns="http://www.w3.org/2000/svg">
<path d="M4 2.5H12C12.8284 2.5 13.5 3.17157 13.5 4V12C13.5 12.8284 12.8284 13.5 12 13.5H4C3.17157 13.5 2.5 12.8284 2.5 12V4C2.5 3.17157 3.17157 2.5 4 2.5Z" fill="#4A4A4A" stroke="#ADADAD"/>
<path fill-rule="evenodd" clip-rule="evenodd" d="M4.70539 4.70539C5.18067 4.23011 5.82275 4 6.5 4H11C11.5523 4 12 4.44772 12 5C12 5.55228 11.5523 6 11 6H6.5C6.27725 6 6.16933 6.06989 6.11961 6.11961C6.06989 6.16933 6 6.27725 6 6.5C6 6.72275 6.06989 6.83067 6.11961 6.88039C6.16933 6.93011 6.27725 7 6.5 7H9.5C10.1772 7 10.8193 7.23011 11.2946 7.70539C11.7699 8.18067 12 8.82275 12 9.5C12 10.1772 11.7699 10.8193 11.2946 11.2946C10.8193 11.7699 10.1772 12 9.5 12H5C4.44772 12 4 11.5523 4 11C4 10.4477 4.44772 10 5 10H9.5C9.72275 10 9.83067 9.93011 9.88039 9.88039C9.93011 9.83067 10 9.72275 10 9.5C10 9.27725 9.93011 9.16933 9.88039 9.11961C9.83067 9.06989 9.72275 9 9.5 9H6.5C5.82275 9 5.18067 8.76989 4.70539 8.29461C4.23011 7.81933 4 7.17725 4 6.5C4 5.82275 4.23011 5.18067 4.70539 4.70539Z" fill="white"/>
</svg>
