<svg width="16" height="16" viewBox="0 0 16 16" fill="none" xmlns="http://www.w3.org/2000/svg">
<path fill-rule="evenodd" clip-rule="evenodd" d="M4 2C2.89543 2 2 2.89543 2 4V12C2 13.1046 2.89543 14 4 14H12C13.1046 14 14 13.1046 14 12V4C14 2.89543 13.1046 2 12 2H4ZM6.5 4C5.82275 4 5.18067 4.23011 4.70539 4.70539C4.23011 5.18067 4 5.82275 4 6.5C4 7.17725 4.23011 7.81933 4.70539 8.29461C5.18067 8.76989 5.82275 9 6.5 9H9.5C9.72275 9 9.83067 9.06989 9.88039 9.11961C9.93011 9.16933 10 9.27725 10 9.5C10 9.72275 9.93011 9.83067 9.88039 9.88039C9.83067 9.93011 9.72275 10 9.5 10H5C4.44772 10 4 10.4477 4 11C4 11.5523 4.44772 12 5 12H9.5C10.1772 12 10.8193 11.7699 11.2946 11.2946C11.7699 10.8193 12 10.1772 12 9.5C12 8.82275 11.7699 8.18067 11.2946 7.70539C10.8193 7.23011 10.1772 7 9.5 7H6.5C6.27725 7 6.16933 6.93011 6.11961 6.88039C6.06989 6.83067 6 6.72275 6 6.5C6 6.27725 6.06989 6.16933 6.11961 6.11961C6.16933 6.06989 6.27725 6 6.5 6H11C11.5523 6 12 5.55228 12 5C12 4.44772 11.5523 4 11 4H6.5Z" fill="white"/>
</svg>
